<?xml version="1.0" encoding="UTF-8" standalone="no"?>
<!DOCTYPE svg PUBLIC "-//W3C//DTD SVG 1.1//EN"
 "http://www.w3.org/Graphics/SVG/1.1/DTD/svg11.dtd">
<!-- Generated by graphviz version 14.0.5 (20251129.0259)
 -->
<!-- Title: pamphlet_pipeline Pages: 1 -->
<svg width="576pt" height="719pt"
 viewBox="0.00 0.00 576.00 719.00" xmlns="http://www.w3.org/2000/svg" xmlns:xlink="http://www.w3.org/1999/xlink">
<g id="graph0" class="graph" transform="scale(0.331034 0.331034) rotate(0) translate(4 2169)">
<title>pamphlet_pipeline</title>
<polygon fill="#dddde0" stroke="none" points="-4,4 -4,-2169 1736,-2169 1736,4 -4,4"/>
<g id="clust1" class="cluster">
<title>cluster_training</title>
<polygon fill="#f0f9e8" stroke="black" points="1138,-1680.51 1138,-2156.88 1724,-2156.88 1724,-1680.51 1138,-1680.51"/>
<text xml:space="preserve" text-anchor="middle" x="1431" y="-2107.28" font-family="Figtree" font-size="48.00" fill="#0868ac">Training Phase</text>
</g>
<g id="clust2" class="cluster">
<title>cluster_production</title>
<polygon fill="#f0f9e8" stroke="black" points="8,-813.53 8,-1937.71 1130,-1937.71 1130,-813.53 8,-813.53"/>
<text xml:space="preserve" text-anchor="middle" x="569" y="-1888.11" font-family="Figtree" font-size="48.00" fill="#0868ac">Production Phase</text>
</g>
<g id="clust3" class="cluster">
<title>cluster_digitisation</title>
<polygon fill="#bae4bc" stroke="black" points="16,-1393.69 16,-1862.82 596,-1862.82 596,-1393.69 16,-1393.69"/>
<text xml:space="preserve" text-anchor="middle" x="306" y="-1828.42" font-family="Figtree" font-size="32.00" fill="#0868ac">Digitisation</text>
</g>
<g id="clust4" class="cluster">
<title>cluster_help_digitise</title>
<polygon fill="#eecccc" stroke="black" points="24,-1401.81 24,-1569.04 588,-1569.04 588,-1401.81 24,-1401.81"/>
<text xml:space="preserve" text-anchor="middle" x="306" y="-1534.64" font-family="Figtree" font-size="32.00">Digitisation</text>
</g>
<g id="clust5" class="cluster">
<title>cluster_tei_generation</title>
<polygon fill="#bae4bc" stroke="black" points="604,-1179.04 604,-1672.39 1122,-1672.39 1122,-1179.04 604,-1179.04"/>
<text xml:space="preserve" text-anchor="middle" x="863" y="-1637.99" font-family="Figtree" font-size="32.00" fill="#0868ac">TEI Generation</text>
</g>
<g id="clust6" class="cluster">
<title>cluster_normalisation</title>
<polygon fill="#bae4bc" stroke="black" points="538,-821.66 538,-1170.92 1047,-1170.92 1047,-821.66 538,-821.66"/>
<text xml:space="preserve" text-anchor="middle" x="792.5" y="-1136.52" font-family="Figtree" font-size="32.00" fill="#0868ac">Linguistic Normalisation / Mapping</text>
</g>
<g id="clust7" class="cluster">
<title>cluster_analysis</title>
<polygon fill="#f0f9e8" stroke="black" points="523,-8.12 523,-805.41 1643,-805.41 1643,-8.12 523,-8.12"/>
<text xml:space="preserve" text-anchor="middle" x="1083" y="-771.01" font-family="Figtree" font-size="32.00" fill="#0868ac">Analysis Phase</text>
</g>
<g id="clust8" class="cluster">
<title>cluster_computation</title>
<polygon fill="#bae4bc" stroke="black" points="531,-345.59 531,-749.56 1635,-749.56 1635,-345.59 531,-345.59"/>
<text xml:space="preserve" text-anchor="middle" x="1083" y="-715.16" font-family="Figtree" font-size="32.00" fill="#0868ac">Computational Processes</text>
</g>
<g id="clust9" class="cluster">
<title>cluster_outputs</title>
<polygon fill="#bae4bc" stroke="black" points="753,-16.25 753,-337.46 1337,-337.46 1337,-16.25 753,-16.25"/>
<text xml:space="preserve" text-anchor="middle" x="1045" y="-303.06" font-family="Figtree" font-size="32.00" fill="#0868ac">In Sum</text>
</g>
<!-- MacBERTh_Fine_Tuned -->
<g id="node1" class="node">
<title>MacBERTh_Fine_Tuned</title>
<path fill="#43a2ca" stroke="black" d="M1114.25,-1586C1114.25,-1601.31 1001.64,-1613.75 863,-1613.75 724.36,-1613.75 611.75,-1601.31 611.75,-1586 611.75,-1586 611.75,-1336.25 611.75,-1336.25 611.75,-1320.94 724.36,-1308.5 863,-1308.5 1001.64,-1308.5 1114.25,-1320.94 1114.25,-1336.25 1114.25,-1336.25 1114.25,-1586 1114.25,-1586"/>
<path fill="none" stroke="black" d="M1114.25,-1586C1114.25,-1570.69 1001.64,-1558.25 863,-1558.25 724.36,-1558.25 611.75,-1570.69 611.75,-1586"/>
<text xml:space="preserve" text-anchor="middle" x="863" y="-1469.72" font-family="Figtree" font-size="32.00" fill="white">Our MacBERTh</text>
<text xml:space="preserve" text-anchor="middle" x="863" y="-1430.72" font-family="Figtree" font-size="32.00" fill="white">Fine&#45;tuned</text>
</g>
<!-- MacBERTh_OCR2TEI -->
<g id="node9" class="node">
<title>MacBERTh_OCR2TEI</title>
<path fill="#43a2ca" stroke="black" d="M1033.6,-1278.88C1033.6,-1283.87 939.21,-1287.93 823,-1287.93 706.79,-1287.93 612.4,-1283.87 612.4,-1278.88 612.4,-1278.88 612.4,-1197.37 612.4,-1197.37 612.4,-1192.37 706.79,-1188.31 823,-1188.31 939.21,-1188.31 1033.6,-1192.37 1033.6,-1197.37 1033.6,-1197.37 1033.6,-1278.88 1033.6,-1278.88"/>
<path fill="none" stroke="black" d="M1033.6,-1278.88C1033.6,-1273.88 939.21,-1269.82 823,-1269.82 706.79,-1269.82 612.4,-1273.88 612.4,-1278.88"/>
<text xml:space="preserve" text-anchor="middle" x="823" y="-1229.95" font-family="Figtree" font-size="24.00" fill="white">MacBERTh produced TEI from OCR</text>
</g>
<!-- MacBERTh_Fine_Tuned&#45;&gt;MacBERTh_OCR2TEI -->
<g id="edge8" class="edge">
<title>MacBERTh_Fine_Tuned&#45;&gt;MacBERTh_OCR2TEI</title>
<path fill="none" stroke="black" d="M835.49,-1308.14C834.96,-1305.23 834.45,-1302.36 833.94,-1299.55"/>
<polygon fill="black" stroke="black" points="837.4,-1299.02 832.17,-1289.81 830.51,-1300.27 837.4,-1299.02"/>
</g>
<!-- MacBERTh_analysis -->
<g id="node13" class="node">
<title>MacBERTh_analysis</title>
<polygon fill="#7bccc4" stroke="black" points="1399.42,-686.77 972.43,-686.77 862.58,-599.47 1289.57,-599.47 1399.42,-686.77"/>
<text xml:space="preserve" text-anchor="middle" x="1131" y="-634.95" font-family="Figtree" font-size="24.00">MacBERTh for Analysis</text>
</g>
<!-- MacBERTh_Fine_Tuned&#45;&gt;MacBERTh_analysis -->
<g id="edge12" class="edge">
<title>MacBERTh_Fine_Tuned&#45;&gt;MacBERTh_analysis</title>
<path fill="none" stroke="black" d="M1018.09,-1310.09C1032.02,-1296.62 1041,-1287.93 1041,-1287.93 1041,-1287.93 1091,-1064.12 1091,-1064.12 1091,-1064.12 1091,-1064.12 1091,-970.12 1091,-970.12 1112.95,-791.23 1124.33,-698.48"/>
<polygon fill="black" stroke="black" points="1127.8,-698.93 1125.55,-688.58 1120.85,-698.08 1127.8,-698.93"/>
</g>
<!-- EEBO_images -->
<g id="node2" class="node">
<title>EEBO_images</title>
<polygon fill="#7bccc4" stroke="black" points="1486.47,-2080.97 1149.53,-2080.97 1145.53,-2076.97 1145.53,-1979.27 1482.47,-1979.27 1486.47,-1983.27 1486.47,-2080.97"/>
<polyline fill="none" stroke="black" points="1482.47,-2076.97 1145.53,-2076.97"/>
<polyline fill="none" stroke="black" points="1482.47,-2076.97 1482.47,-1979.27"/>
<polyline fill="none" stroke="black" points="1482.47,-2076.97 1486.47,-2080.97"/>
<text xml:space="preserve" text-anchor="middle" x="1316" y="-2036.57" font-family="Figtree" font-size="24.00">EEBO Page Images</text>
<text xml:space="preserve" text-anchor="middle" x="1316" y="-2007.32" font-family="Figtree" font-size="24.00">(public domain / via Oxford)</text>
</g>
<!-- merge_training -->
<g id="node5" class="node">
<title>merge_training</title>
<ellipse fill="#7bccc4" stroke="black" cx="1393" cy="-1953.12" rx="7.2" ry="7.2"/>
</g>
<!-- EEBO_images&#45;&gt;merge_training -->
<g id="edge1" class="edge">
<title>EEBO_images&#45;&gt;merge_training</title>
<path fill="none" stroke="black" d="M1367.36,-1979.1C1372.07,-1974.51 1376.48,-1970.21 1380.28,-1966.51"/>
<polygon fill="black" stroke="black" points="1382.45,-1969.28 1387.18,-1959.8 1377.57,-1964.27 1382.45,-1969.28"/>
</g>
<!-- EEBO_TEI_XML -->
<g id="node3" class="node">
<title>EEBO_TEI_XML</title>
<polygon fill="#7bccc4" stroke="black" points="1716,-2080.97 1713,-2084.97 1692,-2084.97 1689,-2080.97 1500,-2080.97 1500,-1979.27 1716,-1979.27 1716,-2080.97"/>
<text xml:space="preserve" text-anchor="middle" x="1608" y="-2036.57" font-family="Figtree" font-size="24.00">EEBO&#45;TCP XML</text>
<text xml:space="preserve" text-anchor="middle" x="1608" y="-2007.32" font-family="Figtree" font-size="24.00">Gold standard</text>
</g>
<!-- EEBO_TEI_XML&#45;&gt;merge_training -->
<g id="edge2" class="edge">
<title>EEBO_TEI_XML&#45;&gt;merge_training</title>
<path fill="none" stroke="black" d="M1499.51,-1982.1C1495.4,-1980.31 1493,-1979.27 1493,-1979.27 1493,-1979.27 1439.48,-1965.81 1410.75,-1958.59"/>
<polygon fill="black" stroke="black" points="1411.89,-1955.27 1401.34,-1956.22 1410.19,-1962.05 1411.89,-1955.27"/>
</g>
<!-- MacBERTh_training -->
<g id="node4" class="node">
<title>MacBERTh_training</title>
<polygon fill="#7bccc4" stroke="black" points="1640.42,-1836.02 1246.83,-1836.02 1145.58,-1690.22 1539.17,-1690.22 1640.42,-1836.02"/>
<text xml:space="preserve" text-anchor="middle" x="1393" y="-1769.57" font-family="Figtree" font-size="24.00">Fine&#45;tune MacBERTh</text>
<text xml:space="preserve" text-anchor="middle" x="1393" y="-1740.32" font-family="Figtree" font-size="24.00">on OCR + TEI XML</text>
</g>
<!-- MacBERTh_training&#45;&gt;MacBERTh_Fine_Tuned -->
<g id="edge4" class="edge">
<title>MacBERTh_training&#45;&gt;MacBERTh_Fine_Tuned</title>
<path fill="none" stroke="black" d="M1265.38,-1689.88C1221.49,-1665.04 1170.66,-1636.27 1120.21,-1607.71"/>
<polygon fill="black" stroke="black" points="1122.21,-1604.82 1111.78,-1602.94 1118.76,-1610.91 1122.21,-1604.82"/>
</g>
<!-- merge_training&#45;&gt;MacBERTh_training -->
<g id="edge3" class="edge">
<title>merge_training&#45;&gt;MacBERTh_training</title>
<path fill="none" stroke="black" d="M1393,-1945.43C1393,-1929.44 1393,-1887.39 1393,-1847.81"/>
<polygon fill="black" stroke="black" points="1396.5,-1847.98 1393,-1837.98 1389.5,-1847.98 1396.5,-1847.98"/>
</g>
<!-- Scan_OCR -->
<g id="node6" class="node">
<title>Scan_OCR</title>
<polygon fill="#7bccc4" stroke="black" points="524.65,-1806.77 176.83,-1806.77 87.35,-1719.47 435.17,-1719.47 524.65,-1806.77"/>
<text xml:space="preserve" text-anchor="middle" x="306" y="-1754.95" font-family="Figtree" font-size="24.00">Pamphlet scanned</text>
</g>
<!-- OCR_tool -->
<g id="node8" class="node">
<title>OCR_tool</title>
<polygon fill="#7bccc4" stroke="black" points="579.95,-1497.57 354.05,-1497.57 354.05,-1493.57 350.05,-1493.57 350.05,-1489.57 354.05,-1489.57 354.05,-1432.67 350.05,-1432.67 350.05,-1428.67 354.05,-1428.67 354.05,-1424.67 579.95,-1424.67 579.95,-1497.57"/>
<polyline fill="none" stroke="black" points="354.05,-1493.57 358.05,-1493.57 358.05,-1489.57 354.05,-1489.57"/>
<polyline fill="none" stroke="black" points="354.05,-1432.67 358.05,-1432.67 358.05,-1428.67 354.05,-1428.67"/>
<text xml:space="preserve" text-anchor="middle" x="467" y="-1467.57" font-family="Figtree" font-size="24.00">Kraken / Transkribus</text>
<text xml:space="preserve" text-anchor="middle" x="467" y="-1438.32" font-family="Figtree" font-size="24.00">OCR / HTR</text>
</g>
<!-- Scan_OCR&#45;&gt;OCR_tool -->
<g id="edge6" class="edge">
<title>Scan_OCR&#45;&gt;OCR_tool</title>
<path fill="none" stroke="black" d="M329.07,-1719.14C359.17,-1663.05 411.63,-1565.3 442.45,-1507.87"/>
<polygon fill="black" stroke="black" points="445.4,-1509.78 447.04,-1499.32 439.23,-1506.47 445.4,-1509.78"/>
</g>
<!-- Lincoln_scans -->
<g id="node7" class="node">
<title>Lincoln_scans</title>
<polygon fill="#7bccc4" stroke="black" points="340.35,-1511.97 35.65,-1511.97 31.65,-1507.97 31.65,-1410.27 336.35,-1410.27 340.35,-1414.27 340.35,-1511.97"/>
<polyline fill="none" stroke="black" points="336.35,-1507.97 31.65,-1507.97"/>
<polyline fill="none" stroke="black" points="336.35,-1507.97 336.35,-1410.27"/>
<polyline fill="none" stroke="black" points="336.35,-1507.97 340.35,-1511.97"/>
<text xml:space="preserve" text-anchor="middle" x="186" y="-1467.57" font-family="Figtree" font-size="24.00">Lincoln College/Bodleian</text>
<text xml:space="preserve" text-anchor="middle" x="186" y="-1438.32" font-family="Figtree" font-size="24.00">Scan pamphlets</text>
</g>
<!-- Lincoln_scans&#45;&gt;Scan_OCR -->
<g id="edge5" class="edge">
<title>Lincoln_scans&#45;&gt;Scan_OCR</title>
<path fill="none" stroke="black" d="M206.06,-1512.28C227.82,-1566.68 262.42,-1653.18 284.67,-1708.79"/>
<polygon fill="black" stroke="black" points="281.28,-1709.75 288.24,-1717.74 287.78,-1707.15 281.28,-1709.75"/>
</g>
<!-- OCR_tool&#45;&gt;MacBERTh_OCR2TEI -->
<g id="edge7" class="edge">
<title>OCR_tool&#45;&gt;MacBERTh_OCR2TEI</title>
<path fill="none" stroke="black" d="M498.76,-1424.19C538.38,-1379.35 601,-1308.5 601,-1308.5 601,-1308.5 626.24,-1300.61 659.7,-1290.15"/>
<polygon fill="black" stroke="black" points="660.38,-1293.61 668.88,-1287.28 658.3,-1286.93 660.38,-1293.61"/>
</g>
<!-- EME_to_ME_dict -->
<g id="node10" class="node">
<title>EME_to_ME_dict</title>
<polygon fill="#7bccc4" stroke="black" points="960.73,-1113.97 615.27,-1113.97 615.27,-1109.97 611.27,-1109.97 611.27,-1105.97 615.27,-1105.97 615.27,-1020.27 611.27,-1020.27 611.27,-1016.27 615.27,-1016.27 615.27,-1012.27 960.73,-1012.27 960.73,-1113.97"/>
<polyline fill="none" stroke="black" points="615.27,-1109.97 619.27,-1109.97 619.27,-1105.97 615.27,-1105.97"/>
<polyline fill="none" stroke="black" points="615.27,-1020.27 619.27,-1020.27 619.27,-1016.27 615.27,-1016.27"/>
<text xml:space="preserve" text-anchor="middle" x="788" y="-1069.57" font-family="Figtree" font-size="24.00">Normalisation of EME to ME</text>
<text xml:space="preserve" text-anchor="middle" x="788" y="-1040.32" font-family="Figtree" font-size="24.00">via dictionary/library</text>
</g>
<!-- MacBERTh_OCR2TEI&#45;&gt;EME_to_ME_dict -->
<g id="edge9" class="edge">
<title>MacBERTh_OCR2TEI&#45;&gt;EME_to_ME_dict</title>
<path fill="none" stroke="black" d="M813.06,-1188.01C809.12,-1168.54 804.55,-1145.94 800.4,-1125.42"/>
<polygon fill="black" stroke="black" points="803.86,-1124.85 798.44,-1115.74 797,-1126.24 803.86,-1124.85"/>
</g>
<!-- Tokenizer -->
<g id="node12" class="node">
<title>Tokenizer</title>
<polygon fill="#7bccc4" stroke="black" points="870,-992.95 654,-992.95 654,-988.95 650,-988.95 650,-984.95 654,-984.95 654,-957.3 650,-957.3 650,-953.3 654,-953.3 654,-949.3 870,-949.3 870,-992.95"/>
<polyline fill="none" stroke="black" points="654,-988.95 658,-988.95 658,-984.95 654,-984.95"/>
<polyline fill="none" stroke="black" points="654,-957.3 658,-957.3 658,-953.3 654,-953.3"/>
<text xml:space="preserve" text-anchor="middle" x="762" y="-962.95" font-family="Figtree" font-size="24.00">Tokenizer</text>
</g>
<!-- EME_to_ME_dict&#45;&gt;Tokenizer -->
<g id="edge10" class="edge">
<title>EME_to_ME_dict&#45;&gt;Tokenizer</title>
<path fill="none" stroke="black" d="M773.48,-1011.86C772.7,-1009.18 771.94,-1006.52 771.19,-1003.93"/>
<polygon fill="black" stroke="black" points="774.61,-1003.18 768.48,-994.54 767.89,-1005.12 774.61,-1003.18"/>
</g>
<!-- Normalised -->
<g id="node11" class="node">
<title>Normalised</title>
<path fill="#43a2ca" stroke="black" d="M876.73,-920.88C876.73,-925.87 814.1,-929.93 737,-929.93 659.9,-929.93 597.27,-925.87 597.27,-920.88 597.27,-920.88 597.27,-839.37 597.27,-839.37 597.27,-834.37 659.9,-830.31 737,-830.31 814.1,-830.31 876.73,-834.37 876.73,-839.37 876.73,-839.37 876.73,-920.88 876.73,-920.88"/>
<path fill="none" stroke="black" d="M876.73,-920.88C876.73,-915.88 814.1,-911.82 737,-911.82 659.9,-911.82 597.27,-915.88 597.27,-920.88"/>
<text xml:space="preserve" text-anchor="middle" x="737" y="-871.95" font-family="Figtree" font-size="24.00">Normalised TEI / Texts</text>
</g>
<!-- DB -->
<g id="node14" class="node">
<title>DB</title>
<path fill="#43a2ca" stroke="black" d="M848.35,-683.88C848.35,-688.87 780.51,-692.93 697,-692.93 613.49,-692.93 545.65,-688.87 545.65,-683.88 545.65,-683.88 545.65,-602.37 545.65,-602.37 545.65,-597.37 613.49,-593.31 697,-593.31 780.51,-593.31 848.35,-597.37 848.35,-602.37 848.35,-602.37 848.35,-683.88 848.35,-683.88"/>
<path fill="none" stroke="black" d="M848.35,-683.88C848.35,-678.88 780.51,-674.82 697,-674.82 613.49,-674.82 545.65,-678.88 545.65,-683.88"/>
<text xml:space="preserve" text-anchor="middle" x="697" y="-634.95" font-family="Figtree" font-size="24.00">TEI Database (PostGres)</text>
</g>
<!-- Normalised&#45;&gt;DB -->
<g id="edge13" class="edge">
<title>Normalised&#45;&gt;DB</title>
<path fill="none" stroke="black" d="M728.61,-829.86C722.4,-793.36 713.9,-743.4 707.28,-704.5"/>
<polygon fill="black" stroke="black" points="710.76,-704.08 705.63,-694.81 703.86,-705.26 710.76,-704.08"/>
</g>
<!-- Tokenizer&#45;&gt;Normalised -->
<g id="edge11" class="edge">
<title>Tokenizer&#45;&gt;Normalised</title>
<path fill="none" stroke="black" d="M756.08,-949.03C755.37,-946.51 754.62,-943.85 753.85,-941.11"/>
<polygon fill="black" stroke="black" points="757.26,-940.3 751.18,-931.62 750.52,-942.19 757.26,-940.3"/>
</g>
<!-- Semantic_drift -->
<g id="node17" class="node">
<title>Semantic_drift</title>
<path fill="#43a2ca" stroke="black" d="M1153,-444.88C1153,-449.87 1104.59,-453.93 1045,-453.93 985.41,-453.93 937,-449.87 937,-444.88 937,-444.88 937,-363.37 937,-363.37 937,-358.37 985.41,-354.31 1045,-354.31 1104.59,-354.31 1153,-358.37 1153,-363.37 1153,-363.37 1153,-444.88 1153,-444.88"/>
<path fill="none" stroke="black" d="M1153,-444.88C1153,-439.88 1104.59,-435.82 1045,-435.82 985.41,-435.82 937,-439.88 937,-444.88"/>
<text xml:space="preserve" text-anchor="middle" x="1045" y="-395.95" font-family="Figtree" font-size="24.00">Semantic Drift</text>
</g>
<!-- MacBERTh_analysis&#45;&gt;Semantic_drift -->
<g id="edge14" class="edge">
<title>MacBERTh_analysis&#45;&gt;Semantic_drift</title>
<path fill="none" stroke="black" d="M1122.21,-599.32C1119.4,-585.62 1117,-573.93 1117,-573.93 1117,-573.93 1101,-474.31 1101,-474.31 1101,-474.31 1097.34,-469.8 1091.9,-463.07"/>
<polygon fill="black" stroke="black" points="1094.77,-461.05 1085.75,-455.48 1089.33,-465.45 1094.77,-461.05"/>
</g>
<!-- Network_analysis -->
<g id="node18" class="node">
<title>Network_analysis</title>
<polygon fill="#43a2ca" stroke="black" points="1094.47,-560.35 867.52,-560.35 867.52,-556.35 863.52,-556.35 863.52,-552.35 867.52,-552.35 867.52,-495.9 863.52,-495.9 863.52,-491.9 867.52,-491.9 867.52,-487.9 1094.47,-487.9 1094.47,-560.35"/>
<polyline fill="none" stroke="black" points="867.52,-556.35 871.52,-556.35 871.52,-552.35 867.52,-552.35"/>
<polyline fill="none" stroke="black" points="867.52,-495.9 871.52,-495.9 871.52,-491.9 867.52,-491.9"/>
<text xml:space="preserve" text-anchor="middle" x="981" y="-515.95" font-family="Figtree" font-size="24.00">Network Analysis</text>
</g>
<!-- MacBERTh_analysis&#45;&gt;Network_analysis -->
<g id="edge15" class="edge">
<title>MacBERTh_analysis&#45;&gt;Network_analysis</title>
<path fill="none" stroke="black" d="M1076,-599.22C1062.82,-588.94 1048.75,-577.97 1035.59,-567.7"/>
<polygon fill="black" stroke="black" points="1037.88,-565.05 1027.84,-561.66 1033.57,-570.57 1037.88,-565.05"/>
</g>
<!-- Geo_temporal_mapping -->
<g id="node19" class="node">
<title>Geo_temporal_mapping</title>
<path fill="#43a2ca" stroke="black" d="M1370.22,-564.88C1370.22,-569.87 1314.99,-573.93 1247,-573.93 1179.01,-573.93 1123.78,-569.87 1123.78,-564.88 1123.78,-564.88 1123.78,-483.37 1123.78,-483.37 1123.78,-478.37 1179.01,-474.31 1247,-474.31 1314.99,-474.31 1370.22,-478.37 1370.22,-483.37 1370.22,-483.37 1370.22,-564.88 1370.22,-564.88"/>
<path fill="none" stroke="black" d="M1370.22,-564.88C1370.22,-559.88 1314.99,-555.82 1247,-555.82 1179.01,-555.82 1123.78,-559.88 1123.78,-564.88"/>
<text xml:space="preserve" text-anchor="middle" x="1247" y="-515.95" font-family="Figtree" font-size="24.00">Geo&#45;temporal map</text>
</g>
<!-- MacBERTh_analysis&#45;&gt;Geo_temporal_mapping -->
<g id="edge16" class="edge">
<title>MacBERTh_analysis&#45;&gt;Geo_temporal_mapping</title>
<path fill="none" stroke="black" d="M1173.54,-599.22C1179.05,-593.66 1184.76,-587.9 1190.46,-582.15"/>
<polygon fill="black" stroke="black" points="1192.57,-585 1197.12,-575.43 1187.6,-580.07 1192.57,-585"/>
</g>
<!-- IFI -->
<g id="node15" class="node">
<title>IFI</title>
<path fill="#43a2ca" stroke="black" d="M853.48,-564.88C853.48,-569.87 786.48,-573.93 704,-573.93 621.52,-573.93 554.52,-569.87 554.52,-564.88 554.52,-564.88 554.52,-483.37 554.52,-483.37 554.52,-478.37 621.52,-474.31 704,-474.31 786.48,-474.31 853.48,-478.37 853.48,-483.37 853.48,-483.37 853.48,-564.88 853.48,-564.88"/>
<path fill="none" stroke="black" d="M853.48,-564.88C853.48,-559.88 786.48,-555.82 704,-555.82 621.52,-555.82 554.52,-559.88 554.52,-564.88"/>
<text xml:space="preserve" text-anchor="middle" x="704" y="-515.95" font-family="Figtree" font-size="24.00">Inverse Frequency Index</text>
</g>
<!-- DB&#45;&gt;IFI -->
<g id="edge21" class="edge">
<title>DB&#45;&gt;IFI</title>
<path fill="none" stroke="black" d="M699.95,-592.84C700.09,-590.45 700.24,-588.04 700.38,-585.62"/>
<polygon fill="black" stroke="black" points="703.86,-586.05 700.96,-575.86 696.87,-585.63 703.86,-586.05"/>
</g>
<!-- DB&#45;&gt;Semantic_drift -->
<g id="edge17" class="edge">
<title>DB&#45;&gt;Semantic_drift</title>
<path fill="none" stroke="black" d="M592.3,-594.21C567.45,-582.84 548,-573.93 548,-573.93 548,-573.93 548,-474.31 548,-474.31 548,-474.31 778.16,-442.27 925.23,-421.8"/>
<polygon fill="black" stroke="black" points="925.62,-425.28 935.05,-420.43 924.66,-418.34 925.62,-425.28"/>
</g>
<!-- DB&#45;&gt;Network_analysis -->
<g id="edge18" class="edge">
<title>DB&#45;&gt;Network_analysis</title>
<path fill="none" stroke="black" d="M812.1,-594.7C835.97,-584.87 860.89,-574.6 884.03,-565.07"/>
<polygon fill="black" stroke="black" points="885.22,-568.37 893.13,-561.32 882.55,-561.9 885.22,-568.37"/>
</g>
<!-- IFI&#45;&gt;Semantic_drift -->
<g id="edge19" class="edge">
<title>IFI&#45;&gt;Semantic_drift</title>
<path fill="none" stroke="black" d="M837.3,-476.99C866.46,-466.91 897.13,-456.29 925.7,-446.41"/>
<polygon fill="black" stroke="black" points="926.8,-449.73 935.1,-443.15 924.51,-443.11 926.8,-449.73"/>
</g>
<!-- RAG_index -->
<g id="node16" class="node">
<title>RAG_index</title>
<path fill="#43a2ca" stroke="black" d="M1627.35,-564.88C1627.35,-569.87 1572.96,-573.93 1506,-573.93 1439.04,-573.93 1384.65,-569.87 1384.65,-564.88 1384.65,-564.88 1384.65,-483.37 1384.65,-483.37 1384.65,-478.37 1439.04,-474.31 1506,-474.31 1572.96,-474.31 1627.35,-478.37 1627.35,-483.37 1627.35,-483.37 1627.35,-564.88 1627.35,-564.88"/>
<path fill="none" stroke="black" d="M1627.35,-564.88C1627.35,-559.88 1572.96,-555.82 1506,-555.82 1439.04,-555.82 1384.65,-559.88 1384.65,-564.88"/>
<text xml:space="preserve" text-anchor="middle" x="1506" y="-515.95" font-family="Figtree" font-size="24.00">RAG Index (FAISS)</text>
</g>
<!-- RAG_index&#45;&gt;Semantic_drift -->
<g id="edge20" class="edge">
<title>RAG_index&#45;&gt;Semantic_drift</title>
<path fill="none" stroke="black" d="M1386.28,-477.82C1380.47,-475.63 1377,-474.31 1377,-474.31 1377,-474.31 1259.61,-449.85 1164.44,-430.02"/>
<polygon fill="black" stroke="black" points="1165.24,-426.61 1154.73,-427.99 1163.81,-433.46 1165.24,-426.61"/>
</g>
<!-- Computational_Outputs -->
<g id="node20" class="node">
<title>Computational_Outputs</title>
<polygon fill="#43a2ca" stroke="black" points="1191.85,-275.35 898.15,-275.35 898.15,-214.9 1191.85,-214.9 1191.85,-275.35"/>
<polyline fill="none" stroke="black" points="901.15,-246.62 904.15,-243.62"/>
<polyline fill="none" stroke="black" points="901.15,-243.62 904.15,-246.62"/>
<polyline fill="none" stroke="black" points="901.15,-217.9 1188.85,-217.9"/>
<text xml:space="preserve" text-anchor="middle" x="1045" y="-236.95" font-family="Figtree" font-size="24.00">Computational outputs</text>
</g>
<!-- Semantic_drift&#45;&gt;Computational_Outputs -->
<g id="edge24" class="edge">
<title>Semantic_drift&#45;&gt;Computational_Outputs</title>
<path fill="none" stroke="black" d="M1045,-353.88C1045,-334.52 1045,-312.38 1045,-293.23"/>
<polygon fill="black" stroke="black" points="1048.5,-293.26 1045,-283.26 1041.5,-293.26 1048.5,-293.26"/>
</g>
<!-- Network_analysis&#45;&gt;Semantic_drift -->
<g id="edge23" class="edge">
<title>Network_analysis&#45;&gt;Semantic_drift</title>
<path fill="none" stroke="black" d="M1000.38,-487.4C1004.36,-480.05 1008.65,-472.14 1012.95,-464.22"/>
<polygon fill="black" stroke="black" points="1015.96,-466.01 1017.65,-455.56 1009.8,-462.68 1015.96,-466.01"/>
</g>
<!-- Geo_temporal_mapping&#45;&gt;Semantic_drift -->
<g id="edge22" class="edge">
<title>Geo_temporal_mapping&#45;&gt;Semantic_drift</title>
<path fill="none" stroke="black" d="M1164.55,-474.96C1155.16,-469.47 1145.54,-463.86 1136.05,-458.31"/>
<polygon fill="black" stroke="black" points="1137.92,-455.35 1127.52,-453.33 1134.38,-461.39 1137.92,-455.35"/>
</g>
<!-- Interpretation -->
<g id="node21" class="node">
<title>Interpretation</title>
<polygon fill="#43a2ca" stroke="black" points="1254.85,-183.35 835.15,-183.35 835.15,-122.9 1254.85,-122.9 1254.85,-183.35"/>
<polyline fill="none" stroke="black" points="838.15,-154.62 841.15,-151.62"/>
<polyline fill="none" stroke="black" points="838.15,-151.62 841.15,-154.62"/>
<polyline fill="none" stroke="black" points="838.15,-125.9 1251.85,-125.9"/>
<text xml:space="preserve" text-anchor="middle" x="1045" y="-144.95" font-family="Figtree" font-size="24.00">Historically&#45;informed Interpretation</text>
</g>
<!-- Computational_Outputs&#45;&gt;Interpretation -->
<g id="edge25" class="edge">
<title>Computational_Outputs&#45;&gt;Interpretation</title>
<path fill="none" stroke="black" d="M1045,-208.55C1045,-206.13 1045,-203.68 1045,-201.21"/>
<polygon fill="black" stroke="black" points="1048.5,-201.24 1045,-191.24 1041.5,-201.24 1048.5,-201.24"/>
</g>
<!-- Meta -->
<g id="node22" class="node">
<title>Meta</title>
<polygon fill="#43a2ca" stroke="black" points="1329.47,-91.35 760.52,-91.35 760.52,-30.9 1329.47,-30.9 1329.47,-91.35"/>
<polyline fill="none" stroke="black" points="763.52,-62.62 766.52,-59.62"/>
<polyline fill="none" stroke="black" points="763.52,-59.62 766.52,-62.62"/>
<polyline fill="none" stroke="black" points="763.52,-33.9 1326.47,-33.9"/>
<text xml:space="preserve" text-anchor="middle" x="1045" y="-52.95" font-family="Figtree" font-size="24.00">Conceptual Metaphors as Deep Semantic Frames</text>
</g>
<!-- Interpretation&#45;&gt;Meta -->
<g id="edge26" class="edge">
<title>Interpretation&#45;&gt;Meta</title>
<path fill="none" stroke="black" d="M1045,-116.55C1045,-114.13 1045,-111.68 1045,-109.21"/>
<polygon fill="black" stroke="black" points="1048.5,-109.24 1045,-99.24 1041.5,-109.24 1048.5,-109.24"/>
</g>
</g>
</svg>
