<svg xmlns="http://www.w3.org/2000/svg" xmlns:xlink="http://www.w3.org/1999/xlink" contentStyleType="text/css" data-diagram-type="CLASS" height="917px" preserveAspectRatio="none" style="width:1422px;height:917px;background:#FFFFFF;" version="1.1" viewBox="0 0 1422 917" width="1422px" zoomAndPan="magnify"><defs/><g><!--cluster Data / Corpus--><g class="cluster" data-entity="Data . Corpus" data-source-line="3" data-uid="ent0002" id="cluster_Data . Corpus"><path d="M441.5,686 L533.5137,686 A3.75,3.75 0 0 1 536.0137,688.5 L543.0137,709.6094 L1103.5,709.6094 A2.5,2.5 0 0 1 1106,712.1094 L1106,783.5 A2.5,2.5 0 0 1 1103.5,786 L441.5,786 A2.5,2.5 0 0 1 439,783.5 L439,688.5 A2.5,2.5 0 0 1 441.5,686" fill="#FFFFE0" style="stroke:#000000;stroke-width:1.5;"/><line style="stroke:#000000;stroke-width:1.5;" x1="439" x2="543.0137" y1="709.6094" y2="709.6094"/><text fill="#000000" font-family="sans-serif" font-size="14" font-weight="bold" lengthAdjust="spacing" textLength="91.0137" x="443" y="702.5332">Data / Corpus</text></g><!--cluster Models--><g class="cluster" data-entity="Models" data-source-line="10" data-uid="ent0007" id="cluster_Models"><path d="M564.5,810 L613.7275,810 A3.75,3.75 0 0 1 616.2275,812.5 L623.2275,833.6094 L769.5,833.6094 A2.5,2.5 0 0 1 772,836.1094 L772,907.5 A2.5,2.5 0 0 1 769.5,910 L564.5,910 A2.5,2.5 0 0 1 562,907.5 L562,812.5 A2.5,2.5 0 0 1 564.5,810" fill="#ADD8E6" style="stroke:#000000;stroke-width:1.5;"/><line style="stroke:#000000;stroke-width:1.5;" x1="562" x2="623.2275" y1="833.6094" y2="833.6094"/><text fill="#000000" font-family="sans-serif" font-size="14" font-weight="bold" lengthAdjust="spacing" textLength="48.2275" x="566" y="826.5332">Models</text></g><!--cluster UI / Tools--><g class="cluster" data-entity="UI . Tools" data-source-line="14" data-uid="ent0009" id="cluster_UI . Tools"><path d="M8.5,686 L72.5,686 A3.75,3.75 0 0 1 75,688.5 L82,709.6094 L412.5,709.6094 A2.5,2.5 0 0 1 415,712.1094 L415,907.5 A2.5,2.5 0 0 1 412.5,910 L8.5,910 A2.5,2.5 0 0 1 6,907.5 L6,688.5 A2.5,2.5 0 0 1 8.5,686" fill="#90EE90" style="stroke:#000000;stroke-width:1.5;"/><line style="stroke:#000000;stroke-width:1.5;" x1="6" x2="82" y1="709.6094" y2="709.6094"/><text fill="#000000" font-family="sans-serif" font-size="14" font-weight="bold" lengthAdjust="spacing" textLength="63" x="10" y="702.5332">UI / Tools</text></g><!--cluster Input Sources--><g class="cluster" data-entity="Input Sources" data-source-line="0" data-uid="ent0014" id="cluster_Input Sources"><path d="M34.5,6 L128.8447,6 A3.75,3.75 0 0 1 131.3447,8.5 L138.3447,29.6094 L1211.5,29.6094 A2.5,2.5 0 0 1 1214,32.1094 L1214,103.5 A2.5,2.5 0 0 1 1211.5,106 L34.5,106 A2.5,2.5 0 0 1 32,103.5 L32,8.5 A2.5,2.5 0 0 1 34.5,6" fill="#FFB6C1" style="stroke:#000000;stroke-width:1.5;"/><line style="stroke:#000000;stroke-width:1.5;" x1="32" x2="138.3447" y1="29.6094" y2="29.6094"/><text fill="#000000" font-family="sans-serif" font-size="14" font-weight="bold" lengthAdjust="spacing" textLength="93.3447" x="36" y="22.5332">Input Sources</text></g><!--cluster Processing_Pipeline--><g class="cluster" data-entity="Processing_Pipeline" data-source-line="0" data-uid="ent0020" id="cluster_Processing_Pipeline"><path d="M616.5,130 L754.4443,130 A3.75,3.75 0 0 1 756.9443,132.5 L763.9443,153.6094 L1034.5,153.6094 A2.5,2.5 0 0 1 1037,156.1094 L1037,659.5 A2.5,2.5 0 0 1 1034.5,662 L616.5,662 A2.5,2.5 0 0 1 614,659.5 L614,132.5 A2.5,2.5 0 0 1 616.5,130" fill="#E6E6FA" style="stroke:#000000;stroke-width:1.5;"/><line style="stroke:#000000;stroke-width:1.5;" x1="614" x2="763.9443" y1="153.6094" y2="153.6094"/><text fill="#000000" font-family="sans-serif" font-size="14" font-weight="bold" lengthAdjust="spacing" textLength="136.9443" x="618" y="146.5332">Processing_Pipeline</text></g><!--class Training Corpus--><g class="entity" data-entity="Training Corpus" data-source-line="4" data-uid="ent0003" id="entity_Training Corpus"><rect fill="#F1F1F1" height="48" rx="2.5" ry="2.5" style="stroke:#181818;stroke-width:0.5;" width="131.5996" x="765" y="722"/><ellipse cx="780" cy="738" fill="#ADD1B2" rx="11" ry="11" style="stroke:#181818;stroke-width:1;"/><path d="M782.7656,733.875 Q782.9219,733.6563 783.1094,733.5469 Q783.2969,733.4375 783.5156,733.4375 Q783.8906,733.4375 784.125,733.6953 Q784.3594,733.9531 784.3594,734.5625 L784.3594,736.0156 Q784.3594,736.625 784.125,736.8906 Q783.8906,737.1563 783.5156,737.1563 Q783.1719,737.1563 782.9688,736.9531 Q782.7656,736.7656 782.6563,736.25 Q782.6094,735.8906 782.4219,735.7031 Q782.0938,735.3281 781.4844,735.1094 Q780.875,734.8906 780.25,734.8906 Q779.4844,734.8906 778.8516,735.2188 Q778.2188,735.5469 777.7266,736.2969 Q777.2344,737.0469 777.2344,738.0781 L777.2344,739.1719 Q777.2344,740.4063 778.125,741.2266 Q779.0156,742.0469 780.6094,742.0469 Q781.5469,742.0469 782.2031,741.7969 Q782.5938,741.6406 783.0156,741.2031 Q783.2813,740.9375 783.4297,740.8594 Q783.5781,740.7813 783.7813,740.7813 Q784.1094,740.7813 784.3672,741.0391 Q784.625,741.2969 784.625,741.6406 Q784.625,741.9844 784.2813,742.3906 Q783.7813,742.9688 782.9844,743.2969 Q781.9063,743.75 780.6094,743.75 Q779.0938,743.75 777.8906,743.125 Q776.9063,742.625 776.2188,741.5547 Q775.5313,740.4844 775.5313,739.2031 L775.5313,738.0469 Q775.5313,736.7188 776.1484,735.5703 Q776.7656,734.4219 777.8594,733.8047 Q778.9531,733.1875 780.1875,733.1875 Q780.9219,733.1875 781.5703,733.3516 Q782.2188,733.5156 782.7656,733.875 Z " fill="#000000"/><text fill="#000000" font-family="sans-serif" font-size="14" lengthAdjust="spacing" textLength="99.5996" x="794" y="743.7285">Training Corpus</text><line style="stroke:#181818;stroke-width:0.5;" x1="766" x2="895.5996" y1="754" y2="754"/><line style="stroke:#181818;stroke-width:0.5;" x1="766" x2="895.5996" y1="762" y2="762"/></g><!--class TEI Repository--><g class="entity" data-entity="TEI Repository" data-source-line="5" data-uid="ent0004" id="entity_TEI Repository"><rect fill="#F1F1F1" height="48" rx="2.5" ry="2.5" style="stroke:#181818;stroke-width:0.5;" width="124.5859" x="604.5" y="722"/><ellipse cx="619.5" cy="738" fill="#ADD1B2" rx="11" ry="11" style="stroke:#181818;stroke-width:1;"/><path d="M622.2656,733.875 Q622.4219,733.6563 622.6094,733.5469 Q622.7969,733.4375 623.0156,733.4375 Q623.3906,733.4375 623.625,733.6953 Q623.8594,733.9531 623.8594,734.5625 L623.8594,736.0156 Q623.8594,736.625 623.625,736.8906 Q623.3906,737.1563 623.0156,737.1563 Q622.6719,737.1563 622.4688,736.9531 Q622.2656,736.7656 622.1563,736.25 Q622.1094,735.8906 621.9219,735.7031 Q621.5938,735.3281 620.9844,735.1094 Q620.375,734.8906 619.75,734.8906 Q618.9844,734.8906 618.3516,735.2188 Q617.7188,735.5469 617.2266,736.2969 Q616.7344,737.0469 616.7344,738.0781 L616.7344,739.1719 Q616.7344,740.4063 617.625,741.2266 Q618.5156,742.0469 620.1094,742.0469 Q621.0469,742.0469 621.7031,741.7969 Q622.0938,741.6406 622.5156,741.2031 Q622.7813,740.9375 622.9297,740.8594 Q623.0781,740.7813 623.2813,740.7813 Q623.6094,740.7813 623.8672,741.0391 Q624.125,741.2969 624.125,741.6406 Q624.125,741.9844 623.7813,742.3906 Q623.2813,742.9688 622.4844,743.2969 Q621.4063,743.75 620.1094,743.75 Q618.5938,743.75 617.3906,743.125 Q616.4063,742.625 615.7188,741.5547 Q615.0313,740.4844 615.0313,739.2031 L615.0313,738.0469 Q615.0313,736.7188 615.6484,735.5703 Q616.2656,734.4219 617.3594,733.8047 Q618.4531,733.1875 619.6875,733.1875 Q620.4219,733.1875 621.0703,733.3516 Q621.7188,733.5156 622.2656,733.875 Z " fill="#000000"/><text fill="#000000" font-family="sans-serif" font-size="14" lengthAdjust="spacing" textLength="92.5859" x="633.5" y="743.7285">TEI Repository</text><line style="stroke:#181818;stroke-width:0.5;" x1="605.5" x2="728.0859" y1="754" y2="754"/><line style="stroke:#181818;stroke-width:0.5;" x1="605.5" x2="728.0859" y1="762" y2="762"/></g><!--class Normalised Text DB--><g class="entity" data-entity="Normalised Text DB" data-source-line="6" data-uid="ent0005" id="entity_Normalised Text DB"><rect fill="#F1F1F1" height="48" rx="2.5" ry="2.5" style="stroke:#181818;stroke-width:0.5;" width="157.2549" x="932.5" y="722"/><ellipse cx="947.5" cy="738" fill="#ADD1B2" rx="11" ry="11" style="stroke:#181818;stroke-width:1;"/><path d="M950.2656,733.875 Q950.4219,733.6563 950.6094,733.5469 Q950.7969,733.4375 951.0156,733.4375 Q951.3906,733.4375 951.625,733.6953 Q951.8594,733.9531 951.8594,734.5625 L951.8594,736.0156 Q951.8594,736.625 951.625,736.8906 Q951.3906,737.1563 951.0156,737.1563 Q950.6719,737.1563 950.4688,736.9531 Q950.2656,736.7656 950.1563,736.25 Q950.1094,735.8906 949.9219,735.7031 Q949.5938,735.3281 948.9844,735.1094 Q948.375,734.8906 947.75,734.8906 Q946.9844,734.8906 946.3516,735.2188 Q945.7188,735.5469 945.2266,736.2969 Q944.7344,737.0469 944.7344,738.0781 L944.7344,739.1719 Q944.7344,740.4063 945.625,741.2266 Q946.5156,742.0469 948.1094,742.0469 Q949.0469,742.0469 949.7031,741.7969 Q950.0938,741.6406 950.5156,741.2031 Q950.7813,740.9375 950.9297,740.8594 Q951.0781,740.7813 951.2813,740.7813 Q951.6094,740.7813 951.8672,741.0391 Q952.125,741.2969 952.125,741.6406 Q952.125,741.9844 951.7813,742.3906 Q951.2813,742.9688 950.4844,743.2969 Q949.4063,743.75 948.1094,743.75 Q946.5938,743.75 945.3906,743.125 Q944.4063,742.625 943.7188,741.5547 Q943.0313,740.4844 943.0313,739.2031 L943.0313,738.0469 Q943.0313,736.7188 943.6484,735.5703 Q944.2656,734.4219 945.3594,733.8047 Q946.4531,733.1875 947.6875,733.1875 Q948.4219,733.1875 949.0703,733.3516 Q949.7188,733.5156 950.2656,733.875 Z " fill="#000000"/><text fill="#000000" font-family="sans-serif" font-size="14" lengthAdjust="spacing" textLength="125.2549" x="961.5" y="743.7285">Normalised Text DB</text><line style="stroke:#181818;stroke-width:0.5;" x1="933.5" x2="1088.7549" y1="754" y2="754"/><line style="stroke:#181818;stroke-width:0.5;" x1="933.5" x2="1088.7549" y1="762" y2="762"/></g><!--class Metadata DB--><g class="entity" data-entity="Metadata DB" data-source-line="7" data-uid="ent0006" id="entity_Metadata DB"><rect fill="#F1F1F1" height="48" rx="2.5" ry="2.5" style="stroke:#181818;stroke-width:0.5;" width="113.71" x="455" y="722"/><ellipse cx="470" cy="738" fill="#ADD1B2" rx="11" ry="11" style="stroke:#181818;stroke-width:1;"/><path d="M472.7656,733.875 Q472.9219,733.6563 473.1094,733.5469 Q473.2969,733.4375 473.5156,733.4375 Q473.8906,733.4375 474.125,733.6953 Q474.3594,733.9531 474.3594,734.5625 L474.3594,736.0156 Q474.3594,736.625 474.125,736.8906 Q473.8906,737.1563 473.5156,737.1563 Q473.1719,737.1563 472.9688,736.9531 Q472.7656,736.7656 472.6563,736.25 Q472.6094,735.8906 472.4219,735.7031 Q472.0938,735.3281 471.4844,735.1094 Q470.875,734.8906 470.25,734.8906 Q469.4844,734.8906 468.8516,735.2188 Q468.2188,735.5469 467.7266,736.2969 Q467.2344,737.0469 467.2344,738.0781 L467.2344,739.1719 Q467.2344,740.4063 468.125,741.2266 Q469.0156,742.0469 470.6094,742.0469 Q471.5469,742.0469 472.2031,741.7969 Q472.5938,741.6406 473.0156,741.2031 Q473.2813,740.9375 473.4297,740.8594 Q473.5781,740.7813 473.7813,740.7813 Q474.1094,740.7813 474.3672,741.0391 Q474.625,741.2969 474.625,741.6406 Q474.625,741.9844 474.2813,742.3906 Q473.7813,742.9688 472.9844,743.2969 Q471.9063,743.75 470.6094,743.75 Q469.0938,743.75 467.8906,743.125 Q466.9063,742.625 466.2188,741.5547 Q465.5313,740.4844 465.5313,739.2031 L465.5313,738.0469 Q465.5313,736.7188 466.1484,735.5703 Q466.7656,734.4219 467.8594,733.8047 Q468.9531,733.1875 470.1875,733.1875 Q470.9219,733.1875 471.5703,733.3516 Q472.2188,733.5156 472.7656,733.875 Z " fill="#000000"/><text fill="#000000" font-family="sans-serif" font-size="14" lengthAdjust="spacing" textLength="81.71" x="484" y="743.7285">Metadata DB</text><line style="stroke:#181818;stroke-width:0.5;" x1="456" x2="567.71" y1="754" y2="754"/><line style="stroke:#181818;stroke-width:0.5;" x1="456" x2="567.71" y1="762" y2="762"/></g><!--class MacBERTh NLP Model--><g class="entity" data-entity="MacBERTh NLP Model" data-source-line="11" data-uid="ent0008" id="entity_MacBERTh NLP Model"><rect fill="#F1F1F1" height="48" rx="2.5" ry="2.5" style="stroke:#181818;stroke-width:0.5;" width="176.7168" x="578.5" y="846"/><ellipse cx="593.5" cy="862" fill="#ADD1B2" rx="11" ry="11" style="stroke:#181818;stroke-width:1;"/><path d="M596.2656,857.875 Q596.4219,857.6563 596.6094,857.5469 Q596.7969,857.4375 597.0156,857.4375 Q597.3906,857.4375 597.625,857.6953 Q597.8594,857.9531 597.8594,858.5625 L597.8594,860.0156 Q597.8594,860.625 597.625,860.8906 Q597.3906,861.1563 597.0156,861.1563 Q596.6719,861.1563 596.4688,860.9531 Q596.2656,860.7656 596.1563,860.25 Q596.1094,859.8906 595.9219,859.7031 Q595.5938,859.3281 594.9844,859.1094 Q594.375,858.8906 593.75,858.8906 Q592.9844,858.8906 592.3516,859.2188 Q591.7188,859.5469 591.2266,860.2969 Q590.7344,861.0469 590.7344,862.0781 L590.7344,863.1719 Q590.7344,864.4063 591.625,865.2266 Q592.5156,866.0469 594.1094,866.0469 Q595.0469,866.0469 595.7031,865.7969 Q596.0938,865.6406 596.5156,865.2031 Q596.7813,864.9375 596.9297,864.8594 Q597.0781,864.7813 597.2813,864.7813 Q597.6094,864.7813 597.8672,865.0391 Q598.125,865.2969 598.125,865.6406 Q598.125,865.9844 597.7813,866.3906 Q597.2813,866.9688 596.4844,867.2969 Q595.4063,867.75 594.1094,867.75 Q592.5938,867.75 591.3906,867.125 Q590.4063,866.625 589.7188,865.5547 Q589.0313,864.4844 589.0313,863.2031 L589.0313,862.0469 Q589.0313,860.7188 589.6484,859.5703 Q590.2656,858.4219 591.3594,857.8047 Q592.4531,857.1875 593.6875,857.1875 Q594.4219,857.1875 595.0703,857.3516 Q595.7188,857.5156 596.2656,857.875 Z " fill="#000000"/><text fill="#000000" font-family="sans-serif" font-size="14" lengthAdjust="spacing" textLength="144.7168" x="607.5" y="867.7285">MacBERTh NLP Model</text><line style="stroke:#181818;stroke-width:0.5;" x1="579.5" x2="754.2168" y1="878" y2="878"/><line style="stroke:#181818;stroke-width:0.5;" x1="579.5" x2="754.2168" y1="886" y2="886"/></g><!--class Corpus Explorer UI--><g class="entity" data-entity="Corpus Explorer UI" data-source-line="15" data-uid="ent0010" id="entity_Corpus Explorer UI"><rect fill="#F1F1F1" height="48" rx="2.5" ry="2.5" style="stroke:#181818;stroke-width:0.5;" width="151.041" x="247.5" y="846"/><ellipse cx="262.5" cy="862" fill="#ADD1B2" rx="11" ry="11" style="stroke:#181818;stroke-width:1;"/><path d="M265.2656,857.875 Q265.4219,857.6563 265.6094,857.5469 Q265.7969,857.4375 266.0156,857.4375 Q266.3906,857.4375 266.625,857.6953 Q266.8594,857.9531 266.8594,858.5625 L266.8594,860.0156 Q266.8594,860.625 266.625,860.8906 Q266.3906,861.1563 266.0156,861.1563 Q265.6719,861.1563 265.4688,860.9531 Q265.2656,860.7656 265.1563,860.25 Q265.1094,859.8906 264.9219,859.7031 Q264.5938,859.3281 263.9844,859.1094 Q263.375,858.8906 262.75,858.8906 Q261.9844,858.8906 261.3516,859.2188 Q260.7188,859.5469 260.2266,860.2969 Q259.7344,861.0469 259.7344,862.0781 L259.7344,863.1719 Q259.7344,864.4063 260.625,865.2266 Q261.5156,866.0469 263.1094,866.0469 Q264.0469,866.0469 264.7031,865.7969 Q265.0938,865.6406 265.5156,865.2031 Q265.7813,864.9375 265.9297,864.8594 Q266.0781,864.7813 266.2813,864.7813 Q266.6094,864.7813 266.8672,865.0391 Q267.125,865.2969 267.125,865.6406 Q267.125,865.9844 266.7813,866.3906 Q266.2813,866.9688 265.4844,867.2969 Q264.4063,867.75 263.1094,867.75 Q261.5938,867.75 260.3906,867.125 Q259.4063,866.625 258.7188,865.5547 Q258.0313,864.4844 258.0313,863.2031 L258.0313,862.0469 Q258.0313,860.7188 258.6484,859.5703 Q259.2656,858.4219 260.3594,857.8047 Q261.4531,857.1875 262.6875,857.1875 Q263.4219,857.1875 264.0703,857.3516 Q264.7188,857.5156 265.2656,857.875 Z " fill="#000000"/><text fill="#000000" font-family="sans-serif" font-size="14" lengthAdjust="spacing" textLength="119.041" x="276.5" y="867.7285">Corpus Explorer UI</text><line style="stroke:#181818;stroke-width:0.5;" x1="248.5" x2="397.541" y1="878" y2="878"/><line style="stroke:#181818;stroke-width:0.5;" x1="248.5" x2="397.541" y1="886" y2="886"/></g><!--class WYSIWYG Editor--><g class="entity" data-entity="WYSIWYG Editor" data-source-line="16" data-uid="ent0011" id="entity_WYSIWYG Editor"><rect fill="#F1F1F1" height="48" rx="2.5" ry="2.5" style="stroke:#181818;stroke-width:0.5;" width="141.6826" x="70" y="846"/><ellipse cx="85" cy="862" fill="#ADD1B2" rx="11" ry="11" style="stroke:#181818;stroke-width:1;"/><path d="M87.7656,857.875 Q87.9219,857.6563 88.1094,857.5469 Q88.2969,857.4375 88.5156,857.4375 Q88.8906,857.4375 89.125,857.6953 Q89.3594,857.9531 89.3594,858.5625 L89.3594,860.0156 Q89.3594,860.625 89.125,860.8906 Q88.8906,861.1563 88.5156,861.1563 Q88.1719,861.1563 87.9688,860.9531 Q87.7656,860.7656 87.6563,860.25 Q87.6094,859.8906 87.4219,859.7031 Q87.0938,859.3281 86.4844,859.1094 Q85.875,858.8906 85.25,858.8906 Q84.4844,858.8906 83.8516,859.2188 Q83.2188,859.5469 82.7266,860.2969 Q82.2344,861.0469 82.2344,862.0781 L82.2344,863.1719 Q82.2344,864.4063 83.125,865.2266 Q84.0156,866.0469 85.6094,866.0469 Q86.5469,866.0469 87.2031,865.7969 Q87.5938,865.6406 88.0156,865.2031 Q88.2813,864.9375 88.4297,864.8594 Q88.5781,864.7813 88.7813,864.7813 Q89.1094,864.7813 89.3672,865.0391 Q89.625,865.2969 89.625,865.6406 Q89.625,865.9844 89.2813,866.3906 Q88.7813,866.9688 87.9844,867.2969 Q86.9063,867.75 85.6094,867.75 Q84.0938,867.75 82.8906,867.125 Q81.9063,866.625 81.2188,865.5547 Q80.5313,864.4844 80.5313,863.2031 L80.5313,862.0469 Q80.5313,860.7188 81.1484,859.5703 Q81.7656,858.4219 82.8594,857.8047 Q83.9531,857.1875 85.1875,857.1875 Q85.9219,857.1875 86.5703,857.3516 Q87.2188,857.5156 87.7656,857.875 Z " fill="#000000"/><text fill="#000000" font-family="sans-serif" font-size="14" lengthAdjust="spacing" textLength="109.6826" x="99" y="867.7285">WYSIWYG Editor</text><line style="stroke:#181818;stroke-width:0.5;" x1="71" x2="210.6826" y1="878" y2="878"/><line style="stroke:#181818;stroke-width:0.5;" x1="71" x2="210.6826" y1="886" y2="886"/></g><!--class Novelty Detection--><g class="entity" data-entity="Novelty Detection" data-source-line="17" data-uid="ent0012" id="entity_Novelty Detection"><rect fill="#F1F1F1" height="48" rx="2.5" ry="2.5" style="stroke:#181818;stroke-width:0.5;" width="141.7168" x="257" y="722"/><ellipse cx="272" cy="738" fill="#ADD1B2" rx="11" ry="11" style="stroke:#181818;stroke-width:1;"/><path d="M274.7656,733.875 Q274.9219,733.6563 275.1094,733.5469 Q275.2969,733.4375 275.5156,733.4375 Q275.8906,733.4375 276.125,733.6953 Q276.3594,733.9531 276.3594,734.5625 L276.3594,736.0156 Q276.3594,736.625 276.125,736.8906 Q275.8906,737.1563 275.5156,737.1563 Q275.1719,737.1563 274.9688,736.9531 Q274.7656,736.7656 274.6563,736.25 Q274.6094,735.8906 274.4219,735.7031 Q274.0938,735.3281 273.4844,735.1094 Q272.875,734.8906 272.25,734.8906 Q271.4844,734.8906 270.8516,735.2188 Q270.2188,735.5469 269.7266,736.2969 Q269.2344,737.0469 269.2344,738.0781 L269.2344,739.1719 Q269.2344,740.4063 270.125,741.2266 Q271.0156,742.0469 272.6094,742.0469 Q273.5469,742.0469 274.2031,741.7969 Q274.5938,741.6406 275.0156,741.2031 Q275.2813,740.9375 275.4297,740.8594 Q275.5781,740.7813 275.7813,740.7813 Q276.1094,740.7813 276.3672,741.0391 Q276.625,741.2969 276.625,741.6406 Q276.625,741.9844 276.2813,742.3906 Q275.7813,742.9688 274.9844,743.2969 Q273.9063,743.75 272.6094,743.75 Q271.0938,743.75 269.8906,743.125 Q268.9063,742.625 268.2188,741.5547 Q267.5313,740.4844 267.5313,739.2031 L267.5313,738.0469 Q267.5313,736.7188 268.1484,735.5703 Q268.7656,734.4219 269.8594,733.8047 Q270.9531,733.1875 272.1875,733.1875 Q272.9219,733.1875 273.5703,733.3516 Q274.2188,733.5156 274.7656,733.875 Z " fill="#000000"/><text fill="#000000" font-family="sans-serif" font-size="14" lengthAdjust="spacing" textLength="109.7168" x="286" y="743.7285">Novelty Detection</text><line style="stroke:#181818;stroke-width:0.5;" x1="258" x2="397.7168" y1="754" y2="754"/><line style="stroke:#181818;stroke-width:0.5;" x1="258" x2="397.7168" y1="762" y2="762"/></g><!--class Statistics + Graphing Tools--><g class="entity" data-entity="Statistics . Graphing Tools" data-source-line="18" data-uid="ent0013" id="entity_Statistics . Graphing Tools"><rect fill="#F1F1F1" height="48" rx="2.5" ry="2.5" style="stroke:#181818;stroke-width:0.5;" width="199.6855" x="22" y="722"/><ellipse cx="37" cy="738" fill="#ADD1B2" rx="11" ry="11" style="stroke:#181818;stroke-width:1;"/><path d="M39.7656,733.875 Q39.9219,733.6563 40.1094,733.5469 Q40.2969,733.4375 40.5156,733.4375 Q40.8906,733.4375 41.125,733.6953 Q41.3594,733.9531 41.3594,734.5625 L41.3594,736.0156 Q41.3594,736.625 41.125,736.8906 Q40.8906,737.1563 40.5156,737.1563 Q40.1719,737.1563 39.9688,736.9531 Q39.7656,736.7656 39.6563,736.25 Q39.6094,735.8906 39.4219,735.7031 Q39.0938,735.3281 38.4844,735.1094 Q37.875,734.8906 37.25,734.8906 Q36.4844,734.8906 35.8516,735.2188 Q35.2188,735.5469 34.7266,736.2969 Q34.2344,737.0469 34.2344,738.0781 L34.2344,739.1719 Q34.2344,740.4063 35.125,741.2266 Q36.0156,742.0469 37.6094,742.0469 Q38.5469,742.0469 39.2031,741.7969 Q39.5938,741.6406 40.0156,741.2031 Q40.2813,740.9375 40.4297,740.8594 Q40.5781,740.7813 40.7813,740.7813 Q41.1094,740.7813 41.3672,741.0391 Q41.625,741.2969 41.625,741.6406 Q41.625,741.9844 41.2813,742.3906 Q40.7813,742.9688 39.9844,743.2969 Q38.9063,743.75 37.6094,743.75 Q36.0938,743.75 34.8906,743.125 Q33.9063,742.625 33.2188,741.5547 Q32.5313,740.4844 32.5313,739.2031 L32.5313,738.0469 Q32.5313,736.7188 33.1484,735.5703 Q33.7656,734.4219 34.8594,733.8047 Q35.9531,733.1875 37.1875,733.1875 Q37.9219,733.1875 38.5703,733.3516 Q39.2188,733.5156 39.7656,733.875 Z " fill="#000000"/><text fill="#000000" font-family="sans-serif" font-size="14" lengthAdjust="spacing" textLength="167.6855" x="51" y="743.7285">Statistics + Graphing Tools</text><line style="stroke:#181818;stroke-width:0.5;" x1="23" x2="220.6855" y1="754" y2="754"/><line style="stroke:#181818;stroke-width:0.5;" x1="23" x2="220.6855" y1="762" y2="762"/></g><!--class EEBO HTML--><g class="entity" data-entity="EEBO HTML" data-source-line="1" data-uid="ent0015" id="entity_EEBO HTML"><rect fill="#F1F1F1" height="48" rx="2.5" ry="2.5" style="stroke:#181818;stroke-width:0.5;" width="112.9033" x="1084.5" y="42"/><ellipse cx="1099.5" cy="58" fill="#ADD1B2" rx="11" ry="11" style="stroke:#181818;stroke-width:1;"/><path d="M1102.2656,53.875 Q1102.4219,53.6563 1102.6094,53.5469 Q1102.7969,53.4375 1103.0156,53.4375 Q1103.3906,53.4375 1103.625,53.6953 Q1103.8594,53.9531 1103.8594,54.5625 L1103.8594,56.0156 Q1103.8594,56.625 1103.625,56.8906 Q1103.3906,57.1563 1103.0156,57.1563 Q1102.6719,57.1563 1102.4688,56.9531 Q1102.2656,56.7656 1102.1563,56.25 Q1102.1094,55.8906 1101.9219,55.7031 Q1101.5938,55.3281 1100.9844,55.1094 Q1100.375,54.8906 1099.75,54.8906 Q1098.9844,54.8906 1098.3516,55.2188 Q1097.7188,55.5469 1097.2266,56.2969 Q1096.7344,57.0469 1096.7344,58.0781 L1096.7344,59.1719 Q1096.7344,60.4063 1097.625,61.2266 Q1098.5156,62.0469 1100.1094,62.0469 Q1101.0469,62.0469 1101.7031,61.7969 Q1102.0938,61.6406 1102.5156,61.2031 Q1102.7813,60.9375 1102.9297,60.8594 Q1103.0781,60.7813 1103.2813,60.7813 Q1103.6094,60.7813 1103.8672,61.0391 Q1104.125,61.2969 1104.125,61.6406 Q1104.125,61.9844 1103.7813,62.3906 Q1103.2813,62.9688 1102.4844,63.2969 Q1101.4063,63.75 1100.1094,63.75 Q1098.5938,63.75 1097.3906,63.125 Q1096.4063,62.625 1095.7188,61.5547 Q1095.0313,60.4844 1095.0313,59.2031 L1095.0313,58.0469 Q1095.0313,56.7188 1095.6484,55.5703 Q1096.2656,54.4219 1097.3594,53.8047 Q1098.4531,53.1875 1099.6875,53.1875 Q1100.4219,53.1875 1101.0703,53.3516 Q1101.7188,53.5156 1102.2656,53.875 Z " fill="#000000"/><text fill="#000000" font-family="sans-serif" font-size="14" lengthAdjust="spacing" textLength="80.9033" x="1113.5" y="63.7285">EEBO HTML</text><line style="stroke:#181818;stroke-width:0.5;" x1="1085.5" x2="1196.4033" y1="74" y2="74"/><line style="stroke:#181818;stroke-width:0.5;" x1="1085.5" x2="1196.4033" y1="82" y2="82"/></g><!--class EEBO XML--><g class="entity" data-entity="EEBO XML" data-source-line="2" data-uid="ent0016" id="entity_EEBO XML"><rect fill="#F1F1F1" height="48" rx="2.5" ry="2.5" style="stroke:#181818;stroke-width:0.5;" width="103.5791" x="945" y="42"/><ellipse cx="960" cy="58" fill="#ADD1B2" rx="11" ry="11" style="stroke:#181818;stroke-width:1;"/><path d="M962.7656,53.875 Q962.9219,53.6563 963.1094,53.5469 Q963.2969,53.4375 963.5156,53.4375 Q963.8906,53.4375 964.125,53.6953 Q964.3594,53.9531 964.3594,54.5625 L964.3594,56.0156 Q964.3594,56.625 964.125,56.8906 Q963.8906,57.1563 963.5156,57.1563 Q963.1719,57.1563 962.9688,56.9531 Q962.7656,56.7656 962.6563,56.25 Q962.6094,55.8906 962.4219,55.7031 Q962.0938,55.3281 961.4844,55.1094 Q960.875,54.8906 960.25,54.8906 Q959.4844,54.8906 958.8516,55.2188 Q958.2188,55.5469 957.7266,56.2969 Q957.2344,57.0469 957.2344,58.0781 L957.2344,59.1719 Q957.2344,60.4063 958.125,61.2266 Q959.0156,62.0469 960.6094,62.0469 Q961.5469,62.0469 962.2031,61.7969 Q962.5938,61.6406 963.0156,61.2031 Q963.2813,60.9375 963.4297,60.8594 Q963.5781,60.7813 963.7813,60.7813 Q964.1094,60.7813 964.3672,61.0391 Q964.625,61.2969 964.625,61.6406 Q964.625,61.9844 964.2813,62.3906 Q963.7813,62.9688 962.9844,63.2969 Q961.9063,63.75 960.6094,63.75 Q959.0938,63.75 957.8906,63.125 Q956.9063,62.625 956.2188,61.5547 Q955.5313,60.4844 955.5313,59.2031 L955.5313,58.0469 Q955.5313,56.7188 956.1484,55.5703 Q956.7656,54.4219 957.8594,53.8047 Q958.9531,53.1875 960.1875,53.1875 Q960.9219,53.1875 961.5703,53.3516 Q962.2188,53.5156 962.7656,53.875 Z " fill="#000000"/><text fill="#000000" font-family="sans-serif" font-size="14" lengthAdjust="spacing" textLength="71.5791" x="974" y="63.7285">EEBO XML</text><line style="stroke:#181818;stroke-width:0.5;" x1="946" x2="1047.5791" y1="74" y2="74"/><line style="stroke:#181818;stroke-width:0.5;" x1="946" x2="1047.5791" y1="82" y2="82"/></g><!--class EEBO Images (TIFF/JPEG)--><g class="entity" data-entity="EEBO Images .TIFF.JPEG." data-source-line="3" data-uid="ent0017" id="entity_EEBO Images .TIFF.JPEG."><rect fill="#F1F1F1" height="48" rx="2.5" ry="2.5" style="stroke:#181818;stroke-width:0.5;" width="203.917" x="48" y="42"/><ellipse cx="63" cy="58" fill="#ADD1B2" rx="11" ry="11" style="stroke:#181818;stroke-width:1;"/><path d="M65.7656,53.875 Q65.9219,53.6563 66.1094,53.5469 Q66.2969,53.4375 66.5156,53.4375 Q66.8906,53.4375 67.125,53.6953 Q67.3594,53.9531 67.3594,54.5625 L67.3594,56.0156 Q67.3594,56.625 67.125,56.8906 Q66.8906,57.1563 66.5156,57.1563 Q66.1719,57.1563 65.9688,56.9531 Q65.7656,56.7656 65.6563,56.25 Q65.6094,55.8906 65.4219,55.7031 Q65.0938,55.3281 64.4844,55.1094 Q63.875,54.8906 63.25,54.8906 Q62.4844,54.8906 61.8516,55.2188 Q61.2188,55.5469 60.7266,56.2969 Q60.2344,57.0469 60.2344,58.0781 L60.2344,59.1719 Q60.2344,60.4063 61.125,61.2266 Q62.0156,62.0469 63.6094,62.0469 Q64.5469,62.0469 65.2031,61.7969 Q65.5938,61.6406 66.0156,61.2031 Q66.2813,60.9375 66.4297,60.8594 Q66.5781,60.7813 66.7813,60.7813 Q67.1094,60.7813 67.3672,61.0391 Q67.625,61.2969 67.625,61.6406 Q67.625,61.9844 67.2813,62.3906 Q66.7813,62.9688 65.9844,63.2969 Q64.9063,63.75 63.6094,63.75 Q62.0938,63.75 60.8906,63.125 Q59.9063,62.625 59.2188,61.5547 Q58.5313,60.4844 58.5313,59.2031 L58.5313,58.0469 Q58.5313,56.7188 59.1484,55.5703 Q59.7656,54.4219 60.8594,53.8047 Q61.9531,53.1875 63.1875,53.1875 Q63.9219,53.1875 64.5703,53.3516 Q65.2188,53.5156 65.7656,53.875 Z " fill="#000000"/><text fill="#000000" font-family="sans-serif" font-size="14" lengthAdjust="spacing" textLength="171.917" x="77" y="63.7285">EEBO Images (TIFF/JPEG)</text><line style="stroke:#181818;stroke-width:0.5;" x1="49" x2="250.917" y1="74" y2="74"/><line style="stroke:#181818;stroke-width:0.5;" x1="49" x2="250.917" y1="82" y2="82"/></g><!--class Lincoln / Bodleian Scans--><g class="entity" data-entity="Lincoln . Bodleian Scans" data-source-line="4" data-uid="ent0018" id="entity_Lincoln . Bodleian Scans"><rect fill="#F1F1F1" height="48" rx="2.5" ry="2.5" style="stroke:#181818;stroke-width:0.5;" width="185.3232" x="287.5" y="42"/><ellipse cx="302.5" cy="58" fill="#ADD1B2" rx="11" ry="11" style="stroke:#181818;stroke-width:1;"/><path d="M305.2656,53.875 Q305.4219,53.6563 305.6094,53.5469 Q305.7969,53.4375 306.0156,53.4375 Q306.3906,53.4375 306.625,53.6953 Q306.8594,53.9531 306.8594,54.5625 L306.8594,56.0156 Q306.8594,56.625 306.625,56.8906 Q306.3906,57.1563 306.0156,57.1563 Q305.6719,57.1563 305.4688,56.9531 Q305.2656,56.7656 305.1563,56.25 Q305.1094,55.8906 304.9219,55.7031 Q304.5938,55.3281 303.9844,55.1094 Q303.375,54.8906 302.75,54.8906 Q301.9844,54.8906 301.3516,55.2188 Q300.7188,55.5469 300.2266,56.2969 Q299.7344,57.0469 299.7344,58.0781 L299.7344,59.1719 Q299.7344,60.4063 300.625,61.2266 Q301.5156,62.0469 303.1094,62.0469 Q304.0469,62.0469 304.7031,61.7969 Q305.0938,61.6406 305.5156,61.2031 Q305.7813,60.9375 305.9297,60.8594 Q306.0781,60.7813 306.2813,60.7813 Q306.6094,60.7813 306.8672,61.0391 Q307.125,61.2969 307.125,61.6406 Q307.125,61.9844 306.7813,62.3906 Q306.2813,62.9688 305.4844,63.2969 Q304.4063,63.75 303.1094,63.75 Q301.5938,63.75 300.3906,63.125 Q299.4063,62.625 298.7188,61.5547 Q298.0313,60.4844 298.0313,59.2031 L298.0313,58.0469 Q298.0313,56.7188 298.6484,55.5703 Q299.2656,54.4219 300.3594,53.8047 Q301.4531,53.1875 302.6875,53.1875 Q303.4219,53.1875 304.0703,53.3516 Q304.7188,53.5156 305.2656,53.875 Z " fill="#000000"/><text fill="#000000" font-family="sans-serif" font-size="14" lengthAdjust="spacing" textLength="153.3232" x="316.5" y="63.7285">Lincoln / Bodleian Scans</text><line style="stroke:#181818;stroke-width:0.5;" x1="288.5" x2="471.8232" y1="74" y2="74"/><line style="stroke:#181818;stroke-width:0.5;" x1="288.5" x2="471.8232" y1="82" y2="82"/></g><!--class MPESE--><g class="entity" data-entity="MPESE" data-source-line="5" data-uid="ent0019" id="entity_MPESE"><rect fill="#F1F1F1" height="48" rx="2.5" ry="2.5" style="stroke:#181818;stroke-width:0.5;" width="402.4121" x="508" y="42"/><ellipse cx="523" cy="58" fill="#ADD1B2" rx="11" ry="11" style="stroke:#181818;stroke-width:1;"/><path d="M525.7656,53.875 Q525.9219,53.6563 526.1094,53.5469 Q526.2969,53.4375 526.5156,53.4375 Q526.8906,53.4375 527.125,53.6953 Q527.3594,53.9531 527.3594,54.5625 L527.3594,56.0156 Q527.3594,56.625 527.125,56.8906 Q526.8906,57.1563 526.5156,57.1563 Q526.1719,57.1563 525.9688,56.9531 Q525.7656,56.7656 525.6563,56.25 Q525.6094,55.8906 525.4219,55.7031 Q525.0938,55.3281 524.4844,55.1094 Q523.875,54.8906 523.25,54.8906 Q522.4844,54.8906 521.8516,55.2188 Q521.2188,55.5469 520.7266,56.2969 Q520.2344,57.0469 520.2344,58.0781 L520.2344,59.1719 Q520.2344,60.4063 521.125,61.2266 Q522.0156,62.0469 523.6094,62.0469 Q524.5469,62.0469 525.2031,61.7969 Q525.5938,61.6406 526.0156,61.2031 Q526.2813,60.9375 526.4297,60.8594 Q526.5781,60.7813 526.7813,60.7813 Q527.1094,60.7813 527.3672,61.0391 Q527.625,61.2969 527.625,61.6406 Q527.625,61.9844 527.2813,62.3906 Q526.7813,62.9688 525.9844,63.2969 Q524.9063,63.75 523.6094,63.75 Q522.0938,63.75 520.8906,63.125 Q519.9063,62.625 519.2188,61.5547 Q518.5313,60.4844 518.5313,59.2031 L518.5313,58.0469 Q518.5313,56.7188 519.1484,55.5703 Q519.7656,54.4219 520.8594,53.8047 Q521.9531,53.1875 523.1875,53.1875 Q523.9219,53.1875 524.5703,53.3516 Q525.2188,53.5156 525.7656,53.875 Z " fill="#000000"/><text fill="#000000" font-family="sans-serif" font-size="14" lengthAdjust="spacing" textLength="370.4121" x="537" y="63.7285">Manuscript Pamphleteering in Early Stuart England sources</text><line style="stroke:#181818;stroke-width:0.5;" x1="509" x2="909.4121" y1="74" y2="74"/><line style="stroke:#181818;stroke-width:0.5;" x1="509" x2="909.4121" y1="82" y2="82"/></g><!--class EEBO HTML Parser--><g class="entity" data-entity="EEBO HTML Parser" data-source-line="1" data-uid="ent0021" id="entity_EEBO HTML Parser"><rect fill="#F1F1F1" height="48" rx="2.5" ry="2.5" style="stroke:#181818;stroke-width:0.5;" width="158.0273" x="863" y="274"/><ellipse cx="878" cy="290" fill="#ADD1B2" rx="11" ry="11" style="stroke:#181818;stroke-width:1;"/><path d="M880.7656,285.875 Q880.9219,285.6563 881.1094,285.5469 Q881.2969,285.4375 881.5156,285.4375 Q881.8906,285.4375 882.125,285.6953 Q882.3594,285.9531 882.3594,286.5625 L882.3594,288.0156 Q882.3594,288.625 882.125,288.8906 Q881.8906,289.1563 881.5156,289.1563 Q881.1719,289.1563 880.9688,288.9531 Q880.7656,288.7656 880.6563,288.25 Q880.6094,287.8906 880.4219,287.7031 Q880.0938,287.3281 879.4844,287.1094 Q878.875,286.8906 878.25,286.8906 Q877.4844,286.8906 876.8516,287.2188 Q876.2188,287.5469 875.7266,288.2969 Q875.2344,289.0469 875.2344,290.0781 L875.2344,291.1719 Q875.2344,292.4063 876.125,293.2266 Q877.0156,294.0469 878.6094,294.0469 Q879.5469,294.0469 880.2031,293.7969 Q880.5938,293.6406 881.0156,293.2031 Q881.2813,292.9375 881.4297,292.8594 Q881.5781,292.7813 881.7813,292.7813 Q882.1094,292.7813 882.3672,293.0391 Q882.625,293.2969 882.625,293.6406 Q882.625,293.9844 882.2813,294.3906 Q881.7813,294.9688 880.9844,295.2969 Q879.9063,295.75 878.6094,295.75 Q877.0938,295.75 875.8906,295.125 Q874.9063,294.625 874.2188,293.5547 Q873.5313,292.4844 873.5313,291.2031 L873.5313,290.0469 Q873.5313,288.7188 874.1484,287.5703 Q874.7656,286.4219 875.8594,285.8047 Q876.9531,285.1875 878.1875,285.1875 Q878.9219,285.1875 879.5703,285.3516 Q880.2188,285.5156 880.7656,285.875 Z " fill="#000000"/><text fill="#000000" font-family="sans-serif" font-size="14" lengthAdjust="spacing" textLength="126.0273" x="892" y="295.7285">EEBO HTML Parser</text><line style="stroke:#181818;stroke-width:0.5;" x1="864" x2="1020.0273" y1="306" y2="306"/><line style="stroke:#181818;stroke-width:0.5;" x1="864" x2="1020.0273" y1="314" y2="314"/></g><!--class TEI Parser--><g class="entity" data-entity="TEI Parser" data-source-line="2" data-uid="ent0022" id="entity_TEI Parser"><rect fill="#F1F1F1" height="48" rx="2.5" ry="2.5" style="stroke:#181818;stroke-width:0.5;" width="98.9033" x="728.5" y="274"/><ellipse cx="743.5" cy="290" fill="#ADD1B2" rx="11" ry="11" style="stroke:#181818;stroke-width:1;"/><path d="M746.2656,285.875 Q746.4219,285.6563 746.6094,285.5469 Q746.7969,285.4375 747.0156,285.4375 Q747.3906,285.4375 747.625,285.6953 Q747.8594,285.9531 747.8594,286.5625 L747.8594,288.0156 Q747.8594,288.625 747.625,288.8906 Q747.3906,289.1563 747.0156,289.1563 Q746.6719,289.1563 746.4688,288.9531 Q746.2656,288.7656 746.1563,288.25 Q746.1094,287.8906 745.9219,287.7031 Q745.5938,287.3281 744.9844,287.1094 Q744.375,286.8906 743.75,286.8906 Q742.9844,286.8906 742.3516,287.2188 Q741.7188,287.5469 741.2266,288.2969 Q740.7344,289.0469 740.7344,290.0781 L740.7344,291.1719 Q740.7344,292.4063 741.625,293.2266 Q742.5156,294.0469 744.1094,294.0469 Q745.0469,294.0469 745.7031,293.7969 Q746.0938,293.6406 746.5156,293.2031 Q746.7813,292.9375 746.9297,292.8594 Q747.0781,292.7813 747.2813,292.7813 Q747.6094,292.7813 747.8672,293.0391 Q748.125,293.2969 748.125,293.6406 Q748.125,293.9844 747.7813,294.3906 Q747.2813,294.9688 746.4844,295.2969 Q745.4063,295.75 744.1094,295.75 Q742.5938,295.75 741.3906,295.125 Q740.4063,294.625 739.7188,293.5547 Q739.0313,292.4844 739.0313,291.2031 L739.0313,290.0469 Q739.0313,288.7188 739.6484,287.5703 Q740.2656,286.4219 741.3594,285.8047 Q742.4531,285.1875 743.6875,285.1875 Q744.4219,285.1875 745.0703,285.3516 Q745.7188,285.5156 746.2656,285.875 Z " fill="#000000"/><text fill="#000000" font-family="sans-serif" font-size="14" lengthAdjust="spacing" textLength="66.9033" x="757.5" y="295.7285">TEI Parser</text><line style="stroke:#181818;stroke-width:0.5;" x1="729.5" x2="826.4033" y1="306" y2="306"/><line style="stroke:#181818;stroke-width:0.5;" x1="729.5" x2="826.4033" y1="314" y2="314"/></g><!--class Image Preprocessor--><g class="entity" data-entity="Image Preprocessor" data-source-line="3" data-uid="ent0023" id="entity_Image Preprocessor"><rect fill="#F1F1F1" height="48" rx="2.5" ry="2.5" style="stroke:#181818;stroke-width:0.5;" width="158.0547" x="630" y="166"/><ellipse cx="645" cy="182" fill="#ADD1B2" rx="11" ry="11" style="stroke:#181818;stroke-width:1;"/><path d="M647.7656,177.875 Q647.9219,177.6563 648.1094,177.5469 Q648.2969,177.4375 648.5156,177.4375 Q648.8906,177.4375 649.125,177.6953 Q649.3594,177.9531 649.3594,178.5625 L649.3594,180.0156 Q649.3594,180.625 649.125,180.8906 Q648.8906,181.1563 648.5156,181.1563 Q648.1719,181.1563 647.9688,180.9531 Q647.7656,180.7656 647.6563,180.25 Q647.6094,179.8906 647.4219,179.7031 Q647.0938,179.3281 646.4844,179.1094 Q645.875,178.8906 645.25,178.8906 Q644.4844,178.8906 643.8516,179.2188 Q643.2188,179.5469 642.7266,180.2969 Q642.2344,181.0469 642.2344,182.0781 L642.2344,183.1719 Q642.2344,184.4063 643.125,185.2266 Q644.0156,186.0469 645.6094,186.0469 Q646.5469,186.0469 647.2031,185.7969 Q647.5938,185.6406 648.0156,185.2031 Q648.2813,184.9375 648.4297,184.8594 Q648.5781,184.7813 648.7813,184.7813 Q649.1094,184.7813 649.3672,185.0391 Q649.625,185.2969 649.625,185.6406 Q649.625,185.9844 649.2813,186.3906 Q648.7813,186.9688 647.9844,187.2969 Q646.9063,187.75 645.6094,187.75 Q644.0938,187.75 642.8906,187.125 Q641.9063,186.625 641.2188,185.5547 Q640.5313,184.4844 640.5313,183.2031 L640.5313,182.0469 Q640.5313,180.7188 641.1484,179.5703 Q641.7656,178.4219 642.8594,177.8047 Q643.9531,177.1875 645.1875,177.1875 Q645.9219,177.1875 646.5703,177.3516 Q647.2188,177.5156 647.7656,177.875 Z " fill="#000000"/><text fill="#000000" font-family="sans-serif" font-size="14" lengthAdjust="spacing" textLength="126.0547" x="659" y="187.7285">Image Preprocessor</text><line style="stroke:#181818;stroke-width:0.5;" x1="631" x2="787.0547" y1="198" y2="198"/><line style="stroke:#181818;stroke-width:0.5;" x1="631" x2="787.0547" y1="206" y2="206"/></g><!--class OCR--><g class="entity" data-entity="OCR" data-source-line="4" data-uid="ent0024" id="entity_OCR"><rect fill="#F1F1F1" height="48" rx="2.5" ry="2.5" style="stroke:#181818;stroke-width:0.5;" width="63.1104" x="630.5" y="274"/><ellipse cx="645.5" cy="290" fill="#ADD1B2" rx="11" ry="11" style="stroke:#181818;stroke-width:1;"/><path d="M648.2656,285.875 Q648.4219,285.6563 648.6094,285.5469 Q648.7969,285.4375 649.0156,285.4375 Q649.3906,285.4375 649.625,285.6953 Q649.8594,285.9531 649.8594,286.5625 L649.8594,288.0156 Q649.8594,288.625 649.625,288.8906 Q649.3906,289.1563 649.0156,289.1563 Q648.6719,289.1563 648.4688,288.9531 Q648.2656,288.7656 648.1563,288.25 Q648.1094,287.8906 647.9219,287.7031 Q647.5938,287.3281 646.9844,287.1094 Q646.375,286.8906 645.75,286.8906 Q644.9844,286.8906 644.3516,287.2188 Q643.7188,287.5469 643.2266,288.2969 Q642.7344,289.0469 642.7344,290.0781 L642.7344,291.1719 Q642.7344,292.4063 643.625,293.2266 Q644.5156,294.0469 646.1094,294.0469 Q647.0469,294.0469 647.7031,293.7969 Q648.0938,293.6406 648.5156,293.2031 Q648.7813,292.9375 648.9297,292.8594 Q649.0781,292.7813 649.2813,292.7813 Q649.6094,292.7813 649.8672,293.0391 Q650.125,293.2969 650.125,293.6406 Q650.125,293.9844 649.7813,294.3906 Q649.2813,294.9688 648.4844,295.2969 Q647.4063,295.75 646.1094,295.75 Q644.5938,295.75 643.3906,295.125 Q642.4063,294.625 641.7188,293.5547 Q641.0313,292.4844 641.0313,291.2031 L641.0313,290.0469 Q641.0313,288.7188 641.6484,287.5703 Q642.2656,286.4219 643.3594,285.8047 Q644.4531,285.1875 645.6875,285.1875 Q646.4219,285.1875 647.0703,285.3516 Q647.7188,285.5156 648.2656,285.875 Z " fill="#000000"/><text fill="#000000" font-family="sans-serif" font-size="14" lengthAdjust="spacing" textLength="31.1104" x="659.5" y="295.7285">OCR</text><line style="stroke:#181818;stroke-width:0.5;" x1="631.5" x2="692.6104" y1="306" y2="306"/><line style="stroke:#181818;stroke-width:0.5;" x1="631.5" x2="692.6104" y1="314" y2="314"/></g><!--class TEI Converter--><g class="entity" data-entity="TEI Converter" data-source-line="5" data-uid="ent0025" id="entity_TEI Converter"><rect fill="#F1F1F1" height="48" rx="2.5" ry="2.5" style="stroke:#181818;stroke-width:0.5;" width="119.1377" x="718.5" y="382"/><ellipse cx="733.5" cy="398" fill="#ADD1B2" rx="11" ry="11" style="stroke:#181818;stroke-width:1;"/><path d="M736.2656,393.875 Q736.4219,393.6563 736.6094,393.5469 Q736.7969,393.4375 737.0156,393.4375 Q737.3906,393.4375 737.625,393.6953 Q737.8594,393.9531 737.8594,394.5625 L737.8594,396.0156 Q737.8594,396.625 737.625,396.8906 Q737.3906,397.1563 737.0156,397.1563 Q736.6719,397.1563 736.4688,396.9531 Q736.2656,396.7656 736.1563,396.25 Q736.1094,395.8906 735.9219,395.7031 Q735.5938,395.3281 734.9844,395.1094 Q734.375,394.8906 733.75,394.8906 Q732.9844,394.8906 732.3516,395.2188 Q731.7188,395.5469 731.2266,396.2969 Q730.7344,397.0469 730.7344,398.0781 L730.7344,399.1719 Q730.7344,400.4063 731.625,401.2266 Q732.5156,402.0469 734.1094,402.0469 Q735.0469,402.0469 735.7031,401.7969 Q736.0938,401.6406 736.5156,401.2031 Q736.7813,400.9375 736.9297,400.8594 Q737.0781,400.7813 737.2813,400.7813 Q737.6094,400.7813 737.8672,401.0391 Q738.125,401.2969 738.125,401.6406 Q738.125,401.9844 737.7813,402.3906 Q737.2813,402.9688 736.4844,403.2969 Q735.4063,403.75 734.1094,403.75 Q732.5938,403.75 731.3906,403.125 Q730.4063,402.625 729.7188,401.5547 Q729.0313,400.4844 729.0313,399.2031 L729.0313,398.0469 Q729.0313,396.7188 729.6484,395.5703 Q730.2656,394.4219 731.3594,393.8047 Q732.4531,393.1875 733.6875,393.1875 Q734.4219,393.1875 735.0703,393.3516 Q735.7188,393.5156 736.2656,393.875 Z " fill="#000000"/><text fill="#000000" font-family="sans-serif" font-size="14" lengthAdjust="spacing" textLength="87.1377" x="747.5" y="403.7285">TEI Converter</text><line style="stroke:#181818;stroke-width:0.5;" x1="719.5" x2="836.6377" y1="414" y2="414"/><line style="stroke:#181818;stroke-width:0.5;" x1="719.5" x2="836.6377" y1="422" y2="422"/></g><!--class Normalisation Engine--><g class="entity" data-entity="Normalisation Engine" data-source-line="6" data-uid="ent0026" id="entity_Normalisation Engine"><rect fill="#F1F1F1" height="48" rx="2.5" ry="2.5" style="stroke:#181818;stroke-width:0.5;" width="165.0684" x="720.5" y="490"/><ellipse cx="735.5" cy="506" fill="#ADD1B2" rx="11" ry="11" style="stroke:#181818;stroke-width:1;"/><path d="M738.2656,501.875 Q738.4219,501.6563 738.6094,501.5469 Q738.7969,501.4375 739.0156,501.4375 Q739.3906,501.4375 739.625,501.6953 Q739.8594,501.9531 739.8594,502.5625 L739.8594,504.0156 Q739.8594,504.625 739.625,504.8906 Q739.3906,505.1563 739.0156,505.1563 Q738.6719,505.1563 738.4688,504.9531 Q738.2656,504.7656 738.1563,504.25 Q738.1094,503.8906 737.9219,503.7031 Q737.5938,503.3281 736.9844,503.1094 Q736.375,502.8906 735.75,502.8906 Q734.9844,502.8906 734.3516,503.2188 Q733.7188,503.5469 733.2266,504.2969 Q732.7344,505.0469 732.7344,506.0781 L732.7344,507.1719 Q732.7344,508.4063 733.625,509.2266 Q734.5156,510.0469 736.1094,510.0469 Q737.0469,510.0469 737.7031,509.7969 Q738.0938,509.6406 738.5156,509.2031 Q738.7813,508.9375 738.9297,508.8594 Q739.0781,508.7813 739.2813,508.7813 Q739.6094,508.7813 739.8672,509.0391 Q740.125,509.2969 740.125,509.6406 Q740.125,509.9844 739.7813,510.3906 Q739.2813,510.9688 738.4844,511.2969 Q737.4063,511.75 736.1094,511.75 Q734.5938,511.75 733.3906,511.125 Q732.4063,510.625 731.7188,509.5547 Q731.0313,508.4844 731.0313,507.2031 L731.0313,506.0469 Q731.0313,504.7188 731.6484,503.5703 Q732.2656,502.4219 733.3594,501.8047 Q734.4531,501.1875 735.6875,501.1875 Q736.4219,501.1875 737.0703,501.3516 Q737.7188,501.5156 738.2656,501.875 Z " fill="#000000"/><text fill="#000000" font-family="sans-serif" font-size="14" lengthAdjust="spacing" textLength="133.0684" x="749.5" y="511.7285">Normalisation Engine</text><line style="stroke:#181818;stroke-width:0.5;" x1="721.5" x2="884.5684" y1="522" y2="522"/><line style="stroke:#181818;stroke-width:0.5;" x1="721.5" x2="884.5684" y1="530" y2="530"/></g><!--class Metadata Extractor--><g class="entity" data-entity="Metadata Extractor" data-source-line="7" data-uid="ent0027" id="entity_Metadata Extractor"><rect fill="#F1F1F1" height="48" rx="2.5" ry="2.5" style="stroke:#181818;stroke-width:0.5;" width="150.2754" x="724" y="598"/><ellipse cx="739" cy="614" fill="#ADD1B2" rx="11" ry="11" style="stroke:#181818;stroke-width:1;"/><path d="M741.7656,609.875 Q741.9219,609.6563 742.1094,609.5469 Q742.2969,609.4375 742.5156,609.4375 Q742.8906,609.4375 743.125,609.6953 Q743.3594,609.9531 743.3594,610.5625 L743.3594,612.0156 Q743.3594,612.625 743.125,612.8906 Q742.8906,613.1563 742.5156,613.1563 Q742.1719,613.1563 741.9688,612.9531 Q741.7656,612.7656 741.6563,612.25 Q741.6094,611.8906 741.4219,611.7031 Q741.0938,611.3281 740.4844,611.1094 Q739.875,610.8906 739.25,610.8906 Q738.4844,610.8906 737.8516,611.2188 Q737.2188,611.5469 736.7266,612.2969 Q736.2344,613.0469 736.2344,614.0781 L736.2344,615.1719 Q736.2344,616.4063 737.125,617.2266 Q738.0156,618.0469 739.6094,618.0469 Q740.5469,618.0469 741.2031,617.7969 Q741.5938,617.6406 742.0156,617.2031 Q742.2813,616.9375 742.4297,616.8594 Q742.5781,616.7813 742.7813,616.7813 Q743.1094,616.7813 743.3672,617.0391 Q743.625,617.2969 743.625,617.6406 Q743.625,617.9844 743.2813,618.3906 Q742.7813,618.9688 741.9844,619.2969 Q740.9063,619.75 739.6094,619.75 Q738.0938,619.75 736.8906,619.125 Q735.9063,618.625 735.2188,617.5547 Q734.5313,616.4844 734.5313,615.2031 L734.5313,614.0469 Q734.5313,612.7188 735.1484,611.5703 Q735.7656,610.4219 736.8594,609.8047 Q737.9531,609.1875 739.1875,609.1875 Q739.9219,609.1875 740.5703,609.3516 Q741.2188,609.5156 741.7656,609.875 Z " fill="#000000"/><text fill="#000000" font-family="sans-serif" font-size="14" lengthAdjust="spacing" textLength="118.2754" x="753" y="619.7285">Metadata Extractor</text><line style="stroke:#181818;stroke-width:0.5;" x1="725" x2="873.2754" y1="630" y2="630"/><line style="stroke:#181818;stroke-width:0.5;" x1="725" x2="873.2754" y1="638" y2="638"/></g><g class="entity" data-entity="GMN57" data-source-line="34" data-uid="ent0058" id="entity_GMN57"><path d="M790.5,848.5 L790.5,891.2031 L1089.7051,891.2031 L1089.7051,858.5 L1079.7051,848.5 L790.5,848.5" fill="#FFFFE0" style="stroke:#000000;stroke-width:0.5;"/><path d="M1079.7051,848.5 L1079.7051,858.5 L1089.7051,858.5 L1079.7051,848.5" fill="#FFFFE0" style="stroke:#000000;stroke-width:1;"/><text fill="#000000" font-family="sans-serif" font-size="13" lengthAdjust="spacing" textLength="278.2051" x="796.5" y="866.9951">This component displays processed corpus data</text><text fill="#000000" font-family="sans-serif" font-size="13" lengthAdjust="spacing" textLength="265.9097" x="796.5" y="883.3467">and allows user interaction with analysis tools.</text></g><g class="entity" data-entity="GMN60" data-source-line="39" data-uid="ent0061" id="entity_GMN60"><path d="M1124.5,848.5 L1124.5,891.2031 L1415.7007,891.2031 L1415.7007,858.5 L1405.7007,848.5 L1124.5,848.5" fill="#FFFFE0" style="stroke:#000000;stroke-width:0.5;"/><path d="M1405.7007,848.5 L1405.7007,858.5 L1415.7007,858.5 L1405.7007,848.5" fill="#FFFFE0" style="stroke:#000000;stroke-width:1;"/><text fill="#000000" font-family="sans-serif" font-size="13" lengthAdjust="spacing" textLength="270.2007" x="1130.5" y="866.9951">Performs NLP analysis on Normalised Text DB</text><text fill="#000000" font-family="sans-serif" font-size="13" lengthAdjust="spacing" textLength="261.5933" x="1130.5" y="883.3467">and generates features for Novelty Detection.</text></g><!--link Corpus Explorer UI to Training Corpus--><g class="link" data-entity-1="Corpus Explorer UI" data-entity-2="Training Corpus" data-source-line="3" data-uid="lnk28" id="link_Corpus Explorer UI_Training Corpus"><path codeLine="3" d="M389.3,845.97 C436.77,830.59 502.53,811.49 562,802 C602.64,795.51 707.42,805.24 747,794 C765,788.89 778.225,782.4026 793.155,773.1826" fill="none" id="Corpus Explorer UI-to-Training Corpus" style="stroke:#FF0000;stroke-width:1;"/><polygon fill="#FF0000" points="798.26,770.03,788.5008,771.3555,794.0058,772.6572,792.7042,778.1622,798.26,770.03" style="stroke:#FF0000;stroke-width:1;"/></g><!--link Corpus Explorer UI to TEI Repository--><g class="link" data-entity-1="Corpus Explorer UI" data-entity-2="TEI Repository" data-source-line="4" data-uid="lnk29" id="link_Corpus Explorer UI_TEI Repository"><path codeLine="4" d="M392.97,845.97 C463.12,825.31 561.36,797.69 570,794 C585.4,787.41 596.2735,781.3668 611.0835,773.0168" fill="none" id="Corpus Explorer UI-to-TEI Repository" style="stroke:#FF0000;stroke-width:1;"/><polygon fill="#FF0000" points="616.31,770.07,606.5057,771.0058,611.9546,772.5256,610.4347,777.9745,616.31,770.07" style="stroke:#FF0000;stroke-width:1;"/></g><!--link TEI Repository to Corpus Explorer UI--><g class="link" data-entity-1="TEI Repository" data-entity-2="Corpus Explorer UI" data-source-line="2" data-uid="lnk50" id="link_TEI Repository_Corpus Explorer UI"><path codeLine="2" d="M648.97,770.07 C636.5,778.42 620.4,787.41 605,794 C595.57,798.03 485.118,829.0843 404.578,849.9643" fill="none" id="TEI Repository-to-Corpus Explorer UI" style="stroke:#8B0000;stroke-width:1;"/><polygon fill="#8B0000" points="398.77,851.47,408.4858,853.0834,403.61,850.2152,406.4782,845.3394,398.77,851.47" style="stroke:#8B0000;stroke-width:1;"/></g><!--link Training Corpus to MacBERTh NLP Model--><g class="link" data-entity-1="Training Corpus" data-entity-2="MacBERTh NLP Model" data-source-line="6" data-uid="lnk30" id="link_Training Corpus_MacBERTh NLP Model"><path codeLine="6" d="M799.77,770.23 C770.59,791.94 732.0738,820.5885 702.9338,842.2685" fill="none" id="Training Corpus-to-MacBERTh NLP Model" style="stroke:#FF0000;stroke-width:1;"/><polygon fill="#FF0000" points="698.12,845.85,707.7284,843.687,702.1315,842.8654,702.9531,837.2686,698.12,845.85" style="stroke:#FF0000;stroke-width:1;"/></g><!--link TEI Repository to MacBERTh NLP Model--><g class="link" data-entity-1="TEI Repository" data-entity-2="MacBERTh NLP Model" data-source-line="7" data-uid="lnk31" id="link_TEI Repository_MacBERTh NLP Model"><path codeLine="7" d="M667,770.23 C667,791.94 667,818.17 667,839.85" fill="none" id="TEI Repository-to-MacBERTh NLP Model" style="stroke:#FF0000;stroke-width:1;"/><polygon fill="#FF0000" points="667,845.85,671,836.85,667,840.85,663,836.85,667,845.85" style="stroke:#FF0000;stroke-width:1;"/></g><!--link Statistics + Graphing Tools to Corpus Explorer UI--><g class="link" data-entity-1="Statistics . Graphing Tools" data-entity-2="Corpus Explorer UI" data-source-line="9" data-uid="lnk32" id="link_Statistics . Graphing Tools_Corpus Explorer UI"><path codeLine="9" d="M155.39,770.09 C172.99,779.39 194.32,790.61 213,802 C234.92,815.37 253.3827,828.9195 273.4227,842.4095" fill="none" id="Statistics + Graphing Tools-to-Corpus Explorer UI" style="stroke:#FF0000;stroke-width:1;"/><polygon fill="#FF0000" points="278.4,845.76,273.1677,837.416,274.2522,842.9679,268.7003,844.0525,278.4,845.76" style="stroke:#FF0000;stroke-width:1;"/></g><!--link Statistics + Graphing Tools to Corpus Explorer UI--><g class="link" data-entity-1="Statistics . Graphing Tools" data-entity-2="Corpus Explorer UI" data-source-line="8" data-uid="lnk54" id="link_Statistics . Graphing Tools_Corpus Explorer UI"><path codeLine="8" d="M188.04,770.09 C207.99,779.39 229.32,790.61 248,802 C269.92,815.37 288.8265,828.3396 304.3865,841.8296" fill="none" id="Statistics + Graphing Tools-to-Corpus Explorer UI-1" style="stroke:#8B0000;stroke-width:1;"/><polygon fill="#8B0000" points="308.92,845.76,304.74,836.8422,305.1421,842.4847,299.4996,842.8868,308.92,845.76" style="stroke:#8B0000;stroke-width:1;"/></g><!--link Novelty Detection to MacBERTh NLP Model--><g class="link" data-entity-1="Novelty Detection" data-entity-2="MacBERTh NLP Model" data-source-line="10" data-uid="lnk33" id="link_Novelty Detection_MacBERTh NLP Model"><path codeLine="10" d="M396.82,770.01 C416.4,777.95 437.51,786.68 457,794 C507.32,812.89 559.1371,829.8951 601.4971,843.9951" fill="none" id="Novelty Detection-to-MacBERTh NLP Model" style="stroke:#FF0000;stroke-width:1;"/><polygon fill="#FF0000" points="607.19,845.89,599.9139,839.2523,602.4459,844.3109,597.3873,846.8428,607.19,845.89" style="stroke:#FF0000;stroke-width:1;"/></g><!--link MacBERTh NLP Model to Novelty Detection--><g class="link" data-entity-1="MacBERTh NLP Model" data-entity-2="Novelty Detection" data-source-line="4" data-uid="lnk51" id="link_MacBERTh NLP Model_Novelty Detection"><path codeLine="4" d="M578.3,846.38 C531.16,832.23 472.91,813.11 422,794 C402.51,786.68 386.8655,780.4255 369.3355,772.4855" fill="none" id="MacBERTh NLP Model-to-Novelty Detection" style="stroke:#8B0000;stroke-width:1;"/><polygon fill="#8B0000" points="363.87,770.01,370.4179,777.367,368.4246,772.0729,373.7186,770.0796,363.87,770.01" style="stroke:#8B0000;stroke-width:1;"/></g><!--link EEBO HTML to EEBO HTML Parser--><g class="link" data-entity-1="EEBO HTML" data-entity-2="EEBO HTML Parser" data-source-line="1" data-uid="lnk34" id="link_EEBO HTML_EEBO HTML Parser"><path codeLine="1" d="M1120.82,90.32 C1082.58,134.52 1003.9163,225.443 965.8563,269.423" fill="none" id="EEBO HTML-to-EEBO HTML Parser" style="stroke:#008000;stroke-width:1;"/><polygon fill="#008000" points="961.93,273.96,970.8441,269.772,965.2019,270.1792,964.7948,264.537,961.93,273.96" style="stroke:#008000;stroke-width:1;"/></g><!--link EEBO XML to TEI Parser--><g class="link" data-entity-1="EEBO XML" data-entity-2="TEI Parser" data-source-line="2" data-uid="lnk35" id="link_EEBO XML_TEI Parser"><path codeLine="2" d="M974.8,90.32 C932.71,134.52 845.9471,225.6344 804.0771,269.6144" fill="none" id="EEBO XML-to-TEI Parser" style="stroke:#008000;stroke-width:1;"/><polygon fill="#008000" points="799.94,273.96,809.0427,270.1997,803.3876,270.3387,803.2486,264.6835,799.94,273.96" style="stroke:#008000;stroke-width:1;"/></g><!--link EEBO Images (TIFF/JPEG) to Image Preprocessor--><g class="link" data-entity-1="EEBO Images .TIFF.JPEG." data-entity-2="Image Preprocessor" data-source-line="3" data-uid="lnk36" id="link_EEBO Images .TIFF.JPEG._Image Preprocessor"><path codeLine="3" d="M202.08,90.07 C222.88,98.58 247.26,107.68 270,114 C393.47,148.34 535.1336,168.9277 623.8636,179.6877" fill="none" id="EEBO Images (TIFF/JPEG)-to-Image Preprocessor" style="stroke:#008000;stroke-width:1;"/><polygon fill="#008000" points="629.82,180.41,621.367,175.3556,624.8564,179.8081,620.4039,183.2974,629.82,180.41" style="stroke:#008000;stroke-width:1;"/></g><!--link MPESE to TEI Parser--><g class="link" data-entity-1="MPESE" data-entity-2="TEI Parser" data-source-line="4" data-uid="lnk37" id="link_MPESE_TEI Parser"><path codeLine="4" d="M772.2,90.12 C785.65,98.1 798.16,108.53 806,122 C834.19,170.39 810.794,233.0389 793.384,268.3389" fill="none" id="MPESE-to-TEI Parser" style="stroke:#008000;stroke-width:1;"/><polygon fill="#008000" points="790.73,273.72,798.2984,267.4176,792.9416,269.2357,791.1235,263.879,790.73,273.72" style="stroke:#008000;stroke-width:1;"/></g><!--link MPESE to Image Preprocessor--><g class="link" data-entity-1="MPESE" data-entity-2="Image Preprocessor" data-source-line="5" data-uid="lnk38" id="link_MPESE_Image Preprocessor"><path codeLine="5" d="M709,90.23 C709,111.94 709,138.17 709,159.85" fill="none" id="MPESE-to-Image Preprocessor" style="stroke:#008000;stroke-width:1;"/><polygon fill="#008000" points="709,165.85,713,156.85,709,160.85,705,156.85,709,165.85" style="stroke:#008000;stroke-width:1;"/></g><!--link EEBO HTML Parser to TEI Converter--><g class="link" data-entity-1="EEBO HTML Parser" data-entity-2="TEI Converter" data-source-line="1" data-uid="lnk39" id="link_EEBO HTML Parser_TEI Converter"><path codeLine="1" d="M906.41,322 C879,339.72 846.3095,360.8537 818.8395,378.6037" fill="none" id="EEBO HTML Parser-to-TEI Converter" style="stroke:#A52A2A;stroke-width:1;"/><polygon fill="#A52A2A" points="813.8,381.86,823.5301,380.3352,817.9996,379.1464,819.1884,373.6159,813.8,381.86" style="stroke:#A52A2A;stroke-width:1;"/></g><!--link TEI Parser to TEI Converter--><g class="link" data-entity-1="TEI Parser" data-entity-2="TEI Converter" data-source-line="2" data-uid="lnk40" id="link_TEI Parser_TEI Converter"><path codeLine="2" d="M778,322 C778,339.66 778,357.94 778,375.68" fill="none" id="TEI Parser-to-TEI Converter" style="stroke:#A52A2A;stroke-width:1;"/><polygon fill="#A52A2A" points="778,381.68,782,372.68,778,376.68,774,372.68,778,381.68" style="stroke:#A52A2A;stroke-width:1;"/></g><!--link Image Preprocessor to OCR--><g class="link" data-entity-1="Image Preprocessor" data-entity-2="OCR" data-source-line="3" data-uid="lnk41" id="link_Image Preprocessor_OCR"><path codeLine="3" d="M698.8,214 C690.97,231.66 682.6431,250.4555 674.7731,268.1955" fill="none" id="Image Preprocessor-to-OCR" style="stroke:#A52A2A;stroke-width:1;"/><polygon fill="#A52A2A" points="672.34,273.68,679.646,267.0753,674.3676,269.1096,672.3333,263.8311,672.34,273.68" style="stroke:#A52A2A;stroke-width:1;"/></g><!--link OCR to TEI Converter--><g class="link" data-entity-1="OCR" data-entity-2="TEI Converter" data-source-line="4" data-uid="lnk42" id="link_OCR_TEI Converter"><path codeLine="4" d="M687.17,322 C706.49,339.66 728.6411,359.8922 748.0511,377.6322" fill="none" id="OCR-to-TEI Converter" style="stroke:#A52A2A;stroke-width:1;"/><polygon fill="#A52A2A" points="752.48,381.68,748.5352,372.6557,748.7893,378.3068,743.1381,378.5608,752.48,381.68" style="stroke:#A52A2A;stroke-width:1;"/></g><!--link TEI Converter to TEI Repository--><g class="link" data-entity-1="TEI Converter" data-entity-2="TEI Repository" data-source-line="7" data-uid="lnk43" id="link_TEI Converter_TEI Repository"><path codeLine="7" d="M749.9,430.21 C733.46,445.44 713.86,466.78 703,490 C666.06,568.97 664.3339,669.5926 665.6939,715.9226" fill="none" id="TEI Converter-to-TEI Repository" style="stroke:#A52A2A;stroke-width:1;"/><polygon fill="#A52A2A" points="665.87,721.92,669.6042,712.8065,665.7233,716.9222,661.6076,713.0412,665.87,721.92" style="stroke:#A52A2A;stroke-width:1;"/></g><!--link TEI Converter to Normalisation Engine--><g class="link" data-entity-1="TEI Converter" data-entity-2="Normalisation Engine" data-source-line="8" data-uid="lnk44" id="link_TEI Converter_Normalisation Engine"><path codeLine="8" d="M783.42,430 C787.59,447.66 791.9439,466.0999 796.1239,483.8399" fill="none" id="TEI Converter-to-Normalisation Engine" style="stroke:#A52A2A;stroke-width:1;"/><polygon fill="#A52A2A" points="797.5,489.68,799.3293,480.0025,796.3533,484.8133,791.5425,481.8373,797.5,489.68" style="stroke:#A52A2A;stroke-width:1;"/></g><!--link Normalisation Engine to Normalised Text DB--><g class="link" data-entity-1="Normalisation Engine" data-entity-2="Normalised Text DB" data-source-line="1" data-uid="lnk45" id="link_Normalisation Engine_Normalised Text DB"><path codeLine="1" d="M829.62,538.05 C847.81,554.22 872.12,576.67 892,598 C930.74,639.55 967.8533,687.275 990.1933,716.975" fill="none" id="Normalisation Engine-to-Normalised Text DB" style="stroke:#0000FF;stroke-width:1;"/><polygon fill="#0000FF" points="993.8,721.77,991.5866,712.1731,990.7944,717.7742,985.1933,716.982,993.8,721.77" style="stroke:#0000FF;stroke-width:1;"/></g><!--link Normalisation Engine to Metadata Extractor--><g class="link" data-entity-1="Normalisation Engine" data-entity-2="Metadata Extractor" data-source-line="2" data-uid="lnk46" id="link_Normalisation Engine_Metadata Extractor"><path codeLine="2" d="M802.13,538 C801.47,555.66 800.7764,573.9443 800.1064,591.6843" fill="none" id="Normalisation Engine-to-Metadata Extractor" style="stroke:#0000FF;stroke-width:1;"/><polygon fill="#0000FF" points="799.88,597.68,804.2168,588.8374,800.0687,592.6836,796.2225,588.5354,799.88,597.68" style="stroke:#0000FF;stroke-width:1;"/></g><!--link Metadata Extractor to Metadata DB--><g class="link" data-entity-1="Metadata Extractor" data-entity-2="Metadata DB" data-source-line="3" data-uid="lnk47" id="link_Metadata Extractor_Metadata DB"><path codeLine="3" d="M723.69,633.56 C681.67,641.6 629.41,655.3 587,678 C566.22,689.12 550.6601,702.8264 536.6601,717.3764" fill="none" id="Metadata Extractor-to-Metadata DB" style="stroke:#0000FF;stroke-width:1;"/><polygon fill="#0000FF" points="532.5,721.7,541.6226,717.9881,535.9668,718.097,535.8578,712.4412,532.5,721.7" style="stroke:#0000FF;stroke-width:1;"/></g><!--link Normalised Text DB to MacBERTh NLP Model--><g class="link" data-entity-1="Normalised Text DB" data-entity-2="MacBERTh NLP Model" data-source-line="5" data-uid="lnk48" id="link_Normalised Text DB_MacBERTh NLP Model"><path codeLine="5" d="M972.67,770.14 C955.62,779.26 934.93,788.79 915,794 C853.85,809.99 833.2,782.72 773,802 C743.97,811.3 719.7633,826.8247 699.4633,842.2847" fill="none" id="Normalised Text DB-to-MacBERTh NLP Model" style="stroke:#0000FF;stroke-width:1;"/><polygon fill="#0000FF" points="694.69,845.92,704.2735,843.6493,698.6678,842.8906,699.4265,837.2849,694.69,845.92" style="stroke:#0000FF;stroke-width:1;"/></g><!--link Metadata DB to Corpus Explorer UI--><g class="link" data-entity-1="Metadata DB" data-entity-2="Corpus Explorer UI" data-source-line="1" data-uid="lnk49" id="link_Metadata DB_Corpus Explorer UI"><path codeLine="1" d="M476.01,770.23 C442.38,791.94 397.4912,820.9163 363.9012,842.5963" fill="none" id="Metadata DB-to-Corpus Explorer UI" style="stroke:#8B0000;stroke-width:1;"/><polygon fill="#8B0000" points="358.86,845.85,368.5909,844.3302,363.061,843.1386,364.2526,837.6086,358.86,845.85" style="stroke:#8B0000;stroke-width:1;"/></g><!--link Novelty Detection to Corpus Explorer UI--><g class="link" data-entity-1="Novelty Detection" data-entity-2="Corpus Explorer UI" data-source-line="5" data-uid="lnk52" id="link_Novelty Detection_Corpus Explorer UI"><path codeLine="5" d="M327.05,770.23 C326.16,791.94 325.0861,818.175 324.1961,839.855" fill="none" id="Novelty Detection-to-Corpus Explorer UI" style="stroke:#8B0000;stroke-width:1;"/><polygon fill="#8B0000" points="323.95,845.85,328.3158,837.0216,324.1551,840.8542,320.3225,836.6935,323.95,845.85" style="stroke:#8B0000;stroke-width:1;"/></g><!--link WYSIWYG Editor to Corpus Explorer UI--><g class="link" data-entity-1="WYSIWYG Editor" data-entity-2="Corpus Explorer UI" data-source-line="7" data-uid="lnk53" id="link_WYSIWYG Editor_Corpus Explorer UI"><path codeLine="7" d="M218.09,870 C229.79,870 229.49,870 241.19,870" fill="none" id="WYSIWYG Editor-Corpus Explorer UI" style="stroke:#8B0000;stroke-width:1;"/><polygon fill="#8B0000" points="212.09,870,221.09,874,217.09,870,221.09,866,212.09,870" style="stroke:#8B0000;stroke-width:1;"/><polygon fill="#8B0000" points="247.19,870,238.19,866,242.19,870,238.19,874,247.19,870" style="stroke:#8B0000;stroke-width:1;"/></g><!--link Normalised Text DB to Statistics + Graphing Tools--><g class="link" data-entity-1="Normalised Text DB" data-entity-2="Statistics . Graphing Tools" data-source-line="10" data-uid="lnk55" id="link_Normalised Text DB_Statistics . Graphing Tools"><path codeLine="10" d="M987.47,721.98 C966.15,702.61 932.75,677.98 897.5,674 C862.17,670.01 292.83,670.01 257.5,674 C217.53,678.51 182.4076,699.2007 156.3476,718.3207" fill="none" id="Normalised Text DB-to-Statistics + Graphing Tools" style="stroke:#8B0000;stroke-width:1;"/><polygon fill="#8B0000" points="151.51,721.87,161.1326,719.7711,155.5413,718.9122,156.4002,713.321,151.51,721.87" style="stroke:#8B0000;stroke-width:1;"/></g><!--link Metadata DB to Statistics + Graphing Tools--><g class="link" data-entity-1="Metadata DB" data-entity-2="Statistics . Graphing Tools" data-source-line="11" data-uid="lnk56" id="link_Metadata DB_Statistics . Graphing Tools"><path codeLine="11" d="M488.22,721.99 C466.68,702.63 432.97,678 397.5,674 C366.59,670.51 288.41,670.51 257.5,674 C249.57,674.89 247.43,675.09 240,678 C210.72,689.48 185.0746,704.1573 162.3246,718.7073" fill="none" id="Metadata DB-to-Statistics + Graphing Tools" style="stroke:#8B0000;stroke-width:1;"/><polygon fill="#8B0000" points="157.27,721.94,167.0071,720.4606,161.4822,719.246,162.6968,713.7211,157.27,721.94" style="stroke:#8B0000;stroke-width:1;"/></g><!--link Corpus Explorer UI to GMN57--><g class="link" data-entity-1="Corpus Explorer UI" data-entity-2="GMN57" data-source-line="34" data-uid="lnk59" id="link_Corpus Explorer UI_GMN57"><path d="M398.61,847.39 C445.49,833.64 507.05,816.09 562,802 C569.73,800.02 571.57,798.89 579.5,798 C618.14,793.64 715.86,793.64 754.5,798 C808.05,804.04 865.22,829.46 901.71,848.39" fill="none" id="Corpus Explorer UI-GMN57" style="stroke:#77777788;stroke-width:4;stroke-dasharray:7,7;"/></g><!--link GMN60 to MacBERTh NLP Model--><g class="link" data-entity-1="GMN60" data-entity-2="MacBERTh NLP Model" data-source-line="39" data-uid="lnk62" id="link_GMN60_MacBERTh NLP Model"><path d="M1232.83,848.33 C1197.39,829.35 1141.8,803.9 1089.5,798 C1056.49,794.28 823.51,794.28 790.5,798 C782.57,798.89 780.36,798.91 773,802 C746.19,813.26 718.63,831.17 698.33,845.79" fill="none" id="GMN60-MacBERTh NLP Model" style="stroke:#77777788;stroke-width:4;stroke-dasharray:7,7;"/></g><!--SRC=[ZPF1JkCm48RlFCKit5ijGe83ub0AKYMeAYWFC2JJnAepOtaSIdV5kw_ZDcb0ZRe-H97dcz__ZCS00ByCPxRE2KQZSIQL4oOEEeuV4mpfoDMLFODXqB2hmsdC6KVMCEt08oGpPS48wzYJ4lgi7D8ya8OBqkRtDEgyPAGQCqwpBBv2QnJ_JnePxLQDzahJTMmBUgoWQm7yJP5cJJ1R5rvgpk_5Yh-zdMB0kpkmfYZ3bgoLpJ2xs3UouV63E2S_33zBJhPLVhSr3QDlivOhF14FWxFcmblM6LuVKF7HJSBWuYgjBlOe75xD7uBVt_VcM14ycYB4GrFWwsS7qNlPzBgtB4ssvdYNS4pzijlR-xXEw-RckFX1bYNGZrgFNaZYUeM-svZK5sy0y4qco0hExyMxMk7XqqMQFBpDplkbQ6z2SgFEubPXFwoKns3ApkE0T5d8EM3ZIQ7Mg6WuaCSqZB0neOHs8268M1sbn3WeoLdFewNLpk8pPfE7bsK9ywS5f95fBIx8h-9Zq1JfPECvy_qJYHQNz1bWEZaxc2k8ew502Yl2KFlc9tPgBXzamnQc57PFvxkpVm00]--></g></svg>