<svg xmlns="http://www.w3.org/2000/svg" xmlns:xlink="http://www.w3.org/1999/xlink" contentStyleType="text/css" data-diagram-type="CLASS" height="1025px" preserveAspectRatio="none" style="width:2038px;height:1025px;background:#FFFFFF;" version="1.1" viewBox="0 0 2038 1025" width="2038px" zoomAndPan="magnify"><defs/><g><!--cluster Data / Corpus--><g class="cluster" data-entity="Data . Corpus" data-source-line="3" data-uid="ent0002" id="cluster_Data . Corpus"><path d="M589.5,686 L681.5137,686 A3.75,3.75 0 0 1 684.0137,688.5 L691.0137,709.6094 L1251.5,709.6094 A2.5,2.5 0 0 1 1254,712.1094 L1254,783.5 A2.5,2.5 0 0 1 1251.5,786 L589.5,786 A2.5,2.5 0 0 1 587,783.5 L587,688.5 A2.5,2.5 0 0 1 589.5,686" fill="#FFFFE0" style="stroke:#000000;stroke-width:1.5;"/><line style="stroke:#000000;stroke-width:1.5;" x1="587" x2="691.0137" y1="709.6094" y2="709.6094"/><text fill="#000000" font-family="sans-serif" font-size="14" font-weight="bold" lengthAdjust="spacing" textLength="91.0137" x="591" y="702.5332">Data / Corpus</text></g><!--cluster Models--><g class="cluster" data-entity="Models" data-source-line="10" data-uid="ent0007" id="cluster_Models"><path d="M784.5,810 L833.7275,810 A3.75,3.75 0 0 1 836.2275,812.5 L843.2275,833.6094 L1385.5,833.6094 A2.5,2.5 0 0 1 1388,836.1094 L1388,907.5 A2.5,2.5 0 0 1 1385.5,910 L784.5,910 A2.5,2.5 0 0 1 782,907.5 L782,812.5 A2.5,2.5 0 0 1 784.5,810" fill="#ADD8E6" style="stroke:#000000;stroke-width:1.5;"/><line style="stroke:#000000;stroke-width:1.5;" x1="782" x2="843.2275" y1="833.6094" y2="833.6094"/><text fill="#000000" font-family="sans-serif" font-size="14" font-weight="bold" lengthAdjust="spacing" textLength="48.2275" x="786" y="826.5332">Models</text></g><!--cluster UI / Tools--><g class="cluster" data-entity="UI . Tools" data-source-line="16" data-uid="ent0011" id="cluster_UI . Tools"><path d="M170.5,810 L234.5,810 A3.75,3.75 0 0 1 237,812.5 L244,833.6094 L755.5,833.6094 A2.5,2.5 0 0 1 758,836.1094 L758,1015.5 A2.5,2.5 0 0 1 755.5,1018 L170.5,1018 A2.5,2.5 0 0 1 168,1015.5 L168,812.5 A2.5,2.5 0 0 1 170.5,810" fill="#90EE90" style="stroke:#000000;stroke-width:1.5;"/><line style="stroke:#000000;stroke-width:1.5;" x1="168" x2="244" y1="833.6094" y2="833.6094"/><text fill="#000000" font-family="sans-serif" font-size="14" font-weight="bold" lengthAdjust="spacing" textLength="63" x="172" y="826.5332">UI / Tools</text></g><!--cluster Input Sources--><g class="cluster" data-entity="Input Sources" data-source-line="0" data-uid="ent0016" id="cluster_Input Sources"><path d="M296.5,6 L390.8447,6 A3.75,3.75 0 0 1 393.3447,8.5 L400.3447,29.6094 L1201.5,29.6094 A2.5,2.5 0 0 1 1204,32.1094 L1204,103.5 A2.5,2.5 0 0 1 1201.5,106 L296.5,106 A2.5,2.5 0 0 1 294,103.5 L294,8.5 A2.5,2.5 0 0 1 296.5,6" fill="#FFB6C1" style="stroke:#000000;stroke-width:1.5;"/><line style="stroke:#000000;stroke-width:1.5;" x1="294" x2="400.3447" y1="29.6094" y2="29.6094"/><text fill="#000000" font-family="sans-serif" font-size="14" font-weight="bold" lengthAdjust="spacing" textLength="93.3447" x="298" y="22.5332">Input Sources</text></g><!--cluster Processing_Pipeline--><g class="cluster" data-entity="Processing_Pipeline" data-source-line="0" data-uid="ent0020" id="cluster_Processing_Pipeline"><path d="M626.5,130 L764.4443,130 A3.75,3.75 0 0 1 766.9443,132.5 L773.9443,153.6094 L945.5,153.6094 A2.5,2.5 0 0 1 948,156.1094 L948,659.5 A2.5,2.5 0 0 1 945.5,662 L626.5,662 A2.5,2.5 0 0 1 624,659.5 L624,132.5 A2.5,2.5 0 0 1 626.5,130" fill="#E6E6FA" style="stroke:#000000;stroke-width:1.5;"/><line style="stroke:#000000;stroke-width:1.5;" x1="624" x2="773.9443" y1="153.6094" y2="153.6094"/><text fill="#000000" font-family="sans-serif" font-size="14" font-weight="bold" lengthAdjust="spacing" textLength="136.9443" x="628" y="146.5332">Processing_Pipeline</text></g><!--class Training Corpus--><g class="entity" data-entity="Training Corpus" data-source-line="4" data-uid="ent0003" id="entity_Training Corpus"><rect fill="#F1F1F1" height="48" rx="2.5" ry="2.5" style="stroke:#181818;stroke-width:0.5;" width="131.5996" x="913" y="722"/><ellipse cx="928" cy="738" fill="#ADD1B2" rx="11" ry="11" style="stroke:#181818;stroke-width:1;"/><path d="M930.7656,733.875 Q930.9219,733.6563 931.1094,733.5469 Q931.2969,733.4375 931.5156,733.4375 Q931.8906,733.4375 932.125,733.6953 Q932.3594,733.9531 932.3594,734.5625 L932.3594,736.0156 Q932.3594,736.625 932.125,736.8906 Q931.8906,737.1563 931.5156,737.1563 Q931.1719,737.1563 930.9688,736.9531 Q930.7656,736.7656 930.6563,736.25 Q930.6094,735.8906 930.4219,735.7031 Q930.0938,735.3281 929.4844,735.1094 Q928.875,734.8906 928.25,734.8906 Q927.4844,734.8906 926.8516,735.2188 Q926.2188,735.5469 925.7266,736.2969 Q925.2344,737.0469 925.2344,738.0781 L925.2344,739.1719 Q925.2344,740.4063 926.125,741.2266 Q927.0156,742.0469 928.6094,742.0469 Q929.5469,742.0469 930.2031,741.7969 Q930.5938,741.6406 931.0156,741.2031 Q931.2813,740.9375 931.4297,740.8594 Q931.5781,740.7813 931.7813,740.7813 Q932.1094,740.7813 932.3672,741.0391 Q932.625,741.2969 932.625,741.6406 Q932.625,741.9844 932.2813,742.3906 Q931.7813,742.9688 930.9844,743.2969 Q929.9063,743.75 928.6094,743.75 Q927.0938,743.75 925.8906,743.125 Q924.9063,742.625 924.2188,741.5547 Q923.5313,740.4844 923.5313,739.2031 L923.5313,738.0469 Q923.5313,736.7188 924.1484,735.5703 Q924.7656,734.4219 925.8594,733.8047 Q926.9531,733.1875 928.1875,733.1875 Q928.9219,733.1875 929.5703,733.3516 Q930.2188,733.5156 930.7656,733.875 Z " fill="#000000"/><text fill="#000000" font-family="sans-serif" font-size="14" lengthAdjust="spacing" textLength="99.5996" x="942" y="743.7285">Training Corpus</text><line style="stroke:#181818;stroke-width:0.5;" x1="914" x2="1043.5996" y1="754" y2="754"/><line style="stroke:#181818;stroke-width:0.5;" x1="914" x2="1043.5996" y1="762" y2="762"/></g><!--class TEI Repository--><g class="entity" data-entity="TEI Repository" data-source-line="5" data-uid="ent0004" id="entity_TEI Repository"><rect fill="#F1F1F1" height="48" rx="2.5" ry="2.5" style="stroke:#181818;stroke-width:0.5;" width="124.5859" x="603.5" y="722"/><ellipse cx="618.5" cy="738" fill="#ADD1B2" rx="11" ry="11" style="stroke:#181818;stroke-width:1;"/><path d="M621.2656,733.875 Q621.4219,733.6563 621.6094,733.5469 Q621.7969,733.4375 622.0156,733.4375 Q622.3906,733.4375 622.625,733.6953 Q622.8594,733.9531 622.8594,734.5625 L622.8594,736.0156 Q622.8594,736.625 622.625,736.8906 Q622.3906,737.1563 622.0156,737.1563 Q621.6719,737.1563 621.4688,736.9531 Q621.2656,736.7656 621.1563,736.25 Q621.1094,735.8906 620.9219,735.7031 Q620.5938,735.3281 619.9844,735.1094 Q619.375,734.8906 618.75,734.8906 Q617.9844,734.8906 617.3516,735.2188 Q616.7188,735.5469 616.2266,736.2969 Q615.7344,737.0469 615.7344,738.0781 L615.7344,739.1719 Q615.7344,740.4063 616.625,741.2266 Q617.5156,742.0469 619.1094,742.0469 Q620.0469,742.0469 620.7031,741.7969 Q621.0938,741.6406 621.5156,741.2031 Q621.7813,740.9375 621.9297,740.8594 Q622.0781,740.7813 622.2813,740.7813 Q622.6094,740.7813 622.8672,741.0391 Q623.125,741.2969 623.125,741.6406 Q623.125,741.9844 622.7813,742.3906 Q622.2813,742.9688 621.4844,743.2969 Q620.4063,743.75 619.1094,743.75 Q617.5938,743.75 616.3906,743.125 Q615.4063,742.625 614.7188,741.5547 Q614.0313,740.4844 614.0313,739.2031 L614.0313,738.0469 Q614.0313,736.7188 614.6484,735.5703 Q615.2656,734.4219 616.3594,733.8047 Q617.4531,733.1875 618.6875,733.1875 Q619.4219,733.1875 620.0703,733.3516 Q620.7188,733.5156 621.2656,733.875 Z " fill="#000000"/><text fill="#000000" font-family="sans-serif" font-size="14" lengthAdjust="spacing" textLength="92.5859" x="632.5" y="743.7285">TEI Repository</text><line style="stroke:#181818;stroke-width:0.5;" x1="604.5" x2="727.0859" y1="754" y2="754"/><line style="stroke:#181818;stroke-width:0.5;" x1="604.5" x2="727.0859" y1="762" y2="762"/></g><!--class Normalised Text DB--><g class="entity" data-entity="Normalised Text DB" data-source-line="6" data-uid="ent0005" id="entity_Normalised Text DB"><rect fill="#F1F1F1" height="48" rx="2.5" ry="2.5" style="stroke:#181818;stroke-width:0.5;" width="157.2549" x="1080.5" y="722"/><ellipse cx="1095.5" cy="738" fill="#ADD1B2" rx="11" ry="11" style="stroke:#181818;stroke-width:1;"/><path d="M1098.2656,733.875 Q1098.4219,733.6563 1098.6094,733.5469 Q1098.7969,733.4375 1099.0156,733.4375 Q1099.3906,733.4375 1099.625,733.6953 Q1099.8594,733.9531 1099.8594,734.5625 L1099.8594,736.0156 Q1099.8594,736.625 1099.625,736.8906 Q1099.3906,737.1563 1099.0156,737.1563 Q1098.6719,737.1563 1098.4688,736.9531 Q1098.2656,736.7656 1098.1563,736.25 Q1098.1094,735.8906 1097.9219,735.7031 Q1097.5938,735.3281 1096.9844,735.1094 Q1096.375,734.8906 1095.75,734.8906 Q1094.9844,734.8906 1094.3516,735.2188 Q1093.7188,735.5469 1093.2266,736.2969 Q1092.7344,737.0469 1092.7344,738.0781 L1092.7344,739.1719 Q1092.7344,740.4063 1093.625,741.2266 Q1094.5156,742.0469 1096.1094,742.0469 Q1097.0469,742.0469 1097.7031,741.7969 Q1098.0938,741.6406 1098.5156,741.2031 Q1098.7813,740.9375 1098.9297,740.8594 Q1099.0781,740.7813 1099.2813,740.7813 Q1099.6094,740.7813 1099.8672,741.0391 Q1100.125,741.2969 1100.125,741.6406 Q1100.125,741.9844 1099.7813,742.3906 Q1099.2813,742.9688 1098.4844,743.2969 Q1097.4063,743.75 1096.1094,743.75 Q1094.5938,743.75 1093.3906,743.125 Q1092.4063,742.625 1091.7188,741.5547 Q1091.0313,740.4844 1091.0313,739.2031 L1091.0313,738.0469 Q1091.0313,736.7188 1091.6484,735.5703 Q1092.2656,734.4219 1093.3594,733.8047 Q1094.4531,733.1875 1095.6875,733.1875 Q1096.4219,733.1875 1097.0703,733.3516 Q1097.7188,733.5156 1098.2656,733.875 Z " fill="#000000"/><text fill="#000000" font-family="sans-serif" font-size="14" lengthAdjust="spacing" textLength="125.2549" x="1109.5" y="743.7285">Normalised Text DB</text><line style="stroke:#181818;stroke-width:0.5;" x1="1081.5" x2="1236.7549" y1="754" y2="754"/><line style="stroke:#181818;stroke-width:0.5;" x1="1081.5" x2="1236.7549" y1="762" y2="762"/></g><!--class Metadata DB--><g class="entity" data-entity="Metadata DB" data-source-line="7" data-uid="ent0006" id="entity_Metadata DB"><rect fill="#F1F1F1" height="48" rx="2.5" ry="2.5" style="stroke:#181818;stroke-width:0.5;" width="113.71" x="764" y="722"/><ellipse cx="779" cy="738" fill="#ADD1B2" rx="11" ry="11" style="stroke:#181818;stroke-width:1;"/><path d="M781.7656,733.875 Q781.9219,733.6563 782.1094,733.5469 Q782.2969,733.4375 782.5156,733.4375 Q782.8906,733.4375 783.125,733.6953 Q783.3594,733.9531 783.3594,734.5625 L783.3594,736.0156 Q783.3594,736.625 783.125,736.8906 Q782.8906,737.1563 782.5156,737.1563 Q782.1719,737.1563 781.9688,736.9531 Q781.7656,736.7656 781.6563,736.25 Q781.6094,735.8906 781.4219,735.7031 Q781.0938,735.3281 780.4844,735.1094 Q779.875,734.8906 779.25,734.8906 Q778.4844,734.8906 777.8516,735.2188 Q777.2188,735.5469 776.7266,736.2969 Q776.2344,737.0469 776.2344,738.0781 L776.2344,739.1719 Q776.2344,740.4063 777.125,741.2266 Q778.0156,742.0469 779.6094,742.0469 Q780.5469,742.0469 781.2031,741.7969 Q781.5938,741.6406 782.0156,741.2031 Q782.2813,740.9375 782.4297,740.8594 Q782.5781,740.7813 782.7813,740.7813 Q783.1094,740.7813 783.3672,741.0391 Q783.625,741.2969 783.625,741.6406 Q783.625,741.9844 783.2813,742.3906 Q782.7813,742.9688 781.9844,743.2969 Q780.9063,743.75 779.6094,743.75 Q778.0938,743.75 776.8906,743.125 Q775.9063,742.625 775.2188,741.5547 Q774.5313,740.4844 774.5313,739.2031 L774.5313,738.0469 Q774.5313,736.7188 775.1484,735.5703 Q775.7656,734.4219 776.8594,733.8047 Q777.9531,733.1875 779.1875,733.1875 Q779.9219,733.1875 780.5703,733.3516 Q781.2188,733.5156 781.7656,733.875 Z " fill="#000000"/><text fill="#000000" font-family="sans-serif" font-size="14" lengthAdjust="spacing" textLength="81.71" x="793" y="743.7285">Metadata DB</text><line style="stroke:#181818;stroke-width:0.5;" x1="765" x2="876.71" y1="754" y2="754"/><line style="stroke:#181818;stroke-width:0.5;" x1="765" x2="876.71" y1="762" y2="762"/></g><!--class MacBERTh NLP Model--><g class="entity" data-entity="MacBERTh NLP Model" data-source-line="11" data-uid="ent0008" id="entity_MacBERTh NLP Model"><rect fill="#F1F1F1" height="48" rx="2.5" ry="2.5" style="stroke:#181818;stroke-width:0.5;" width="176.7168" x="1194.5" y="846"/><ellipse cx="1209.5" cy="862" fill="#ADD1B2" rx="11" ry="11" style="stroke:#181818;stroke-width:1;"/><path d="M1212.2656,857.875 Q1212.4219,857.6563 1212.6094,857.5469 Q1212.7969,857.4375 1213.0156,857.4375 Q1213.3906,857.4375 1213.625,857.6953 Q1213.8594,857.9531 1213.8594,858.5625 L1213.8594,860.0156 Q1213.8594,860.625 1213.625,860.8906 Q1213.3906,861.1563 1213.0156,861.1563 Q1212.6719,861.1563 1212.4688,860.9531 Q1212.2656,860.7656 1212.1563,860.25 Q1212.1094,859.8906 1211.9219,859.7031 Q1211.5938,859.3281 1210.9844,859.1094 Q1210.375,858.8906 1209.75,858.8906 Q1208.9844,858.8906 1208.3516,859.2188 Q1207.7188,859.5469 1207.2266,860.2969 Q1206.7344,861.0469 1206.7344,862.0781 L1206.7344,863.1719 Q1206.7344,864.4063 1207.625,865.2266 Q1208.5156,866.0469 1210.1094,866.0469 Q1211.0469,866.0469 1211.7031,865.7969 Q1212.0938,865.6406 1212.5156,865.2031 Q1212.7813,864.9375 1212.9297,864.8594 Q1213.0781,864.7813 1213.2813,864.7813 Q1213.6094,864.7813 1213.8672,865.0391 Q1214.125,865.2969 1214.125,865.6406 Q1214.125,865.9844 1213.7813,866.3906 Q1213.2813,866.9688 1212.4844,867.2969 Q1211.4063,867.75 1210.1094,867.75 Q1208.5938,867.75 1207.3906,867.125 Q1206.4063,866.625 1205.7188,865.5547 Q1205.0313,864.4844 1205.0313,863.2031 L1205.0313,862.0469 Q1205.0313,860.7188 1205.6484,859.5703 Q1206.2656,858.4219 1207.3594,857.8047 Q1208.4531,857.1875 1209.6875,857.1875 Q1210.4219,857.1875 1211.0703,857.3516 Q1211.7188,857.5156 1212.2656,857.875 Z " fill="#000000"/><text fill="#000000" font-family="sans-serif" font-size="14" lengthAdjust="spacing" textLength="144.7168" x="1223.5" y="867.7285">MacBERTh NLP Model</text><line style="stroke:#181818;stroke-width:0.5;" x1="1195.5" x2="1370.2168" y1="878" y2="878"/><line style="stroke:#181818;stroke-width:0.5;" x1="1195.5" x2="1370.2168" y1="886" y2="886"/></g><!--class fastText Global Index--><g class="entity" data-entity="fastText Global Index" data-source-line="12" data-uid="ent0009" id="entity_fastText Global Index"><rect fill="#F1F1F1" height="48" rx="2.5" ry="2.5" style="stroke:#181818;stroke-width:0.5;" width="164.2891" x="995" y="846"/><ellipse cx="1010" cy="862" fill="#ADD1B2" rx="11" ry="11" style="stroke:#181818;stroke-width:1;"/><path d="M1012.7656,857.875 Q1012.9219,857.6563 1013.1094,857.5469 Q1013.2969,857.4375 1013.5156,857.4375 Q1013.8906,857.4375 1014.125,857.6953 Q1014.3594,857.9531 1014.3594,858.5625 L1014.3594,860.0156 Q1014.3594,860.625 1014.125,860.8906 Q1013.8906,861.1563 1013.5156,861.1563 Q1013.1719,861.1563 1012.9688,860.9531 Q1012.7656,860.7656 1012.6563,860.25 Q1012.6094,859.8906 1012.4219,859.7031 Q1012.0938,859.3281 1011.4844,859.1094 Q1010.875,858.8906 1010.25,858.8906 Q1009.4844,858.8906 1008.8516,859.2188 Q1008.2188,859.5469 1007.7266,860.2969 Q1007.2344,861.0469 1007.2344,862.0781 L1007.2344,863.1719 Q1007.2344,864.4063 1008.125,865.2266 Q1009.0156,866.0469 1010.6094,866.0469 Q1011.5469,866.0469 1012.2031,865.7969 Q1012.5938,865.6406 1013.0156,865.2031 Q1013.2813,864.9375 1013.4297,864.8594 Q1013.5781,864.7813 1013.7813,864.7813 Q1014.1094,864.7813 1014.3672,865.0391 Q1014.625,865.2969 1014.625,865.6406 Q1014.625,865.9844 1014.2813,866.3906 Q1013.7813,866.9688 1012.9844,867.2969 Q1011.9063,867.75 1010.6094,867.75 Q1009.0938,867.75 1007.8906,867.125 Q1006.9063,866.625 1006.2188,865.5547 Q1005.5313,864.4844 1005.5313,863.2031 L1005.5313,862.0469 Q1005.5313,860.7188 1006.1484,859.5703 Q1006.7656,858.4219 1007.8594,857.8047 Q1008.9531,857.1875 1010.1875,857.1875 Q1010.9219,857.1875 1011.5703,857.3516 Q1012.2188,857.5156 1012.7656,857.875 Z " fill="#000000"/><text fill="#000000" font-family="sans-serif" font-size="14" lengthAdjust="spacing" textLength="132.2891" x="1024" y="867.7285">fastText Global Index</text><line style="stroke:#181818;stroke-width:0.5;" x1="996" x2="1158.2891" y1="878" y2="878"/><line style="stroke:#181818;stroke-width:0.5;" x1="996" x2="1158.2891" y1="886" y2="886"/></g><!--class fastText Slices Index--><g class="entity" data-entity="fastText Slices Index" data-source-line="13" data-uid="ent0010" id="entity_fastText Slices Index"><rect fill="#F1F1F1" height="48" rx="2.5" ry="2.5" style="stroke:#181818;stroke-width:0.5;" width="161.165" x="798.5" y="846"/><ellipse cx="813.5" cy="862" fill="#ADD1B2" rx="11" ry="11" style="stroke:#181818;stroke-width:1;"/><path d="M816.2656,857.875 Q816.4219,857.6563 816.6094,857.5469 Q816.7969,857.4375 817.0156,857.4375 Q817.3906,857.4375 817.625,857.6953 Q817.8594,857.9531 817.8594,858.5625 L817.8594,860.0156 Q817.8594,860.625 817.625,860.8906 Q817.3906,861.1563 817.0156,861.1563 Q816.6719,861.1563 816.4688,860.9531 Q816.2656,860.7656 816.1563,860.25 Q816.1094,859.8906 815.9219,859.7031 Q815.5938,859.3281 814.9844,859.1094 Q814.375,858.8906 813.75,858.8906 Q812.9844,858.8906 812.3516,859.2188 Q811.7188,859.5469 811.2266,860.2969 Q810.7344,861.0469 810.7344,862.0781 L810.7344,863.1719 Q810.7344,864.4063 811.625,865.2266 Q812.5156,866.0469 814.1094,866.0469 Q815.0469,866.0469 815.7031,865.7969 Q816.0938,865.6406 816.5156,865.2031 Q816.7813,864.9375 816.9297,864.8594 Q817.0781,864.7813 817.2813,864.7813 Q817.6094,864.7813 817.8672,865.0391 Q818.125,865.2969 818.125,865.6406 Q818.125,865.9844 817.7813,866.3906 Q817.2813,866.9688 816.4844,867.2969 Q815.4063,867.75 814.1094,867.75 Q812.5938,867.75 811.3906,867.125 Q810.4063,866.625 809.7188,865.5547 Q809.0313,864.4844 809.0313,863.2031 L809.0313,862.0469 Q809.0313,860.7188 809.6484,859.5703 Q810.2656,858.4219 811.3594,857.8047 Q812.4531,857.1875 813.6875,857.1875 Q814.4219,857.1875 815.0703,857.3516 Q815.7188,857.5156 816.2656,857.875 Z " fill="#000000"/><text fill="#000000" font-family="sans-serif" font-size="14" lengthAdjust="spacing" textLength="129.165" x="827.5" y="867.7285">fastText Slices Index</text><line style="stroke:#181818;stroke-width:0.5;" x1="799.5" x2="958.665" y1="878" y2="878"/><line style="stroke:#181818;stroke-width:0.5;" x1="799.5" x2="958.665" y1="886" y2="886"/></g><!--class Corpus Explorer UI--><g class="entity" data-entity="Corpus Explorer UI" data-source-line="17" data-uid="ent0012" id="entity_Corpus Explorer UI"><rect fill="#F1F1F1" height="48" rx="2.5" ry="2.5" style="stroke:#181818;stroke-width:0.5;" width="151.041" x="590.5" y="846"/><ellipse cx="605.5" cy="862" fill="#ADD1B2" rx="11" ry="11" style="stroke:#181818;stroke-width:1;"/><path d="M608.2656,857.875 Q608.4219,857.6563 608.6094,857.5469 Q608.7969,857.4375 609.0156,857.4375 Q609.3906,857.4375 609.625,857.6953 Q609.8594,857.9531 609.8594,858.5625 L609.8594,860.0156 Q609.8594,860.625 609.625,860.8906 Q609.3906,861.1563 609.0156,861.1563 Q608.6719,861.1563 608.4688,860.9531 Q608.2656,860.7656 608.1563,860.25 Q608.1094,859.8906 607.9219,859.7031 Q607.5938,859.3281 606.9844,859.1094 Q606.375,858.8906 605.75,858.8906 Q604.9844,858.8906 604.3516,859.2188 Q603.7188,859.5469 603.2266,860.2969 Q602.7344,861.0469 602.7344,862.0781 L602.7344,863.1719 Q602.7344,864.4063 603.625,865.2266 Q604.5156,866.0469 606.1094,866.0469 Q607.0469,866.0469 607.7031,865.7969 Q608.0938,865.6406 608.5156,865.2031 Q608.7813,864.9375 608.9297,864.8594 Q609.0781,864.7813 609.2813,864.7813 Q609.6094,864.7813 609.8672,865.0391 Q610.125,865.2969 610.125,865.6406 Q610.125,865.9844 609.7813,866.3906 Q609.2813,866.9688 608.4844,867.2969 Q607.4063,867.75 606.1094,867.75 Q604.5938,867.75 603.3906,867.125 Q602.4063,866.625 601.7188,865.5547 Q601.0313,864.4844 601.0313,863.2031 L601.0313,862.0469 Q601.0313,860.7188 601.6484,859.5703 Q602.2656,858.4219 603.3594,857.8047 Q604.4531,857.1875 605.6875,857.1875 Q606.4219,857.1875 607.0703,857.3516 Q607.7188,857.5156 608.2656,857.875 Z " fill="#000000"/><text fill="#000000" font-family="sans-serif" font-size="14" lengthAdjust="spacing" textLength="119.041" x="619.5" y="867.7285">Corpus Explorer UI</text><line style="stroke:#181818;stroke-width:0.5;" x1="591.5" x2="740.541" y1="878" y2="878"/><line style="stroke:#181818;stroke-width:0.5;" x1="591.5" x2="740.541" y1="886" y2="886"/></g><!--class WYSIWYG Editor?--><g class="entity" data-entity="WYSIWYG Editor." data-source-line="18" data-uid="ent0013" id="entity_WYSIWYG Editor."><rect fill="#F1F1F1" height="48" rx="2.5" ry="2.5" style="stroke:#181818;stroke-width:0.5;" width="149.4688" x="184.5" y="846"/><ellipse cx="199.5" cy="862" fill="#ADD1B2" rx="11" ry="11" style="stroke:#181818;stroke-width:1;"/><path d="M202.2656,857.875 Q202.4219,857.6563 202.6094,857.5469 Q202.7969,857.4375 203.0156,857.4375 Q203.3906,857.4375 203.625,857.6953 Q203.8594,857.9531 203.8594,858.5625 L203.8594,860.0156 Q203.8594,860.625 203.625,860.8906 Q203.3906,861.1563 203.0156,861.1563 Q202.6719,861.1563 202.4688,860.9531 Q202.2656,860.7656 202.1563,860.25 Q202.1094,859.8906 201.9219,859.7031 Q201.5938,859.3281 200.9844,859.1094 Q200.375,858.8906 199.75,858.8906 Q198.9844,858.8906 198.3516,859.2188 Q197.7188,859.5469 197.2266,860.2969 Q196.7344,861.0469 196.7344,862.0781 L196.7344,863.1719 Q196.7344,864.4063 197.625,865.2266 Q198.5156,866.0469 200.1094,866.0469 Q201.0469,866.0469 201.7031,865.7969 Q202.0938,865.6406 202.5156,865.2031 Q202.7813,864.9375 202.9297,864.8594 Q203.0781,864.7813 203.2813,864.7813 Q203.6094,864.7813 203.8672,865.0391 Q204.125,865.2969 204.125,865.6406 Q204.125,865.9844 203.7813,866.3906 Q203.2813,866.9688 202.4844,867.2969 Q201.4063,867.75 200.1094,867.75 Q198.5938,867.75 197.3906,867.125 Q196.4063,866.625 195.7188,865.5547 Q195.0313,864.4844 195.0313,863.2031 L195.0313,862.0469 Q195.0313,860.7188 195.6484,859.5703 Q196.2656,858.4219 197.3594,857.8047 Q198.4531,857.1875 199.6875,857.1875 Q200.4219,857.1875 201.0703,857.3516 Q201.7188,857.5156 202.2656,857.875 Z " fill="#000000"/><text fill="#000000" font-family="sans-serif" font-size="14" lengthAdjust="spacing" textLength="117.4688" x="213.5" y="867.7285">WYSIWYG Editor?</text><line style="stroke:#181818;stroke-width:0.5;" x1="185.5" x2="332.9688" y1="878" y2="878"/><line style="stroke:#181818;stroke-width:0.5;" x1="185.5" x2="332.9688" y1="886" y2="886"/></g><!--class Novelty Detection (IVNF)--><g class="entity" data-entity="Novelty Detection .IVNF." data-source-line="19" data-uid="ent0014" id="entity_Novelty Detection .IVNF."><rect fill="#F1F1F1" height="48" rx="2.5" ry="2.5" style="stroke:#181818;stroke-width:0.5;" width="186.8203" x="368.5" y="846"/><ellipse cx="383.5" cy="862" fill="#ADD1B2" rx="11" ry="11" style="stroke:#181818;stroke-width:1;"/><path d="M386.2656,857.875 Q386.4219,857.6563 386.6094,857.5469 Q386.7969,857.4375 387.0156,857.4375 Q387.3906,857.4375 387.625,857.6953 Q387.8594,857.9531 387.8594,858.5625 L387.8594,860.0156 Q387.8594,860.625 387.625,860.8906 Q387.3906,861.1563 387.0156,861.1563 Q386.6719,861.1563 386.4688,860.9531 Q386.2656,860.7656 386.1563,860.25 Q386.1094,859.8906 385.9219,859.7031 Q385.5938,859.3281 384.9844,859.1094 Q384.375,858.8906 383.75,858.8906 Q382.9844,858.8906 382.3516,859.2188 Q381.7188,859.5469 381.2266,860.2969 Q380.7344,861.0469 380.7344,862.0781 L380.7344,863.1719 Q380.7344,864.4063 381.625,865.2266 Q382.5156,866.0469 384.1094,866.0469 Q385.0469,866.0469 385.7031,865.7969 Q386.0938,865.6406 386.5156,865.2031 Q386.7813,864.9375 386.9297,864.8594 Q387.0781,864.7813 387.2813,864.7813 Q387.6094,864.7813 387.8672,865.0391 Q388.125,865.2969 388.125,865.6406 Q388.125,865.9844 387.7813,866.3906 Q387.2813,866.9688 386.4844,867.2969 Q385.4063,867.75 384.1094,867.75 Q382.5938,867.75 381.3906,867.125 Q380.4063,866.625 379.7188,865.5547 Q379.0313,864.4844 379.0313,863.2031 L379.0313,862.0469 Q379.0313,860.7188 379.6484,859.5703 Q380.2656,858.4219 381.3594,857.8047 Q382.4531,857.1875 383.6875,857.1875 Q384.4219,857.1875 385.0703,857.3516 Q385.7188,857.5156 386.2656,857.875 Z " fill="#000000"/><text fill="#000000" font-family="sans-serif" font-size="14" lengthAdjust="spacing" textLength="154.8203" x="397.5" y="867.7285">Novelty Detection (IVNF)</text><line style="stroke:#181818;stroke-width:0.5;" x1="369.5" x2="554.3203" y1="878" y2="878"/><line style="stroke:#181818;stroke-width:0.5;" x1="369.5" x2="554.3203" y1="886" y2="886"/></g><!--class Diachornic Statistics and Graphing Tools--><g class="entity" data-entity="Diachornic Statistics and Graphing Tools" data-source-line="20" data-uid="ent0015" id="entity_Diachornic Statistics and Graphing Tools"><rect fill="#F1F1F1" height="48" rx="2.5" ry="2.5" style="stroke:#181818;stroke-width:0.5;" width="284.8955" x="184.5" y="954"/><ellipse cx="199.5" cy="970" fill="#ADD1B2" rx="11" ry="11" style="stroke:#181818;stroke-width:1;"/><path d="M202.2656,965.875 Q202.4219,965.6563 202.6094,965.5469 Q202.7969,965.4375 203.0156,965.4375 Q203.3906,965.4375 203.625,965.6953 Q203.8594,965.9531 203.8594,966.5625 L203.8594,968.0156 Q203.8594,968.625 203.625,968.8906 Q203.3906,969.1563 203.0156,969.1563 Q202.6719,969.1563 202.4688,968.9531 Q202.2656,968.7656 202.1563,968.25 Q202.1094,967.8906 201.9219,967.7031 Q201.5938,967.3281 200.9844,967.1094 Q200.375,966.8906 199.75,966.8906 Q198.9844,966.8906 198.3516,967.2188 Q197.7188,967.5469 197.2266,968.2969 Q196.7344,969.0469 196.7344,970.0781 L196.7344,971.1719 Q196.7344,972.4063 197.625,973.2266 Q198.5156,974.0469 200.1094,974.0469 Q201.0469,974.0469 201.7031,973.7969 Q202.0938,973.6406 202.5156,973.2031 Q202.7813,972.9375 202.9297,972.8594 Q203.0781,972.7813 203.2813,972.7813 Q203.6094,972.7813 203.8672,973.0391 Q204.125,973.2969 204.125,973.6406 Q204.125,973.9844 203.7813,974.3906 Q203.2813,974.9688 202.4844,975.2969 Q201.4063,975.75 200.1094,975.75 Q198.5938,975.75 197.3906,975.125 Q196.4063,974.625 195.7188,973.5547 Q195.0313,972.4844 195.0313,971.2031 L195.0313,970.0469 Q195.0313,968.7188 195.6484,967.5703 Q196.2656,966.4219 197.3594,965.8047 Q198.4531,965.1875 199.6875,965.1875 Q200.4219,965.1875 201.0703,965.3516 Q201.7188,965.5156 202.2656,965.875 Z " fill="#000000"/><text fill="#000000" font-family="sans-serif" font-size="14" lengthAdjust="spacing" textLength="252.8955" x="213.5" y="975.7285">Diachornic Statistics and Graphing Tools</text><line style="stroke:#181818;stroke-width:0.5;" x1="185.5" x2="468.3955" y1="986" y2="986"/><line style="stroke:#181818;stroke-width:0.5;" x1="185.5" x2="468.3955" y1="994" y2="994"/></g><!--class EEBO-TCP XML--><g class="entity" data-entity="EEBO-TCP XML" data-source-line="1" data-uid="ent0017" id="entity_EEBO-TCP XML"><rect fill="#F1F1F1" height="48" rx="2.5" ry="2.5" style="stroke:#181818;stroke-width:0.5;" width="136.2412" x="1052" y="42"/><ellipse cx="1067" cy="58" fill="#ADD1B2" rx="11" ry="11" style="stroke:#181818;stroke-width:1;"/><path d="M1069.7656,53.875 Q1069.9219,53.6563 1070.1094,53.5469 Q1070.2969,53.4375 1070.5156,53.4375 Q1070.8906,53.4375 1071.125,53.6953 Q1071.3594,53.9531 1071.3594,54.5625 L1071.3594,56.0156 Q1071.3594,56.625 1071.125,56.8906 Q1070.8906,57.1563 1070.5156,57.1563 Q1070.1719,57.1563 1069.9688,56.9531 Q1069.7656,56.7656 1069.6563,56.25 Q1069.6094,55.8906 1069.4219,55.7031 Q1069.0938,55.3281 1068.4844,55.1094 Q1067.875,54.8906 1067.25,54.8906 Q1066.4844,54.8906 1065.8516,55.2188 Q1065.2188,55.5469 1064.7266,56.2969 Q1064.2344,57.0469 1064.2344,58.0781 L1064.2344,59.1719 Q1064.2344,60.4063 1065.125,61.2266 Q1066.0156,62.0469 1067.6094,62.0469 Q1068.5469,62.0469 1069.2031,61.7969 Q1069.5938,61.6406 1070.0156,61.2031 Q1070.2813,60.9375 1070.4297,60.8594 Q1070.5781,60.7813 1070.7813,60.7813 Q1071.1094,60.7813 1071.3672,61.0391 Q1071.625,61.2969 1071.625,61.6406 Q1071.625,61.9844 1071.2813,62.3906 Q1070.7813,62.9688 1069.9844,63.2969 Q1068.9063,63.75 1067.6094,63.75 Q1066.0938,63.75 1064.8906,63.125 Q1063.9063,62.625 1063.2188,61.5547 Q1062.5313,60.4844 1062.5313,59.2031 L1062.5313,58.0469 Q1062.5313,56.7188 1063.1484,55.5703 Q1063.7656,54.4219 1064.8594,53.8047 Q1065.9531,53.1875 1067.1875,53.1875 Q1067.9219,53.1875 1068.5703,53.3516 Q1069.2188,53.5156 1069.7656,53.875 Z " fill="#000000"/><text fill="#000000" font-family="sans-serif" font-size="14" lengthAdjust="spacing" textLength="104.2412" x="1081" y="63.7285">EEBO-TCP XML</text><line style="stroke:#181818;stroke-width:0.5;" x1="1053" x2="1187.2412" y1="74" y2="74"/><line style="stroke:#181818;stroke-width:0.5;" x1="1053" x2="1187.2412" y1="82" y2="82"/></g><!--class Lincoln / Bodleian Scans (TIFF/JPEG)--><g class="entity" data-entity="Lincoln . Bodleian Scans .TIFF.JPEG." data-source-line="2" data-uid="ent0018" id="entity_Lincoln . Bodleian Scans .TIFF.JPEG."><rect fill="#F1F1F1" height="48" rx="2.5" ry="2.5" style="stroke:#181818;stroke-width:0.5;" width="268.5371" x="310.5" y="42"/><ellipse cx="325.5" cy="58" fill="#ADD1B2" rx="11" ry="11" style="stroke:#181818;stroke-width:1;"/><path d="M328.2656,53.875 Q328.4219,53.6563 328.6094,53.5469 Q328.7969,53.4375 329.0156,53.4375 Q329.3906,53.4375 329.625,53.6953 Q329.8594,53.9531 329.8594,54.5625 L329.8594,56.0156 Q329.8594,56.625 329.625,56.8906 Q329.3906,57.1563 329.0156,57.1563 Q328.6719,57.1563 328.4688,56.9531 Q328.2656,56.7656 328.1563,56.25 Q328.1094,55.8906 327.9219,55.7031 Q327.5938,55.3281 326.9844,55.1094 Q326.375,54.8906 325.75,54.8906 Q324.9844,54.8906 324.3516,55.2188 Q323.7188,55.5469 323.2266,56.2969 Q322.7344,57.0469 322.7344,58.0781 L322.7344,59.1719 Q322.7344,60.4063 323.625,61.2266 Q324.5156,62.0469 326.1094,62.0469 Q327.0469,62.0469 327.7031,61.7969 Q328.0938,61.6406 328.5156,61.2031 Q328.7813,60.9375 328.9297,60.8594 Q329.0781,60.7813 329.2813,60.7813 Q329.6094,60.7813 329.8672,61.0391 Q330.125,61.2969 330.125,61.6406 Q330.125,61.9844 329.7813,62.3906 Q329.2813,62.9688 328.4844,63.2969 Q327.4063,63.75 326.1094,63.75 Q324.5938,63.75 323.3906,63.125 Q322.4063,62.625 321.7188,61.5547 Q321.0313,60.4844 321.0313,59.2031 L321.0313,58.0469 Q321.0313,56.7188 321.6484,55.5703 Q322.2656,54.4219 323.3594,53.8047 Q324.4531,53.1875 325.6875,53.1875 Q326.4219,53.1875 327.0703,53.3516 Q327.7188,53.5156 328.2656,53.875 Z " fill="#000000"/><text fill="#000000" font-family="sans-serif" font-size="14" lengthAdjust="spacing" textLength="236.5371" x="339.5" y="63.7285">Lincoln / Bodleian Scans (TIFF/JPEG)</text><line style="stroke:#181818;stroke-width:0.5;" x1="311.5" x2="578.0371" y1="74" y2="74"/><line style="stroke:#181818;stroke-width:0.5;" x1="311.5" x2="578.0371" y1="82" y2="82"/></g><!--class MPESE--><g class="entity" data-entity="MPESE" data-source-line="3" data-uid="ent0019" id="entity_MPESE"><rect fill="#F1F1F1" height="48" rx="2.5" ry="2.5" style="stroke:#181818;stroke-width:0.5;" width="402.4121" x="615" y="42"/><ellipse cx="630" cy="58" fill="#ADD1B2" rx="11" ry="11" style="stroke:#181818;stroke-width:1;"/><path d="M632.7656,53.875 Q632.9219,53.6563 633.1094,53.5469 Q633.2969,53.4375 633.5156,53.4375 Q633.8906,53.4375 634.125,53.6953 Q634.3594,53.9531 634.3594,54.5625 L634.3594,56.0156 Q634.3594,56.625 634.125,56.8906 Q633.8906,57.1563 633.5156,57.1563 Q633.1719,57.1563 632.9688,56.9531 Q632.7656,56.7656 632.6563,56.25 Q632.6094,55.8906 632.4219,55.7031 Q632.0938,55.3281 631.4844,55.1094 Q630.875,54.8906 630.25,54.8906 Q629.4844,54.8906 628.8516,55.2188 Q628.2188,55.5469 627.7266,56.2969 Q627.2344,57.0469 627.2344,58.0781 L627.2344,59.1719 Q627.2344,60.4063 628.125,61.2266 Q629.0156,62.0469 630.6094,62.0469 Q631.5469,62.0469 632.2031,61.7969 Q632.5938,61.6406 633.0156,61.2031 Q633.2813,60.9375 633.4297,60.8594 Q633.5781,60.7813 633.7813,60.7813 Q634.1094,60.7813 634.3672,61.0391 Q634.625,61.2969 634.625,61.6406 Q634.625,61.9844 634.2813,62.3906 Q633.7813,62.9688 632.9844,63.2969 Q631.9063,63.75 630.6094,63.75 Q629.0938,63.75 627.8906,63.125 Q626.9063,62.625 626.2188,61.5547 Q625.5313,60.4844 625.5313,59.2031 L625.5313,58.0469 Q625.5313,56.7188 626.1484,55.5703 Q626.7656,54.4219 627.8594,53.8047 Q628.9531,53.1875 630.1875,53.1875 Q630.9219,53.1875 631.5703,53.3516 Q632.2188,53.5156 632.7656,53.875 Z " fill="#000000"/><text fill="#000000" font-family="sans-serif" font-size="14" lengthAdjust="spacing" textLength="370.4121" x="644" y="63.7285">Manuscript Pamphleteering in Early Stuart England sources</text><line style="stroke:#181818;stroke-width:0.5;" x1="616" x2="1016.4121" y1="74" y2="74"/><line style="stroke:#181818;stroke-width:0.5;" x1="616" x2="1016.4121" y1="82" y2="82"/></g><!--class Image Preprocessor--><g class="entity" data-entity="Image Preprocessor" data-source-line="1" data-uid="ent0021" id="entity_Image Preprocessor"><rect fill="#F1F1F1" height="48" rx="2.5" ry="2.5" style="stroke:#181818;stroke-width:0.5;" width="158.0547" x="655" y="166"/><ellipse cx="670" cy="182" fill="#ADD1B2" rx="11" ry="11" style="stroke:#181818;stroke-width:1;"/><path d="M672.7656,177.875 Q672.9219,177.6563 673.1094,177.5469 Q673.2969,177.4375 673.5156,177.4375 Q673.8906,177.4375 674.125,177.6953 Q674.3594,177.9531 674.3594,178.5625 L674.3594,180.0156 Q674.3594,180.625 674.125,180.8906 Q673.8906,181.1563 673.5156,181.1563 Q673.1719,181.1563 672.9688,180.9531 Q672.7656,180.7656 672.6563,180.25 Q672.6094,179.8906 672.4219,179.7031 Q672.0938,179.3281 671.4844,179.1094 Q670.875,178.8906 670.25,178.8906 Q669.4844,178.8906 668.8516,179.2188 Q668.2188,179.5469 667.7266,180.2969 Q667.2344,181.0469 667.2344,182.0781 L667.2344,183.1719 Q667.2344,184.4063 668.125,185.2266 Q669.0156,186.0469 670.6094,186.0469 Q671.5469,186.0469 672.2031,185.7969 Q672.5938,185.6406 673.0156,185.2031 Q673.2813,184.9375 673.4297,184.8594 Q673.5781,184.7813 673.7813,184.7813 Q674.1094,184.7813 674.3672,185.0391 Q674.625,185.2969 674.625,185.6406 Q674.625,185.9844 674.2813,186.3906 Q673.7813,186.9688 672.9844,187.2969 Q671.9063,187.75 670.6094,187.75 Q669.0938,187.75 667.8906,187.125 Q666.9063,186.625 666.2188,185.5547 Q665.5313,184.4844 665.5313,183.2031 L665.5313,182.0469 Q665.5313,180.7188 666.1484,179.5703 Q666.7656,178.4219 667.8594,177.8047 Q668.9531,177.1875 670.1875,177.1875 Q670.9219,177.1875 671.5703,177.3516 Q672.2188,177.5156 672.7656,177.875 Z " fill="#000000"/><text fill="#000000" font-family="sans-serif" font-size="14" lengthAdjust="spacing" textLength="126.0547" x="684" y="187.7285">Image Preprocessor</text><line style="stroke:#181818;stroke-width:0.5;" x1="656" x2="812.0547" y1="198" y2="198"/><line style="stroke:#181818;stroke-width:0.5;" x1="656" x2="812.0547" y1="206" y2="206"/></g><!--class OCR--><g class="entity" data-entity="OCR" data-source-line="2" data-uid="ent0022" id="entity_OCR"><rect fill="#F1F1F1" height="48" rx="2.5" ry="2.5" style="stroke:#181818;stroke-width:0.5;" width="63.1104" x="702.5" y="274"/><ellipse cx="717.5" cy="290" fill="#ADD1B2" rx="11" ry="11" style="stroke:#181818;stroke-width:1;"/><path d="M720.2656,285.875 Q720.4219,285.6563 720.6094,285.5469 Q720.7969,285.4375 721.0156,285.4375 Q721.3906,285.4375 721.625,285.6953 Q721.8594,285.9531 721.8594,286.5625 L721.8594,288.0156 Q721.8594,288.625 721.625,288.8906 Q721.3906,289.1563 721.0156,289.1563 Q720.6719,289.1563 720.4688,288.9531 Q720.2656,288.7656 720.1563,288.25 Q720.1094,287.8906 719.9219,287.7031 Q719.5938,287.3281 718.9844,287.1094 Q718.375,286.8906 717.75,286.8906 Q716.9844,286.8906 716.3516,287.2188 Q715.7188,287.5469 715.2266,288.2969 Q714.7344,289.0469 714.7344,290.0781 L714.7344,291.1719 Q714.7344,292.4063 715.625,293.2266 Q716.5156,294.0469 718.1094,294.0469 Q719.0469,294.0469 719.7031,293.7969 Q720.0938,293.6406 720.5156,293.2031 Q720.7813,292.9375 720.9297,292.8594 Q721.0781,292.7813 721.2813,292.7813 Q721.6094,292.7813 721.8672,293.0391 Q722.125,293.2969 722.125,293.6406 Q722.125,293.9844 721.7813,294.3906 Q721.2813,294.9688 720.4844,295.2969 Q719.4063,295.75 718.1094,295.75 Q716.5938,295.75 715.3906,295.125 Q714.4063,294.625 713.7188,293.5547 Q713.0313,292.4844 713.0313,291.2031 L713.0313,290.0469 Q713.0313,288.7188 713.6484,287.5703 Q714.2656,286.4219 715.3594,285.8047 Q716.4531,285.1875 717.6875,285.1875 Q718.4219,285.1875 719.0703,285.3516 Q719.7188,285.5156 720.2656,285.875 Z " fill="#000000"/><text fill="#000000" font-family="sans-serif" font-size="14" lengthAdjust="spacing" textLength="31.1104" x="731.5" y="295.7285">OCR</text><line style="stroke:#181818;stroke-width:0.5;" x1="703.5" x2="764.6104" y1="306" y2="306"/><line style="stroke:#181818;stroke-width:0.5;" x1="703.5" x2="764.6104" y1="314" y2="314"/></g><!--class TEI Parser--><g class="entity" data-entity="TEI Parser" data-source-line="3" data-uid="ent0023" id="entity_TEI Parser"><rect fill="#F1F1F1" height="48" rx="2.5" ry="2.5" style="stroke:#181818;stroke-width:0.5;" width="98.9033" x="832.5" y="382"/><ellipse cx="847.5" cy="398" fill="#ADD1B2" rx="11" ry="11" style="stroke:#181818;stroke-width:1;"/><path d="M850.2656,393.875 Q850.4219,393.6563 850.6094,393.5469 Q850.7969,393.4375 851.0156,393.4375 Q851.3906,393.4375 851.625,393.6953 Q851.8594,393.9531 851.8594,394.5625 L851.8594,396.0156 Q851.8594,396.625 851.625,396.8906 Q851.3906,397.1563 851.0156,397.1563 Q850.6719,397.1563 850.4688,396.9531 Q850.2656,396.7656 850.1563,396.25 Q850.1094,395.8906 849.9219,395.7031 Q849.5938,395.3281 848.9844,395.1094 Q848.375,394.8906 847.75,394.8906 Q846.9844,394.8906 846.3516,395.2188 Q845.7188,395.5469 845.2266,396.2969 Q844.7344,397.0469 844.7344,398.0781 L844.7344,399.1719 Q844.7344,400.4063 845.625,401.2266 Q846.5156,402.0469 848.1094,402.0469 Q849.0469,402.0469 849.7031,401.7969 Q850.0938,401.6406 850.5156,401.2031 Q850.7813,400.9375 850.9297,400.8594 Q851.0781,400.7813 851.2813,400.7813 Q851.6094,400.7813 851.8672,401.0391 Q852.125,401.2969 852.125,401.6406 Q852.125,401.9844 851.7813,402.3906 Q851.2813,402.9688 850.4844,403.2969 Q849.4063,403.75 848.1094,403.75 Q846.5938,403.75 845.3906,403.125 Q844.4063,402.625 843.7188,401.5547 Q843.0313,400.4844 843.0313,399.2031 L843.0313,398.0469 Q843.0313,396.7188 843.6484,395.5703 Q844.2656,394.4219 845.3594,393.8047 Q846.4531,393.1875 847.6875,393.1875 Q848.4219,393.1875 849.0703,393.3516 Q849.7188,393.5156 850.2656,393.875 Z " fill="#000000"/><text fill="#000000" font-family="sans-serif" font-size="14" lengthAdjust="spacing" textLength="66.9033" x="861.5" y="403.7285">TEI Parser</text><line style="stroke:#181818;stroke-width:0.5;" x1="833.5" x2="930.4033" y1="414" y2="414"/><line style="stroke:#181818;stroke-width:0.5;" x1="833.5" x2="930.4033" y1="422" y2="422"/></g><!--class TEI Converter--><g class="entity" data-entity="TEI Converter" data-source-line="4" data-uid="ent0024" id="entity_TEI Converter"><rect fill="#F1F1F1" height="48" rx="2.5" ry="2.5" style="stroke:#181818;stroke-width:0.5;" width="119.1377" x="640.5" y="382"/><ellipse cx="655.5" cy="398" fill="#ADD1B2" rx="11" ry="11" style="stroke:#181818;stroke-width:1;"/><path d="M658.2656,393.875 Q658.4219,393.6563 658.6094,393.5469 Q658.7969,393.4375 659.0156,393.4375 Q659.3906,393.4375 659.625,393.6953 Q659.8594,393.9531 659.8594,394.5625 L659.8594,396.0156 Q659.8594,396.625 659.625,396.8906 Q659.3906,397.1563 659.0156,397.1563 Q658.6719,397.1563 658.4688,396.9531 Q658.2656,396.7656 658.1563,396.25 Q658.1094,395.8906 657.9219,395.7031 Q657.5938,395.3281 656.9844,395.1094 Q656.375,394.8906 655.75,394.8906 Q654.9844,394.8906 654.3516,395.2188 Q653.7188,395.5469 653.2266,396.2969 Q652.7344,397.0469 652.7344,398.0781 L652.7344,399.1719 Q652.7344,400.4063 653.625,401.2266 Q654.5156,402.0469 656.1094,402.0469 Q657.0469,402.0469 657.7031,401.7969 Q658.0938,401.6406 658.5156,401.2031 Q658.7813,400.9375 658.9297,400.8594 Q659.0781,400.7813 659.2813,400.7813 Q659.6094,400.7813 659.8672,401.0391 Q660.125,401.2969 660.125,401.6406 Q660.125,401.9844 659.7813,402.3906 Q659.2813,402.9688 658.4844,403.2969 Q657.4063,403.75 656.1094,403.75 Q654.5938,403.75 653.3906,403.125 Q652.4063,402.625 651.7188,401.5547 Q651.0313,400.4844 651.0313,399.2031 L651.0313,398.0469 Q651.0313,396.7188 651.6484,395.5703 Q652.2656,394.4219 653.3594,393.8047 Q654.4531,393.1875 655.6875,393.1875 Q656.4219,393.1875 657.0703,393.3516 Q657.7188,393.5156 658.2656,393.875 Z " fill="#000000"/><text fill="#000000" font-family="sans-serif" font-size="14" lengthAdjust="spacing" textLength="87.1377" x="669.5" y="403.7285">TEI Converter</text><line style="stroke:#181818;stroke-width:0.5;" x1="641.5" x2="758.6377" y1="414" y2="414"/><line style="stroke:#181818;stroke-width:0.5;" x1="641.5" x2="758.6377" y1="422" y2="422"/></g><!--class Normalisation Engine--><g class="entity" data-entity="Normalisation Engine" data-source-line="5" data-uid="ent0025" id="entity_Normalisation Engine"><rect fill="#F1F1F1" height="48" rx="2.5" ry="2.5" style="stroke:#181818;stroke-width:0.5;" width="165.0684" x="738.5" y="490"/><ellipse cx="753.5" cy="506" fill="#ADD1B2" rx="11" ry="11" style="stroke:#181818;stroke-width:1;"/><path d="M756.2656,501.875 Q756.4219,501.6563 756.6094,501.5469 Q756.7969,501.4375 757.0156,501.4375 Q757.3906,501.4375 757.625,501.6953 Q757.8594,501.9531 757.8594,502.5625 L757.8594,504.0156 Q757.8594,504.625 757.625,504.8906 Q757.3906,505.1563 757.0156,505.1563 Q756.6719,505.1563 756.4688,504.9531 Q756.2656,504.7656 756.1563,504.25 Q756.1094,503.8906 755.9219,503.7031 Q755.5938,503.3281 754.9844,503.1094 Q754.375,502.8906 753.75,502.8906 Q752.9844,502.8906 752.3516,503.2188 Q751.7188,503.5469 751.2266,504.2969 Q750.7344,505.0469 750.7344,506.0781 L750.7344,507.1719 Q750.7344,508.4063 751.625,509.2266 Q752.5156,510.0469 754.1094,510.0469 Q755.0469,510.0469 755.7031,509.7969 Q756.0938,509.6406 756.5156,509.2031 Q756.7813,508.9375 756.9297,508.8594 Q757.0781,508.7813 757.2813,508.7813 Q757.6094,508.7813 757.8672,509.0391 Q758.125,509.2969 758.125,509.6406 Q758.125,509.9844 757.7813,510.3906 Q757.2813,510.9688 756.4844,511.2969 Q755.4063,511.75 754.1094,511.75 Q752.5938,511.75 751.3906,511.125 Q750.4063,510.625 749.7188,509.5547 Q749.0313,508.4844 749.0313,507.2031 L749.0313,506.0469 Q749.0313,504.7188 749.6484,503.5703 Q750.2656,502.4219 751.3594,501.8047 Q752.4531,501.1875 753.6875,501.1875 Q754.4219,501.1875 755.0703,501.3516 Q755.7188,501.5156 756.2656,501.875 Z " fill="#000000"/><text fill="#000000" font-family="sans-serif" font-size="14" lengthAdjust="spacing" textLength="133.0684" x="767.5" y="511.7285">Normalisation Engine</text><line style="stroke:#181818;stroke-width:0.5;" x1="739.5" x2="902.5684" y1="522" y2="522"/><line style="stroke:#181818;stroke-width:0.5;" x1="739.5" x2="902.5684" y1="530" y2="530"/></g><!--class Metadata Extractor--><g class="entity" data-entity="Metadata Extractor" data-source-line="6" data-uid="ent0026" id="entity_Metadata Extractor"><rect fill="#F1F1F1" height="48" rx="2.5" ry="2.5" style="stroke:#181818;stroke-width:0.5;" width="150.2754" x="746" y="598"/><ellipse cx="761" cy="614" fill="#ADD1B2" rx="11" ry="11" style="stroke:#181818;stroke-width:1;"/><path d="M763.7656,609.875 Q763.9219,609.6563 764.1094,609.5469 Q764.2969,609.4375 764.5156,609.4375 Q764.8906,609.4375 765.125,609.6953 Q765.3594,609.9531 765.3594,610.5625 L765.3594,612.0156 Q765.3594,612.625 765.125,612.8906 Q764.8906,613.1563 764.5156,613.1563 Q764.1719,613.1563 763.9688,612.9531 Q763.7656,612.7656 763.6563,612.25 Q763.6094,611.8906 763.4219,611.7031 Q763.0938,611.3281 762.4844,611.1094 Q761.875,610.8906 761.25,610.8906 Q760.4844,610.8906 759.8516,611.2188 Q759.2188,611.5469 758.7266,612.2969 Q758.2344,613.0469 758.2344,614.0781 L758.2344,615.1719 Q758.2344,616.4063 759.125,617.2266 Q760.0156,618.0469 761.6094,618.0469 Q762.5469,618.0469 763.2031,617.7969 Q763.5938,617.6406 764.0156,617.2031 Q764.2813,616.9375 764.4297,616.8594 Q764.5781,616.7813 764.7813,616.7813 Q765.1094,616.7813 765.3672,617.0391 Q765.625,617.2969 765.625,617.6406 Q765.625,617.9844 765.2813,618.3906 Q764.7813,618.9688 763.9844,619.2969 Q762.9063,619.75 761.6094,619.75 Q760.0938,619.75 758.8906,619.125 Q757.9063,618.625 757.2188,617.5547 Q756.5313,616.4844 756.5313,615.2031 L756.5313,614.0469 Q756.5313,612.7188 757.1484,611.5703 Q757.7656,610.4219 758.8594,609.8047 Q759.9531,609.1875 761.1875,609.1875 Q761.9219,609.1875 762.5703,609.3516 Q763.2188,609.5156 763.7656,609.875 Z " fill="#000000"/><text fill="#000000" font-family="sans-serif" font-size="14" lengthAdjust="spacing" textLength="118.2754" x="775" y="619.7285">Metadata Extractor</text><line style="stroke:#181818;stroke-width:0.5;" x1="747" x2="895.2754" y1="630" y2="630"/><line style="stroke:#181818;stroke-width:0.5;" x1="747" x2="895.2754" y1="638" y2="638"/></g><!--class Statistics + Graphing Tools--><g class="entity" data-entity="Statistics . Graphing Tools" data-source-line="9" data-uid="ent0031" id="entity_Statistics . Graphing Tools"><rect fill="#F1F1F1" height="48" rx="2.5" ry="2.5" style="stroke:#181818;stroke-width:0.5;" width="199.6855" x="368" y="722"/><ellipse cx="383" cy="738" fill="#ADD1B2" rx="11" ry="11" style="stroke:#181818;stroke-width:1;"/><path d="M385.7656,733.875 Q385.9219,733.6563 386.1094,733.5469 Q386.2969,733.4375 386.5156,733.4375 Q386.8906,733.4375 387.125,733.6953 Q387.3594,733.9531 387.3594,734.5625 L387.3594,736.0156 Q387.3594,736.625 387.125,736.8906 Q386.8906,737.1563 386.5156,737.1563 Q386.1719,737.1563 385.9688,736.9531 Q385.7656,736.7656 385.6563,736.25 Q385.6094,735.8906 385.4219,735.7031 Q385.0938,735.3281 384.4844,735.1094 Q383.875,734.8906 383.25,734.8906 Q382.4844,734.8906 381.8516,735.2188 Q381.2188,735.5469 380.7266,736.2969 Q380.2344,737.0469 380.2344,738.0781 L380.2344,739.1719 Q380.2344,740.4063 381.125,741.2266 Q382.0156,742.0469 383.6094,742.0469 Q384.5469,742.0469 385.2031,741.7969 Q385.5938,741.6406 386.0156,741.2031 Q386.2813,740.9375 386.4297,740.8594 Q386.5781,740.7813 386.7813,740.7813 Q387.1094,740.7813 387.3672,741.0391 Q387.625,741.2969 387.625,741.6406 Q387.625,741.9844 387.2813,742.3906 Q386.7813,742.9688 385.9844,743.2969 Q384.9063,743.75 383.6094,743.75 Q382.0938,743.75 380.8906,743.125 Q379.9063,742.625 379.2188,741.5547 Q378.5313,740.4844 378.5313,739.2031 L378.5313,738.0469 Q378.5313,736.7188 379.1484,735.5703 Q379.7656,734.4219 380.8594,733.8047 Q381.9531,733.1875 383.1875,733.1875 Q383.9219,733.1875 384.5703,733.3516 Q385.2188,733.5156 385.7656,733.875 Z " fill="#000000"/><text fill="#000000" font-family="sans-serif" font-size="14" lengthAdjust="spacing" textLength="167.6855" x="397" y="743.7285">Statistics + Graphing Tools</text><line style="stroke:#181818;stroke-width:0.5;" x1="369" x2="566.6855" y1="754" y2="754"/><line style="stroke:#181818;stroke-width:0.5;" x1="369" x2="566.6855" y1="762" y2="762"/></g><!--class Novelty Detection--><g class="entity" data-entity="Novelty Detection" data-source-line="10" data-uid="ent0033" id="entity_Novelty Detection"><rect fill="#F1F1F1" height="48" rx="2.5" ry="2.5" style="stroke:#181818;stroke-width:0.5;" width="141.7168" x="1273" y="722"/><ellipse cx="1288" cy="738" fill="#ADD1B2" rx="11" ry="11" style="stroke:#181818;stroke-width:1;"/><path d="M1290.7656,733.875 Q1290.9219,733.6563 1291.1094,733.5469 Q1291.2969,733.4375 1291.5156,733.4375 Q1291.8906,733.4375 1292.125,733.6953 Q1292.3594,733.9531 1292.3594,734.5625 L1292.3594,736.0156 Q1292.3594,736.625 1292.125,736.8906 Q1291.8906,737.1563 1291.5156,737.1563 Q1291.1719,737.1563 1290.9688,736.9531 Q1290.7656,736.7656 1290.6563,736.25 Q1290.6094,735.8906 1290.4219,735.7031 Q1290.0938,735.3281 1289.4844,735.1094 Q1288.875,734.8906 1288.25,734.8906 Q1287.4844,734.8906 1286.8516,735.2188 Q1286.2188,735.5469 1285.7266,736.2969 Q1285.2344,737.0469 1285.2344,738.0781 L1285.2344,739.1719 Q1285.2344,740.4063 1286.125,741.2266 Q1287.0156,742.0469 1288.6094,742.0469 Q1289.5469,742.0469 1290.2031,741.7969 Q1290.5938,741.6406 1291.0156,741.2031 Q1291.2813,740.9375 1291.4297,740.8594 Q1291.5781,740.7813 1291.7813,740.7813 Q1292.1094,740.7813 1292.3672,741.0391 Q1292.625,741.2969 1292.625,741.6406 Q1292.625,741.9844 1292.2813,742.3906 Q1291.7813,742.9688 1290.9844,743.2969 Q1289.9063,743.75 1288.6094,743.75 Q1287.0938,743.75 1285.8906,743.125 Q1284.9063,742.625 1284.2188,741.5547 Q1283.5313,740.4844 1283.5313,739.2031 L1283.5313,738.0469 Q1283.5313,736.7188 1284.1484,735.5703 Q1284.7656,734.4219 1285.8594,733.8047 Q1286.9531,733.1875 1288.1875,733.1875 Q1288.9219,733.1875 1289.5703,733.3516 Q1290.2188,733.5156 1290.7656,733.875 Z " fill="#000000"/><text fill="#000000" font-family="sans-serif" font-size="14" lengthAdjust="spacing" textLength="109.7168" x="1302" y="743.7285">Novelty Detection</text><line style="stroke:#181818;stroke-width:0.5;" x1="1274" x2="1413.7168" y1="754" y2="754"/><line style="stroke:#181818;stroke-width:0.5;" x1="1274" x2="1413.7168" y1="762" y2="762"/></g><!--class WYSIWYG Editor--><g class="entity" data-entity="WYSIWYG Editor" data-source-line="7" data-uid="ent0053" id="entity_WYSIWYG Editor"><rect fill="#F1F1F1" height="48" rx="2.5" ry="2.5" style="stroke:#181818;stroke-width:0.5;" width="141.6826" x="7" y="846"/><ellipse cx="22" cy="862" fill="#ADD1B2" rx="11" ry="11" style="stroke:#181818;stroke-width:1;"/><path d="M24.7656,857.875 Q24.9219,857.6563 25.1094,857.5469 Q25.2969,857.4375 25.5156,857.4375 Q25.8906,857.4375 26.125,857.6953 Q26.3594,857.9531 26.3594,858.5625 L26.3594,860.0156 Q26.3594,860.625 26.125,860.8906 Q25.8906,861.1563 25.5156,861.1563 Q25.1719,861.1563 24.9688,860.9531 Q24.7656,860.7656 24.6563,860.25 Q24.6094,859.8906 24.4219,859.7031 Q24.0938,859.3281 23.4844,859.1094 Q22.875,858.8906 22.25,858.8906 Q21.4844,858.8906 20.8516,859.2188 Q20.2188,859.5469 19.7266,860.2969 Q19.2344,861.0469 19.2344,862.0781 L19.2344,863.1719 Q19.2344,864.4063 20.125,865.2266 Q21.0156,866.0469 22.6094,866.0469 Q23.5469,866.0469 24.2031,865.7969 Q24.5938,865.6406 25.0156,865.2031 Q25.2813,864.9375 25.4297,864.8594 Q25.5781,864.7813 25.7813,864.7813 Q26.1094,864.7813 26.3672,865.0391 Q26.625,865.2969 26.625,865.6406 Q26.625,865.9844 26.2813,866.3906 Q25.7813,866.9688 24.9844,867.2969 Q23.9063,867.75 22.6094,867.75 Q21.0938,867.75 19.8906,867.125 Q18.9063,866.625 18.2188,865.5547 Q17.5313,864.4844 17.5313,863.2031 L17.5313,862.0469 Q17.5313,860.7188 18.1484,859.5703 Q18.7656,858.4219 19.8594,857.8047 Q20.9531,857.1875 22.1875,857.1875 Q22.9219,857.1875 23.5703,857.3516 Q24.2188,857.5156 24.7656,857.875 Z " fill="#000000"/><text fill="#000000" font-family="sans-serif" font-size="14" lengthAdjust="spacing" textLength="109.6826" x="36" y="867.7285">WYSIWYG Editor</text><line style="stroke:#181818;stroke-width:0.5;" x1="8" x2="147.6826" y1="878" y2="878"/><line style="stroke:#181818;stroke-width:0.5;" x1="8" x2="147.6826" y1="886" y2="886"/></g><g class="entity" data-entity="GMN58" data-source-line="34" data-uid="ent0059" id="entity_GMN58"><path d="M1406.5,848.5 L1406.5,891.2031 L1705.7051,891.2031 L1705.7051,858.5 L1695.7051,848.5 L1406.5,848.5" fill="#FFFFE0" style="stroke:#000000;stroke-width:0.5;"/><path d="M1695.7051,848.5 L1695.7051,858.5 L1705.7051,858.5 L1695.7051,848.5" fill="#FFFFE0" style="stroke:#000000;stroke-width:1;"/><text fill="#000000" font-family="sans-serif" font-size="13" lengthAdjust="spacing" textLength="278.2051" x="1412.5" y="866.9951">This component displays processed corpus data</text><text fill="#000000" font-family="sans-serif" font-size="13" lengthAdjust="spacing" textLength="265.9097" x="1412.5" y="883.3467">and allows user interaction with analysis tools.</text></g><g class="entity" data-entity="GMN61" data-source-line="39" data-uid="ent0062" id="entity_GMN61"><path d="M1740.5,848.5 L1740.5,891.2031 L2031.7007,891.2031 L2031.7007,858.5 L2021.7007,848.5 L1740.5,848.5" fill="#FFFFE0" style="stroke:#000000;stroke-width:0.5;"/><path d="M2021.7007,848.5 L2021.7007,858.5 L2031.7007,858.5 L2021.7007,848.5" fill="#FFFFE0" style="stroke:#000000;stroke-width:1;"/><text fill="#000000" font-family="sans-serif" font-size="13" lengthAdjust="spacing" textLength="270.2007" x="1746.5" y="866.9951">Performs NLP analysis on Normalised Text DB</text><text fill="#000000" font-family="sans-serif" font-size="13" lengthAdjust="spacing" textLength="261.5933" x="1746.5" y="883.3467">and generates features for Novelty Detection.</text></g><!--link Corpus Explorer UI to Training Corpus--><g class="link" data-entity-1="Corpus Explorer UI" data-entity-2="Training Corpus" data-source-line="3" data-uid="lnk27" id="link_Corpus Explorer UI_Training Corpus"><path codeLine="3" d="M697.17,845.73 C719.55,830.4 751.09,811.46 782,802 C830.57,787.14 847.37,808.65 896,794 C913.6,788.7 926.4419,782.3237 941.1219,773.2137" fill="none" id="Corpus Explorer UI-to-Training Corpus" style="stroke:#FF0000;stroke-width:1;"/><polygon fill="#FF0000" points="946.22,770.05,936.4637,771.3969,941.9716,772.6865,940.682,778.1944,946.22,770.05" style="stroke:#FF0000;stroke-width:1;"/></g><!--link Corpus Explorer UI to TEI Repository--><g class="link" data-entity-1="Corpus Explorer UI" data-entity-2="TEI Repository" data-source-line="4" data-uid="lnk28" id="link_Corpus Explorer UI_TEI Repository"><path codeLine="4" d="M676.86,845.85 C680.38,824.17 681.3376,797.8631 677.8276,776.1531" fill="none" id="Corpus Explorer UI-to-TEI Repository" style="stroke:#FF0000;stroke-width:1;"/><polygon fill="#FF0000" points="676.87,770.23,674.3577,779.753,677.668,775.1659,682.2552,778.4762,676.87,770.23" style="stroke:#FF0000;stroke-width:1;"/></g><!--link TEI Repository to Corpus Explorer UI--><g class="link" data-entity-1="TEI Repository" data-entity-2="Corpus Explorer UI" data-source-line="2" data-uid="lnk50" id="link_TEI Repository_Corpus Explorer UI"><path codeLine="2" d="M655.73,770.23 C652.42,791.94 651.5091,818.2395 654.8391,839.9195" fill="none" id="TEI Repository-to-Corpus Explorer UI" style="stroke:#8B0000;stroke-width:1;"/><polygon fill="#8B0000" points="655.75,845.85,658.3373,836.3471,654.9909,840.908,650.43,837.5616,655.75,845.85" style="stroke:#8B0000;stroke-width:1;"/></g><!--link Training Corpus to MacBERTh NLP Model--><g class="link" data-entity-1="Training Corpus" data-entity-2="MacBERTh NLP Model" data-source-line="6" data-uid="lnk29" id="link_Training Corpus_MacBERTh NLP Model"><path codeLine="6" d="M1012.21,770.05 C1027.07,779.15 1045.23,788.69 1063,794 C1111.67,808.53 1128.74,786.17 1177,802 C1205.75,811.43 1229.7442,826.7512 1250.0442,842.1012" fill="none" id="Training Corpus-to-MacBERTh NLP Model" style="stroke:#FF0000;stroke-width:1;"/><polygon fill="#FF0000" points="1254.83,845.72,1250.0638,837.1012,1250.8418,842.7043,1245.2387,843.4823,1254.83,845.72" style="stroke:#FF0000;stroke-width:1;"/></g><!--link TEI Repository to MacBERTh NLP Model--><g class="link" data-entity-1="TEI Repository" data-entity-2="MacBERTh NLP Model" data-source-line="7" data-uid="lnk30" id="link_TEI Repository_MacBERTh NLP Model"><path codeLine="7" d="M697.41,770.24 C711.76,779.5 729.46,789.1 747,794 C793.03,806.85 1131.22,788.28 1177,802 C1206.4,810.81 1230.8233,826.57 1251.1033,842.25" fill="none" id="TEI Repository-to-MacBERTh NLP Model" style="stroke:#FF0000;stroke-width:1;"/><polygon fill="#FF0000" points="1255.85,845.92,1251.1767,837.2505,1251.8944,842.8617,1246.2833,843.5794,1255.85,845.92" style="stroke:#FF0000;stroke-width:1;"/></g><!--link Statistics + Graphing Tools to Corpus Explorer UI--><g class="link" data-entity-1="Statistics . Graphing Tools" data-entity-2="Corpus Explorer UI" data-source-line="9" data-uid="lnk32" id="link_Statistics . Graphing Tools_Corpus Explorer UI"><path codeLine="9" d="M499.98,770.25 C517.05,779.57 537.79,790.75 556,802 C577.84,815.49 596.2965,829.0586 616.3565,842.5086" fill="none" id="Statistics + Graphing Tools-to-Corpus Explorer UI" style="stroke:#FF0000;stroke-width:1;"/><polygon fill="#FF0000" points="621.34,845.85,616.0923,837.5156,617.1871,843.0655,611.6372,844.1603,621.34,845.85" style="stroke:#FF0000;stroke-width:1;"/></g><!--link Statistics + Graphing Tools to Corpus Explorer UI--><g class="link" data-entity-1="Statistics . Graphing Tools" data-entity-2="Corpus Explorer UI" data-source-line="8" data-uid="lnk55" id="link_Statistics . Graphing Tools_Corpus Explorer UI"><path codeLine="8" d="M532.35,770.11 C551.85,779.46 572.71,790.7 591,802 C612.84,815.49 631.737,828.4806 647.327,841.9306" fill="none" id="Statistics + Graphing Tools-to-Corpus Explorer UI-1" style="stroke:#8B0000;stroke-width:1;"/><polygon fill="#8B0000" points="651.87,845.85,647.6685,836.9423,648.0842,842.5839,642.4426,842.9996,651.87,845.85" style="stroke:#8B0000;stroke-width:1;"/></g><!--link Novelty Detection to MacBERTh NLP Model--><g class="link" data-entity-1="Novelty Detection" data-entity-2="MacBERTh NLP Model" data-source-line="10" data-uid="lnk34" id="link_Novelty Detection_MacBERTh NLP Model"><path codeLine="10" d="M1343.25,770.23 C1335.91,791.94 1323.1033,819.1678 1308.7433,840.8478" fill="none" id="Novelty Detection-to-MacBERTh NLP Model" style="stroke:#FF0000;stroke-width:1;"/><polygon fill="#FF0000" points="1305.43,845.85,1313.7347,840.5555,1308.1911,841.6815,1307.0651,836.1378,1305.43,845.85" style="stroke:#FF0000;stroke-width:1;"/></g><!--link MacBERTh NLP Model to Novelty Detection--><g class="link" data-entity-1="MacBERTh NLP Model" data-entity-2="Novelty Detection" data-source-line="4" data-uid="lnk51" id="link_MacBERTh NLP Model_Novelty Detection"><path codeLine="4" d="M1284.32,845.85 C1291.84,824.17 1304.6706,796.9645 1318.8406,775.2545" fill="none" id="MacBERTh NLP Model-to-Novelty Detection" style="stroke:#8B0000;stroke-width:1;"/><polygon fill="#8B0000" points="1322.12,770.23,1313.8512,775.5804,1319.3871,774.4171,1320.5505,779.953,1322.12,770.23" style="stroke:#8B0000;stroke-width:1;"/></g><!--link EEBO-TCP XML to TEI Parser--><g class="link" data-entity-1="EEBO-TCP XML" data-entity-2="TEI Parser" data-source-line="1" data-uid="lnk35" id="link_EEBO-TCP XML_TEI Parser"><path codeLine="1" d="M1103.64,90.23 C1060.16,151.98 945.5342,314.764 901.9242,376.704" fill="none" id="EEBO-TCP XML-to-TEI Parser" style="stroke:#008000;stroke-width:1;"/><polygon fill="#008000" points="898.47,381.61,906.9219,376.5538,901.3485,377.5217,900.3806,371.9482,898.47,381.61" style="stroke:#008000;stroke-width:1;"/></g><!--link MPESE to TEI Parser--><g class="link" data-entity-1="MPESE" data-entity-2="TEI Parser" data-source-line="2" data-uid="lnk36" id="link_MPESE_TEI Parser"><path codeLine="2" d="M822.81,90.17 C825.55,99.94 828.62,111.48 831,122 C852.63,217.69 870.1932,327.2889 877.6132,375.8189" fill="none" id="MPESE-to-TEI Parser" style="stroke:#008000;stroke-width:1;"/><polygon fill="#008000" points="878.52,381.75,881.1138,372.2488,877.7643,376.8074,873.2057,373.4579,878.52,381.75" style="stroke:#008000;stroke-width:1;"/></g><!--link MPESE to Image Preprocessor--><g class="link" data-entity-1="MPESE" data-entity-2="Image Preprocessor" data-source-line="3" data-uid="lnk37" id="link_MPESE_Image Preprocessor"><path codeLine="3" d="M800.38,90.23 C785.79,111.94 767.4767,139.1901 752.9067,160.8701" fill="none" id="MPESE-to-Image Preprocessor" style="stroke:#008000;stroke-width:1;"/><polygon fill="#008000" points="749.56,165.85,757.9,160.6113,752.3489,161.7001,751.2602,156.149,749.56,165.85" style="stroke:#008000;stroke-width:1;"/></g><!--link Lincoln / Bodleian Scans (TIFF/JPEG) to Image Preprocessor--><g class="link" data-entity-1="Lincoln . Bodleian Scans .TIFF.JPEG." data-entity-2="Image Preprocessor" data-source-line="1" data-uid="lnk38" id="link_Lincoln . Bodleian Scans .TIFF.JPEG._Image Preprocessor"><path codeLine="1" d="M499.7,90.09 C551.08,111.78 622.0324,141.7363 673.5024,163.4663" fill="none" id="Lincoln / Bodleian Scans (TIFF/JPEG)-to-Image Preprocessor" style="stroke:#A52A2A;stroke-width:1;"/><polygon fill="#A52A2A" points="679.03,165.8,672.2944,158.6145,674.4237,163.8553,669.1829,165.9845,679.03,165.8" style="stroke:#A52A2A;stroke-width:1;"/></g><!--link Image Preprocessor to OCR--><g class="link" data-entity-1="Image Preprocessor" data-entity-2="OCR" data-source-line="2" data-uid="lnk39" id="link_Image Preprocessor_OCR"><path codeLine="2" d="M734,214 C734,231.66 734,249.94 734,267.68" fill="none" id="Image Preprocessor-to-OCR" style="stroke:#A52A2A;stroke-width:1;"/><polygon fill="#A52A2A" points="734,273.68,738,264.68,734,268.68,730,264.68,734,273.68" style="stroke:#A52A2A;stroke-width:1;"/></g><!--link OCR to TEI Converter--><g class="link" data-entity-1="OCR" data-entity-2="TEI Converter" data-source-line="3" data-uid="lnk40" id="link_OCR_TEI Converter"><path codeLine="3" d="M726.62,322 C720.96,339.66 715.0025,358.2267 709.3125,375.9667" fill="none" id="OCR-to-TEI Converter" style="stroke:#A52A2A;stroke-width:1;"/><polygon fill="#A52A2A" points="707.48,381.68,714.0376,374.3317,709.0071,376.9189,706.4199,371.8884,707.48,381.68" style="stroke:#A52A2A;stroke-width:1;"/></g><!--link OCR to Normalisation Engine--><g class="link" data-entity-1="OCR" data-entity-2="Normalisation Engine" data-source-line="5" data-uid="lnk41" id="link_OCR_Normalisation Engine"><path codeLine="5" d="M747.22,322.15 C756.27,338.55 768.19,361.23 777,382 C792.64,418.89 804.9026,457.6451 812.7126,484.1251" fill="none" id="OCR-to-Normalisation Engine" style="stroke:#A52A2A;stroke-width:1;"/><polygon fill="#A52A2A" points="814.41,489.88,815.7006,480.1161,812.9955,485.0842,808.0274,482.3792,814.41,489.88" style="stroke:#A52A2A;stroke-width:1;"/></g><!--link TEI Parser to Normalisation Engine--><g class="link" data-entity-1="TEI Parser" data-entity-2="Normalisation Engine" data-source-line="6" data-uid="lnk42" id="link_TEI Parser_Normalisation Engine"><path codeLine="6" d="M868.76,430 C858.6,447.66 847.6229,466.7398 837.4129,484.4798" fill="none" id="TEI Parser-to-Normalisation Engine" style="stroke:#A52A2A;stroke-width:1;"/><polygon fill="#A52A2A" points="834.42,489.68,842.3762,483.8749,836.9141,485.3465,835.4426,479.8844,834.42,489.68" style="stroke:#A52A2A;stroke-width:1;"/></g><!--link TEI Converter to TEI Repository--><g class="link" data-entity-1="TEI Converter" data-entity-2="TEI Repository" data-source-line="9" data-uid="lnk43" id="link_TEI Converter_TEI Repository"><path codeLine="9" d="M697.66,430.23 C691.45,491.98 675.1805,653.7001 668.9505,715.6401" fill="none" id="TEI Converter-to-TEI Repository" style="stroke:#A52A2A;stroke-width:1;"/><polygon fill="#A52A2A" points="668.35,721.61,673.2306,713.0555,668.8504,716.6351,665.2708,712.2549,668.35,721.61" style="stroke:#A52A2A;stroke-width:1;"/></g><!--link TEI Converter to Normalisation Engine--><g class="link" data-entity-1="TEI Converter" data-entity-2="Normalisation Engine" data-source-line="10" data-uid="lnk44" id="link_TEI Converter_Normalisation Engine"><path codeLine="10" d="M726.26,430 C746.41,447.66 769.6169,467.9863 789.8669,485.7263" fill="none" id="TEI Converter-to-Normalisation Engine" style="stroke:#A52A2A;stroke-width:1;"/><polygon fill="#A52A2A" points="794.38,489.68,790.2461,480.7407,790.6191,486.3852,784.9745,486.7582,794.38,489.68" style="stroke:#A52A2A;stroke-width:1;"/></g><!--link Normalisation Engine to Normalised Text DB--><g class="link" data-entity-1="Normalisation Engine" data-entity-2="Normalised Text DB" data-source-line="1" data-uid="lnk45" id="link_Normalisation Engine_Normalised Text DB"><path codeLine="1" d="M855.59,538.03 C902.66,569.45 989.47,627.58 1063,678 C1084.12,692.48 1102.7984,705.4939 1121.2984,718.4739" fill="none" id="Normalisation Engine-to-Normalised Text DB" style="stroke:#0000FF;stroke-width:1;"/><polygon fill="#0000FF" points="1126.21,721.92,1121.1399,713.4764,1122.117,719.0482,1116.5451,720.0253,1126.21,721.92" style="stroke:#0000FF;stroke-width:1;"/></g><!--link Normalisation Engine to Metadata Extractor--><g class="link" data-entity-1="Normalisation Engine" data-entity-2="Metadata Extractor" data-source-line="2" data-uid="lnk46" id="link_Normalisation Engine_Metadata Extractor"><path codeLine="2" d="M821,538 C821,555.66 821,573.94 821,591.68" fill="none" id="Normalisation Engine-to-Metadata Extractor" style="stroke:#0000FF;stroke-width:1;"/><polygon fill="#0000FF" points="821,597.68,825,588.68,821,592.68,817,588.68,821,597.68" style="stroke:#0000FF;stroke-width:1;"/></g><!--link Metadata Extractor to Metadata DB--><g class="link" data-entity-1="Metadata Extractor" data-entity-2="Metadata DB" data-source-line="3" data-uid="lnk47" id="link_Metadata Extractor_Metadata DB"><path codeLine="3" d="M821,646.23 C821,667.94 821,694.17 821,715.85" fill="none" id="Metadata Extractor-to-Metadata DB" style="stroke:#0000FF;stroke-width:1;"/><polygon fill="#0000FF" points="821,721.85,825,712.85,821,716.85,817,712.85,821,721.85" style="stroke:#0000FF;stroke-width:1;"/></g><!--link Normalised Text DB to MacBERTh NLP Model--><g class="link" data-entity-1="Normalised Text DB" data-entity-2="MacBERTh NLP Model" data-source-line="5" data-uid="lnk48" id="link_Normalised Text DB_MacBERTh NLP Model"><path codeLine="5" d="M1182.62,770.23 C1204.68,791.94 1233.1635,819.9615 1255.1935,841.6415" fill="none" id="Normalised Text DB-to-MacBERTh NLP Model" style="stroke:#0000FF;stroke-width:1;"/><polygon fill="#0000FF" points="1259.47,845.85,1255.861,836.6862,1255.9063,842.3429,1250.2496,842.3882,1259.47,845.85" style="stroke:#0000FF;stroke-width:1;"/></g><!--link Metadata DB to Corpus Explorer UI--><g class="link" data-entity-1="Metadata DB" data-entity-2="Corpus Explorer UI" data-source-line="1" data-uid="lnk49" id="link_Metadata DB_Corpus Explorer UI"><path codeLine="1" d="M791.48,770.23 C763.9,791.94 727.6645,820.4587 700.1245,842.1387" fill="none" id="Metadata DB-to-Corpus Explorer UI" style="stroke:#8B0000;stroke-width:1;"/><polygon fill="#8B0000" points="695.41,845.85,704.9559,843.426,699.3387,842.7572,700.0075,837.1401,695.41,845.85" style="stroke:#8B0000;stroke-width:1;"/></g><!--link Novelty Detection to Corpus Explorer UI--><g class="link" data-entity-1="Novelty Detection" data-entity-2="Corpus Explorer UI" data-source-line="5" data-uid="lnk52" id="link_Novelty Detection_Corpus Explorer UI"><path codeLine="5" d="M1309.2,770.02 C1293.1,779.36 1273.3,789.09 1254,794 C1203.17,806.93 832.55,787.99 782,802 C750.4,810.76 723.3304,826.7422 700.9704,842.4422" fill="none" id="Novelty Detection-to-Corpus Explorer UI" style="stroke:#8B0000;stroke-width:1;"/><polygon fill="#8B0000" points="696.06,845.89,705.7242,843.9919,700.152,843.0168,701.1271,837.4446,696.06,845.89" style="stroke:#8B0000;stroke-width:1;"/></g><!--link WYSIWYG Editor to Corpus Explorer UI--><g class="link" data-entity-1="WYSIWYG Editor" data-entity-2="Corpus Explorer UI" data-source-line="7" data-uid="lnk54" id="link_WYSIWYG Editor_Corpus Explorer UI"><path codeLine="7" d="M104.3188,841.7246 C124.3488,822.3146 151.57,801.83 185.5,798 C226.35,793.39 514.65,793.39 555.5,798 C590.08,801.9 618.184,822.445 638.854,841.835" fill="none" id="WYSIWYG Editor-Corpus Explorer UI" style="stroke:#8B0000;stroke-width:1;"/><polygon fill="#8B0000" points="100.01,845.9,109.2568,842.5094,103.6007,842.4205,103.6896,836.7643,100.01,845.9" style="stroke:#8B0000;stroke-width:1;"/><polygon fill="#8B0000" points="643.23,845.94,639.4027,836.8652,639.5834,842.5192,633.9294,842.6998,643.23,845.94" style="stroke:#8B0000;stroke-width:1;"/></g><!--link Normalised Text DB to Statistics + Graphing Tools--><g class="link" data-entity-1="Normalised Text DB" data-entity-2="Statistics . Graphing Tools" data-source-line="10" data-uid="lnk56" id="link_Normalised Text DB_Statistics . Graphing Tools"><path codeLine="10" d="M1135.47,721.98 C1114.15,702.61 1080.75,677.98 1045.5,674 C1021.15,671.25 628.85,671.25 604.5,674 C564.3,678.54 528.8811,699.2392 502.6111,718.3592" fill="none" id="Normalised Text DB-to-Statistics + Graphing Tools" style="stroke:#8B0000;stroke-width:1;"/><polygon fill="#8B0000" points="497.76,721.89,507.3906,719.8279,501.8026,718.9477,502.6828,713.3597,497.76,721.89" style="stroke:#8B0000;stroke-width:1;"/></g><!--link Metadata DB to Statistics + Graphing Tools--><g class="link" data-entity-1="Metadata DB" data-entity-2="Statistics . Graphing Tools" data-source-line="11" data-uid="lnk57" id="link_Metadata DB_Statistics . Graphing Tools"><path codeLine="11" d="M800.36,721.81 C786.45,707.01 766.88,688.89 746,678 C738.93,674.31 736.43,674.89 728.5,674 C701.12,670.91 631.88,670.91 604.5,674 C564.3,678.54 528.8811,699.2392 502.6111,718.3592" fill="none" id="Metadata DB-to-Statistics + Graphing Tools" style="stroke:#8B0000;stroke-width:1;"/><polygon fill="#8B0000" points="497.76,721.89,507.3906,719.8279,501.8026,718.9477,502.6828,713.3597,497.76,721.89" style="stroke:#8B0000;stroke-width:1;"/></g><!--link Corpus Explorer UI to GMN58--><g class="link" data-entity-1="Corpus Explorer UI" data-entity-2="GMN58" data-source-line="34" data-uid="lnk60" id="link_Corpus Explorer UI_GMN58"><path d="M695.01,845.85 C720.64,826.71 759.99,802.46 799.5,798 C831.02,794.44 1338.98,794.44 1370.5,798 C1424.05,804.04 1481.22,829.46 1517.71,848.39" fill="none" id="Corpus Explorer UI-GMN58" style="stroke:#77777788;stroke-width:4;stroke-dasharray:7,7;"/></g><!--link GMN61 to MacBERTh NLP Model--><g class="link" data-entity-1="GMN61" data-entity-2="MacBERTh NLP Model" data-source-line="39" data-uid="lnk63" id="link_GMN61_MacBERTh NLP Model"><path d="M1848.83,848.33 C1813.39,829.35 1757.8,803.9 1705.5,798 C1672.49,794.28 1439.51,794.28 1406.5,798 C1398.57,798.89 1396.36,798.91 1389,802 C1362.19,813.26 1334.63,831.17 1314.33,845.79" fill="none" id="GMN61-MacBERTh NLP Model" style="stroke:#77777788;stroke-width:4;stroke-dasharray:7,7;"/></g><!--SRC=[ZPF1JkCm48RlFCKit5ijGe83ub0AKYMeAYWFC2JJnAepOtaSIdV5kw_ZDcb0ZRe-H97dcz__ZCS00ByCPxRE2KQZSIQL4oOEEeuV4mpfoDMLFODXqB2hmsdC6KVMCEt08oGpPS48wzYJ4lgi7D8ya8OBqkRtDEgyPAGQCqwpBBv2QnJ_JnePxLQDzahJTMmBUgoWQm7yJP5cJJ1R5rvgpk_5Yh-zdMB0kpkmfYZ3bgoLpJ2xs3UouV63E2S_33zBJhPLVhSr3QDlivOhF14FWxFcmblM6LuVKF7HJSBWuYgjBlOe75xD7uBVt_VcM14ycYB4GrFWwsS7qNlPzBgtB4ssvdYNS4pzijlR-xXEw-RckFX1bYNGZrgFNaZYUeM-svZK5sy0y4qco0hExyMxMk7XqqMQFBpDplkbQ6z2SgFEubPXFwoKns3ApkE0T5d8EM3ZIQ7Mg6WuaCSqZB0neOHs8268M1sbn3WeoLdFewNLpk8pPfE7bsK9ywS5f95fBIx8h-9Zq1JfPECvy_qJYHQNz1bWEZaxc2k8ew502Yl2KFlc9tPgBXzamnQc57PFvxkpVm00]--></g></svg>