<svg xmlns="http://www.w3.org/2000/svg" xmlns:xlink="http://www.w3.org/1999/xlink" contentStyleType="text/css" data-diagram-type="CLASS" height="1093px" preserveAspectRatio="none" style="width:2038px;height:1093px;background:#FFFFFF;" version="1.1" viewBox="0 0 2038 1093" width="2038px" zoomAndPan="magnify"><defs/><g><!--cluster Data / Corpus--><g class="cluster" data-entity="Data . Corpus" data-source-line="3" data-uid="ent0002" id="cluster_Data . Corpus"><path d="M595.5,754 L687.5137,754 A3.75,3.75 0 0 1 690.0137,756.5 L697.0137,777.6094 L1257.5,777.6094 A2.5,2.5 0 0 1 1260,780.1094 L1260,851.5 A2.5,2.5 0 0 1 1257.5,854 L595.5,854 A2.5,2.5 0 0 1 593,851.5 L593,756.5 A2.5,2.5 0 0 1 595.5,754" fill="#FFFFE0" style="stroke:#000000;stroke-width:1.5;"/><line style="stroke:#000000;stroke-width:1.5;" x1="593" x2="697.0137" y1="777.6094" y2="777.6094"/><text fill="#000000" font-family="sans-serif" font-size="14" font-weight="bold" lengthAdjust="spacing" textLength="91.0137" x="597" y="770.5332">Data / Corpus</text></g><!--cluster Models--><g class="cluster" data-entity="Models" data-source-line="10" data-uid="ent0007" id="cluster_Models"><path d="M784.5,878 L833.7275,878 A3.75,3.75 0 0 1 836.2275,880.5 L843.2275,901.6094 L1385.5,901.6094 A2.5,2.5 0 0 1 1388,904.1094 L1388,975.5 A2.5,2.5 0 0 1 1385.5,978 L784.5,978 A2.5,2.5 0 0 1 782,975.5 L782,880.5 A2.5,2.5 0 0 1 784.5,878" fill="#ADD8E6" style="stroke:#000000;stroke-width:1.5;"/><line style="stroke:#000000;stroke-width:1.5;" x1="782" x2="843.2275" y1="901.6094" y2="901.6094"/><text fill="#000000" font-family="sans-serif" font-size="14" font-weight="bold" lengthAdjust="spacing" textLength="48.2275" x="786" y="894.5332">Models</text></g><!--cluster UI / Tools--><g class="cluster" data-entity="UI . Tools" data-source-line="16" data-uid="ent0011" id="cluster_UI . Tools"><path d="M170.5,878 L234.5,878 A3.75,3.75 0 0 1 237,880.5 L244,901.6094 L755.5,901.6094 A2.5,2.5 0 0 1 758,904.1094 L758,1083.5 A2.5,2.5 0 0 1 755.5,1086 L170.5,1086 A2.5,2.5 0 0 1 168,1083.5 L168,880.5 A2.5,2.5 0 0 1 170.5,878" fill="#90EE90" style="stroke:#000000;stroke-width:1.5;"/><line style="stroke:#000000;stroke-width:1.5;" x1="168" x2="244" y1="901.6094" y2="901.6094"/><text fill="#000000" font-family="sans-serif" font-size="14" font-weight="bold" lengthAdjust="spacing" textLength="63" x="172" y="894.5332">UI / Tools</text></g><!--cluster Input Sources--><g class="cluster" data-entity="Input Sources" data-source-line="0" data-uid="ent0016" id="cluster_Input Sources"><path d="M183.5,6 L277.8447,6 A3.75,3.75 0 0 1 280.3447,8.5 L287.3447,29.6094 L1088.5,29.6094 A2.5,2.5 0 0 1 1091,32.1094 L1091,103.5 A2.5,2.5 0 0 1 1088.5,106 L183.5,106 A2.5,2.5 0 0 1 181,103.5 L181,8.5 A2.5,2.5 0 0 1 183.5,6" fill="#FFB6C1" style="stroke:#000000;stroke-width:1.5;"/><line style="stroke:#000000;stroke-width:1.5;" x1="181" x2="287.3447" y1="29.6094" y2="29.6094"/><text fill="#000000" font-family="sans-serif" font-size="14" font-weight="bold" lengthAdjust="spacing" textLength="93.3447" x="185" y="22.5332">Input Sources</text></g><!--cluster Processing_Pipeline--><g class="cluster" data-entity="Processing_Pipeline" data-source-line="0" data-uid="ent0020" id="cluster_Processing_Pipeline"><path d="M451.5,130 L589.4443,130 A3.75,3.75 0 0 1 591.9443,132.5 L598.9443,153.6094 L924.5,153.6094 A2.5,2.5 0 0 1 927,156.1094 L927,727.5 A2.5,2.5 0 0 1 924.5,730 L451.5,730 A2.5,2.5 0 0 1 449,727.5 L449,132.5 A2.5,2.5 0 0 1 451.5,130" fill="#E6E6FA" style="stroke:#000000;stroke-width:1.5;"/><line style="stroke:#000000;stroke-width:1.5;" x1="449" x2="598.9443" y1="153.6094" y2="153.6094"/><text fill="#000000" font-family="sans-serif" font-size="14" font-weight="bold" lengthAdjust="spacing" textLength="136.9443" x="453" y="146.5332">Processing_Pipeline</text></g><!--cluster Processing_Pipeline_Images--><g class="cluster" data-entity="Processing_Pipeline_Images" data-source-line="1" data-uid="ent0021" id="cluster_Processing_Pipeline_Images"><path d="M475.5,174 L669.4785,174 A3.75,3.75 0 0 1 671.9785,176.5 L678.9785,197.6094 L678.5,197.6094 A2.5,2.5 0 0 1 681,200.1094 L681,487.5 A2.5,2.5 0 0 1 678.5,490 L475.5,490 A2.5,2.5 0 0 1 473,487.5 L473,176.5 A2.5,2.5 0 0 1 475.5,174" fill="#FFF0F5" style="stroke:#000000;stroke-width:1.5;"/><line style="stroke:#000000;stroke-width:1.5;" x1="473" x2="678.9785" y1="197.6094" y2="197.6094"/><text fill="#000000" font-family="sans-serif" font-size="14" font-weight="bold" lengthAdjust="spacing" textLength="192.9785" x="477" y="190.5332">Processing_Pipeline_Images</text></g><!--cluster Processing_Pipeline_TEI--><g class="cluster" data-entity="Processing_Pipeline_TEI" data-source-line="7" data-uid="ent0025" id="cluster_Processing_Pipeline_TEI"><path d="M707.5,390 L875.0098,390 A3.75,3.75 0 0 1 877.5098,392.5 L884.5098,413.6094 L900.5,413.6094 A2.5,2.5 0 0 1 903,416.1094 L903,703.5 A2.5,2.5 0 0 1 900.5,706 L707.5,706 A2.5,2.5 0 0 1 705,703.5 L705,392.5 A2.5,2.5 0 0 1 707.5,390" fill="#FFF0F5" style="stroke:#000000;stroke-width:1.5;"/><line style="stroke:#000000;stroke-width:1.5;" x1="705" x2="884.5098" y1="413.6094" y2="413.6094"/><text fill="#000000" font-family="sans-serif" font-size="14" font-weight="bold" lengthAdjust="spacing" textLength="166.5098" x="709" y="406.5332">Processing_Pipeline_TEI</text></g><!--class Training Corpus--><g class="entity" data-entity="Training Corpus" data-source-line="4" data-uid="ent0003" id="entity_Training Corpus"><rect fill="#F1F1F1" height="48" rx="2.5" ry="2.5" style="stroke:#181818;stroke-width:0.5;" width="131.5996" x="919" y="790"/><ellipse cx="934" cy="806" fill="#ADD1B2" rx="11" ry="11" style="stroke:#181818;stroke-width:1;"/><path d="M936.7656,801.875 Q936.9219,801.6563 937.1094,801.5469 Q937.2969,801.4375 937.5156,801.4375 Q937.8906,801.4375 938.125,801.6953 Q938.3594,801.9531 938.3594,802.5625 L938.3594,804.0156 Q938.3594,804.625 938.125,804.8906 Q937.8906,805.1563 937.5156,805.1563 Q937.1719,805.1563 936.9688,804.9531 Q936.7656,804.7656 936.6563,804.25 Q936.6094,803.8906 936.4219,803.7031 Q936.0938,803.3281 935.4844,803.1094 Q934.875,802.8906 934.25,802.8906 Q933.4844,802.8906 932.8516,803.2188 Q932.2188,803.5469 931.7266,804.2969 Q931.2344,805.0469 931.2344,806.0781 L931.2344,807.1719 Q931.2344,808.4063 932.125,809.2266 Q933.0156,810.0469 934.6094,810.0469 Q935.5469,810.0469 936.2031,809.7969 Q936.5938,809.6406 937.0156,809.2031 Q937.2813,808.9375 937.4297,808.8594 Q937.5781,808.7813 937.7813,808.7813 Q938.1094,808.7813 938.3672,809.0391 Q938.625,809.2969 938.625,809.6406 Q938.625,809.9844 938.2813,810.3906 Q937.7813,810.9688 936.9844,811.2969 Q935.9063,811.75 934.6094,811.75 Q933.0938,811.75 931.8906,811.125 Q930.9063,810.625 930.2188,809.5547 Q929.5313,808.4844 929.5313,807.2031 L929.5313,806.0469 Q929.5313,804.7188 930.1484,803.5703 Q930.7656,802.4219 931.8594,801.8047 Q932.9531,801.1875 934.1875,801.1875 Q934.9219,801.1875 935.5703,801.3516 Q936.2188,801.5156 936.7656,801.875 Z " fill="#000000"/><text fill="#000000" font-family="sans-serif" font-size="14" lengthAdjust="spacing" textLength="99.5996" x="948" y="811.7285">Training Corpus</text><line style="stroke:#181818;stroke-width:0.5;" x1="920" x2="1049.5996" y1="822" y2="822"/><line style="stroke:#181818;stroke-width:0.5;" x1="920" x2="1049.5996" y1="830" y2="830"/></g><!--class TEI Repository--><g class="entity" data-entity="TEI Repository" data-source-line="5" data-uid="ent0004" id="entity_TEI Repository"><rect fill="#F1F1F1" height="48" rx="2.5" ry="2.5" style="stroke:#181818;stroke-width:0.5;" width="124.5859" x="758.5" y="790"/><ellipse cx="773.5" cy="806" fill="#ADD1B2" rx="11" ry="11" style="stroke:#181818;stroke-width:1;"/><path d="M776.2656,801.875 Q776.4219,801.6563 776.6094,801.5469 Q776.7969,801.4375 777.0156,801.4375 Q777.3906,801.4375 777.625,801.6953 Q777.8594,801.9531 777.8594,802.5625 L777.8594,804.0156 Q777.8594,804.625 777.625,804.8906 Q777.3906,805.1563 777.0156,805.1563 Q776.6719,805.1563 776.4688,804.9531 Q776.2656,804.7656 776.1563,804.25 Q776.1094,803.8906 775.9219,803.7031 Q775.5938,803.3281 774.9844,803.1094 Q774.375,802.8906 773.75,802.8906 Q772.9844,802.8906 772.3516,803.2188 Q771.7188,803.5469 771.2266,804.2969 Q770.7344,805.0469 770.7344,806.0781 L770.7344,807.1719 Q770.7344,808.4063 771.625,809.2266 Q772.5156,810.0469 774.1094,810.0469 Q775.0469,810.0469 775.7031,809.7969 Q776.0938,809.6406 776.5156,809.2031 Q776.7813,808.9375 776.9297,808.8594 Q777.0781,808.7813 777.2813,808.7813 Q777.6094,808.7813 777.8672,809.0391 Q778.125,809.2969 778.125,809.6406 Q778.125,809.9844 777.7813,810.3906 Q777.2813,810.9688 776.4844,811.2969 Q775.4063,811.75 774.1094,811.75 Q772.5938,811.75 771.3906,811.125 Q770.4063,810.625 769.7188,809.5547 Q769.0313,808.4844 769.0313,807.2031 L769.0313,806.0469 Q769.0313,804.7188 769.6484,803.5703 Q770.2656,802.4219 771.3594,801.8047 Q772.4531,801.1875 773.6875,801.1875 Q774.4219,801.1875 775.0703,801.3516 Q775.7188,801.5156 776.2656,801.875 Z " fill="#000000"/><text fill="#000000" font-family="sans-serif" font-size="14" lengthAdjust="spacing" textLength="92.5859" x="787.5" y="811.7285">TEI Repository</text><line style="stroke:#181818;stroke-width:0.5;" x1="759.5" x2="882.0859" y1="822" y2="822"/><line style="stroke:#181818;stroke-width:0.5;" x1="759.5" x2="882.0859" y1="830" y2="830"/></g><!--class Normalised Text DB--><g class="entity" data-entity="Normalised Text DB" data-source-line="6" data-uid="ent0005" id="entity_Normalised Text DB"><rect fill="#F1F1F1" height="48" rx="2.5" ry="2.5" style="stroke:#181818;stroke-width:0.5;" width="157.2549" x="1086.5" y="790"/><ellipse cx="1101.5" cy="806" fill="#ADD1B2" rx="11" ry="11" style="stroke:#181818;stroke-width:1;"/><path d="M1104.2656,801.875 Q1104.4219,801.6563 1104.6094,801.5469 Q1104.7969,801.4375 1105.0156,801.4375 Q1105.3906,801.4375 1105.625,801.6953 Q1105.8594,801.9531 1105.8594,802.5625 L1105.8594,804.0156 Q1105.8594,804.625 1105.625,804.8906 Q1105.3906,805.1563 1105.0156,805.1563 Q1104.6719,805.1563 1104.4688,804.9531 Q1104.2656,804.7656 1104.1563,804.25 Q1104.1094,803.8906 1103.9219,803.7031 Q1103.5938,803.3281 1102.9844,803.1094 Q1102.375,802.8906 1101.75,802.8906 Q1100.9844,802.8906 1100.3516,803.2188 Q1099.7188,803.5469 1099.2266,804.2969 Q1098.7344,805.0469 1098.7344,806.0781 L1098.7344,807.1719 Q1098.7344,808.4063 1099.625,809.2266 Q1100.5156,810.0469 1102.1094,810.0469 Q1103.0469,810.0469 1103.7031,809.7969 Q1104.0938,809.6406 1104.5156,809.2031 Q1104.7813,808.9375 1104.9297,808.8594 Q1105.0781,808.7813 1105.2813,808.7813 Q1105.6094,808.7813 1105.8672,809.0391 Q1106.125,809.2969 1106.125,809.6406 Q1106.125,809.9844 1105.7813,810.3906 Q1105.2813,810.9688 1104.4844,811.2969 Q1103.4063,811.75 1102.1094,811.75 Q1100.5938,811.75 1099.3906,811.125 Q1098.4063,810.625 1097.7188,809.5547 Q1097.0313,808.4844 1097.0313,807.2031 L1097.0313,806.0469 Q1097.0313,804.7188 1097.6484,803.5703 Q1098.2656,802.4219 1099.3594,801.8047 Q1100.4531,801.1875 1101.6875,801.1875 Q1102.4219,801.1875 1103.0703,801.3516 Q1103.7188,801.5156 1104.2656,801.875 Z " fill="#000000"/><text fill="#000000" font-family="sans-serif" font-size="14" lengthAdjust="spacing" textLength="125.2549" x="1115.5" y="811.7285">Normalised Text DB</text><line style="stroke:#181818;stroke-width:0.5;" x1="1087.5" x2="1242.7549" y1="822" y2="822"/><line style="stroke:#181818;stroke-width:0.5;" x1="1087.5" x2="1242.7549" y1="830" y2="830"/></g><!--class Metadata DB--><g class="entity" data-entity="Metadata DB" data-source-line="7" data-uid="ent0006" id="entity_Metadata DB"><rect fill="#F1F1F1" height="48" rx="2.5" ry="2.5" style="stroke:#181818;stroke-width:0.5;" width="113.71" x="609" y="790"/><ellipse cx="624" cy="806" fill="#ADD1B2" rx="11" ry="11" style="stroke:#181818;stroke-width:1;"/><path d="M626.7656,801.875 Q626.9219,801.6563 627.1094,801.5469 Q627.2969,801.4375 627.5156,801.4375 Q627.8906,801.4375 628.125,801.6953 Q628.3594,801.9531 628.3594,802.5625 L628.3594,804.0156 Q628.3594,804.625 628.125,804.8906 Q627.8906,805.1563 627.5156,805.1563 Q627.1719,805.1563 626.9688,804.9531 Q626.7656,804.7656 626.6563,804.25 Q626.6094,803.8906 626.4219,803.7031 Q626.0938,803.3281 625.4844,803.1094 Q624.875,802.8906 624.25,802.8906 Q623.4844,802.8906 622.8516,803.2188 Q622.2188,803.5469 621.7266,804.2969 Q621.2344,805.0469 621.2344,806.0781 L621.2344,807.1719 Q621.2344,808.4063 622.125,809.2266 Q623.0156,810.0469 624.6094,810.0469 Q625.5469,810.0469 626.2031,809.7969 Q626.5938,809.6406 627.0156,809.2031 Q627.2813,808.9375 627.4297,808.8594 Q627.5781,808.7813 627.7813,808.7813 Q628.1094,808.7813 628.3672,809.0391 Q628.625,809.2969 628.625,809.6406 Q628.625,809.9844 628.2813,810.3906 Q627.7813,810.9688 626.9844,811.2969 Q625.9063,811.75 624.6094,811.75 Q623.0938,811.75 621.8906,811.125 Q620.9063,810.625 620.2188,809.5547 Q619.5313,808.4844 619.5313,807.2031 L619.5313,806.0469 Q619.5313,804.7188 620.1484,803.5703 Q620.7656,802.4219 621.8594,801.8047 Q622.9531,801.1875 624.1875,801.1875 Q624.9219,801.1875 625.5703,801.3516 Q626.2188,801.5156 626.7656,801.875 Z " fill="#000000"/><text fill="#000000" font-family="sans-serif" font-size="14" lengthAdjust="spacing" textLength="81.71" x="638" y="811.7285">Metadata DB</text><line style="stroke:#181818;stroke-width:0.5;" x1="610" x2="721.71" y1="822" y2="822"/><line style="stroke:#181818;stroke-width:0.5;" x1="610" x2="721.71" y1="830" y2="830"/></g><!--class MacBERTh NLP Model--><g class="entity" data-entity="MacBERTh NLP Model" data-source-line="11" data-uid="ent0008" id="entity_MacBERTh NLP Model"><rect fill="#F1F1F1" height="48" rx="2.5" ry="2.5" style="stroke:#181818;stroke-width:0.5;" width="176.7168" x="1194.5" y="914"/><ellipse cx="1209.5" cy="930" fill="#ADD1B2" rx="11" ry="11" style="stroke:#181818;stroke-width:1;"/><path d="M1212.2656,925.875 Q1212.4219,925.6563 1212.6094,925.5469 Q1212.7969,925.4375 1213.0156,925.4375 Q1213.3906,925.4375 1213.625,925.6953 Q1213.8594,925.9531 1213.8594,926.5625 L1213.8594,928.0156 Q1213.8594,928.625 1213.625,928.8906 Q1213.3906,929.1563 1213.0156,929.1563 Q1212.6719,929.1563 1212.4688,928.9531 Q1212.2656,928.7656 1212.1563,928.25 Q1212.1094,927.8906 1211.9219,927.7031 Q1211.5938,927.3281 1210.9844,927.1094 Q1210.375,926.8906 1209.75,926.8906 Q1208.9844,926.8906 1208.3516,927.2188 Q1207.7188,927.5469 1207.2266,928.2969 Q1206.7344,929.0469 1206.7344,930.0781 L1206.7344,931.1719 Q1206.7344,932.4063 1207.625,933.2266 Q1208.5156,934.0469 1210.1094,934.0469 Q1211.0469,934.0469 1211.7031,933.7969 Q1212.0938,933.6406 1212.5156,933.2031 Q1212.7813,932.9375 1212.9297,932.8594 Q1213.0781,932.7813 1213.2813,932.7813 Q1213.6094,932.7813 1213.8672,933.0391 Q1214.125,933.2969 1214.125,933.6406 Q1214.125,933.9844 1213.7813,934.3906 Q1213.2813,934.9688 1212.4844,935.2969 Q1211.4063,935.75 1210.1094,935.75 Q1208.5938,935.75 1207.3906,935.125 Q1206.4063,934.625 1205.7188,933.5547 Q1205.0313,932.4844 1205.0313,931.2031 L1205.0313,930.0469 Q1205.0313,928.7188 1205.6484,927.5703 Q1206.2656,926.4219 1207.3594,925.8047 Q1208.4531,925.1875 1209.6875,925.1875 Q1210.4219,925.1875 1211.0703,925.3516 Q1211.7188,925.5156 1212.2656,925.875 Z " fill="#000000"/><text fill="#000000" font-family="sans-serif" font-size="14" lengthAdjust="spacing" textLength="144.7168" x="1223.5" y="935.7285">MacBERTh NLP Model</text><line style="stroke:#181818;stroke-width:0.5;" x1="1195.5" x2="1370.2168" y1="946" y2="946"/><line style="stroke:#181818;stroke-width:0.5;" x1="1195.5" x2="1370.2168" y1="954" y2="954"/></g><!--class fastText Global Index--><g class="entity" data-entity="fastText Global Index" data-source-line="12" data-uid="ent0009" id="entity_fastText Global Index"><rect fill="#F1F1F1" height="48" rx="2.5" ry="2.5" style="stroke:#181818;stroke-width:0.5;" width="164.2891" x="995" y="914"/><ellipse cx="1010" cy="930" fill="#ADD1B2" rx="11" ry="11" style="stroke:#181818;stroke-width:1;"/><path d="M1012.7656,925.875 Q1012.9219,925.6563 1013.1094,925.5469 Q1013.2969,925.4375 1013.5156,925.4375 Q1013.8906,925.4375 1014.125,925.6953 Q1014.3594,925.9531 1014.3594,926.5625 L1014.3594,928.0156 Q1014.3594,928.625 1014.125,928.8906 Q1013.8906,929.1563 1013.5156,929.1563 Q1013.1719,929.1563 1012.9688,928.9531 Q1012.7656,928.7656 1012.6563,928.25 Q1012.6094,927.8906 1012.4219,927.7031 Q1012.0938,927.3281 1011.4844,927.1094 Q1010.875,926.8906 1010.25,926.8906 Q1009.4844,926.8906 1008.8516,927.2188 Q1008.2188,927.5469 1007.7266,928.2969 Q1007.2344,929.0469 1007.2344,930.0781 L1007.2344,931.1719 Q1007.2344,932.4063 1008.125,933.2266 Q1009.0156,934.0469 1010.6094,934.0469 Q1011.5469,934.0469 1012.2031,933.7969 Q1012.5938,933.6406 1013.0156,933.2031 Q1013.2813,932.9375 1013.4297,932.8594 Q1013.5781,932.7813 1013.7813,932.7813 Q1014.1094,932.7813 1014.3672,933.0391 Q1014.625,933.2969 1014.625,933.6406 Q1014.625,933.9844 1014.2813,934.3906 Q1013.7813,934.9688 1012.9844,935.2969 Q1011.9063,935.75 1010.6094,935.75 Q1009.0938,935.75 1007.8906,935.125 Q1006.9063,934.625 1006.2188,933.5547 Q1005.5313,932.4844 1005.5313,931.2031 L1005.5313,930.0469 Q1005.5313,928.7188 1006.1484,927.5703 Q1006.7656,926.4219 1007.8594,925.8047 Q1008.9531,925.1875 1010.1875,925.1875 Q1010.9219,925.1875 1011.5703,925.3516 Q1012.2188,925.5156 1012.7656,925.875 Z " fill="#000000"/><text fill="#000000" font-family="sans-serif" font-size="14" lengthAdjust="spacing" textLength="132.2891" x="1024" y="935.7285">fastText Global Index</text><line style="stroke:#181818;stroke-width:0.5;" x1="996" x2="1158.2891" y1="946" y2="946"/><line style="stroke:#181818;stroke-width:0.5;" x1="996" x2="1158.2891" y1="954" y2="954"/></g><!--class fastText Slices Index--><g class="entity" data-entity="fastText Slices Index" data-source-line="13" data-uid="ent0010" id="entity_fastText Slices Index"><rect fill="#F1F1F1" height="48" rx="2.5" ry="2.5" style="stroke:#181818;stroke-width:0.5;" width="161.165" x="798.5" y="914"/><ellipse cx="813.5" cy="930" fill="#ADD1B2" rx="11" ry="11" style="stroke:#181818;stroke-width:1;"/><path d="M816.2656,925.875 Q816.4219,925.6563 816.6094,925.5469 Q816.7969,925.4375 817.0156,925.4375 Q817.3906,925.4375 817.625,925.6953 Q817.8594,925.9531 817.8594,926.5625 L817.8594,928.0156 Q817.8594,928.625 817.625,928.8906 Q817.3906,929.1563 817.0156,929.1563 Q816.6719,929.1563 816.4688,928.9531 Q816.2656,928.7656 816.1563,928.25 Q816.1094,927.8906 815.9219,927.7031 Q815.5938,927.3281 814.9844,927.1094 Q814.375,926.8906 813.75,926.8906 Q812.9844,926.8906 812.3516,927.2188 Q811.7188,927.5469 811.2266,928.2969 Q810.7344,929.0469 810.7344,930.0781 L810.7344,931.1719 Q810.7344,932.4063 811.625,933.2266 Q812.5156,934.0469 814.1094,934.0469 Q815.0469,934.0469 815.7031,933.7969 Q816.0938,933.6406 816.5156,933.2031 Q816.7813,932.9375 816.9297,932.8594 Q817.0781,932.7813 817.2813,932.7813 Q817.6094,932.7813 817.8672,933.0391 Q818.125,933.2969 818.125,933.6406 Q818.125,933.9844 817.7813,934.3906 Q817.2813,934.9688 816.4844,935.2969 Q815.4063,935.75 814.1094,935.75 Q812.5938,935.75 811.3906,935.125 Q810.4063,934.625 809.7188,933.5547 Q809.0313,932.4844 809.0313,931.2031 L809.0313,930.0469 Q809.0313,928.7188 809.6484,927.5703 Q810.2656,926.4219 811.3594,925.8047 Q812.4531,925.1875 813.6875,925.1875 Q814.4219,925.1875 815.0703,925.3516 Q815.7188,925.5156 816.2656,925.875 Z " fill="#000000"/><text fill="#000000" font-family="sans-serif" font-size="14" lengthAdjust="spacing" textLength="129.165" x="827.5" y="935.7285">fastText Slices Index</text><line style="stroke:#181818;stroke-width:0.5;" x1="799.5" x2="958.665" y1="946" y2="946"/><line style="stroke:#181818;stroke-width:0.5;" x1="799.5" x2="958.665" y1="954" y2="954"/></g><!--class Corpus Explorer UI--><g class="entity" data-entity="Corpus Explorer UI" data-source-line="17" data-uid="ent0012" id="entity_Corpus Explorer UI"><rect fill="#F1F1F1" height="48" rx="2.5" ry="2.5" style="stroke:#181818;stroke-width:0.5;" width="151.041" x="590.5" y="914"/><ellipse cx="605.5" cy="930" fill="#ADD1B2" rx="11" ry="11" style="stroke:#181818;stroke-width:1;"/><path d="M608.2656,925.875 Q608.4219,925.6563 608.6094,925.5469 Q608.7969,925.4375 609.0156,925.4375 Q609.3906,925.4375 609.625,925.6953 Q609.8594,925.9531 609.8594,926.5625 L609.8594,928.0156 Q609.8594,928.625 609.625,928.8906 Q609.3906,929.1563 609.0156,929.1563 Q608.6719,929.1563 608.4688,928.9531 Q608.2656,928.7656 608.1563,928.25 Q608.1094,927.8906 607.9219,927.7031 Q607.5938,927.3281 606.9844,927.1094 Q606.375,926.8906 605.75,926.8906 Q604.9844,926.8906 604.3516,927.2188 Q603.7188,927.5469 603.2266,928.2969 Q602.7344,929.0469 602.7344,930.0781 L602.7344,931.1719 Q602.7344,932.4063 603.625,933.2266 Q604.5156,934.0469 606.1094,934.0469 Q607.0469,934.0469 607.7031,933.7969 Q608.0938,933.6406 608.5156,933.2031 Q608.7813,932.9375 608.9297,932.8594 Q609.0781,932.7813 609.2813,932.7813 Q609.6094,932.7813 609.8672,933.0391 Q610.125,933.2969 610.125,933.6406 Q610.125,933.9844 609.7813,934.3906 Q609.2813,934.9688 608.4844,935.2969 Q607.4063,935.75 606.1094,935.75 Q604.5938,935.75 603.3906,935.125 Q602.4063,934.625 601.7188,933.5547 Q601.0313,932.4844 601.0313,931.2031 L601.0313,930.0469 Q601.0313,928.7188 601.6484,927.5703 Q602.2656,926.4219 603.3594,925.8047 Q604.4531,925.1875 605.6875,925.1875 Q606.4219,925.1875 607.0703,925.3516 Q607.7188,925.5156 608.2656,925.875 Z " fill="#000000"/><text fill="#000000" font-family="sans-serif" font-size="14" lengthAdjust="spacing" textLength="119.041" x="619.5" y="935.7285">Corpus Explorer UI</text><line style="stroke:#181818;stroke-width:0.5;" x1="591.5" x2="740.541" y1="946" y2="946"/><line style="stroke:#181818;stroke-width:0.5;" x1="591.5" x2="740.541" y1="954" y2="954"/></g><!--class WYSIWYG Editor?--><g class="entity" data-entity="WYSIWYG Editor." data-source-line="18" data-uid="ent0013" id="entity_WYSIWYG Editor."><rect fill="#F1F1F1" height="48" rx="2.5" ry="2.5" style="stroke:#181818;stroke-width:0.5;" width="149.4688" x="184.5" y="914"/><ellipse cx="199.5" cy="930" fill="#ADD1B2" rx="11" ry="11" style="stroke:#181818;stroke-width:1;"/><path d="M202.2656,925.875 Q202.4219,925.6563 202.6094,925.5469 Q202.7969,925.4375 203.0156,925.4375 Q203.3906,925.4375 203.625,925.6953 Q203.8594,925.9531 203.8594,926.5625 L203.8594,928.0156 Q203.8594,928.625 203.625,928.8906 Q203.3906,929.1563 203.0156,929.1563 Q202.6719,929.1563 202.4688,928.9531 Q202.2656,928.7656 202.1563,928.25 Q202.1094,927.8906 201.9219,927.7031 Q201.5938,927.3281 200.9844,927.1094 Q200.375,926.8906 199.75,926.8906 Q198.9844,926.8906 198.3516,927.2188 Q197.7188,927.5469 197.2266,928.2969 Q196.7344,929.0469 196.7344,930.0781 L196.7344,931.1719 Q196.7344,932.4063 197.625,933.2266 Q198.5156,934.0469 200.1094,934.0469 Q201.0469,934.0469 201.7031,933.7969 Q202.0938,933.6406 202.5156,933.2031 Q202.7813,932.9375 202.9297,932.8594 Q203.0781,932.7813 203.2813,932.7813 Q203.6094,932.7813 203.8672,933.0391 Q204.125,933.2969 204.125,933.6406 Q204.125,933.9844 203.7813,934.3906 Q203.2813,934.9688 202.4844,935.2969 Q201.4063,935.75 200.1094,935.75 Q198.5938,935.75 197.3906,935.125 Q196.4063,934.625 195.7188,933.5547 Q195.0313,932.4844 195.0313,931.2031 L195.0313,930.0469 Q195.0313,928.7188 195.6484,927.5703 Q196.2656,926.4219 197.3594,925.8047 Q198.4531,925.1875 199.6875,925.1875 Q200.4219,925.1875 201.0703,925.3516 Q201.7188,925.5156 202.2656,925.875 Z " fill="#000000"/><text fill="#000000" font-family="sans-serif" font-size="14" lengthAdjust="spacing" textLength="117.4688" x="213.5" y="935.7285">WYSIWYG Editor?</text><line style="stroke:#181818;stroke-width:0.5;" x1="185.5" x2="332.9688" y1="946" y2="946"/><line style="stroke:#181818;stroke-width:0.5;" x1="185.5" x2="332.9688" y1="954" y2="954"/></g><!--class Novelty Detection (IVNF)--><g class="entity" data-entity="Novelty Detection .IVNF." data-source-line="19" data-uid="ent0014" id="entity_Novelty Detection .IVNF."><rect fill="#F1F1F1" height="48" rx="2.5" ry="2.5" style="stroke:#181818;stroke-width:0.5;" width="186.8203" x="368.5" y="914"/><ellipse cx="383.5" cy="930" fill="#ADD1B2" rx="11" ry="11" style="stroke:#181818;stroke-width:1;"/><path d="M386.2656,925.875 Q386.4219,925.6563 386.6094,925.5469 Q386.7969,925.4375 387.0156,925.4375 Q387.3906,925.4375 387.625,925.6953 Q387.8594,925.9531 387.8594,926.5625 L387.8594,928.0156 Q387.8594,928.625 387.625,928.8906 Q387.3906,929.1563 387.0156,929.1563 Q386.6719,929.1563 386.4688,928.9531 Q386.2656,928.7656 386.1563,928.25 Q386.1094,927.8906 385.9219,927.7031 Q385.5938,927.3281 384.9844,927.1094 Q384.375,926.8906 383.75,926.8906 Q382.9844,926.8906 382.3516,927.2188 Q381.7188,927.5469 381.2266,928.2969 Q380.7344,929.0469 380.7344,930.0781 L380.7344,931.1719 Q380.7344,932.4063 381.625,933.2266 Q382.5156,934.0469 384.1094,934.0469 Q385.0469,934.0469 385.7031,933.7969 Q386.0938,933.6406 386.5156,933.2031 Q386.7813,932.9375 386.9297,932.8594 Q387.0781,932.7813 387.2813,932.7813 Q387.6094,932.7813 387.8672,933.0391 Q388.125,933.2969 388.125,933.6406 Q388.125,933.9844 387.7813,934.3906 Q387.2813,934.9688 386.4844,935.2969 Q385.4063,935.75 384.1094,935.75 Q382.5938,935.75 381.3906,935.125 Q380.4063,934.625 379.7188,933.5547 Q379.0313,932.4844 379.0313,931.2031 L379.0313,930.0469 Q379.0313,928.7188 379.6484,927.5703 Q380.2656,926.4219 381.3594,925.8047 Q382.4531,925.1875 383.6875,925.1875 Q384.4219,925.1875 385.0703,925.3516 Q385.7188,925.5156 386.2656,925.875 Z " fill="#000000"/><text fill="#000000" font-family="sans-serif" font-size="14" lengthAdjust="spacing" textLength="154.8203" x="397.5" y="935.7285">Novelty Detection (IVNF)</text><line style="stroke:#181818;stroke-width:0.5;" x1="369.5" x2="554.3203" y1="946" y2="946"/><line style="stroke:#181818;stroke-width:0.5;" x1="369.5" x2="554.3203" y1="954" y2="954"/></g><!--class Diachornic Statistics and Graphing Tools--><g class="entity" data-entity="Diachornic Statistics and Graphing Tools" data-source-line="20" data-uid="ent0015" id="entity_Diachornic Statistics and Graphing Tools"><rect fill="#F1F1F1" height="48" rx="2.5" ry="2.5" style="stroke:#181818;stroke-width:0.5;" width="284.8955" x="184.5" y="1022"/><ellipse cx="199.5" cy="1038" fill="#ADD1B2" rx="11" ry="11" style="stroke:#181818;stroke-width:1;"/><path d="M202.2656,1033.875 Q202.4219,1033.6563 202.6094,1033.5469 Q202.7969,1033.4375 203.0156,1033.4375 Q203.3906,1033.4375 203.625,1033.6953 Q203.8594,1033.9531 203.8594,1034.5625 L203.8594,1036.0156 Q203.8594,1036.625 203.625,1036.8906 Q203.3906,1037.1563 203.0156,1037.1563 Q202.6719,1037.1563 202.4688,1036.9531 Q202.2656,1036.7656 202.1563,1036.25 Q202.1094,1035.8906 201.9219,1035.7031 Q201.5938,1035.3281 200.9844,1035.1094 Q200.375,1034.8906 199.75,1034.8906 Q198.9844,1034.8906 198.3516,1035.2188 Q197.7188,1035.5469 197.2266,1036.2969 Q196.7344,1037.0469 196.7344,1038.0781 L196.7344,1039.1719 Q196.7344,1040.4063 197.625,1041.2266 Q198.5156,1042.0469 200.1094,1042.0469 Q201.0469,1042.0469 201.7031,1041.7969 Q202.0938,1041.6406 202.5156,1041.2031 Q202.7813,1040.9375 202.9297,1040.8594 Q203.0781,1040.7813 203.2813,1040.7813 Q203.6094,1040.7813 203.8672,1041.0391 Q204.125,1041.2969 204.125,1041.6406 Q204.125,1041.9844 203.7813,1042.3906 Q203.2813,1042.9688 202.4844,1043.2969 Q201.4063,1043.75 200.1094,1043.75 Q198.5938,1043.75 197.3906,1043.125 Q196.4063,1042.625 195.7188,1041.5547 Q195.0313,1040.4844 195.0313,1039.2031 L195.0313,1038.0469 Q195.0313,1036.7188 195.6484,1035.5703 Q196.2656,1034.4219 197.3594,1033.8047 Q198.4531,1033.1875 199.6875,1033.1875 Q200.4219,1033.1875 201.0703,1033.3516 Q201.7188,1033.5156 202.2656,1033.875 Z " fill="#000000"/><text fill="#000000" font-family="sans-serif" font-size="14" lengthAdjust="spacing" textLength="252.8955" x="213.5" y="1043.7285">Diachornic Statistics and Graphing Tools</text><line style="stroke:#181818;stroke-width:0.5;" x1="185.5" x2="468.3955" y1="1054" y2="1054"/><line style="stroke:#181818;stroke-width:0.5;" x1="185.5" x2="468.3955" y1="1062" y2="1062"/></g><!--class EEBO-TCP XML--><g class="entity" data-entity="EEBO-TCP XML" data-source-line="1" data-uid="ent0017" id="entity_EEBO-TCP XML"><rect fill="#F1F1F1" height="48" rx="2.5" ry="2.5" style="stroke:#181818;stroke-width:0.5;" width="136.2412" x="939" y="42"/><ellipse cx="954" cy="58" fill="#ADD1B2" rx="11" ry="11" style="stroke:#181818;stroke-width:1;"/><path d="M956.7656,53.875 Q956.9219,53.6563 957.1094,53.5469 Q957.2969,53.4375 957.5156,53.4375 Q957.8906,53.4375 958.125,53.6953 Q958.3594,53.9531 958.3594,54.5625 L958.3594,56.0156 Q958.3594,56.625 958.125,56.8906 Q957.8906,57.1563 957.5156,57.1563 Q957.1719,57.1563 956.9688,56.9531 Q956.7656,56.7656 956.6563,56.25 Q956.6094,55.8906 956.4219,55.7031 Q956.0938,55.3281 955.4844,55.1094 Q954.875,54.8906 954.25,54.8906 Q953.4844,54.8906 952.8516,55.2188 Q952.2188,55.5469 951.7266,56.2969 Q951.2344,57.0469 951.2344,58.0781 L951.2344,59.1719 Q951.2344,60.4063 952.125,61.2266 Q953.0156,62.0469 954.6094,62.0469 Q955.5469,62.0469 956.2031,61.7969 Q956.5938,61.6406 957.0156,61.2031 Q957.2813,60.9375 957.4297,60.8594 Q957.5781,60.7813 957.7813,60.7813 Q958.1094,60.7813 958.3672,61.0391 Q958.625,61.2969 958.625,61.6406 Q958.625,61.9844 958.2813,62.3906 Q957.7813,62.9688 956.9844,63.2969 Q955.9063,63.75 954.6094,63.75 Q953.0938,63.75 951.8906,63.125 Q950.9063,62.625 950.2188,61.5547 Q949.5313,60.4844 949.5313,59.2031 L949.5313,58.0469 Q949.5313,56.7188 950.1484,55.5703 Q950.7656,54.4219 951.8594,53.8047 Q952.9531,53.1875 954.1875,53.1875 Q954.9219,53.1875 955.5703,53.3516 Q956.2188,53.5156 956.7656,53.875 Z " fill="#000000"/><text fill="#000000" font-family="sans-serif" font-size="14" lengthAdjust="spacing" textLength="104.2412" x="968" y="63.7285">EEBO-TCP XML</text><line style="stroke:#181818;stroke-width:0.5;" x1="940" x2="1074.2412" y1="74" y2="74"/><line style="stroke:#181818;stroke-width:0.5;" x1="940" x2="1074.2412" y1="82" y2="82"/></g><!--class Lincoln / Bodleian Scans (TIFF/JPEG)--><g class="entity" data-entity="Lincoln . Bodleian Scans .TIFF.JPEG." data-source-line="2" data-uid="ent0018" id="entity_Lincoln . Bodleian Scans .TIFF.JPEG."><rect fill="#F1F1F1" height="48" rx="2.5" ry="2.5" style="stroke:#181818;stroke-width:0.5;" width="268.5371" x="197.5" y="42"/><ellipse cx="212.5" cy="58" fill="#ADD1B2" rx="11" ry="11" style="stroke:#181818;stroke-width:1;"/><path d="M215.2656,53.875 Q215.4219,53.6563 215.6094,53.5469 Q215.7969,53.4375 216.0156,53.4375 Q216.3906,53.4375 216.625,53.6953 Q216.8594,53.9531 216.8594,54.5625 L216.8594,56.0156 Q216.8594,56.625 216.625,56.8906 Q216.3906,57.1563 216.0156,57.1563 Q215.6719,57.1563 215.4688,56.9531 Q215.2656,56.7656 215.1563,56.25 Q215.1094,55.8906 214.9219,55.7031 Q214.5938,55.3281 213.9844,55.1094 Q213.375,54.8906 212.75,54.8906 Q211.9844,54.8906 211.3516,55.2188 Q210.7188,55.5469 210.2266,56.2969 Q209.7344,57.0469 209.7344,58.0781 L209.7344,59.1719 Q209.7344,60.4063 210.625,61.2266 Q211.5156,62.0469 213.1094,62.0469 Q214.0469,62.0469 214.7031,61.7969 Q215.0938,61.6406 215.5156,61.2031 Q215.7813,60.9375 215.9297,60.8594 Q216.0781,60.7813 216.2813,60.7813 Q216.6094,60.7813 216.8672,61.0391 Q217.125,61.2969 217.125,61.6406 Q217.125,61.9844 216.7813,62.3906 Q216.2813,62.9688 215.4844,63.2969 Q214.4063,63.75 213.1094,63.75 Q211.5938,63.75 210.3906,63.125 Q209.4063,62.625 208.7188,61.5547 Q208.0313,60.4844 208.0313,59.2031 L208.0313,58.0469 Q208.0313,56.7188 208.6484,55.5703 Q209.2656,54.4219 210.3594,53.8047 Q211.4531,53.1875 212.6875,53.1875 Q213.4219,53.1875 214.0703,53.3516 Q214.7188,53.5156 215.2656,53.875 Z " fill="#000000"/><text fill="#000000" font-family="sans-serif" font-size="14" lengthAdjust="spacing" textLength="236.5371" x="226.5" y="63.7285">Lincoln / Bodleian Scans (TIFF/JPEG)</text><line style="stroke:#181818;stroke-width:0.5;" x1="198.5" x2="465.0371" y1="74" y2="74"/><line style="stroke:#181818;stroke-width:0.5;" x1="198.5" x2="465.0371" y1="82" y2="82"/></g><!--class MPESE--><g class="entity" data-entity="MPESE" data-source-line="3" data-uid="ent0019" id="entity_MPESE"><rect fill="#F1F1F1" height="48" rx="2.5" ry="2.5" style="stroke:#181818;stroke-width:0.5;" width="402.4121" x="502" y="42"/><ellipse cx="517" cy="58" fill="#ADD1B2" rx="11" ry="11" style="stroke:#181818;stroke-width:1;"/><path d="M519.7656,53.875 Q519.9219,53.6563 520.1094,53.5469 Q520.2969,53.4375 520.5156,53.4375 Q520.8906,53.4375 521.125,53.6953 Q521.3594,53.9531 521.3594,54.5625 L521.3594,56.0156 Q521.3594,56.625 521.125,56.8906 Q520.8906,57.1563 520.5156,57.1563 Q520.1719,57.1563 519.9688,56.9531 Q519.7656,56.7656 519.6563,56.25 Q519.6094,55.8906 519.4219,55.7031 Q519.0938,55.3281 518.4844,55.1094 Q517.875,54.8906 517.25,54.8906 Q516.4844,54.8906 515.8516,55.2188 Q515.2188,55.5469 514.7266,56.2969 Q514.2344,57.0469 514.2344,58.0781 L514.2344,59.1719 Q514.2344,60.4063 515.125,61.2266 Q516.0156,62.0469 517.6094,62.0469 Q518.5469,62.0469 519.2031,61.7969 Q519.5938,61.6406 520.0156,61.2031 Q520.2813,60.9375 520.4297,60.8594 Q520.5781,60.7813 520.7813,60.7813 Q521.1094,60.7813 521.3672,61.0391 Q521.625,61.2969 521.625,61.6406 Q521.625,61.9844 521.2813,62.3906 Q520.7813,62.9688 519.9844,63.2969 Q518.9063,63.75 517.6094,63.75 Q516.0938,63.75 514.8906,63.125 Q513.9063,62.625 513.2188,61.5547 Q512.5313,60.4844 512.5313,59.2031 L512.5313,58.0469 Q512.5313,56.7188 513.1484,55.5703 Q513.7656,54.4219 514.8594,53.8047 Q515.9531,53.1875 517.1875,53.1875 Q517.9219,53.1875 518.5703,53.3516 Q519.2188,53.5156 519.7656,53.875 Z " fill="#000000"/><text fill="#000000" font-family="sans-serif" font-size="14" lengthAdjust="spacing" textLength="370.4121" x="531" y="63.7285">Manuscript Pamphleteering in Early Stuart England sources</text><line style="stroke:#181818;stroke-width:0.5;" x1="503" x2="903.4121" y1="74" y2="74"/><line style="stroke:#181818;stroke-width:0.5;" x1="503" x2="903.4121" y1="82" y2="82"/></g><!--class Image Preprocessor--><g class="entity" data-entity="Image Preprocessor" data-source-line="2" data-uid="ent0022" id="entity_Image Preprocessor"><rect fill="#F1F1F1" height="48" rx="2.5" ry="2.5" style="stroke:#181818;stroke-width:0.5;" width="158.0547" x="507" y="210"/><ellipse cx="522" cy="226" fill="#ADD1B2" rx="11" ry="11" style="stroke:#181818;stroke-width:1;"/><path d="M524.7656,221.875 Q524.9219,221.6563 525.1094,221.5469 Q525.2969,221.4375 525.5156,221.4375 Q525.8906,221.4375 526.125,221.6953 Q526.3594,221.9531 526.3594,222.5625 L526.3594,224.0156 Q526.3594,224.625 526.125,224.8906 Q525.8906,225.1563 525.5156,225.1563 Q525.1719,225.1563 524.9688,224.9531 Q524.7656,224.7656 524.6563,224.25 Q524.6094,223.8906 524.4219,223.7031 Q524.0938,223.3281 523.4844,223.1094 Q522.875,222.8906 522.25,222.8906 Q521.4844,222.8906 520.8516,223.2188 Q520.2188,223.5469 519.7266,224.2969 Q519.2344,225.0469 519.2344,226.0781 L519.2344,227.1719 Q519.2344,228.4063 520.125,229.2266 Q521.0156,230.0469 522.6094,230.0469 Q523.5469,230.0469 524.2031,229.7969 Q524.5938,229.6406 525.0156,229.2031 Q525.2813,228.9375 525.4297,228.8594 Q525.5781,228.7813 525.7813,228.7813 Q526.1094,228.7813 526.3672,229.0391 Q526.625,229.2969 526.625,229.6406 Q526.625,229.9844 526.2813,230.3906 Q525.7813,230.9688 524.9844,231.2969 Q523.9063,231.75 522.6094,231.75 Q521.0938,231.75 519.8906,231.125 Q518.9063,230.625 518.2188,229.5547 Q517.5313,228.4844 517.5313,227.2031 L517.5313,226.0469 Q517.5313,224.7188 518.1484,223.5703 Q518.7656,222.4219 519.8594,221.8047 Q520.9531,221.1875 522.1875,221.1875 Q522.9219,221.1875 523.5703,221.3516 Q524.2188,221.5156 524.7656,221.875 Z " fill="#000000"/><text fill="#000000" font-family="sans-serif" font-size="14" lengthAdjust="spacing" textLength="126.0547" x="536" y="231.7285">Image Preprocessor</text><line style="stroke:#181818;stroke-width:0.5;" x1="508" x2="664.0547" y1="242" y2="242"/><line style="stroke:#181818;stroke-width:0.5;" x1="508" x2="664.0547" y1="250" y2="250"/></g><!--class OCR--><g class="entity" data-entity="OCR" data-source-line="3" data-uid="ent0023" id="entity_OCR"><rect fill="#F1F1F1" height="48" rx="2.5" ry="2.5" style="stroke:#181818;stroke-width:0.5;" width="63.1104" x="559.5" y="318"/><ellipse cx="574.5" cy="334" fill="#ADD1B2" rx="11" ry="11" style="stroke:#181818;stroke-width:1;"/><path d="M577.2656,329.875 Q577.4219,329.6563 577.6094,329.5469 Q577.7969,329.4375 578.0156,329.4375 Q578.3906,329.4375 578.625,329.6953 Q578.8594,329.9531 578.8594,330.5625 L578.8594,332.0156 Q578.8594,332.625 578.625,332.8906 Q578.3906,333.1563 578.0156,333.1563 Q577.6719,333.1563 577.4688,332.9531 Q577.2656,332.7656 577.1563,332.25 Q577.1094,331.8906 576.9219,331.7031 Q576.5938,331.3281 575.9844,331.1094 Q575.375,330.8906 574.75,330.8906 Q573.9844,330.8906 573.3516,331.2188 Q572.7188,331.5469 572.2266,332.2969 Q571.7344,333.0469 571.7344,334.0781 L571.7344,335.1719 Q571.7344,336.4063 572.625,337.2266 Q573.5156,338.0469 575.1094,338.0469 Q576.0469,338.0469 576.7031,337.7969 Q577.0938,337.6406 577.5156,337.2031 Q577.7813,336.9375 577.9297,336.8594 Q578.0781,336.7813 578.2813,336.7813 Q578.6094,336.7813 578.8672,337.0391 Q579.125,337.2969 579.125,337.6406 Q579.125,337.9844 578.7813,338.3906 Q578.2813,338.9688 577.4844,339.2969 Q576.4063,339.75 575.1094,339.75 Q573.5938,339.75 572.3906,339.125 Q571.4063,338.625 570.7188,337.5547 Q570.0313,336.4844 570.0313,335.2031 L570.0313,334.0469 Q570.0313,332.7188 570.6484,331.5703 Q571.2656,330.4219 572.3594,329.8047 Q573.4531,329.1875 574.6875,329.1875 Q575.4219,329.1875 576.0703,329.3516 Q576.7188,329.5156 577.2656,329.875 Z " fill="#000000"/><text fill="#000000" font-family="sans-serif" font-size="14" lengthAdjust="spacing" textLength="31.1104" x="588.5" y="339.7285">OCR</text><line style="stroke:#181818;stroke-width:0.5;" x1="560.5" x2="621.6104" y1="350" y2="350"/><line style="stroke:#181818;stroke-width:0.5;" x1="560.5" x2="621.6104" y1="358" y2="358"/></g><!--class TEI Converter--><g class="entity" data-entity="TEI Converter" data-source-line="4" data-uid="ent0024" id="entity_TEI Converter"><rect fill="#F1F1F1" height="48" rx="2.5" ry="2.5" style="stroke:#181818;stroke-width:0.5;" width="119.1377" x="540.5" y="426"/><ellipse cx="555.5" cy="442" fill="#ADD1B2" rx="11" ry="11" style="stroke:#181818;stroke-width:1;"/><path d="M558.2656,437.875 Q558.4219,437.6563 558.6094,437.5469 Q558.7969,437.4375 559.0156,437.4375 Q559.3906,437.4375 559.625,437.6953 Q559.8594,437.9531 559.8594,438.5625 L559.8594,440.0156 Q559.8594,440.625 559.625,440.8906 Q559.3906,441.1563 559.0156,441.1563 Q558.6719,441.1563 558.4688,440.9531 Q558.2656,440.7656 558.1563,440.25 Q558.1094,439.8906 557.9219,439.7031 Q557.5938,439.3281 556.9844,439.1094 Q556.375,438.8906 555.75,438.8906 Q554.9844,438.8906 554.3516,439.2188 Q553.7188,439.5469 553.2266,440.2969 Q552.7344,441.0469 552.7344,442.0781 L552.7344,443.1719 Q552.7344,444.4063 553.625,445.2266 Q554.5156,446.0469 556.1094,446.0469 Q557.0469,446.0469 557.7031,445.7969 Q558.0938,445.6406 558.5156,445.2031 Q558.7813,444.9375 558.9297,444.8594 Q559.0781,444.7813 559.2813,444.7813 Q559.6094,444.7813 559.8672,445.0391 Q560.125,445.2969 560.125,445.6406 Q560.125,445.9844 559.7813,446.3906 Q559.2813,446.9688 558.4844,447.2969 Q557.4063,447.75 556.1094,447.75 Q554.5938,447.75 553.3906,447.125 Q552.4063,446.625 551.7188,445.5547 Q551.0313,444.4844 551.0313,443.2031 L551.0313,442.0469 Q551.0313,440.7188 551.6484,439.5703 Q552.2656,438.4219 553.3594,437.8047 Q554.4531,437.1875 555.6875,437.1875 Q556.4219,437.1875 557.0703,437.3516 Q557.7188,437.5156 558.2656,437.875 Z " fill="#000000"/><text fill="#000000" font-family="sans-serif" font-size="14" lengthAdjust="spacing" textLength="87.1377" x="569.5" y="447.7285">TEI Converter</text><line style="stroke:#181818;stroke-width:0.5;" x1="541.5" x2="658.6377" y1="458" y2="458"/><line style="stroke:#181818;stroke-width:0.5;" x1="541.5" x2="658.6377" y1="466" y2="466"/></g><!--class TEI Parser--><g class="entity" data-entity="TEI Parser" data-source-line="8" data-uid="ent0026" id="entity_TEI Parser"><rect fill="#F1F1F1" height="48" rx="2.5" ry="2.5" style="stroke:#181818;stroke-width:0.5;" width="98.9033" x="754.5" y="426"/><ellipse cx="769.5" cy="442" fill="#ADD1B2" rx="11" ry="11" style="stroke:#181818;stroke-width:1;"/><path d="M772.2656,437.875 Q772.4219,437.6563 772.6094,437.5469 Q772.7969,437.4375 773.0156,437.4375 Q773.3906,437.4375 773.625,437.6953 Q773.8594,437.9531 773.8594,438.5625 L773.8594,440.0156 Q773.8594,440.625 773.625,440.8906 Q773.3906,441.1563 773.0156,441.1563 Q772.6719,441.1563 772.4688,440.9531 Q772.2656,440.7656 772.1563,440.25 Q772.1094,439.8906 771.9219,439.7031 Q771.5938,439.3281 770.9844,439.1094 Q770.375,438.8906 769.75,438.8906 Q768.9844,438.8906 768.3516,439.2188 Q767.7188,439.5469 767.2266,440.2969 Q766.7344,441.0469 766.7344,442.0781 L766.7344,443.1719 Q766.7344,444.4063 767.625,445.2266 Q768.5156,446.0469 770.1094,446.0469 Q771.0469,446.0469 771.7031,445.7969 Q772.0938,445.6406 772.5156,445.2031 Q772.7813,444.9375 772.9297,444.8594 Q773.0781,444.7813 773.2813,444.7813 Q773.6094,444.7813 773.8672,445.0391 Q774.125,445.2969 774.125,445.6406 Q774.125,445.9844 773.7813,446.3906 Q773.2813,446.9688 772.4844,447.2969 Q771.4063,447.75 770.1094,447.75 Q768.5938,447.75 767.3906,447.125 Q766.4063,446.625 765.7188,445.5547 Q765.0313,444.4844 765.0313,443.2031 L765.0313,442.0469 Q765.0313,440.7188 765.6484,439.5703 Q766.2656,438.4219 767.3594,437.8047 Q768.4531,437.1875 769.6875,437.1875 Q770.4219,437.1875 771.0703,437.3516 Q771.7188,437.5156 772.2656,437.875 Z " fill="#000000"/><text fill="#000000" font-family="sans-serif" font-size="14" lengthAdjust="spacing" textLength="66.9033" x="783.5" y="447.7285">TEI Parser</text><line style="stroke:#181818;stroke-width:0.5;" x1="755.5" x2="852.4033" y1="458" y2="458"/><line style="stroke:#181818;stroke-width:0.5;" x1="755.5" x2="852.4033" y1="466" y2="466"/></g><!--class Normalisation Engine--><g class="entity" data-entity="Normalisation Engine" data-source-line="9" data-uid="ent0027" id="entity_Normalisation Engine"><rect fill="#F1F1F1" height="48" rx="2.5" ry="2.5" style="stroke:#181818;stroke-width:0.5;" width="165.0684" x="721.5" y="534"/><ellipse cx="736.5" cy="550" fill="#ADD1B2" rx="11" ry="11" style="stroke:#181818;stroke-width:1;"/><path d="M739.2656,545.875 Q739.4219,545.6563 739.6094,545.5469 Q739.7969,545.4375 740.0156,545.4375 Q740.3906,545.4375 740.625,545.6953 Q740.8594,545.9531 740.8594,546.5625 L740.8594,548.0156 Q740.8594,548.625 740.625,548.8906 Q740.3906,549.1563 740.0156,549.1563 Q739.6719,549.1563 739.4688,548.9531 Q739.2656,548.7656 739.1563,548.25 Q739.1094,547.8906 738.9219,547.7031 Q738.5938,547.3281 737.9844,547.1094 Q737.375,546.8906 736.75,546.8906 Q735.9844,546.8906 735.3516,547.2188 Q734.7188,547.5469 734.2266,548.2969 Q733.7344,549.0469 733.7344,550.0781 L733.7344,551.1719 Q733.7344,552.4063 734.625,553.2266 Q735.5156,554.0469 737.1094,554.0469 Q738.0469,554.0469 738.7031,553.7969 Q739.0938,553.6406 739.5156,553.2031 Q739.7813,552.9375 739.9297,552.8594 Q740.0781,552.7813 740.2813,552.7813 Q740.6094,552.7813 740.8672,553.0391 Q741.125,553.2969 741.125,553.6406 Q741.125,553.9844 740.7813,554.3906 Q740.2813,554.9688 739.4844,555.2969 Q738.4063,555.75 737.1094,555.75 Q735.5938,555.75 734.3906,555.125 Q733.4063,554.625 732.7188,553.5547 Q732.0313,552.4844 732.0313,551.2031 L732.0313,550.0469 Q732.0313,548.7188 732.6484,547.5703 Q733.2656,546.4219 734.3594,545.8047 Q735.4531,545.1875 736.6875,545.1875 Q737.4219,545.1875 738.0703,545.3516 Q738.7188,545.5156 739.2656,545.875 Z " fill="#000000"/><text fill="#000000" font-family="sans-serif" font-size="14" lengthAdjust="spacing" textLength="133.0684" x="750.5" y="555.7285">Normalisation Engine</text><line style="stroke:#181818;stroke-width:0.5;" x1="722.5" x2="885.5684" y1="566" y2="566"/><line style="stroke:#181818;stroke-width:0.5;" x1="722.5" x2="885.5684" y1="574" y2="574"/></g><!--class Metadata Extractor--><g class="entity" data-entity="Metadata Extractor" data-source-line="10" data-uid="ent0028" id="entity_Metadata Extractor"><rect fill="#F1F1F1" height="48" rx="2.5" ry="2.5" style="stroke:#181818;stroke-width:0.5;" width="150.2754" x="733" y="642"/><ellipse cx="748" cy="658" fill="#ADD1B2" rx="11" ry="11" style="stroke:#181818;stroke-width:1;"/><path d="M750.7656,653.875 Q750.9219,653.6563 751.1094,653.5469 Q751.2969,653.4375 751.5156,653.4375 Q751.8906,653.4375 752.125,653.6953 Q752.3594,653.9531 752.3594,654.5625 L752.3594,656.0156 Q752.3594,656.625 752.125,656.8906 Q751.8906,657.1563 751.5156,657.1563 Q751.1719,657.1563 750.9688,656.9531 Q750.7656,656.7656 750.6563,656.25 Q750.6094,655.8906 750.4219,655.7031 Q750.0938,655.3281 749.4844,655.1094 Q748.875,654.8906 748.25,654.8906 Q747.4844,654.8906 746.8516,655.2188 Q746.2188,655.5469 745.7266,656.2969 Q745.2344,657.0469 745.2344,658.0781 L745.2344,659.1719 Q745.2344,660.4063 746.125,661.2266 Q747.0156,662.0469 748.6094,662.0469 Q749.5469,662.0469 750.2031,661.7969 Q750.5938,661.6406 751.0156,661.2031 Q751.2813,660.9375 751.4297,660.8594 Q751.5781,660.7813 751.7813,660.7813 Q752.1094,660.7813 752.3672,661.0391 Q752.625,661.2969 752.625,661.6406 Q752.625,661.9844 752.2813,662.3906 Q751.7813,662.9688 750.9844,663.2969 Q749.9063,663.75 748.6094,663.75 Q747.0938,663.75 745.8906,663.125 Q744.9063,662.625 744.2188,661.5547 Q743.5313,660.4844 743.5313,659.2031 L743.5313,658.0469 Q743.5313,656.7188 744.1484,655.5703 Q744.7656,654.4219 745.8594,653.8047 Q746.9531,653.1875 748.1875,653.1875 Q748.9219,653.1875 749.5703,653.3516 Q750.2188,653.5156 750.7656,653.875 Z " fill="#000000"/><text fill="#000000" font-family="sans-serif" font-size="14" lengthAdjust="spacing" textLength="118.2754" x="762" y="663.7285">Metadata Extractor</text><line style="stroke:#181818;stroke-width:0.5;" x1="734" x2="882.2754" y1="674" y2="674"/><line style="stroke:#181818;stroke-width:0.5;" x1="734" x2="882.2754" y1="682" y2="682"/></g><!--class Statistics + Graphing Tools--><g class="entity" data-entity="Statistics . Graphing Tools" data-source-line="9" data-uid="ent0033" id="entity_Statistics . Graphing Tools"><rect fill="#F1F1F1" height="48" rx="2.5" ry="2.5" style="stroke:#181818;stroke-width:0.5;" width="199.6855" x="374" y="790"/><ellipse cx="389" cy="806" fill="#ADD1B2" rx="11" ry="11" style="stroke:#181818;stroke-width:1;"/><path d="M391.7656,801.875 Q391.9219,801.6563 392.1094,801.5469 Q392.2969,801.4375 392.5156,801.4375 Q392.8906,801.4375 393.125,801.6953 Q393.3594,801.9531 393.3594,802.5625 L393.3594,804.0156 Q393.3594,804.625 393.125,804.8906 Q392.8906,805.1563 392.5156,805.1563 Q392.1719,805.1563 391.9688,804.9531 Q391.7656,804.7656 391.6563,804.25 Q391.6094,803.8906 391.4219,803.7031 Q391.0938,803.3281 390.4844,803.1094 Q389.875,802.8906 389.25,802.8906 Q388.4844,802.8906 387.8516,803.2188 Q387.2188,803.5469 386.7266,804.2969 Q386.2344,805.0469 386.2344,806.0781 L386.2344,807.1719 Q386.2344,808.4063 387.125,809.2266 Q388.0156,810.0469 389.6094,810.0469 Q390.5469,810.0469 391.2031,809.7969 Q391.5938,809.6406 392.0156,809.2031 Q392.2813,808.9375 392.4297,808.8594 Q392.5781,808.7813 392.7813,808.7813 Q393.1094,808.7813 393.3672,809.0391 Q393.625,809.2969 393.625,809.6406 Q393.625,809.9844 393.2813,810.3906 Q392.7813,810.9688 391.9844,811.2969 Q390.9063,811.75 389.6094,811.75 Q388.0938,811.75 386.8906,811.125 Q385.9063,810.625 385.2188,809.5547 Q384.5313,808.4844 384.5313,807.2031 L384.5313,806.0469 Q384.5313,804.7188 385.1484,803.5703 Q385.7656,802.4219 386.8594,801.8047 Q387.9531,801.1875 389.1875,801.1875 Q389.9219,801.1875 390.5703,801.3516 Q391.2188,801.5156 391.7656,801.875 Z " fill="#000000"/><text fill="#000000" font-family="sans-serif" font-size="14" lengthAdjust="spacing" textLength="167.6855" x="403" y="811.7285">Statistics + Graphing Tools</text><line style="stroke:#181818;stroke-width:0.5;" x1="375" x2="572.6855" y1="822" y2="822"/><line style="stroke:#181818;stroke-width:0.5;" x1="375" x2="572.6855" y1="830" y2="830"/></g><!--class Novelty Detection--><g class="entity" data-entity="Novelty Detection" data-source-line="10" data-uid="ent0035" id="entity_Novelty Detection"><rect fill="#F1F1F1" height="48" rx="2.5" ry="2.5" style="stroke:#181818;stroke-width:0.5;" width="141.7168" x="1279" y="790"/><ellipse cx="1294" cy="806" fill="#ADD1B2" rx="11" ry="11" style="stroke:#181818;stroke-width:1;"/><path d="M1296.7656,801.875 Q1296.9219,801.6563 1297.1094,801.5469 Q1297.2969,801.4375 1297.5156,801.4375 Q1297.8906,801.4375 1298.125,801.6953 Q1298.3594,801.9531 1298.3594,802.5625 L1298.3594,804.0156 Q1298.3594,804.625 1298.125,804.8906 Q1297.8906,805.1563 1297.5156,805.1563 Q1297.1719,805.1563 1296.9688,804.9531 Q1296.7656,804.7656 1296.6563,804.25 Q1296.6094,803.8906 1296.4219,803.7031 Q1296.0938,803.3281 1295.4844,803.1094 Q1294.875,802.8906 1294.25,802.8906 Q1293.4844,802.8906 1292.8516,803.2188 Q1292.2188,803.5469 1291.7266,804.2969 Q1291.2344,805.0469 1291.2344,806.0781 L1291.2344,807.1719 Q1291.2344,808.4063 1292.125,809.2266 Q1293.0156,810.0469 1294.6094,810.0469 Q1295.5469,810.0469 1296.2031,809.7969 Q1296.5938,809.6406 1297.0156,809.2031 Q1297.2813,808.9375 1297.4297,808.8594 Q1297.5781,808.7813 1297.7813,808.7813 Q1298.1094,808.7813 1298.3672,809.0391 Q1298.625,809.2969 1298.625,809.6406 Q1298.625,809.9844 1298.2813,810.3906 Q1297.7813,810.9688 1296.9844,811.2969 Q1295.9063,811.75 1294.6094,811.75 Q1293.0938,811.75 1291.8906,811.125 Q1290.9063,810.625 1290.2188,809.5547 Q1289.5313,808.4844 1289.5313,807.2031 L1289.5313,806.0469 Q1289.5313,804.7188 1290.1484,803.5703 Q1290.7656,802.4219 1291.8594,801.8047 Q1292.9531,801.1875 1294.1875,801.1875 Q1294.9219,801.1875 1295.5703,801.3516 Q1296.2188,801.5156 1296.7656,801.875 Z " fill="#000000"/><text fill="#000000" font-family="sans-serif" font-size="14" lengthAdjust="spacing" textLength="109.7168" x="1308" y="811.7285">Novelty Detection</text><line style="stroke:#181818;stroke-width:0.5;" x1="1280" x2="1419.7168" y1="822" y2="822"/><line style="stroke:#181818;stroke-width:0.5;" x1="1280" x2="1419.7168" y1="830" y2="830"/></g><!--class WYSIWYG Editor--><g class="entity" data-entity="WYSIWYG Editor" data-source-line="7" data-uid="ent0053" id="entity_WYSIWYG Editor"><rect fill="#F1F1F1" height="48" rx="2.5" ry="2.5" style="stroke:#181818;stroke-width:0.5;" width="141.6826" x="7" y="914"/><ellipse cx="22" cy="930" fill="#ADD1B2" rx="11" ry="11" style="stroke:#181818;stroke-width:1;"/><path d="M24.7656,925.875 Q24.9219,925.6563 25.1094,925.5469 Q25.2969,925.4375 25.5156,925.4375 Q25.8906,925.4375 26.125,925.6953 Q26.3594,925.9531 26.3594,926.5625 L26.3594,928.0156 Q26.3594,928.625 26.125,928.8906 Q25.8906,929.1563 25.5156,929.1563 Q25.1719,929.1563 24.9688,928.9531 Q24.7656,928.7656 24.6563,928.25 Q24.6094,927.8906 24.4219,927.7031 Q24.0938,927.3281 23.4844,927.1094 Q22.875,926.8906 22.25,926.8906 Q21.4844,926.8906 20.8516,927.2188 Q20.2188,927.5469 19.7266,928.2969 Q19.2344,929.0469 19.2344,930.0781 L19.2344,931.1719 Q19.2344,932.4063 20.125,933.2266 Q21.0156,934.0469 22.6094,934.0469 Q23.5469,934.0469 24.2031,933.7969 Q24.5938,933.6406 25.0156,933.2031 Q25.2813,932.9375 25.4297,932.8594 Q25.5781,932.7813 25.7813,932.7813 Q26.1094,932.7813 26.3672,933.0391 Q26.625,933.2969 26.625,933.6406 Q26.625,933.9844 26.2813,934.3906 Q25.7813,934.9688 24.9844,935.2969 Q23.9063,935.75 22.6094,935.75 Q21.0938,935.75 19.8906,935.125 Q18.9063,934.625 18.2188,933.5547 Q17.5313,932.4844 17.5313,931.2031 L17.5313,930.0469 Q17.5313,928.7188 18.1484,927.5703 Q18.7656,926.4219 19.8594,925.8047 Q20.9531,925.1875 22.1875,925.1875 Q22.9219,925.1875 23.5703,925.3516 Q24.2188,925.5156 24.7656,925.875 Z " fill="#000000"/><text fill="#000000" font-family="sans-serif" font-size="14" lengthAdjust="spacing" textLength="109.6826" x="36" y="935.7285">WYSIWYG Editor</text><line style="stroke:#181818;stroke-width:0.5;" x1="8" x2="147.6826" y1="946" y2="946"/><line style="stroke:#181818;stroke-width:0.5;" x1="8" x2="147.6826" y1="954" y2="954"/></g><g class="entity" data-entity="GMN58" data-source-line="34" data-uid="ent0059" id="entity_GMN58"><path d="M1406.5,916.5 L1406.5,959.2031 L1705.7051,959.2031 L1705.7051,926.5 L1695.7051,916.5 L1406.5,916.5" fill="#FFFFE0" style="stroke:#000000;stroke-width:0.5;"/><path d="M1695.7051,916.5 L1695.7051,926.5 L1705.7051,926.5 L1695.7051,916.5" fill="#FFFFE0" style="stroke:#000000;stroke-width:1;"/><text fill="#000000" font-family="sans-serif" font-size="13" lengthAdjust="spacing" textLength="278.2051" x="1412.5" y="934.9951">This component displays processed corpus data</text><text fill="#000000" font-family="sans-serif" font-size="13" lengthAdjust="spacing" textLength="265.9097" x="1412.5" y="951.3467">and allows user interaction with analysis tools.</text></g><g class="entity" data-entity="GMN61" data-source-line="39" data-uid="ent0062" id="entity_GMN61"><path d="M1740.5,916.5 L1740.5,959.2031 L2031.7007,959.2031 L2031.7007,926.5 L2021.7007,916.5 L1740.5,916.5" fill="#FFFFE0" style="stroke:#000000;stroke-width:0.5;"/><path d="M2021.7007,916.5 L2021.7007,926.5 L2031.7007,926.5 L2021.7007,916.5" fill="#FFFFE0" style="stroke:#000000;stroke-width:1;"/><text fill="#000000" font-family="sans-serif" font-size="13" lengthAdjust="spacing" textLength="270.2007" x="1746.5" y="934.9951">Performs NLP analysis on Normalised Text DB</text><text fill="#000000" font-family="sans-serif" font-size="13" lengthAdjust="spacing" textLength="261.5933" x="1746.5" y="951.3467">and generates features for Novelty Detection.</text></g><!--link Corpus Explorer UI to Training Corpus--><g class="link" data-entity-1="Corpus Explorer UI" data-entity-2="Training Corpus" data-source-line="3" data-uid="lnk29" id="link_Corpus Explorer UI_Training Corpus"><path codeLine="3" d="M697.16,913.71 C719.53,898.36 751.07,879.41 782,870 C832.71,854.57 850.18,877.09 901,862 C918.78,856.72 931.8247,850.3159 946.6847,841.2059" fill="none" id="Corpus Explorer UI-to-Training Corpus" style="stroke:#FF0000;stroke-width:1;"/><polygon fill="#FF0000" points="951.8,838.07,942.0365,839.3637,947.5373,840.6833,946.2177,846.1841,951.8,838.07" style="stroke:#FF0000;stroke-width:1;"/></g><!--link Corpus Explorer UI to TEI Repository--><g class="link" data-entity-1="Corpus Explorer UI" data-entity-2="TEI Repository" data-source-line="4" data-uid="lnk30" id="link_Corpus Explorer UI_TEI Repository"><path codeLine="4" d="M706.26,913.85 C737.33,892.17 773.8246,863.9586 797.8946,842.2486" fill="none" id="Corpus Explorer UI-to-TEI Repository" style="stroke:#FF0000;stroke-width:1;"/><polygon fill="#FF0000" points="802.35,838.23,792.9878,841.2876,798.6371,841.5788,798.3459,847.2282,802.35,838.23" style="stroke:#FF0000;stroke-width:1;"/></g><!--link TEI Repository to Corpus Explorer UI--><g class="link" data-entity-1="TEI Repository" data-entity-2="Corpus Explorer UI" data-source-line="2" data-uid="lnk50" id="link_TEI Repository_Corpus Explorer UI"><path codeLine="2" d="M781.22,838.23 C750.32,859.94 713.8506,888.1683 689.6306,909.8483" fill="none" id="TEI Repository-to-Corpus Explorer UI" style="stroke:#8B0000;stroke-width:1;"/><polygon fill="#8B0000" points="685.16,913.85,694.5337,910.8278,688.8855,910.5152,689.198,904.867,685.16,913.85" style="stroke:#8B0000;stroke-width:1;"/></g><!--link Training Corpus to MacBERTh NLP Model--><g class="link" data-entity-1="Training Corpus" data-entity-2="MacBERTh NLP Model" data-source-line="6" data-uid="lnk31" id="link_Training Corpus_MacBERTh NLP Model"><path codeLine="6" d="M1018.22,838.01 C1033.08,847.11 1051.24,856.66 1069,862 C1115.09,875.86 1131.29,854.91 1177,870 C1205.74,879.48 1229.7319,894.8042 1250.0319,910.1342" fill="none" id="Training Corpus-to-MacBERTh NLP Model" style="stroke:#FF0000;stroke-width:1;"/><polygon fill="#FF0000" points="1254.82,913.75,1250.0484,905.1342,1250.8299,910.7368,1245.2273,911.5183,1254.82,913.75" style="stroke:#FF0000;stroke-width:1;"/></g><!--link TEI Repository to MacBERTh NLP Model--><g class="link" data-entity-1="TEI Repository" data-entity-2="MacBERTh NLP Model" data-source-line="7" data-uid="lnk32" id="link_TEI Repository_MacBERTh NLP Model"><path codeLine="7" d="M852.43,838.15 C866.79,847.39 884.49,857.01 902,862 C960.8,878.74 1118.53,852.14 1177,870 C1206.15,878.9 1230.3629,894.4436 1250.6329,910.0236" fill="none" id="TEI Repository-to-MacBERTh NLP Model" style="stroke:#FF0000;stroke-width:1;"/><polygon fill="#FF0000" points="1255.39,913.68,1250.6919,905.0239,1251.4257,910.633,1245.8167,911.3668,1255.39,913.68" style="stroke:#FF0000;stroke-width:1;"/></g><!--link Statistics + Graphing Tools to Corpus Explorer UI--><g class="link" data-entity-1="Statistics . Graphing Tools" data-entity-2="Corpus Explorer UI" data-source-line="9" data-uid="lnk34" id="link_Statistics . Graphing Tools_Corpus Explorer UI"><path codeLine="9" d="M502.22,838.01 C518.41,847.48 538.41,858.83 556,870 C577.5,883.65 595.7585,897.0706 615.7585,910.4106" fill="none" id="Statistics + Graphing Tools-to-Corpus Explorer UI" style="stroke:#FF0000;stroke-width:1;"/><polygon fill="#FF0000" points="620.75,913.74,615.4823,905.4183,616.5904,910.9655,611.0431,912.0737,620.75,913.74" style="stroke:#FF0000;stroke-width:1;"/></g><!--link Statistics + Graphing Tools to Corpus Explorer UI--><g class="link" data-entity-1="Statistics . Graphing Tools" data-entity-2="Corpus Explorer UI" data-source-line="8" data-uid="lnk55" id="link_Statistics . Graphing Tools_Corpus Explorer UI"><path codeLine="8" d="M534.74,838.01 C553.41,847.48 573.41,858.83 591,870 C612.5,883.65 631.1862,896.5049 646.8162,909.8449" fill="none" id="Statistics + Graphing Tools-to-Corpus Explorer UI-1" style="stroke:#8B0000;stroke-width:1;"/><polygon fill="#8B0000" points="651.38,913.74,647.1311,904.8548,647.5769,910.4941,641.9376,910.9398,651.38,913.74" style="stroke:#8B0000;stroke-width:1;"/></g><!--link Novelty Detection to MacBERTh NLP Model--><g class="link" data-entity-1="Novelty Detection" data-entity-2="MacBERTh NLP Model" data-source-line="10" data-uid="lnk36" id="link_Novelty Detection_MacBERTh NLP Model"><path codeLine="10" d="M1348.11,838.23 C1339.7,859.94 1325.4791,887.2817 1310.0491,908.9617" fill="none" id="Novelty Detection-to-MacBERTh NLP Model" style="stroke:#FF0000;stroke-width:1;"/><polygon fill="#FF0000" points="1306.57,913.85,1315.0475,908.8369,1309.4693,909.7764,1308.5298,904.1981,1306.57,913.85" style="stroke:#FF0000;stroke-width:1;"/></g><!--link MacBERTh NLP Model to Novelty Detection--><g class="link" data-entity-1="MacBERTh NLP Model" data-entity-2="Novelty Detection" data-source-line="4" data-uid="lnk51" id="link_MacBERTh NLP Model_Novelty Detection"><path codeLine="4" d="M1285.46,913.85 C1294.04,892.17 1308.2942,864.8519 1323.5242,843.1419" fill="none" id="MacBERTh NLP Model-to-Novelty Detection" style="stroke:#8B0000;stroke-width:1;"/><polygon fill="#8B0000" points="1326.97,838.23,1318.5267,843.3006,1324.0985,842.3232,1325.0759,847.895,1326.97,838.23" style="stroke:#8B0000;stroke-width:1;"/></g><!--link EEBO-TCP XML to TEI Parser--><g class="link" data-entity-1="EEBO-TCP XML" data-entity-2="TEI Parser" data-source-line="1" data-uid="lnk37" id="link_EEBO-TCP XML_TEI Parser"><path codeLine="1" d="M994.76,90.04 C958.58,158.11 855.2653,352.5215 819.0753,420.6315" fill="none" id="EEBO-TCP XML-to-TEI Parser" style="stroke:#008000;stroke-width:1;"/><polygon fill="#008000" points="816.26,425.93,824.0153,419.8592,818.6061,421.5146,816.9507,416.1054,816.26,425.93" style="stroke:#008000;stroke-width:1;"/></g><!--link MPESE to TEI Parser--><g class="link" data-entity-1="MPESE" data-entity-2="TEI Parser" data-source-line="2" data-uid="lnk38" id="link_MPESE_TEI Parser"><path codeLine="2" d="M709.09,90.04 C727.09,158.11 778.3562,352.0194 796.3662,420.1294" fill="none" id="MPESE-to-TEI Parser" style="stroke:#008000;stroke-width:1;"/><polygon fill="#008000" points="797.9,425.93,799.4663,416.2065,796.6218,421.0961,791.7322,418.2516,797.9,425.93" style="stroke:#008000;stroke-width:1;"/></g><!--link MPESE to Image Preprocessor--><g class="link" data-entity-1="MPESE" data-entity-2="Image Preprocessor" data-source-line="3" data-uid="lnk39" id="link_MPESE_Image Preprocessor"><path codeLine="3" d="M686.73,90.08 C664.44,121.71 628.0854,173.2749 605.7754,204.9449" fill="none" id="MPESE-to-Image Preprocessor" style="stroke:#008000;stroke-width:1;"/><polygon fill="#008000" points="602.32,209.85,610.7732,204.7959,605.1995,205.7624,604.233,200.1887,602.32,209.85" style="stroke:#008000;stroke-width:1;"/></g><!--link Lincoln / Bodleian Scans (TIFF/JPEG) to Image Preprocessor--><g class="link" data-entity-1="Lincoln . Bodleian Scans .TIFF.JPEG." data-entity-2="Image Preprocessor" data-source-line="1" data-uid="lnk40" id="link_Lincoln . Bodleian Scans .TIFF.JPEG._Image Preprocessor"><path codeLine="1" d="M367.32,90.08 C415.71,121.71 497.1081,174.8967 545.5481,206.5667" fill="none" id="Lincoln / Bodleian Scans (TIFF/JPEG)-to-Image Preprocessor" style="stroke:#A52A2A;stroke-width:1;"/><polygon fill="#A52A2A" points="550.57,209.85,545.226,201.5771,546.3851,207.1139,540.8482,208.273,550.57,209.85" style="stroke:#A52A2A;stroke-width:1;"/></g><!--link Image Preprocessor to OCR--><g class="link" data-entity-1="Image Preprocessor" data-entity-2="OCR" data-source-line="2" data-uid="lnk41" id="link_Image Preprocessor_OCR"><path codeLine="2" d="M587.08,258 C587.92,275.66 588.7762,293.9467 589.6162,311.6867" fill="none" id="Image Preprocessor-to-OCR" style="stroke:#A52A2A;stroke-width:1;"/><polygon fill="#A52A2A" points="589.9,317.68,593.4698,308.5009,589.6635,312.6856,585.4788,308.8793,589.9,317.68" style="stroke:#A52A2A;stroke-width:1;"/></g><!--link OCR to TEI Converter--><g class="link" data-entity-1="OCR" data-entity-2="TEI Converter" data-source-line="3" data-uid="lnk42" id="link_OCR_TEI Converter"><path codeLine="3" d="M592.95,366 C594.45,383.66 596.0011,401.9616 597.5111,419.7016" fill="none" id="OCR-to-TEI Converter" style="stroke:#A52A2A;stroke-width:1;"/><polygon fill="#A52A2A" points="598.02,425.68,601.2423,416.3732,597.5959,420.698,593.2711,417.0517,598.02,425.68" style="stroke:#A52A2A;stroke-width:1;"/></g><!--link TEI Parser to Normalisation Engine--><g class="link" data-entity-1="TEI Parser" data-entity-2="Normalisation Engine" data-source-line="4" data-uid="lnk43" id="link_TEI Parser_Normalisation Engine"><path codeLine="4" d="M804,474 C804,491.66 804,509.94 804,527.68" fill="none" id="TEI Parser-to-Normalisation Engine" style="stroke:#A52A2A;stroke-width:1;"/><polygon fill="#A52A2A" points="804,533.68,808,524.68,804,528.68,800,524.68,804,533.68" style="stroke:#A52A2A;stroke-width:1;"/></g><!--link TEI Converter to Normalisation Engine--><g class="link" data-entity-1="TEI Converter" data-entity-2="Normalisation Engine" data-source-line="5" data-uid="lnk44" id="link_TEI Converter_Normalisation Engine"><path codeLine="5" d="M644.26,474 C678.37,491.72 719.9755,513.3441 754.1455,531.0941" fill="none" id="TEI Converter-to-Normalisation Engine" style="stroke:#A52A2A;stroke-width:1;"/><polygon fill="#A52A2A" points="759.47,533.86,753.3272,526.1616,755.0329,531.5551,749.6394,533.2609,759.47,533.86" style="stroke:#A52A2A;stroke-width:1;"/></g><!--link Normalisation Engine to Normalised Text DB--><g class="link" data-entity-1="Normalisation Engine" data-entity-2="Normalised Text DB" data-source-line="1" data-uid="lnk45" id="link_Normalisation Engine_Normalised Text DB"><path codeLine="1" d="M767.53,582.33 C748.31,596.89 726.57,617.51 716,642 C699.1,681.18 686.17,707.49 716,738 C729.71,752.03 1050.36,739.9 1069,746 C1096.24,754.91 1118.0417,770.4168 1136.2317,786.0668" fill="none" id="Normalisation Engine-to-Normalised Text DB" style="stroke:#0000FF;stroke-width:1;"/><polygon fill="#0000FF" points="1140.78,789.98,1136.5663,781.078,1136.9898,786.719,1131.3488,787.1424,1140.78,789.98" style="stroke:#0000FF;stroke-width:1;"/></g><!--link Normalisation Engine to Metadata Extractor--><g class="link" data-entity-1="Normalisation Engine" data-entity-2="Metadata Extractor" data-source-line="2" data-uid="lnk46" id="link_Normalisation Engine_Metadata Extractor"><path codeLine="2" d="M804.87,582 C805.53,599.66 806.2236,617.9443 806.8936,635.6843" fill="none" id="Normalisation Engine-to-Metadata Extractor" style="stroke:#0000FF;stroke-width:1;"/><polygon fill="#0000FF" points="807.12,641.68,810.7775,632.5354,806.9313,636.6836,802.7832,632.8374,807.12,641.68" style="stroke:#0000FF;stroke-width:1;"/></g><!--link Metadata Extractor to Metadata DB--><g class="link" data-entity-1="Metadata Extractor" data-entity-2="Metadata DB" data-source-line="3" data-uid="lnk47" id="link_Metadata Extractor_Metadata DB"><path codeLine="3" d="M785.5,690.13 C758.91,717.47 719.1231,758.3787 692.5831,785.6687" fill="none" id="Metadata Extractor-to-Metadata DB" style="stroke:#0000FF;stroke-width:1;"/><polygon fill="#0000FF" points="688.4,789.97,697.5422,786.3067,691.8859,786.3856,691.8071,780.7292,688.4,789.97" style="stroke:#0000FF;stroke-width:1;"/></g><!--link Normalised Text DB to MacBERTh NLP Model--><g class="link" data-entity-1="Normalised Text DB" data-entity-2="MacBERTh NLP Model" data-source-line="5" data-uid="lnk48" id="link_Normalised Text DB_MacBERTh NLP Model"><path codeLine="5" d="M1187.47,838.23 C1208.47,859.94 1235.4686,887.8573 1256.4386,909.5373" fill="none" id="Normalised Text DB-to-MacBERTh NLP Model" style="stroke:#0000FF;stroke-width:1;"/><polygon fill="#0000FF" points="1260.61,913.85,1257.228,904.6,1257.1338,910.2561,1251.4777,910.162,1260.61,913.85" style="stroke:#0000FF;stroke-width:1;"/></g><!--link Metadata DB to Corpus Explorer UI--><g class="link" data-entity-1="Metadata DB" data-entity-2="Corpus Explorer UI" data-source-line="1" data-uid="lnk49" id="link_Metadata DB_Corpus Explorer UI"><path codeLine="1" d="M666,838.23 C666,859.94 666,886.17 666,907.85" fill="none" id="Metadata DB-to-Corpus Explorer UI" style="stroke:#8B0000;stroke-width:1;"/><polygon fill="#8B0000" points="666,913.85,670,904.85,666,908.85,662,904.85,666,913.85" style="stroke:#8B0000;stroke-width:1;"/></g><!--link Novelty Detection to Corpus Explorer UI--><g class="link" data-entity-1="Novelty Detection" data-entity-2="Corpus Explorer UI" data-source-line="5" data-uid="lnk52" id="link_Novelty Detection_Corpus Explorer UI"><path codeLine="5" d="M1315.2,838.02 C1299.1,847.36 1279.3,857.09 1260,862 C1208.52,875.09 833.19,855.82 782,870 C750.4,878.75 723.3304,894.7422 700.9704,910.4422" fill="none" id="Novelty Detection-to-Corpus Explorer UI" style="stroke:#8B0000;stroke-width:1;"/><polygon fill="#8B0000" points="696.06,913.89,705.7242,911.9919,700.152,911.0168,701.1271,905.4446,696.06,913.89" style="stroke:#8B0000;stroke-width:1;"/></g><!--link WYSIWYG Editor to Corpus Explorer UI--><g class="link" data-entity-1="WYSIWYG Editor" data-entity-2="Corpus Explorer UI" data-source-line="7" data-uid="lnk54" id="link_WYSIWYG Editor_Corpus Explorer UI"><path codeLine="7" d="M104.3188,909.7246 C124.3488,890.3146 151.57,869.83 185.5,866 C226.35,861.39 514.65,861.39 555.5,866 C590.08,869.9 618.184,890.445 638.854,909.835" fill="none" id="WYSIWYG Editor-Corpus Explorer UI" style="stroke:#8B0000;stroke-width:1;"/><polygon fill="#8B0000" points="100.01,913.9,109.2568,910.5094,103.6007,910.4205,103.6896,904.7643,100.01,913.9" style="stroke:#8B0000;stroke-width:1;"/><polygon fill="#8B0000" points="643.23,913.94,639.4027,904.8652,639.5834,910.5192,633.9294,910.6998,643.23,913.94" style="stroke:#8B0000;stroke-width:1;"/></g><!--link Normalised Text DB to Statistics + Graphing Tools--><g class="link" data-entity-1="Normalised Text DB" data-entity-2="Statistics . Graphing Tools" data-source-line="10" data-uid="lnk56" id="link_Normalised Text DB_Statistics . Graphing Tools"><path codeLine="10" d="M1141.47,789.98 C1120.15,770.61 1086.75,745.98 1051.5,742 C1027.15,739.25 634.85,739.25 610.5,742 C570.3,746.54 534.8811,767.2392 508.6111,786.3592" fill="none" id="Normalised Text DB-to-Statistics + Graphing Tools" style="stroke:#8B0000;stroke-width:1;"/><polygon fill="#8B0000" points="503.76,789.89,513.3906,787.8279,507.8026,786.9477,508.6828,781.3597,503.76,789.89" style="stroke:#8B0000;stroke-width:1;"/></g><!--link Metadata DB to Statistics + Graphing Tools--><g class="link" data-entity-1="Metadata DB" data-entity-2="Statistics . Graphing Tools" data-source-line="11" data-uid="lnk57" id="link_Metadata DB_Statistics . Graphing Tools"><path codeLine="11" d="M608.94,814 C597.33,814 591.73,814 580.12,814" fill="none" id="Metadata DB-to-Statistics + Graphing Tools" style="stroke:#8B0000;stroke-width:1;"/><polygon fill="#8B0000" points="574.12,814,583.12,818,579.12,814,583.12,810,574.12,814" style="stroke:#8B0000;stroke-width:1;"/></g><!--link Corpus Explorer UI to GMN58--><g class="link" data-entity-1="Corpus Explorer UI" data-entity-2="GMN58" data-source-line="34" data-uid="lnk60" id="link_Corpus Explorer UI_GMN58"><path d="M695.01,913.85 C720.64,894.71 759.99,870.46 799.5,866 C831.02,862.44 1338.98,862.44 1370.5,866 C1424.05,872.04 1481.22,897.46 1517.71,916.39" fill="none" id="Corpus Explorer UI-GMN58" style="stroke:#77777788;stroke-width:4;stroke-dasharray:7,7;"/></g><!--link GMN61 to MacBERTh NLP Model--><g class="link" data-entity-1="GMN61" data-entity-2="MacBERTh NLP Model" data-source-line="39" data-uid="lnk63" id="link_GMN61_MacBERTh NLP Model"><path d="M1848.83,916.33 C1813.39,897.35 1757.8,871.9 1705.5,866 C1672.49,862.28 1439.51,862.28 1406.5,866 C1398.57,866.89 1396.36,866.91 1389,870 C1362.19,881.26 1334.63,899.17 1314.33,913.79" fill="none" id="GMN61-MacBERTh NLP Model" style="stroke:#77777788;stroke-width:4;stroke-dasharray:7,7;"/></g><!--SRC=[ZPF1JkCm48RlFCKit5ijGe83ub0AKYMeAYWFC2JJnAepOtaSIdV5kw_ZDcb0ZRe-H97dcz__ZCS00ByCPxRE2KQZSIQL4oOEEeuV4mpfoDMLFODXqB2hmsdC6KVMCEt08oGpPS48wzYJ4lgi7D8ya8OBqkRtDEgyPAGQCqwpBBv2QnJ_JnePxLQDzahJTMmBUgoWQm7yJP5cJJ1R5rvgpk_5Yh-zdMB0kpkmfYZ3bgoLpJ2xs3UouV63E2S_33zBJhPLVhSr3QDlivOhF14FWxFcmblM6LuVKF7HJSBWuYgjBlOe75xD7uBVt_VcM14ycYB4GrFWwsS7qNlPzBgtB4ssvdYNS4pzijlR-xXEw-RckFX1bYNGZrgFNaZYUeM-svZK5sy0y4qco0hExyMxMk7XqqMQFBpDplkbQ6z2SgFEubPXFwoKns3ApkE0T5d8EM3ZIQ7Mg6WuaCSqZB0neOHs8268M1sbn3WeoLdFewNLpk8pPfE7bsK9ywS5f95fBIx8h-9Zq1JfPECvy_qJYHQNz1bWEZaxc2k8ew502Yl2KFlc9tPgBXzamnQc57PFvxkpVm00]--></g></svg>