<svg xmlns="http://www.w3.org/2000/svg" xmlns:xlink="http://www.w3.org/1999/xlink" contentStyleType="text/css" data-diagram-type="CLASS" height="1093px" preserveAspectRatio="none" style="width:2038px;height:1093px;background:#FFFFFF;" version="1.1" viewBox="0 0 2038 1093" width="2038px" zoomAndPan="magnify"><defs/><g><!--cluster Data / Corpus--><g class="cluster" data-entity="Data . Corpus" data-source-line="3" data-uid="ent0002" id="cluster_Data . Corpus"><path d="M654.5,754 L746.5137,754 A3.75,3.75 0 0 1 749.0137,756.5 L756.0137,777.6094 L1315.5,777.6094 A2.5,2.5 0 0 1 1318,780.1094 L1318,851.5 A2.5,2.5 0 0 1 1315.5,854 L654.5,854 A2.5,2.5 0 0 1 652,851.5 L652,756.5 A2.5,2.5 0 0 1 654.5,754" fill="#FFFFE0" style="stroke:#000000;stroke-width:1.5;"/><line style="stroke:#000000;stroke-width:1.5;" x1="652" x2="756.0137" y1="777.6094" y2="777.6094"/><text fill="#000000" font-family="sans-serif" font-size="14" font-weight="bold" lengthAdjust="spacing" textLength="91.0137" x="656" y="770.5332">Data / Corpus</text></g><!--cluster Models--><g class="cluster" data-entity="Models" data-source-line="10" data-uid="ent0007" id="cluster_Models"><path d="M784.5,878 L833.7275,878 A3.75,3.75 0 0 1 836.2275,880.5 L843.2275,901.6094 L1385.5,901.6094 A2.5,2.5 0 0 1 1388,904.1094 L1388,975.5 A2.5,2.5 0 0 1 1385.5,978 L784.5,978 A2.5,2.5 0 0 1 782,975.5 L782,880.5 A2.5,2.5 0 0 1 784.5,878" fill="#ADD8E6" style="stroke:#000000;stroke-width:1.5;"/><line style="stroke:#000000;stroke-width:1.5;" x1="782" x2="843.2275" y1="901.6094" y2="901.6094"/><text fill="#000000" font-family="sans-serif" font-size="14" font-weight="bold" lengthAdjust="spacing" textLength="48.2275" x="786" y="894.5332">Models</text></g><!--cluster UI / Tools--><g class="cluster" data-entity="UI . Tools" data-source-line="16" data-uid="ent0011" id="cluster_UI . Tools"><path d="M170.5,878 L234.5,878 A3.75,3.75 0 0 1 237,880.5 L244,901.6094 L755.5,901.6094 A2.5,2.5 0 0 1 758,904.1094 L758,1083.5 A2.5,2.5 0 0 1 755.5,1086 L170.5,1086 A2.5,2.5 0 0 1 168,1083.5 L168,880.5 A2.5,2.5 0 0 1 170.5,878" fill="#90EE90" style="stroke:#000000;stroke-width:1.5;"/><line style="stroke:#000000;stroke-width:1.5;" x1="168" x2="244" y1="901.6094" y2="901.6094"/><text fill="#000000" font-family="sans-serif" font-size="14" font-weight="bold" lengthAdjust="spacing" textLength="63" x="172" y="894.5332">UI / Tools</text></g><!--cluster Input Sources--><g class="cluster" data-entity="Input Sources" data-source-line="0" data-uid="ent0016" id="cluster_Input Sources"><path d="M213.5,6 L307.8447,6 A3.75,3.75 0 0 1 310.3447,8.5 L317.3447,29.6094 L1118.5,29.6094 A2.5,2.5 0 0 1 1121,32.1094 L1121,103.5 A2.5,2.5 0 0 1 1118.5,106 L213.5,106 A2.5,2.5 0 0 1 211,103.5 L211,8.5 A2.5,2.5 0 0 1 213.5,6" fill="#FFB6C1" style="stroke:#000000;stroke-width:1.5;"/><line style="stroke:#000000;stroke-width:1.5;" x1="211" x2="317.3447" y1="29.6094" y2="29.6094"/><text fill="#000000" font-family="sans-serif" font-size="14" font-weight="bold" lengthAdjust="spacing" textLength="93.3447" x="215" y="22.5332">Input Sources</text></g><!--cluster Processing_Pipeline--><g class="cluster" data-entity="Processing_Pipeline" data-source-line="0" data-uid="ent0020" id="cluster_Processing_Pipeline"><path d="M481.5,130 L619.4443,130 A3.75,3.75 0 0 1 621.9443,132.5 L628.9443,153.6094 L954.5,153.6094 A2.5,2.5 0 0 1 957,156.1094 L957,727.5 A2.5,2.5 0 0 1 954.5,730 L481.5,730 A2.5,2.5 0 0 1 479,727.5 L479,132.5 A2.5,2.5 0 0 1 481.5,130" fill="#E6E6FA" style="stroke:#000000;stroke-width:1.5;"/><line style="stroke:#000000;stroke-width:1.5;" x1="479" x2="628.9443" y1="153.6094" y2="153.6094"/><text fill="#000000" font-family="sans-serif" font-size="14" font-weight="bold" lengthAdjust="spacing" textLength="136.9443" x="483" y="146.5332">Processing_Pipeline</text></g><!--cluster Processing_Pipeline_Images--><g class="cluster" data-entity="Processing_Pipeline_Images" data-source-line="1" data-uid="ent0021" id="cluster_Processing_Pipeline_Images"><path d="M505.5,174 L699.4785,174 A3.75,3.75 0 0 1 701.9785,176.5 L708.9785,197.6094 L708.5,197.6094 A2.5,2.5 0 0 1 711,200.1094 L711,487.5 A2.5,2.5 0 0 1 708.5,490 L505.5,490 A2.5,2.5 0 0 1 503,487.5 L503,176.5 A2.5,2.5 0 0 1 505.5,174" fill="#FFF0F5" style="stroke:#000000;stroke-width:1.5;"/><line style="stroke:#000000;stroke-width:1.5;" x1="503" x2="708.9785" y1="197.6094" y2="197.6094"/><text fill="#000000" font-family="sans-serif" font-size="14" font-weight="bold" lengthAdjust="spacing" textLength="192.9785" x="507" y="190.5332">Processing_Pipeline_Images</text></g><!--cluster Processing_Pipeline_TEI--><g class="cluster" data-entity="Processing_Pipeline_TEI" data-source-line="7" data-uid="ent0025" id="cluster_Processing_Pipeline_TEI"><path d="M737.5,390 L905.0098,390 A3.75,3.75 0 0 1 907.5098,392.5 L914.5098,413.6094 L930.5,413.6094 A2.5,2.5 0 0 1 933,416.1094 L933,703.5 A2.5,2.5 0 0 1 930.5,706 L737.5,706 A2.5,2.5 0 0 1 735,703.5 L735,392.5 A2.5,2.5 0 0 1 737.5,390" fill="#FFF0F5" style="stroke:#000000;stroke-width:1.5;"/><line style="stroke:#000000;stroke-width:1.5;" x1="735" x2="914.5098" y1="413.6094" y2="413.6094"/><text fill="#000000" font-family="sans-serif" font-size="14" font-weight="bold" lengthAdjust="spacing" textLength="166.5098" x="739" y="406.5332">Processing_Pipeline_TEI</text></g><!--class Training Corpus--><g class="entity" data-entity="Training Corpus" data-source-line="4" data-uid="ent0003" id="entity_Training Corpus"><rect fill="#F1F1F1" height="48" rx="2.5" ry="2.5" style="stroke:#181818;stroke-width:0.5;" width="131.5996" x="817" y="790"/><ellipse cx="832" cy="806" fill="#ADD1B2" rx="11" ry="11" style="stroke:#181818;stroke-width:1;"/><path d="M834.7656,801.875 Q834.9219,801.6563 835.1094,801.5469 Q835.2969,801.4375 835.5156,801.4375 Q835.8906,801.4375 836.125,801.6953 Q836.3594,801.9531 836.3594,802.5625 L836.3594,804.0156 Q836.3594,804.625 836.125,804.8906 Q835.8906,805.1563 835.5156,805.1563 Q835.1719,805.1563 834.9688,804.9531 Q834.7656,804.7656 834.6563,804.25 Q834.6094,803.8906 834.4219,803.7031 Q834.0938,803.3281 833.4844,803.1094 Q832.875,802.8906 832.25,802.8906 Q831.4844,802.8906 830.8516,803.2188 Q830.2188,803.5469 829.7266,804.2969 Q829.2344,805.0469 829.2344,806.0781 L829.2344,807.1719 Q829.2344,808.4063 830.125,809.2266 Q831.0156,810.0469 832.6094,810.0469 Q833.5469,810.0469 834.2031,809.7969 Q834.5938,809.6406 835.0156,809.2031 Q835.2813,808.9375 835.4297,808.8594 Q835.5781,808.7813 835.7813,808.7813 Q836.1094,808.7813 836.3672,809.0391 Q836.625,809.2969 836.625,809.6406 Q836.625,809.9844 836.2813,810.3906 Q835.7813,810.9688 834.9844,811.2969 Q833.9063,811.75 832.6094,811.75 Q831.0938,811.75 829.8906,811.125 Q828.9063,810.625 828.2188,809.5547 Q827.5313,808.4844 827.5313,807.2031 L827.5313,806.0469 Q827.5313,804.7188 828.1484,803.5703 Q828.7656,802.4219 829.8594,801.8047 Q830.9531,801.1875 832.1875,801.1875 Q832.9219,801.1875 833.5703,801.3516 Q834.2188,801.5156 834.7656,801.875 Z " fill="#000000"/><text fill="#000000" font-family="sans-serif" font-size="14" lengthAdjust="spacing" textLength="99.5996" x="846" y="811.7285">Training Corpus</text><line style="stroke:#181818;stroke-width:0.5;" x1="818" x2="947.5996" y1="822" y2="822"/><line style="stroke:#181818;stroke-width:0.5;" x1="818" x2="947.5996" y1="830" y2="830"/></g><!--class TEI Repository--><g class="entity" data-entity="TEI Repository" data-source-line="5" data-uid="ent0004" id="entity_TEI Repository"><rect fill="#F1F1F1" height="48" rx="2.5" ry="2.5" style="stroke:#181818;stroke-width:0.5;" width="124.5859" x="984.5" y="790"/><ellipse cx="999.5" cy="806" fill="#ADD1B2" rx="11" ry="11" style="stroke:#181818;stroke-width:1;"/><path d="M1002.2656,801.875 Q1002.4219,801.6563 1002.6094,801.5469 Q1002.7969,801.4375 1003.0156,801.4375 Q1003.3906,801.4375 1003.625,801.6953 Q1003.8594,801.9531 1003.8594,802.5625 L1003.8594,804.0156 Q1003.8594,804.625 1003.625,804.8906 Q1003.3906,805.1563 1003.0156,805.1563 Q1002.6719,805.1563 1002.4688,804.9531 Q1002.2656,804.7656 1002.1563,804.25 Q1002.1094,803.8906 1001.9219,803.7031 Q1001.5938,803.3281 1000.9844,803.1094 Q1000.375,802.8906 999.75,802.8906 Q998.9844,802.8906 998.3516,803.2188 Q997.7188,803.5469 997.2266,804.2969 Q996.7344,805.0469 996.7344,806.0781 L996.7344,807.1719 Q996.7344,808.4063 997.625,809.2266 Q998.5156,810.0469 1000.1094,810.0469 Q1001.0469,810.0469 1001.7031,809.7969 Q1002.0938,809.6406 1002.5156,809.2031 Q1002.7813,808.9375 1002.9297,808.8594 Q1003.0781,808.7813 1003.2813,808.7813 Q1003.6094,808.7813 1003.8672,809.0391 Q1004.125,809.2969 1004.125,809.6406 Q1004.125,809.9844 1003.7813,810.3906 Q1003.2813,810.9688 1002.4844,811.2969 Q1001.4063,811.75 1000.1094,811.75 Q998.5938,811.75 997.3906,811.125 Q996.4063,810.625 995.7188,809.5547 Q995.0313,808.4844 995.0313,807.2031 L995.0313,806.0469 Q995.0313,804.7188 995.6484,803.5703 Q996.2656,802.4219 997.3594,801.8047 Q998.4531,801.1875 999.6875,801.1875 Q1000.4219,801.1875 1001.0703,801.3516 Q1001.7188,801.5156 1002.2656,801.875 Z " fill="#000000"/><text fill="#000000" font-family="sans-serif" font-size="14" lengthAdjust="spacing" textLength="92.5859" x="1013.5" y="811.7285">TEI Repository</text><line style="stroke:#181818;stroke-width:0.5;" x1="985.5" x2="1108.0859" y1="822" y2="822"/><line style="stroke:#181818;stroke-width:0.5;" x1="985.5" x2="1108.0859" y1="830" y2="830"/></g><!--class Normalised Text DB--><g class="entity" data-entity="Normalised Text DB" data-source-line="6" data-uid="ent0005" id="entity_Normalised Text DB"><rect fill="#F1F1F1" height="48" rx="2.5" ry="2.5" style="stroke:#181818;stroke-width:0.5;" width="157.2549" x="1144.5" y="790"/><ellipse cx="1159.5" cy="806" fill="#ADD1B2" rx="11" ry="11" style="stroke:#181818;stroke-width:1;"/><path d="M1162.2656,801.875 Q1162.4219,801.6563 1162.6094,801.5469 Q1162.7969,801.4375 1163.0156,801.4375 Q1163.3906,801.4375 1163.625,801.6953 Q1163.8594,801.9531 1163.8594,802.5625 L1163.8594,804.0156 Q1163.8594,804.625 1163.625,804.8906 Q1163.3906,805.1563 1163.0156,805.1563 Q1162.6719,805.1563 1162.4688,804.9531 Q1162.2656,804.7656 1162.1563,804.25 Q1162.1094,803.8906 1161.9219,803.7031 Q1161.5938,803.3281 1160.9844,803.1094 Q1160.375,802.8906 1159.75,802.8906 Q1158.9844,802.8906 1158.3516,803.2188 Q1157.7188,803.5469 1157.2266,804.2969 Q1156.7344,805.0469 1156.7344,806.0781 L1156.7344,807.1719 Q1156.7344,808.4063 1157.625,809.2266 Q1158.5156,810.0469 1160.1094,810.0469 Q1161.0469,810.0469 1161.7031,809.7969 Q1162.0938,809.6406 1162.5156,809.2031 Q1162.7813,808.9375 1162.9297,808.8594 Q1163.0781,808.7813 1163.2813,808.7813 Q1163.6094,808.7813 1163.8672,809.0391 Q1164.125,809.2969 1164.125,809.6406 Q1164.125,809.9844 1163.7813,810.3906 Q1163.2813,810.9688 1162.4844,811.2969 Q1161.4063,811.75 1160.1094,811.75 Q1158.5938,811.75 1157.3906,811.125 Q1156.4063,810.625 1155.7188,809.5547 Q1155.0313,808.4844 1155.0313,807.2031 L1155.0313,806.0469 Q1155.0313,804.7188 1155.6484,803.5703 Q1156.2656,802.4219 1157.3594,801.8047 Q1158.4531,801.1875 1159.6875,801.1875 Q1160.4219,801.1875 1161.0703,801.3516 Q1161.7188,801.5156 1162.2656,801.875 Z " fill="#000000"/><text fill="#000000" font-family="sans-serif" font-size="14" lengthAdjust="spacing" textLength="125.2549" x="1173.5" y="811.7285">Normalised Text DB</text><line style="stroke:#181818;stroke-width:0.5;" x1="1145.5" x2="1300.7549" y1="822" y2="822"/><line style="stroke:#181818;stroke-width:0.5;" x1="1145.5" x2="1300.7549" y1="830" y2="830"/></g><!--class Metadata DB--><g class="entity" data-entity="Metadata DB" data-source-line="7" data-uid="ent0006" id="entity_Metadata DB"><rect fill="#F1F1F1" height="48" rx="2.5" ry="2.5" style="stroke:#181818;stroke-width:0.5;" width="113.71" x="668" y="790"/><ellipse cx="683" cy="806" fill="#ADD1B2" rx="11" ry="11" style="stroke:#181818;stroke-width:1;"/><path d="M685.7656,801.875 Q685.9219,801.6563 686.1094,801.5469 Q686.2969,801.4375 686.5156,801.4375 Q686.8906,801.4375 687.125,801.6953 Q687.3594,801.9531 687.3594,802.5625 L687.3594,804.0156 Q687.3594,804.625 687.125,804.8906 Q686.8906,805.1563 686.5156,805.1563 Q686.1719,805.1563 685.9688,804.9531 Q685.7656,804.7656 685.6563,804.25 Q685.6094,803.8906 685.4219,803.7031 Q685.0938,803.3281 684.4844,803.1094 Q683.875,802.8906 683.25,802.8906 Q682.4844,802.8906 681.8516,803.2188 Q681.2188,803.5469 680.7266,804.2969 Q680.2344,805.0469 680.2344,806.0781 L680.2344,807.1719 Q680.2344,808.4063 681.125,809.2266 Q682.0156,810.0469 683.6094,810.0469 Q684.5469,810.0469 685.2031,809.7969 Q685.5938,809.6406 686.0156,809.2031 Q686.2813,808.9375 686.4297,808.8594 Q686.5781,808.7813 686.7813,808.7813 Q687.1094,808.7813 687.3672,809.0391 Q687.625,809.2969 687.625,809.6406 Q687.625,809.9844 687.2813,810.3906 Q686.7813,810.9688 685.9844,811.2969 Q684.9063,811.75 683.6094,811.75 Q682.0938,811.75 680.8906,811.125 Q679.9063,810.625 679.2188,809.5547 Q678.5313,808.4844 678.5313,807.2031 L678.5313,806.0469 Q678.5313,804.7188 679.1484,803.5703 Q679.7656,802.4219 680.8594,801.8047 Q681.9531,801.1875 683.1875,801.1875 Q683.9219,801.1875 684.5703,801.3516 Q685.2188,801.5156 685.7656,801.875 Z " fill="#000000"/><text fill="#000000" font-family="sans-serif" font-size="14" lengthAdjust="spacing" textLength="81.71" x="697" y="811.7285">Metadata DB</text><line style="stroke:#181818;stroke-width:0.5;" x1="669" x2="780.71" y1="822" y2="822"/><line style="stroke:#181818;stroke-width:0.5;" x1="669" x2="780.71" y1="830" y2="830"/></g><!--class MacBERTh NLP Model--><g class="entity" data-entity="MacBERTh NLP Model" data-source-line="11" data-uid="ent0008" id="entity_MacBERTh NLP Model"><rect fill="#F1F1F1" height="48" rx="2.5" ry="2.5" style="stroke:#181818;stroke-width:0.5;" width="176.7168" x="1194.5" y="914"/><ellipse cx="1209.5" cy="930" fill="#ADD1B2" rx="11" ry="11" style="stroke:#181818;stroke-width:1;"/><path d="M1212.2656,925.875 Q1212.4219,925.6563 1212.6094,925.5469 Q1212.7969,925.4375 1213.0156,925.4375 Q1213.3906,925.4375 1213.625,925.6953 Q1213.8594,925.9531 1213.8594,926.5625 L1213.8594,928.0156 Q1213.8594,928.625 1213.625,928.8906 Q1213.3906,929.1563 1213.0156,929.1563 Q1212.6719,929.1563 1212.4688,928.9531 Q1212.2656,928.7656 1212.1563,928.25 Q1212.1094,927.8906 1211.9219,927.7031 Q1211.5938,927.3281 1210.9844,927.1094 Q1210.375,926.8906 1209.75,926.8906 Q1208.9844,926.8906 1208.3516,927.2188 Q1207.7188,927.5469 1207.2266,928.2969 Q1206.7344,929.0469 1206.7344,930.0781 L1206.7344,931.1719 Q1206.7344,932.4063 1207.625,933.2266 Q1208.5156,934.0469 1210.1094,934.0469 Q1211.0469,934.0469 1211.7031,933.7969 Q1212.0938,933.6406 1212.5156,933.2031 Q1212.7813,932.9375 1212.9297,932.8594 Q1213.0781,932.7813 1213.2813,932.7813 Q1213.6094,932.7813 1213.8672,933.0391 Q1214.125,933.2969 1214.125,933.6406 Q1214.125,933.9844 1213.7813,934.3906 Q1213.2813,934.9688 1212.4844,935.2969 Q1211.4063,935.75 1210.1094,935.75 Q1208.5938,935.75 1207.3906,935.125 Q1206.4063,934.625 1205.7188,933.5547 Q1205.0313,932.4844 1205.0313,931.2031 L1205.0313,930.0469 Q1205.0313,928.7188 1205.6484,927.5703 Q1206.2656,926.4219 1207.3594,925.8047 Q1208.4531,925.1875 1209.6875,925.1875 Q1210.4219,925.1875 1211.0703,925.3516 Q1211.7188,925.5156 1212.2656,925.875 Z " fill="#000000"/><text fill="#000000" font-family="sans-serif" font-size="14" lengthAdjust="spacing" textLength="144.7168" x="1223.5" y="935.7285">MacBERTh NLP Model</text><line style="stroke:#181818;stroke-width:0.5;" x1="1195.5" x2="1370.2168" y1="946" y2="946"/><line style="stroke:#181818;stroke-width:0.5;" x1="1195.5" x2="1370.2168" y1="954" y2="954"/></g><!--class fastText Global Index--><g class="entity" data-entity="fastText Global Index" data-source-line="12" data-uid="ent0009" id="entity_fastText Global Index"><rect fill="#F1F1F1" height="48" rx="2.5" ry="2.5" style="stroke:#181818;stroke-width:0.5;" width="164.2891" x="995" y="914"/><ellipse cx="1010" cy="930" fill="#ADD1B2" rx="11" ry="11" style="stroke:#181818;stroke-width:1;"/><path d="M1012.7656,925.875 Q1012.9219,925.6563 1013.1094,925.5469 Q1013.2969,925.4375 1013.5156,925.4375 Q1013.8906,925.4375 1014.125,925.6953 Q1014.3594,925.9531 1014.3594,926.5625 L1014.3594,928.0156 Q1014.3594,928.625 1014.125,928.8906 Q1013.8906,929.1563 1013.5156,929.1563 Q1013.1719,929.1563 1012.9688,928.9531 Q1012.7656,928.7656 1012.6563,928.25 Q1012.6094,927.8906 1012.4219,927.7031 Q1012.0938,927.3281 1011.4844,927.1094 Q1010.875,926.8906 1010.25,926.8906 Q1009.4844,926.8906 1008.8516,927.2188 Q1008.2188,927.5469 1007.7266,928.2969 Q1007.2344,929.0469 1007.2344,930.0781 L1007.2344,931.1719 Q1007.2344,932.4063 1008.125,933.2266 Q1009.0156,934.0469 1010.6094,934.0469 Q1011.5469,934.0469 1012.2031,933.7969 Q1012.5938,933.6406 1013.0156,933.2031 Q1013.2813,932.9375 1013.4297,932.8594 Q1013.5781,932.7813 1013.7813,932.7813 Q1014.1094,932.7813 1014.3672,933.0391 Q1014.625,933.2969 1014.625,933.6406 Q1014.625,933.9844 1014.2813,934.3906 Q1013.7813,934.9688 1012.9844,935.2969 Q1011.9063,935.75 1010.6094,935.75 Q1009.0938,935.75 1007.8906,935.125 Q1006.9063,934.625 1006.2188,933.5547 Q1005.5313,932.4844 1005.5313,931.2031 L1005.5313,930.0469 Q1005.5313,928.7188 1006.1484,927.5703 Q1006.7656,926.4219 1007.8594,925.8047 Q1008.9531,925.1875 1010.1875,925.1875 Q1010.9219,925.1875 1011.5703,925.3516 Q1012.2188,925.5156 1012.7656,925.875 Z " fill="#000000"/><text fill="#000000" font-family="sans-serif" font-size="14" lengthAdjust="spacing" textLength="132.2891" x="1024" y="935.7285">fastText Global Index</text><line style="stroke:#181818;stroke-width:0.5;" x1="996" x2="1158.2891" y1="946" y2="946"/><line style="stroke:#181818;stroke-width:0.5;" x1="996" x2="1158.2891" y1="954" y2="954"/></g><!--class fastText Slices Index--><g class="entity" data-entity="fastText Slices Index" data-source-line="13" data-uid="ent0010" id="entity_fastText Slices Index"><rect fill="#F1F1F1" height="48" rx="2.5" ry="2.5" style="stroke:#181818;stroke-width:0.5;" width="161.165" x="798.5" y="914"/><ellipse cx="813.5" cy="930" fill="#ADD1B2" rx="11" ry="11" style="stroke:#181818;stroke-width:1;"/><path d="M816.2656,925.875 Q816.4219,925.6563 816.6094,925.5469 Q816.7969,925.4375 817.0156,925.4375 Q817.3906,925.4375 817.625,925.6953 Q817.8594,925.9531 817.8594,926.5625 L817.8594,928.0156 Q817.8594,928.625 817.625,928.8906 Q817.3906,929.1563 817.0156,929.1563 Q816.6719,929.1563 816.4688,928.9531 Q816.2656,928.7656 816.1563,928.25 Q816.1094,927.8906 815.9219,927.7031 Q815.5938,927.3281 814.9844,927.1094 Q814.375,926.8906 813.75,926.8906 Q812.9844,926.8906 812.3516,927.2188 Q811.7188,927.5469 811.2266,928.2969 Q810.7344,929.0469 810.7344,930.0781 L810.7344,931.1719 Q810.7344,932.4063 811.625,933.2266 Q812.5156,934.0469 814.1094,934.0469 Q815.0469,934.0469 815.7031,933.7969 Q816.0938,933.6406 816.5156,933.2031 Q816.7813,932.9375 816.9297,932.8594 Q817.0781,932.7813 817.2813,932.7813 Q817.6094,932.7813 817.8672,933.0391 Q818.125,933.2969 818.125,933.6406 Q818.125,933.9844 817.7813,934.3906 Q817.2813,934.9688 816.4844,935.2969 Q815.4063,935.75 814.1094,935.75 Q812.5938,935.75 811.3906,935.125 Q810.4063,934.625 809.7188,933.5547 Q809.0313,932.4844 809.0313,931.2031 L809.0313,930.0469 Q809.0313,928.7188 809.6484,927.5703 Q810.2656,926.4219 811.3594,925.8047 Q812.4531,925.1875 813.6875,925.1875 Q814.4219,925.1875 815.0703,925.3516 Q815.7188,925.5156 816.2656,925.875 Z " fill="#000000"/><text fill="#000000" font-family="sans-serif" font-size="14" lengthAdjust="spacing" textLength="129.165" x="827.5" y="935.7285">fastText Slices Index</text><line style="stroke:#181818;stroke-width:0.5;" x1="799.5" x2="958.665" y1="946" y2="946"/><line style="stroke:#181818;stroke-width:0.5;" x1="799.5" x2="958.665" y1="954" y2="954"/></g><!--class Corpus Explorer UI--><g class="entity" data-entity="Corpus Explorer UI" data-source-line="17" data-uid="ent0012" id="entity_Corpus Explorer UI"><rect fill="#F1F1F1" height="48" rx="2.5" ry="2.5" style="stroke:#181818;stroke-width:0.5;" width="151.041" x="590.5" y="914"/><ellipse cx="605.5" cy="930" fill="#ADD1B2" rx="11" ry="11" style="stroke:#181818;stroke-width:1;"/><path d="M608.2656,925.875 Q608.4219,925.6563 608.6094,925.5469 Q608.7969,925.4375 609.0156,925.4375 Q609.3906,925.4375 609.625,925.6953 Q609.8594,925.9531 609.8594,926.5625 L609.8594,928.0156 Q609.8594,928.625 609.625,928.8906 Q609.3906,929.1563 609.0156,929.1563 Q608.6719,929.1563 608.4688,928.9531 Q608.2656,928.7656 608.1563,928.25 Q608.1094,927.8906 607.9219,927.7031 Q607.5938,927.3281 606.9844,927.1094 Q606.375,926.8906 605.75,926.8906 Q604.9844,926.8906 604.3516,927.2188 Q603.7188,927.5469 603.2266,928.2969 Q602.7344,929.0469 602.7344,930.0781 L602.7344,931.1719 Q602.7344,932.4063 603.625,933.2266 Q604.5156,934.0469 606.1094,934.0469 Q607.0469,934.0469 607.7031,933.7969 Q608.0938,933.6406 608.5156,933.2031 Q608.7813,932.9375 608.9297,932.8594 Q609.0781,932.7813 609.2813,932.7813 Q609.6094,932.7813 609.8672,933.0391 Q610.125,933.2969 610.125,933.6406 Q610.125,933.9844 609.7813,934.3906 Q609.2813,934.9688 608.4844,935.2969 Q607.4063,935.75 606.1094,935.75 Q604.5938,935.75 603.3906,935.125 Q602.4063,934.625 601.7188,933.5547 Q601.0313,932.4844 601.0313,931.2031 L601.0313,930.0469 Q601.0313,928.7188 601.6484,927.5703 Q602.2656,926.4219 603.3594,925.8047 Q604.4531,925.1875 605.6875,925.1875 Q606.4219,925.1875 607.0703,925.3516 Q607.7188,925.5156 608.2656,925.875 Z " fill="#000000"/><text fill="#000000" font-family="sans-serif" font-size="14" lengthAdjust="spacing" textLength="119.041" x="619.5" y="935.7285">Corpus Explorer UI</text><line style="stroke:#181818;stroke-width:0.5;" x1="591.5" x2="740.541" y1="946" y2="946"/><line style="stroke:#181818;stroke-width:0.5;" x1="591.5" x2="740.541" y1="954" y2="954"/></g><!--class WYSIWYG Editor?--><g class="entity" data-entity="WYSIWYG Editor." data-source-line="18" data-uid="ent0013" id="entity_WYSIWYG Editor."><rect fill="#F1F1F1" height="48" rx="2.5" ry="2.5" style="stroke:#181818;stroke-width:0.5;" width="149.4688" x="184.5" y="914"/><ellipse cx="199.5" cy="930" fill="#ADD1B2" rx="11" ry="11" style="stroke:#181818;stroke-width:1;"/><path d="M202.2656,925.875 Q202.4219,925.6563 202.6094,925.5469 Q202.7969,925.4375 203.0156,925.4375 Q203.3906,925.4375 203.625,925.6953 Q203.8594,925.9531 203.8594,926.5625 L203.8594,928.0156 Q203.8594,928.625 203.625,928.8906 Q203.3906,929.1563 203.0156,929.1563 Q202.6719,929.1563 202.4688,928.9531 Q202.2656,928.7656 202.1563,928.25 Q202.1094,927.8906 201.9219,927.7031 Q201.5938,927.3281 200.9844,927.1094 Q200.375,926.8906 199.75,926.8906 Q198.9844,926.8906 198.3516,927.2188 Q197.7188,927.5469 197.2266,928.2969 Q196.7344,929.0469 196.7344,930.0781 L196.7344,931.1719 Q196.7344,932.4063 197.625,933.2266 Q198.5156,934.0469 200.1094,934.0469 Q201.0469,934.0469 201.7031,933.7969 Q202.0938,933.6406 202.5156,933.2031 Q202.7813,932.9375 202.9297,932.8594 Q203.0781,932.7813 203.2813,932.7813 Q203.6094,932.7813 203.8672,933.0391 Q204.125,933.2969 204.125,933.6406 Q204.125,933.9844 203.7813,934.3906 Q203.2813,934.9688 202.4844,935.2969 Q201.4063,935.75 200.1094,935.75 Q198.5938,935.75 197.3906,935.125 Q196.4063,934.625 195.7188,933.5547 Q195.0313,932.4844 195.0313,931.2031 L195.0313,930.0469 Q195.0313,928.7188 195.6484,927.5703 Q196.2656,926.4219 197.3594,925.8047 Q198.4531,925.1875 199.6875,925.1875 Q200.4219,925.1875 201.0703,925.3516 Q201.7188,925.5156 202.2656,925.875 Z " fill="#000000"/><text fill="#000000" font-family="sans-serif" font-size="14" lengthAdjust="spacing" textLength="117.4688" x="213.5" y="935.7285">WYSIWYG Editor?</text><line style="stroke:#181818;stroke-width:0.5;" x1="185.5" x2="332.9688" y1="946" y2="946"/><line style="stroke:#181818;stroke-width:0.5;" x1="185.5" x2="332.9688" y1="954" y2="954"/></g><!--class Novelty Detection (IVNF)--><g class="entity" data-entity="Novelty Detection .IVNF." data-source-line="19" data-uid="ent0014" id="entity_Novelty Detection .IVNF."><rect fill="#F1F1F1" height="48" rx="2.5" ry="2.5" style="stroke:#181818;stroke-width:0.5;" width="186.8203" x="368.5" y="914"/><ellipse cx="383.5" cy="930" fill="#ADD1B2" rx="11" ry="11" style="stroke:#181818;stroke-width:1;"/><path d="M386.2656,925.875 Q386.4219,925.6563 386.6094,925.5469 Q386.7969,925.4375 387.0156,925.4375 Q387.3906,925.4375 387.625,925.6953 Q387.8594,925.9531 387.8594,926.5625 L387.8594,928.0156 Q387.8594,928.625 387.625,928.8906 Q387.3906,929.1563 387.0156,929.1563 Q386.6719,929.1563 386.4688,928.9531 Q386.2656,928.7656 386.1563,928.25 Q386.1094,927.8906 385.9219,927.7031 Q385.5938,927.3281 384.9844,927.1094 Q384.375,926.8906 383.75,926.8906 Q382.9844,926.8906 382.3516,927.2188 Q381.7188,927.5469 381.2266,928.2969 Q380.7344,929.0469 380.7344,930.0781 L380.7344,931.1719 Q380.7344,932.4063 381.625,933.2266 Q382.5156,934.0469 384.1094,934.0469 Q385.0469,934.0469 385.7031,933.7969 Q386.0938,933.6406 386.5156,933.2031 Q386.7813,932.9375 386.9297,932.8594 Q387.0781,932.7813 387.2813,932.7813 Q387.6094,932.7813 387.8672,933.0391 Q388.125,933.2969 388.125,933.6406 Q388.125,933.9844 387.7813,934.3906 Q387.2813,934.9688 386.4844,935.2969 Q385.4063,935.75 384.1094,935.75 Q382.5938,935.75 381.3906,935.125 Q380.4063,934.625 379.7188,933.5547 Q379.0313,932.4844 379.0313,931.2031 L379.0313,930.0469 Q379.0313,928.7188 379.6484,927.5703 Q380.2656,926.4219 381.3594,925.8047 Q382.4531,925.1875 383.6875,925.1875 Q384.4219,925.1875 385.0703,925.3516 Q385.7188,925.5156 386.2656,925.875 Z " fill="#000000"/><text fill="#000000" font-family="sans-serif" font-size="14" lengthAdjust="spacing" textLength="154.8203" x="397.5" y="935.7285">Novelty Detection (IVNF)</text><line style="stroke:#181818;stroke-width:0.5;" x1="369.5" x2="554.3203" y1="946" y2="946"/><line style="stroke:#181818;stroke-width:0.5;" x1="369.5" x2="554.3203" y1="954" y2="954"/></g><!--class Diachornic Statistics and Graphing Tools--><g class="entity" data-entity="Diachornic Statistics and Graphing Tools" data-source-line="20" data-uid="ent0015" id="entity_Diachornic Statistics and Graphing Tools"><rect fill="#F1F1F1" height="48" rx="2.5" ry="2.5" style="stroke:#181818;stroke-width:0.5;" width="284.8955" x="184.5" y="1022"/><ellipse cx="199.5" cy="1038" fill="#ADD1B2" rx="11" ry="11" style="stroke:#181818;stroke-width:1;"/><path d="M202.2656,1033.875 Q202.4219,1033.6563 202.6094,1033.5469 Q202.7969,1033.4375 203.0156,1033.4375 Q203.3906,1033.4375 203.625,1033.6953 Q203.8594,1033.9531 203.8594,1034.5625 L203.8594,1036.0156 Q203.8594,1036.625 203.625,1036.8906 Q203.3906,1037.1563 203.0156,1037.1563 Q202.6719,1037.1563 202.4688,1036.9531 Q202.2656,1036.7656 202.1563,1036.25 Q202.1094,1035.8906 201.9219,1035.7031 Q201.5938,1035.3281 200.9844,1035.1094 Q200.375,1034.8906 199.75,1034.8906 Q198.9844,1034.8906 198.3516,1035.2188 Q197.7188,1035.5469 197.2266,1036.2969 Q196.7344,1037.0469 196.7344,1038.0781 L196.7344,1039.1719 Q196.7344,1040.4063 197.625,1041.2266 Q198.5156,1042.0469 200.1094,1042.0469 Q201.0469,1042.0469 201.7031,1041.7969 Q202.0938,1041.6406 202.5156,1041.2031 Q202.7813,1040.9375 202.9297,1040.8594 Q203.0781,1040.7813 203.2813,1040.7813 Q203.6094,1040.7813 203.8672,1041.0391 Q204.125,1041.2969 204.125,1041.6406 Q204.125,1041.9844 203.7813,1042.3906 Q203.2813,1042.9688 202.4844,1043.2969 Q201.4063,1043.75 200.1094,1043.75 Q198.5938,1043.75 197.3906,1043.125 Q196.4063,1042.625 195.7188,1041.5547 Q195.0313,1040.4844 195.0313,1039.2031 L195.0313,1038.0469 Q195.0313,1036.7188 195.6484,1035.5703 Q196.2656,1034.4219 197.3594,1033.8047 Q198.4531,1033.1875 199.6875,1033.1875 Q200.4219,1033.1875 201.0703,1033.3516 Q201.7188,1033.5156 202.2656,1033.875 Z " fill="#000000"/><text fill="#000000" font-family="sans-serif" font-size="14" lengthAdjust="spacing" textLength="252.8955" x="213.5" y="1043.7285">Diachornic Statistics and Graphing Tools</text><line style="stroke:#181818;stroke-width:0.5;" x1="185.5" x2="468.3955" y1="1054" y2="1054"/><line style="stroke:#181818;stroke-width:0.5;" x1="185.5" x2="468.3955" y1="1062" y2="1062"/></g><!--class EEBO-TCP XML--><g class="entity" data-entity="EEBO-TCP XML" data-source-line="1" data-uid="ent0017" id="entity_EEBO-TCP XML"><rect fill="#F1F1F1" height="48" rx="2.5" ry="2.5" style="stroke:#181818;stroke-width:0.5;" width="136.2412" x="969" y="42"/><ellipse cx="984" cy="58" fill="#ADD1B2" rx="11" ry="11" style="stroke:#181818;stroke-width:1;"/><path d="M986.7656,53.875 Q986.9219,53.6563 987.1094,53.5469 Q987.2969,53.4375 987.5156,53.4375 Q987.8906,53.4375 988.125,53.6953 Q988.3594,53.9531 988.3594,54.5625 L988.3594,56.0156 Q988.3594,56.625 988.125,56.8906 Q987.8906,57.1563 987.5156,57.1563 Q987.1719,57.1563 986.9688,56.9531 Q986.7656,56.7656 986.6563,56.25 Q986.6094,55.8906 986.4219,55.7031 Q986.0938,55.3281 985.4844,55.1094 Q984.875,54.8906 984.25,54.8906 Q983.4844,54.8906 982.8516,55.2188 Q982.2188,55.5469 981.7266,56.2969 Q981.2344,57.0469 981.2344,58.0781 L981.2344,59.1719 Q981.2344,60.4063 982.125,61.2266 Q983.0156,62.0469 984.6094,62.0469 Q985.5469,62.0469 986.2031,61.7969 Q986.5938,61.6406 987.0156,61.2031 Q987.2813,60.9375 987.4297,60.8594 Q987.5781,60.7813 987.7813,60.7813 Q988.1094,60.7813 988.3672,61.0391 Q988.625,61.2969 988.625,61.6406 Q988.625,61.9844 988.2813,62.3906 Q987.7813,62.9688 986.9844,63.2969 Q985.9063,63.75 984.6094,63.75 Q983.0938,63.75 981.8906,63.125 Q980.9063,62.625 980.2188,61.5547 Q979.5313,60.4844 979.5313,59.2031 L979.5313,58.0469 Q979.5313,56.7188 980.1484,55.5703 Q980.7656,54.4219 981.8594,53.8047 Q982.9531,53.1875 984.1875,53.1875 Q984.9219,53.1875 985.5703,53.3516 Q986.2188,53.5156 986.7656,53.875 Z " fill="#000000"/><text fill="#000000" font-family="sans-serif" font-size="14" lengthAdjust="spacing" textLength="104.2412" x="998" y="63.7285">EEBO-TCP XML</text><line style="stroke:#181818;stroke-width:0.5;" x1="970" x2="1104.2412" y1="74" y2="74"/><line style="stroke:#181818;stroke-width:0.5;" x1="970" x2="1104.2412" y1="82" y2="82"/></g><!--class Lincoln / Bodleian Scans (TIFF/JPEG)--><g class="entity" data-entity="Lincoln . Bodleian Scans .TIFF.JPEG." data-source-line="2" data-uid="ent0018" id="entity_Lincoln . Bodleian Scans .TIFF.JPEG."><rect fill="#F1F1F1" height="48" rx="2.5" ry="2.5" style="stroke:#181818;stroke-width:0.5;" width="268.5371" x="227.5" y="42"/><ellipse cx="242.5" cy="58" fill="#ADD1B2" rx="11" ry="11" style="stroke:#181818;stroke-width:1;"/><path d="M245.2656,53.875 Q245.4219,53.6563 245.6094,53.5469 Q245.7969,53.4375 246.0156,53.4375 Q246.3906,53.4375 246.625,53.6953 Q246.8594,53.9531 246.8594,54.5625 L246.8594,56.0156 Q246.8594,56.625 246.625,56.8906 Q246.3906,57.1563 246.0156,57.1563 Q245.6719,57.1563 245.4688,56.9531 Q245.2656,56.7656 245.1563,56.25 Q245.1094,55.8906 244.9219,55.7031 Q244.5938,55.3281 243.9844,55.1094 Q243.375,54.8906 242.75,54.8906 Q241.9844,54.8906 241.3516,55.2188 Q240.7188,55.5469 240.2266,56.2969 Q239.7344,57.0469 239.7344,58.0781 L239.7344,59.1719 Q239.7344,60.4063 240.625,61.2266 Q241.5156,62.0469 243.1094,62.0469 Q244.0469,62.0469 244.7031,61.7969 Q245.0938,61.6406 245.5156,61.2031 Q245.7813,60.9375 245.9297,60.8594 Q246.0781,60.7813 246.2813,60.7813 Q246.6094,60.7813 246.8672,61.0391 Q247.125,61.2969 247.125,61.6406 Q247.125,61.9844 246.7813,62.3906 Q246.2813,62.9688 245.4844,63.2969 Q244.4063,63.75 243.1094,63.75 Q241.5938,63.75 240.3906,63.125 Q239.4063,62.625 238.7188,61.5547 Q238.0313,60.4844 238.0313,59.2031 L238.0313,58.0469 Q238.0313,56.7188 238.6484,55.5703 Q239.2656,54.4219 240.3594,53.8047 Q241.4531,53.1875 242.6875,53.1875 Q243.4219,53.1875 244.0703,53.3516 Q244.7188,53.5156 245.2656,53.875 Z " fill="#000000"/><text fill="#000000" font-family="sans-serif" font-size="14" lengthAdjust="spacing" textLength="236.5371" x="256.5" y="63.7285">Lincoln / Bodleian Scans (TIFF/JPEG)</text><line style="stroke:#181818;stroke-width:0.5;" x1="228.5" x2="495.0371" y1="74" y2="74"/><line style="stroke:#181818;stroke-width:0.5;" x1="228.5" x2="495.0371" y1="82" y2="82"/></g><!--class MPESE--><g class="entity" data-entity="MPESE" data-source-line="3" data-uid="ent0019" id="entity_MPESE"><rect fill="#F1F1F1" height="48" rx="2.5" ry="2.5" style="stroke:#181818;stroke-width:0.5;" width="402.4121" x="532" y="42"/><ellipse cx="547" cy="58" fill="#ADD1B2" rx="11" ry="11" style="stroke:#181818;stroke-width:1;"/><path d="M549.7656,53.875 Q549.9219,53.6563 550.1094,53.5469 Q550.2969,53.4375 550.5156,53.4375 Q550.8906,53.4375 551.125,53.6953 Q551.3594,53.9531 551.3594,54.5625 L551.3594,56.0156 Q551.3594,56.625 551.125,56.8906 Q550.8906,57.1563 550.5156,57.1563 Q550.1719,57.1563 549.9688,56.9531 Q549.7656,56.7656 549.6563,56.25 Q549.6094,55.8906 549.4219,55.7031 Q549.0938,55.3281 548.4844,55.1094 Q547.875,54.8906 547.25,54.8906 Q546.4844,54.8906 545.8516,55.2188 Q545.2188,55.5469 544.7266,56.2969 Q544.2344,57.0469 544.2344,58.0781 L544.2344,59.1719 Q544.2344,60.4063 545.125,61.2266 Q546.0156,62.0469 547.6094,62.0469 Q548.5469,62.0469 549.2031,61.7969 Q549.5938,61.6406 550.0156,61.2031 Q550.2813,60.9375 550.4297,60.8594 Q550.5781,60.7813 550.7813,60.7813 Q551.1094,60.7813 551.3672,61.0391 Q551.625,61.2969 551.625,61.6406 Q551.625,61.9844 551.2813,62.3906 Q550.7813,62.9688 549.9844,63.2969 Q548.9063,63.75 547.6094,63.75 Q546.0938,63.75 544.8906,63.125 Q543.9063,62.625 543.2188,61.5547 Q542.5313,60.4844 542.5313,59.2031 L542.5313,58.0469 Q542.5313,56.7188 543.1484,55.5703 Q543.7656,54.4219 544.8594,53.8047 Q545.9531,53.1875 547.1875,53.1875 Q547.9219,53.1875 548.5703,53.3516 Q549.2188,53.5156 549.7656,53.875 Z " fill="#000000"/><text fill="#000000" font-family="sans-serif" font-size="14" lengthAdjust="spacing" textLength="370.4121" x="561" y="63.7285">Manuscript Pamphleteering in Early Stuart England sources</text><line style="stroke:#181818;stroke-width:0.5;" x1="533" x2="933.4121" y1="74" y2="74"/><line style="stroke:#181818;stroke-width:0.5;" x1="533" x2="933.4121" y1="82" y2="82"/></g><!--class Image Preprocessor--><g class="entity" data-entity="Image Preprocessor" data-source-line="2" data-uid="ent0022" id="entity_Image Preprocessor"><rect fill="#F1F1F1" height="48" rx="2.5" ry="2.5" style="stroke:#181818;stroke-width:0.5;" width="158.0547" x="537" y="210"/><ellipse cx="552" cy="226" fill="#ADD1B2" rx="11" ry="11" style="stroke:#181818;stroke-width:1;"/><path d="M554.7656,221.875 Q554.9219,221.6563 555.1094,221.5469 Q555.2969,221.4375 555.5156,221.4375 Q555.8906,221.4375 556.125,221.6953 Q556.3594,221.9531 556.3594,222.5625 L556.3594,224.0156 Q556.3594,224.625 556.125,224.8906 Q555.8906,225.1563 555.5156,225.1563 Q555.1719,225.1563 554.9688,224.9531 Q554.7656,224.7656 554.6563,224.25 Q554.6094,223.8906 554.4219,223.7031 Q554.0938,223.3281 553.4844,223.1094 Q552.875,222.8906 552.25,222.8906 Q551.4844,222.8906 550.8516,223.2188 Q550.2188,223.5469 549.7266,224.2969 Q549.2344,225.0469 549.2344,226.0781 L549.2344,227.1719 Q549.2344,228.4063 550.125,229.2266 Q551.0156,230.0469 552.6094,230.0469 Q553.5469,230.0469 554.2031,229.7969 Q554.5938,229.6406 555.0156,229.2031 Q555.2813,228.9375 555.4297,228.8594 Q555.5781,228.7813 555.7813,228.7813 Q556.1094,228.7813 556.3672,229.0391 Q556.625,229.2969 556.625,229.6406 Q556.625,229.9844 556.2813,230.3906 Q555.7813,230.9688 554.9844,231.2969 Q553.9063,231.75 552.6094,231.75 Q551.0938,231.75 549.8906,231.125 Q548.9063,230.625 548.2188,229.5547 Q547.5313,228.4844 547.5313,227.2031 L547.5313,226.0469 Q547.5313,224.7188 548.1484,223.5703 Q548.7656,222.4219 549.8594,221.8047 Q550.9531,221.1875 552.1875,221.1875 Q552.9219,221.1875 553.5703,221.3516 Q554.2188,221.5156 554.7656,221.875 Z " fill="#000000"/><text fill="#000000" font-family="sans-serif" font-size="14" lengthAdjust="spacing" textLength="126.0547" x="566" y="231.7285">Image Preprocessor</text><line style="stroke:#181818;stroke-width:0.5;" x1="538" x2="694.0547" y1="242" y2="242"/><line style="stroke:#181818;stroke-width:0.5;" x1="538" x2="694.0547" y1="250" y2="250"/></g><!--class OCR--><g class="entity" data-entity="OCR" data-source-line="3" data-uid="ent0023" id="entity_OCR"><rect fill="#F1F1F1" height="48" rx="2.5" ry="2.5" style="stroke:#181818;stroke-width:0.5;" width="63.1104" x="589.5" y="318"/><ellipse cx="604.5" cy="334" fill="#ADD1B2" rx="11" ry="11" style="stroke:#181818;stroke-width:1;"/><path d="M607.2656,329.875 Q607.4219,329.6563 607.6094,329.5469 Q607.7969,329.4375 608.0156,329.4375 Q608.3906,329.4375 608.625,329.6953 Q608.8594,329.9531 608.8594,330.5625 L608.8594,332.0156 Q608.8594,332.625 608.625,332.8906 Q608.3906,333.1563 608.0156,333.1563 Q607.6719,333.1563 607.4688,332.9531 Q607.2656,332.7656 607.1563,332.25 Q607.1094,331.8906 606.9219,331.7031 Q606.5938,331.3281 605.9844,331.1094 Q605.375,330.8906 604.75,330.8906 Q603.9844,330.8906 603.3516,331.2188 Q602.7188,331.5469 602.2266,332.2969 Q601.7344,333.0469 601.7344,334.0781 L601.7344,335.1719 Q601.7344,336.4063 602.625,337.2266 Q603.5156,338.0469 605.1094,338.0469 Q606.0469,338.0469 606.7031,337.7969 Q607.0938,337.6406 607.5156,337.2031 Q607.7813,336.9375 607.9297,336.8594 Q608.0781,336.7813 608.2813,336.7813 Q608.6094,336.7813 608.8672,337.0391 Q609.125,337.2969 609.125,337.6406 Q609.125,337.9844 608.7813,338.3906 Q608.2813,338.9688 607.4844,339.2969 Q606.4063,339.75 605.1094,339.75 Q603.5938,339.75 602.3906,339.125 Q601.4063,338.625 600.7188,337.5547 Q600.0313,336.4844 600.0313,335.2031 L600.0313,334.0469 Q600.0313,332.7188 600.6484,331.5703 Q601.2656,330.4219 602.3594,329.8047 Q603.4531,329.1875 604.6875,329.1875 Q605.4219,329.1875 606.0703,329.3516 Q606.7188,329.5156 607.2656,329.875 Z " fill="#000000"/><text fill="#000000" font-family="sans-serif" font-size="14" lengthAdjust="spacing" textLength="31.1104" x="618.5" y="339.7285">OCR</text><line style="stroke:#181818;stroke-width:0.5;" x1="590.5" x2="651.6104" y1="350" y2="350"/><line style="stroke:#181818;stroke-width:0.5;" x1="590.5" x2="651.6104" y1="358" y2="358"/></g><!--class TEI Converter--><g class="entity" data-entity="TEI Converter" data-source-line="4" data-uid="ent0024" id="entity_TEI Converter"><rect fill="#F1F1F1" height="48" rx="2.5" ry="2.5" style="stroke:#181818;stroke-width:0.5;" width="119.1377" x="570.5" y="426"/><ellipse cx="585.5" cy="442" fill="#ADD1B2" rx="11" ry="11" style="stroke:#181818;stroke-width:1;"/><path d="M588.2656,437.875 Q588.4219,437.6563 588.6094,437.5469 Q588.7969,437.4375 589.0156,437.4375 Q589.3906,437.4375 589.625,437.6953 Q589.8594,437.9531 589.8594,438.5625 L589.8594,440.0156 Q589.8594,440.625 589.625,440.8906 Q589.3906,441.1563 589.0156,441.1563 Q588.6719,441.1563 588.4688,440.9531 Q588.2656,440.7656 588.1563,440.25 Q588.1094,439.8906 587.9219,439.7031 Q587.5938,439.3281 586.9844,439.1094 Q586.375,438.8906 585.75,438.8906 Q584.9844,438.8906 584.3516,439.2188 Q583.7188,439.5469 583.2266,440.2969 Q582.7344,441.0469 582.7344,442.0781 L582.7344,443.1719 Q582.7344,444.4063 583.625,445.2266 Q584.5156,446.0469 586.1094,446.0469 Q587.0469,446.0469 587.7031,445.7969 Q588.0938,445.6406 588.5156,445.2031 Q588.7813,444.9375 588.9297,444.8594 Q589.0781,444.7813 589.2813,444.7813 Q589.6094,444.7813 589.8672,445.0391 Q590.125,445.2969 590.125,445.6406 Q590.125,445.9844 589.7813,446.3906 Q589.2813,446.9688 588.4844,447.2969 Q587.4063,447.75 586.1094,447.75 Q584.5938,447.75 583.3906,447.125 Q582.4063,446.625 581.7188,445.5547 Q581.0313,444.4844 581.0313,443.2031 L581.0313,442.0469 Q581.0313,440.7188 581.6484,439.5703 Q582.2656,438.4219 583.3594,437.8047 Q584.4531,437.1875 585.6875,437.1875 Q586.4219,437.1875 587.0703,437.3516 Q587.7188,437.5156 588.2656,437.875 Z " fill="#000000"/><text fill="#000000" font-family="sans-serif" font-size="14" lengthAdjust="spacing" textLength="87.1377" x="599.5" y="447.7285">TEI Converter</text><line style="stroke:#181818;stroke-width:0.5;" x1="571.5" x2="688.6377" y1="458" y2="458"/><line style="stroke:#181818;stroke-width:0.5;" x1="571.5" x2="688.6377" y1="466" y2="466"/></g><!--class TEI Parser--><g class="entity" data-entity="TEI Parser" data-source-line="8" data-uid="ent0026" id="entity_TEI Parser"><rect fill="#F1F1F1" height="48" rx="2.5" ry="2.5" style="stroke:#181818;stroke-width:0.5;" width="98.9033" x="784.5" y="426"/><ellipse cx="799.5" cy="442" fill="#ADD1B2" rx="11" ry="11" style="stroke:#181818;stroke-width:1;"/><path d="M802.2656,437.875 Q802.4219,437.6563 802.6094,437.5469 Q802.7969,437.4375 803.0156,437.4375 Q803.3906,437.4375 803.625,437.6953 Q803.8594,437.9531 803.8594,438.5625 L803.8594,440.0156 Q803.8594,440.625 803.625,440.8906 Q803.3906,441.1563 803.0156,441.1563 Q802.6719,441.1563 802.4688,440.9531 Q802.2656,440.7656 802.1563,440.25 Q802.1094,439.8906 801.9219,439.7031 Q801.5938,439.3281 800.9844,439.1094 Q800.375,438.8906 799.75,438.8906 Q798.9844,438.8906 798.3516,439.2188 Q797.7188,439.5469 797.2266,440.2969 Q796.7344,441.0469 796.7344,442.0781 L796.7344,443.1719 Q796.7344,444.4063 797.625,445.2266 Q798.5156,446.0469 800.1094,446.0469 Q801.0469,446.0469 801.7031,445.7969 Q802.0938,445.6406 802.5156,445.2031 Q802.7813,444.9375 802.9297,444.8594 Q803.0781,444.7813 803.2813,444.7813 Q803.6094,444.7813 803.8672,445.0391 Q804.125,445.2969 804.125,445.6406 Q804.125,445.9844 803.7813,446.3906 Q803.2813,446.9688 802.4844,447.2969 Q801.4063,447.75 800.1094,447.75 Q798.5938,447.75 797.3906,447.125 Q796.4063,446.625 795.7188,445.5547 Q795.0313,444.4844 795.0313,443.2031 L795.0313,442.0469 Q795.0313,440.7188 795.6484,439.5703 Q796.2656,438.4219 797.3594,437.8047 Q798.4531,437.1875 799.6875,437.1875 Q800.4219,437.1875 801.0703,437.3516 Q801.7188,437.5156 802.2656,437.875 Z " fill="#000000"/><text fill="#000000" font-family="sans-serif" font-size="14" lengthAdjust="spacing" textLength="66.9033" x="813.5" y="447.7285">TEI Parser</text><line style="stroke:#181818;stroke-width:0.5;" x1="785.5" x2="882.4033" y1="458" y2="458"/><line style="stroke:#181818;stroke-width:0.5;" x1="785.5" x2="882.4033" y1="466" y2="466"/></g><!--class Normalisation Engine--><g class="entity" data-entity="Normalisation Engine" data-source-line="9" data-uid="ent0027" id="entity_Normalisation Engine"><rect fill="#F1F1F1" height="48" rx="2.5" ry="2.5" style="stroke:#181818;stroke-width:0.5;" width="165.0684" x="751.5" y="534"/><ellipse cx="766.5" cy="550" fill="#ADD1B2" rx="11" ry="11" style="stroke:#181818;stroke-width:1;"/><path d="M769.2656,545.875 Q769.4219,545.6563 769.6094,545.5469 Q769.7969,545.4375 770.0156,545.4375 Q770.3906,545.4375 770.625,545.6953 Q770.8594,545.9531 770.8594,546.5625 L770.8594,548.0156 Q770.8594,548.625 770.625,548.8906 Q770.3906,549.1563 770.0156,549.1563 Q769.6719,549.1563 769.4688,548.9531 Q769.2656,548.7656 769.1563,548.25 Q769.1094,547.8906 768.9219,547.7031 Q768.5938,547.3281 767.9844,547.1094 Q767.375,546.8906 766.75,546.8906 Q765.9844,546.8906 765.3516,547.2188 Q764.7188,547.5469 764.2266,548.2969 Q763.7344,549.0469 763.7344,550.0781 L763.7344,551.1719 Q763.7344,552.4063 764.625,553.2266 Q765.5156,554.0469 767.1094,554.0469 Q768.0469,554.0469 768.7031,553.7969 Q769.0938,553.6406 769.5156,553.2031 Q769.7813,552.9375 769.9297,552.8594 Q770.0781,552.7813 770.2813,552.7813 Q770.6094,552.7813 770.8672,553.0391 Q771.125,553.2969 771.125,553.6406 Q771.125,553.9844 770.7813,554.3906 Q770.2813,554.9688 769.4844,555.2969 Q768.4063,555.75 767.1094,555.75 Q765.5938,555.75 764.3906,555.125 Q763.4063,554.625 762.7188,553.5547 Q762.0313,552.4844 762.0313,551.2031 L762.0313,550.0469 Q762.0313,548.7188 762.6484,547.5703 Q763.2656,546.4219 764.3594,545.8047 Q765.4531,545.1875 766.6875,545.1875 Q767.4219,545.1875 768.0703,545.3516 Q768.7188,545.5156 769.2656,545.875 Z " fill="#000000"/><text fill="#000000" font-family="sans-serif" font-size="14" lengthAdjust="spacing" textLength="133.0684" x="780.5" y="555.7285">Normalisation Engine</text><line style="stroke:#181818;stroke-width:0.5;" x1="752.5" x2="915.5684" y1="566" y2="566"/><line style="stroke:#181818;stroke-width:0.5;" x1="752.5" x2="915.5684" y1="574" y2="574"/></g><!--class Metadata Extractor--><g class="entity" data-entity="Metadata Extractor" data-source-line="10" data-uid="ent0028" id="entity_Metadata Extractor"><rect fill="#F1F1F1" height="48" rx="2.5" ry="2.5" style="stroke:#181818;stroke-width:0.5;" width="150.2754" x="763" y="642"/><ellipse cx="778" cy="658" fill="#ADD1B2" rx="11" ry="11" style="stroke:#181818;stroke-width:1;"/><path d="M780.7656,653.875 Q780.9219,653.6563 781.1094,653.5469 Q781.2969,653.4375 781.5156,653.4375 Q781.8906,653.4375 782.125,653.6953 Q782.3594,653.9531 782.3594,654.5625 L782.3594,656.0156 Q782.3594,656.625 782.125,656.8906 Q781.8906,657.1563 781.5156,657.1563 Q781.1719,657.1563 780.9688,656.9531 Q780.7656,656.7656 780.6563,656.25 Q780.6094,655.8906 780.4219,655.7031 Q780.0938,655.3281 779.4844,655.1094 Q778.875,654.8906 778.25,654.8906 Q777.4844,654.8906 776.8516,655.2188 Q776.2188,655.5469 775.7266,656.2969 Q775.2344,657.0469 775.2344,658.0781 L775.2344,659.1719 Q775.2344,660.4063 776.125,661.2266 Q777.0156,662.0469 778.6094,662.0469 Q779.5469,662.0469 780.2031,661.7969 Q780.5938,661.6406 781.0156,661.2031 Q781.2813,660.9375 781.4297,660.8594 Q781.5781,660.7813 781.7813,660.7813 Q782.1094,660.7813 782.3672,661.0391 Q782.625,661.2969 782.625,661.6406 Q782.625,661.9844 782.2813,662.3906 Q781.7813,662.9688 780.9844,663.2969 Q779.9063,663.75 778.6094,663.75 Q777.0938,663.75 775.8906,663.125 Q774.9063,662.625 774.2188,661.5547 Q773.5313,660.4844 773.5313,659.2031 L773.5313,658.0469 Q773.5313,656.7188 774.1484,655.5703 Q774.7656,654.4219 775.8594,653.8047 Q776.9531,653.1875 778.1875,653.1875 Q778.9219,653.1875 779.5703,653.3516 Q780.2188,653.5156 780.7656,653.875 Z " fill="#000000"/><text fill="#000000" font-family="sans-serif" font-size="14" lengthAdjust="spacing" textLength="118.2754" x="792" y="663.7285">Metadata Extractor</text><line style="stroke:#181818;stroke-width:0.5;" x1="764" x2="912.2754" y1="674" y2="674"/><line style="stroke:#181818;stroke-width:0.5;" x1="764" x2="912.2754" y1="682" y2="682"/></g><!--class Statistics + Graphing Tools--><g class="entity" data-entity="Statistics . Graphing Tools" data-source-line="9" data-uid="ent0033" id="entity_Statistics . Graphing Tools"><rect fill="#F1F1F1" height="48" rx="2.5" ry="2.5" style="stroke:#181818;stroke-width:0.5;" width="199.6855" x="433" y="790"/><ellipse cx="448" cy="806" fill="#ADD1B2" rx="11" ry="11" style="stroke:#181818;stroke-width:1;"/><path d="M450.7656,801.875 Q450.9219,801.6563 451.1094,801.5469 Q451.2969,801.4375 451.5156,801.4375 Q451.8906,801.4375 452.125,801.6953 Q452.3594,801.9531 452.3594,802.5625 L452.3594,804.0156 Q452.3594,804.625 452.125,804.8906 Q451.8906,805.1563 451.5156,805.1563 Q451.1719,805.1563 450.9688,804.9531 Q450.7656,804.7656 450.6563,804.25 Q450.6094,803.8906 450.4219,803.7031 Q450.0938,803.3281 449.4844,803.1094 Q448.875,802.8906 448.25,802.8906 Q447.4844,802.8906 446.8516,803.2188 Q446.2188,803.5469 445.7266,804.2969 Q445.2344,805.0469 445.2344,806.0781 L445.2344,807.1719 Q445.2344,808.4063 446.125,809.2266 Q447.0156,810.0469 448.6094,810.0469 Q449.5469,810.0469 450.2031,809.7969 Q450.5938,809.6406 451.0156,809.2031 Q451.2813,808.9375 451.4297,808.8594 Q451.5781,808.7813 451.7813,808.7813 Q452.1094,808.7813 452.3672,809.0391 Q452.625,809.2969 452.625,809.6406 Q452.625,809.9844 452.2813,810.3906 Q451.7813,810.9688 450.9844,811.2969 Q449.9063,811.75 448.6094,811.75 Q447.0938,811.75 445.8906,811.125 Q444.9063,810.625 444.2188,809.5547 Q443.5313,808.4844 443.5313,807.2031 L443.5313,806.0469 Q443.5313,804.7188 444.1484,803.5703 Q444.7656,802.4219 445.8594,801.8047 Q446.9531,801.1875 448.1875,801.1875 Q448.9219,801.1875 449.5703,801.3516 Q450.2188,801.5156 450.7656,801.875 Z " fill="#000000"/><text fill="#000000" font-family="sans-serif" font-size="14" lengthAdjust="spacing" textLength="167.6855" x="462" y="811.7285">Statistics + Graphing Tools</text><line style="stroke:#181818;stroke-width:0.5;" x1="434" x2="631.6855" y1="822" y2="822"/><line style="stroke:#181818;stroke-width:0.5;" x1="434" x2="631.6855" y1="830" y2="830"/></g><!--class Novelty Detection--><g class="entity" data-entity="Novelty Detection" data-source-line="10" data-uid="ent0035" id="entity_Novelty Detection"><rect fill="#F1F1F1" height="48" rx="2.5" ry="2.5" style="stroke:#181818;stroke-width:0.5;" width="141.7168" x="1337" y="790"/><ellipse cx="1352" cy="806" fill="#ADD1B2" rx="11" ry="11" style="stroke:#181818;stroke-width:1;"/><path d="M1354.7656,801.875 Q1354.9219,801.6563 1355.1094,801.5469 Q1355.2969,801.4375 1355.5156,801.4375 Q1355.8906,801.4375 1356.125,801.6953 Q1356.3594,801.9531 1356.3594,802.5625 L1356.3594,804.0156 Q1356.3594,804.625 1356.125,804.8906 Q1355.8906,805.1563 1355.5156,805.1563 Q1355.1719,805.1563 1354.9688,804.9531 Q1354.7656,804.7656 1354.6563,804.25 Q1354.6094,803.8906 1354.4219,803.7031 Q1354.0938,803.3281 1353.4844,803.1094 Q1352.875,802.8906 1352.25,802.8906 Q1351.4844,802.8906 1350.8516,803.2188 Q1350.2188,803.5469 1349.7266,804.2969 Q1349.2344,805.0469 1349.2344,806.0781 L1349.2344,807.1719 Q1349.2344,808.4063 1350.125,809.2266 Q1351.0156,810.0469 1352.6094,810.0469 Q1353.5469,810.0469 1354.2031,809.7969 Q1354.5938,809.6406 1355.0156,809.2031 Q1355.2813,808.9375 1355.4297,808.8594 Q1355.5781,808.7813 1355.7813,808.7813 Q1356.1094,808.7813 1356.3672,809.0391 Q1356.625,809.2969 1356.625,809.6406 Q1356.625,809.9844 1356.2813,810.3906 Q1355.7813,810.9688 1354.9844,811.2969 Q1353.9063,811.75 1352.6094,811.75 Q1351.0938,811.75 1349.8906,811.125 Q1348.9063,810.625 1348.2188,809.5547 Q1347.5313,808.4844 1347.5313,807.2031 L1347.5313,806.0469 Q1347.5313,804.7188 1348.1484,803.5703 Q1348.7656,802.4219 1349.8594,801.8047 Q1350.9531,801.1875 1352.1875,801.1875 Q1352.9219,801.1875 1353.5703,801.3516 Q1354.2188,801.5156 1354.7656,801.875 Z " fill="#000000"/><text fill="#000000" font-family="sans-serif" font-size="14" lengthAdjust="spacing" textLength="109.7168" x="1366" y="811.7285">Novelty Detection</text><line style="stroke:#181818;stroke-width:0.5;" x1="1338" x2="1477.7168" y1="822" y2="822"/><line style="stroke:#181818;stroke-width:0.5;" x1="1338" x2="1477.7168" y1="830" y2="830"/></g><!--class WYSIWYG Editor--><g class="entity" data-entity="WYSIWYG Editor" data-source-line="7" data-uid="ent0053" id="entity_WYSIWYG Editor"><rect fill="#F1F1F1" height="48" rx="2.5" ry="2.5" style="stroke:#181818;stroke-width:0.5;" width="141.6826" x="7" y="914"/><ellipse cx="22" cy="930" fill="#ADD1B2" rx="11" ry="11" style="stroke:#181818;stroke-width:1;"/><path d="M24.7656,925.875 Q24.9219,925.6563 25.1094,925.5469 Q25.2969,925.4375 25.5156,925.4375 Q25.8906,925.4375 26.125,925.6953 Q26.3594,925.9531 26.3594,926.5625 L26.3594,928.0156 Q26.3594,928.625 26.125,928.8906 Q25.8906,929.1563 25.5156,929.1563 Q25.1719,929.1563 24.9688,928.9531 Q24.7656,928.7656 24.6563,928.25 Q24.6094,927.8906 24.4219,927.7031 Q24.0938,927.3281 23.4844,927.1094 Q22.875,926.8906 22.25,926.8906 Q21.4844,926.8906 20.8516,927.2188 Q20.2188,927.5469 19.7266,928.2969 Q19.2344,929.0469 19.2344,930.0781 L19.2344,931.1719 Q19.2344,932.4063 20.125,933.2266 Q21.0156,934.0469 22.6094,934.0469 Q23.5469,934.0469 24.2031,933.7969 Q24.5938,933.6406 25.0156,933.2031 Q25.2813,932.9375 25.4297,932.8594 Q25.5781,932.7813 25.7813,932.7813 Q26.1094,932.7813 26.3672,933.0391 Q26.625,933.2969 26.625,933.6406 Q26.625,933.9844 26.2813,934.3906 Q25.7813,934.9688 24.9844,935.2969 Q23.9063,935.75 22.6094,935.75 Q21.0938,935.75 19.8906,935.125 Q18.9063,934.625 18.2188,933.5547 Q17.5313,932.4844 17.5313,931.2031 L17.5313,930.0469 Q17.5313,928.7188 18.1484,927.5703 Q18.7656,926.4219 19.8594,925.8047 Q20.9531,925.1875 22.1875,925.1875 Q22.9219,925.1875 23.5703,925.3516 Q24.2188,925.5156 24.7656,925.875 Z " fill="#000000"/><text fill="#000000" font-family="sans-serif" font-size="14" lengthAdjust="spacing" textLength="109.6826" x="36" y="935.7285">WYSIWYG Editor</text><line style="stroke:#181818;stroke-width:0.5;" x1="8" x2="147.6826" y1="946" y2="946"/><line style="stroke:#181818;stroke-width:0.5;" x1="8" x2="147.6826" y1="954" y2="954"/></g><g class="entity" data-entity="GMN58" data-source-line="34" data-uid="ent0059" id="entity_GMN58"><path d="M1406.5,916.5 L1406.5,959.2031 L1705.7051,959.2031 L1705.7051,926.5 L1695.7051,916.5 L1406.5,916.5" fill="#FFFFE0" style="stroke:#000000;stroke-width:0.5;"/><path d="M1695.7051,916.5 L1695.7051,926.5 L1705.7051,926.5 L1695.7051,916.5" fill="#FFFFE0" style="stroke:#000000;stroke-width:1;"/><text fill="#000000" font-family="sans-serif" font-size="13" lengthAdjust="spacing" textLength="278.2051" x="1412.5" y="934.9951">This component displays processed corpus data</text><text fill="#000000" font-family="sans-serif" font-size="13" lengthAdjust="spacing" textLength="265.9097" x="1412.5" y="951.3467">and allows user interaction with analysis tools.</text></g><g class="entity" data-entity="GMN61" data-source-line="39" data-uid="ent0062" id="entity_GMN61"><path d="M1740.5,916.5 L1740.5,959.2031 L2031.7007,959.2031 L2031.7007,926.5 L2021.7007,916.5 L1740.5,916.5" fill="#FFFFE0" style="stroke:#000000;stroke-width:0.5;"/><path d="M2021.7007,916.5 L2021.7007,926.5 L2031.7007,926.5 L2021.7007,916.5" fill="#FFFFE0" style="stroke:#000000;stroke-width:1;"/><text fill="#000000" font-family="sans-serif" font-size="13" lengthAdjust="spacing" textLength="270.2007" x="1746.5" y="934.9951">Performs NLP analysis on Normalised Text DB</text><text fill="#000000" font-family="sans-serif" font-size="13" lengthAdjust="spacing" textLength="261.5933" x="1746.5" y="951.3467">and generates features for Novelty Detection.</text></g><!--link Corpus Explorer UI to Training Corpus--><g class="link" data-entity-1="Corpus Explorer UI" data-entity-2="Training Corpus" data-source-line="3" data-uid="lnk29" id="link_Corpus Explorer UI_Training Corpus"><path codeLine="3" d="M703.58,913.94 C726.02,900.52 755.27,883.61 782,870 C789.8,866.03 792.18,865.94 800,862 C814.64,854.62 825.1622,848.8997 838.9522,841.0097" fill="none" id="Corpus Explorer UI-to-Training Corpus" style="stroke:#FF0000;stroke-width:1;"/><polygon fill="#FF0000" points="844.16,838.03,834.3618,839.0276,839.8201,840.5131,838.3347,845.9714,844.16,838.03" style="stroke:#FF0000;stroke-width:1;"/></g><!--link Corpus Explorer UI to TEI Repository--><g class="link" data-entity-1="Corpus Explorer UI" data-entity-2="TEI Repository" data-source-line="4" data-uid="lnk30" id="link_Corpus Explorer UI_TEI Repository"><path codeLine="4" d="M682.39,913.81 C701.98,898.29 733.74,879.11 765,870 C844.01,846.98 871.07,885.31 950,862 C967.3,856.89 979.6138,850.3014 995.2238,841.0814" fill="none" id="Corpus Explorer UI-to-TEI Repository" style="stroke:#FF0000;stroke-width:1;"/><polygon fill="#FF0000" points="1000.39,838.03,990.6065,839.163,996.0849,840.5728,994.675,846.0512,1000.39,838.03" style="stroke:#FF0000;stroke-width:1;"/></g><!--link TEI Repository to Corpus Explorer UI--><g class="link" data-entity-1="TEI Repository" data-entity-2="Corpus Explorer UI" data-source-line="2" data-uid="lnk50" id="link_TEI Repository_Corpus Explorer UI"><path codeLine="2" d="M1032.46,838.03 C1019.78,847.25 1002.3,856.89 985,862 C906.07,885.31 879.01,846.98 800,870 C768.63,879.14 741.8653,895.2942 716.5153,910.8342" fill="none" id="TEI Repository-to-Corpus Explorer UI" style="stroke:#8B0000;stroke-width:1;"/><polygon fill="#8B0000" points="711.4,913.97,721.1636,912.6765,715.6628,911.3568,716.9825,905.8561,711.4,913.97" style="stroke:#8B0000;stroke-width:1;"/></g><!--link Training Corpus to MacBERTh NLP Model--><g class="link" data-entity-1="Training Corpus" data-entity-2="MacBERTh NLP Model" data-source-line="6" data-uid="lnk31" id="link_Training Corpus_MacBERTh NLP Model"><path codeLine="6" d="M915.73,838.07 C930.65,847.3 948.98,856.93 967,862 C1011.96,874.64 1132.4,856.16 1177,870 C1206.11,879.03 1230.3175,894.5706 1250.5975,910.1106" fill="none" id="Training Corpus-to-MacBERTh NLP Model" style="stroke:#FF0000;stroke-width:1;"/><polygon fill="#FF0000" points="1255.36,913.76,1250.6491,905.1109,1251.3912,910.7188,1245.7832,911.4609,1255.36,913.76" style="stroke:#FF0000;stroke-width:1;"/></g><!--link TEI Repository to MacBERTh NLP Model--><g class="link" data-entity-1="TEI Repository" data-entity-2="MacBERTh NLP Model" data-source-line="7" data-uid="lnk32" id="link_TEI Repository_MacBERTh NLP Model"><path codeLine="7" d="M1079.88,838.06 C1093.83,846.83 1110.63,856.12 1127,862 C1148.18,869.61 1155.95,862.05 1177,870 C1204.9,880.54 1228.4539,895.4523 1248.8239,910.3223" fill="none" id="TEI Repository-to-MacBERTh NLP Model" style="stroke:#FF0000;stroke-width:1;"/><polygon fill="#FF0000" points="1253.67,913.86,1248.7592,905.3228,1249.6316,910.912,1244.0424,911.7843,1253.67,913.86" style="stroke:#FF0000;stroke-width:1;"/></g><!--link Statistics + Graphing Tools to Corpus Explorer UI--><g class="link" data-entity-1="Statistics . Graphing Tools" data-entity-2="Corpus Explorer UI" data-source-line="9" data-uid="lnk34" id="link_Statistics . Graphing Tools_Corpus Explorer UI"><path codeLine="9" d="M548.06,838.23 C568.41,859.94 598.8743,888.41 625.8343,910.09" fill="none" id="Statistics + Graphing Tools-to-Corpus Explorer UI" style="stroke:#FF0000;stroke-width:1;"/><polygon fill="#FF0000" points="630.51,913.85,626.0031,905.0928,626.6136,910.7167,620.9897,911.3271,630.51,913.85" style="stroke:#FF0000;stroke-width:1;"/></g><!--link Statistics + Graphing Tools to Corpus Explorer UI--><g class="link" data-entity-1="Statistics . Graphing Tools" data-entity-2="Corpus Explorer UI" data-source-line="8" data-uid="lnk55" id="link_Statistics . Graphing Tools_Corpus Explorer UI"><path codeLine="8" d="M569.2,838.23 C596.38,859.94 627.4296,887.7711 647.5396,909.4511" fill="none" id="Statistics + Graphing Tools-to-Corpus Explorer UI-1" style="stroke:#8B0000;stroke-width:1;"/><polygon fill="#8B0000" points="651.62,913.85,648.4321,904.5314,648.2197,910.1842,642.5668,909.9719,651.62,913.85" style="stroke:#8B0000;stroke-width:1;"/></g><!--link Novelty Detection to MacBERTh NLP Model--><g class="link" data-entity-1="Novelty Detection" data-entity-2="MacBERTh NLP Model" data-source-line="10" data-uid="lnk36" id="link_Novelty Detection_MacBERTh NLP Model"><path codeLine="10" d="M1395.06,838.23 C1376.33,859.94 1347.8991,888.3047 1322.1591,909.9847" fill="none" id="Novelty Detection-to-MacBERTh NLP Model" style="stroke:#FF0000;stroke-width:1;"/><polygon fill="#FF0000" points="1317.57,913.85,1327.0305,911.1115,1321.3942,910.629,1321.8768,904.9927,1317.57,913.85" style="stroke:#FF0000;stroke-width:1;"/></g><!--link MacBERTh NLP Model to Novelty Detection--><g class="link" data-entity-1="MacBERTh NLP Model" data-entity-2="Novelty Detection" data-source-line="4" data-uid="lnk51" id="link_MacBERTh NLP Model_Novelty Detection"><path codeLine="4" d="M1296.46,913.85 C1315.35,892.17 1343.797,863.8242 1369.357,842.1142" fill="none" id="MacBERTh NLP Model-to-Novelty Detection" style="stroke:#8B0000;stroke-width:1;"/><polygon fill="#8B0000" points="1373.93,838.23,1364.4809,841.0076,1370.1191,841.4669,1369.6599,847.105,1373.93,838.23" style="stroke:#8B0000;stroke-width:1;"/></g><!--link EEBO-TCP XML to TEI Parser--><g class="link" data-entity-1="EEBO-TCP XML" data-entity-2="TEI Parser" data-source-line="1" data-uid="lnk37" id="link_EEBO-TCP XML_TEI Parser"><path codeLine="1" d="M1024.76,90.04 C988.58,158.11 885.2653,352.5215 849.0753,420.6315" fill="none" id="EEBO-TCP XML-to-TEI Parser" style="stroke:#008000;stroke-width:1;"/><polygon fill="#008000" points="846.26,425.93,854.0153,419.8592,848.6061,421.5146,846.9507,416.1054,846.26,425.93" style="stroke:#008000;stroke-width:1;"/></g><!--link MPESE to TEI Parser--><g class="link" data-entity-1="MPESE" data-entity-2="TEI Parser" data-source-line="2" data-uid="lnk38" id="link_MPESE_TEI Parser"><path codeLine="2" d="M739.09,90.04 C757.09,158.11 808.3562,352.0194 826.3662,420.1294" fill="none" id="MPESE-to-TEI Parser" style="stroke:#008000;stroke-width:1;"/><polygon fill="#008000" points="827.9,425.93,829.4663,416.2065,826.6218,421.0961,821.7322,418.2516,827.9,425.93" style="stroke:#008000;stroke-width:1;"/></g><!--link MPESE to Image Preprocessor--><g class="link" data-entity-1="MPESE" data-entity-2="Image Preprocessor" data-source-line="3" data-uid="lnk39" id="link_MPESE_Image Preprocessor"><path codeLine="3" d="M716.73,90.08 C694.44,121.71 658.0854,173.2749 635.7754,204.9449" fill="none" id="MPESE-to-Image Preprocessor" style="stroke:#008000;stroke-width:1;"/><polygon fill="#008000" points="632.32,209.85,640.7732,204.7959,635.1995,205.7624,634.233,200.1887,632.32,209.85" style="stroke:#008000;stroke-width:1;"/></g><!--link Lincoln / Bodleian Scans (TIFF/JPEG) to Image Preprocessor--><g class="link" data-entity-1="Lincoln . Bodleian Scans .TIFF.JPEG." data-entity-2="Image Preprocessor" data-source-line="1" data-uid="lnk40" id="link_Lincoln . Bodleian Scans .TIFF.JPEG._Image Preprocessor"><path codeLine="1" d="M397.32,90.08 C445.71,121.71 527.1081,174.8967 575.5481,206.5667" fill="none" id="Lincoln / Bodleian Scans (TIFF/JPEG)-to-Image Preprocessor" style="stroke:#A52A2A;stroke-width:1;"/><polygon fill="#A52A2A" points="580.57,209.85,575.226,201.5771,576.3851,207.1139,570.8482,208.273,580.57,209.85" style="stroke:#A52A2A;stroke-width:1;"/></g><!--link Image Preprocessor to OCR--><g class="link" data-entity-1="Image Preprocessor" data-entity-2="OCR" data-source-line="2" data-uid="lnk41" id="link_Image Preprocessor_OCR"><path codeLine="2" d="M617.08,258 C617.92,275.66 618.7762,293.9467 619.6162,311.6867" fill="none" id="Image Preprocessor-to-OCR" style="stroke:#A52A2A;stroke-width:1;"/><polygon fill="#A52A2A" points="619.9,317.68,623.4698,308.5009,619.6635,312.6856,615.4788,308.8793,619.9,317.68" style="stroke:#A52A2A;stroke-width:1;"/></g><!--link OCR to TEI Converter--><g class="link" data-entity-1="OCR" data-entity-2="TEI Converter" data-source-line="3" data-uid="lnk42" id="link_OCR_TEI Converter"><path codeLine="3" d="M622.95,366 C624.45,383.66 626.0011,401.9616 627.5111,419.7016" fill="none" id="OCR-to-TEI Converter" style="stroke:#A52A2A;stroke-width:1;"/><polygon fill="#A52A2A" points="628.02,425.68,631.2423,416.3732,627.5959,420.698,623.2711,417.0517,628.02,425.68" style="stroke:#A52A2A;stroke-width:1;"/></g><!--link TEI Parser to Normalisation Engine--><g class="link" data-entity-1="TEI Parser" data-entity-2="Normalisation Engine" data-source-line="4" data-uid="lnk43" id="link_TEI Parser_Normalisation Engine"><path codeLine="4" d="M834,474 C834,491.66 834,509.94 834,527.68" fill="none" id="TEI Parser-to-Normalisation Engine" style="stroke:#A52A2A;stroke-width:1;"/><polygon fill="#A52A2A" points="834,533.68,838,524.68,834,528.68,830,524.68,834,533.68" style="stroke:#A52A2A;stroke-width:1;"/></g><!--link TEI Converter to Normalisation Engine--><g class="link" data-entity-1="TEI Converter" data-entity-2="Normalisation Engine" data-source-line="5" data-uid="lnk44" id="link_TEI Converter_Normalisation Engine"><path codeLine="5" d="M674.26,474 C708.37,491.72 749.9755,513.3441 784.1455,531.0941" fill="none" id="TEI Converter-to-Normalisation Engine" style="stroke:#A52A2A;stroke-width:1;"/><polygon fill="#A52A2A" points="789.47,533.86,783.3272,526.1616,785.0329,531.5551,779.6394,533.2609,789.47,533.86" style="stroke:#A52A2A;stroke-width:1;"/></g><!--link Normalisation Engine to Normalised Text DB--><g class="link" data-entity-1="Normalisation Engine" data-entity-2="Normalised Text DB" data-source-line="1" data-uid="lnk45" id="link_Normalisation Engine_Normalised Text DB"><path codeLine="1" d="M797.53,582.33 C778.31,596.89 756.57,617.51 746,642 C729.1,681.18 716.15,707.52 746,738 C760.81,753.13 1106.87,739.44 1127,746 C1154.25,754.88 1176.0528,770.3956 1194.2328,786.0456" fill="none" id="Normalisation Engine-to-Normalised Text DB" style="stroke:#0000FF;stroke-width:1;"/><polygon fill="#0000FF" points="1198.78,789.96,1194.5688,781.0569,1194.9906,786.698,1189.3495,787.1199,1198.78,789.96" style="stroke:#0000FF;stroke-width:1;"/></g><!--link Normalisation Engine to Metadata Extractor--><g class="link" data-entity-1="Normalisation Engine" data-entity-2="Metadata Extractor" data-source-line="2" data-uid="lnk46" id="link_Normalisation Engine_Metadata Extractor"><path codeLine="2" d="M834.87,582 C835.53,599.66 836.2236,617.9443 836.8936,635.6843" fill="none" id="Normalisation Engine-to-Metadata Extractor" style="stroke:#0000FF;stroke-width:1;"/><polygon fill="#0000FF" points="837.12,641.68,840.7775,632.5354,836.9313,636.6836,832.7832,632.8374,837.12,641.68" style="stroke:#0000FF;stroke-width:1;"/></g><!--link Metadata Extractor to Metadata DB--><g class="link" data-entity-1="Metadata Extractor" data-entity-2="Metadata DB" data-source-line="3" data-uid="lnk47" id="link_Metadata Extractor_Metadata DB"><path codeLine="3" d="M820.09,690.13 C798.94,717.47 767.6122,757.935 746.4922,785.225" fill="none" id="Metadata Extractor-to-Metadata DB" style="stroke:#0000FF;stroke-width:1;"/><polygon fill="#0000FF" points="742.82,789.97,751.4916,785.3006,745.8802,786.0158,745.165,780.4044,742.82,789.97" style="stroke:#0000FF;stroke-width:1;"/></g><!--link Normalised Text DB to MacBERTh NLP Model--><g class="link" data-entity-1="Normalised Text DB" data-entity-2="MacBERTh NLP Model" data-source-line="5" data-uid="lnk48" id="link_Normalised Text DB_MacBERTh NLP Model"><path codeLine="5" d="M1234.43,838.23 C1245.1,859.94 1258.3005,886.7867 1268.9705,908.4667" fill="none" id="Normalised Text DB-to-MacBERTh NLP Model" style="stroke:#0000FF;stroke-width:1;"/><polygon fill="#0000FF" points="1271.62,913.85,1271.2347,904.0087,1269.4121,909.3639,1264.0569,907.5413,1271.62,913.85" style="stroke:#0000FF;stroke-width:1;"/></g><!--link Metadata DB to Corpus Explorer UI--><g class="link" data-entity-1="Metadata DB" data-entity-2="Corpus Explorer UI" data-source-line="1" data-uid="lnk49" id="link_Metadata DB_Corpus Explorer UI"><path codeLine="1" d="M713.76,838.23 C703.27,859.94 690.2933,886.769 679.8033,908.449" fill="none" id="Metadata DB-to-Corpus Explorer UI" style="stroke:#8B0000;stroke-width:1;"/><polygon fill="#8B0000" points="677.19,913.85,684.7106,907.4907,679.3678,909.3492,677.5093,904.0063,677.19,913.85" style="stroke:#8B0000;stroke-width:1;"/></g><!--link Novelty Detection to Corpus Explorer UI--><g class="link" data-entity-1="Novelty Detection" data-entity-2="Corpus Explorer UI" data-source-line="5" data-uid="lnk52" id="link_Novelty Detection_Corpus Explorer UI"><path codeLine="5" d="M1373.2,838.03 C1357.11,847.38 1337.31,857.11 1318,862 C1260.26,876.63 839.41,854.15 782,870 C750.39,878.73 723.3187,894.7097 700.9687,910.4197" fill="none" id="Novelty Detection-to-Corpus Explorer UI" style="stroke:#8B0000;stroke-width:1;"/><polygon fill="#8B0000" points="696.06,913.87,705.7232,911.9669,700.1506,910.9947,701.1228,905.422,696.06,913.87" style="stroke:#8B0000;stroke-width:1;"/></g><!--link WYSIWYG Editor to Corpus Explorer UI--><g class="link" data-entity-1="WYSIWYG Editor" data-entity-2="Corpus Explorer UI" data-source-line="7" data-uid="lnk54" id="link_WYSIWYG Editor_Corpus Explorer UI"><path codeLine="7" d="M104.3188,909.7246 C124.3488,890.3146 151.57,869.83 185.5,866 C226.35,861.39 514.65,861.39 555.5,866 C590.08,869.9 618.184,890.445 638.854,909.835" fill="none" id="WYSIWYG Editor-Corpus Explorer UI" style="stroke:#8B0000;stroke-width:1;"/><polygon fill="#8B0000" points="100.01,913.9,109.2568,910.5094,103.6007,910.4205,103.6896,904.7643,100.01,913.9" style="stroke:#8B0000;stroke-width:1;"/><polygon fill="#8B0000" points="643.23,913.94,639.4027,904.8652,639.5834,910.5192,633.9294,910.6998,643.23,913.94" style="stroke:#8B0000;stroke-width:1;"/></g><!--link Normalised Text DB to Statistics + Graphing Tools--><g class="link" data-entity-1="Normalised Text DB" data-entity-2="Statistics . Graphing Tools" data-source-line="10" data-uid="lnk56" id="link_Normalised Text DB_Statistics . Graphing Tools"><path codeLine="10" d="M1199.47,789.98 C1178.15,770.61 1144.75,745.98 1109.5,742 C1085.21,739.26 693.79,739.26 669.5,742 C629.3,746.54 593.8811,767.2392 567.6111,786.3592" fill="none" id="Normalised Text DB-to-Statistics + Graphing Tools" style="stroke:#8B0000;stroke-width:1;"/><polygon fill="#8B0000" points="562.76,789.89,572.3906,787.8279,566.8026,786.9477,567.6828,781.3597,562.76,789.89" style="stroke:#8B0000;stroke-width:1;"/></g><!--link Metadata DB to Statistics + Graphing Tools--><g class="link" data-entity-1="Metadata DB" data-entity-2="Statistics . Graphing Tools" data-source-line="11" data-uid="lnk57" id="link_Metadata DB_Statistics . Graphing Tools"><path codeLine="11" d="M667.94,814 C656.33,814 650.73,814 639.12,814" fill="none" id="Metadata DB-to-Statistics + Graphing Tools" style="stroke:#8B0000;stroke-width:1;"/><polygon fill="#8B0000" points="633.12,814,642.12,818,638.12,814,642.12,810,633.12,814" style="stroke:#8B0000;stroke-width:1;"/></g><!--link Corpus Explorer UI to GMN58--><g class="link" data-entity-1="Corpus Explorer UI" data-entity-2="GMN58" data-source-line="34" data-uid="lnk60" id="link_Corpus Explorer UI_GMN58"><path d="M695.01,913.85 C720.64,894.71 759.99,870.46 799.5,866 C831.02,862.44 1338.98,862.44 1370.5,866 C1424.05,872.04 1481.22,897.46 1517.71,916.39" fill="none" id="Corpus Explorer UI-GMN58" style="stroke:#77777788;stroke-width:4;stroke-dasharray:7,7;"/></g><!--link GMN61 to MacBERTh NLP Model--><g class="link" data-entity-1="GMN61" data-entity-2="MacBERTh NLP Model" data-source-line="39" data-uid="lnk63" id="link_GMN61_MacBERTh NLP Model"><path d="M1848.83,916.33 C1813.39,897.35 1757.8,871.9 1705.5,866 C1672.49,862.28 1439.51,862.28 1406.5,866 C1398.57,866.89 1396.36,866.91 1389,870 C1362.19,881.26 1334.63,899.17 1314.33,913.79" fill="none" id="GMN61-MacBERTh NLP Model" style="stroke:#77777788;stroke-width:4;stroke-dasharray:7,7;"/></g><!--SRC=[ZPF1JkCm48RlFCKit5ijGe83ub0AKYMeAYWFC2JJnAepOtaSIdV5kw_ZDcb0ZRe-H97dcz__ZCS00ByCPxRE2KQZSIQL4oOEEeuV4mpfoDMLFODXqB2hmsdC6KVMCEt08oGpPS48wzYJ4lgi7D8ya8OBqkRtDEgyPAGQCqwpBBv2QnJ_JnePxLQDzahJTMmBUgoWQm7yJP5cJJ1R5rvgpk_5Yh-zdMB0kpkmfYZ3bgoLpJ2xs3UouV63E2S_33zBJhPLVhSr3QDlivOhF14FWxFcmblM6LuVKF7HJSBWuYgjBlOe75xD7uBVt_VcM14ycYB4GrFWwsS7qNlPzBgtB4ssvdYNS4pzijlR-xXEw-RckFX1bYNGZrgFNaZYUeM-svZK5sy0y4qco0hExyMxMk7XqqMQFBpDplkbQ6z2SgFEubPXFwoKns3ApkE0T5d8EM3ZIQ7Mg6WuaCSqZB0neOHs8268M1sbn3WeoLdFewNLpk8pPfE7bsK9ywS5f95fBIx8h-9Zq1JfPECvy_qJYHQNz1bWEZaxc2k8ew502Yl2KFlc9tPgBXzamnQc57PFvxkpVm00]--></g></svg>