<svg xmlns="http://www.w3.org/2000/svg" xmlns:xlink="http://www.w3.org/1999/xlink" contentStyleType="text/css" data-diagram-type="CLASS" height="1025px" preserveAspectRatio="none" style="width:2038px;height:1025px;background:#FFFFFF;" version="1.1" viewBox="0 0 2038 1025" width="2038px" zoomAndPan="magnify"><defs/><g><!--cluster Data / Corpus--><g class="cluster" data-entity="Data . Corpus" data-source-line="3" data-uid="ent0002" id="cluster_Data . Corpus"><path d="M654.5,686 L746.5137,686 A3.75,3.75 0 0 1 749.0137,688.5 L756.0137,709.6094 L1315.5,709.6094 A2.5,2.5 0 0 1 1318,712.1094 L1318,783.5 A2.5,2.5 0 0 1 1315.5,786 L654.5,786 A2.5,2.5 0 0 1 652,783.5 L652,688.5 A2.5,2.5 0 0 1 654.5,686" fill="#FFFFE0" style="stroke:#000000;stroke-width:1.5;"/><line style="stroke:#000000;stroke-width:1.5;" x1="652" x2="756.0137" y1="709.6094" y2="709.6094"/><text fill="#000000" font-family="sans-serif" font-size="14" font-weight="bold" lengthAdjust="spacing" textLength="91.0137" x="656" y="702.5332">Data / Corpus</text></g><!--cluster Models--><g class="cluster" data-entity="Models" data-source-line="10" data-uid="ent0007" id="cluster_Models"><path d="M784.5,810 L833.7275,810 A3.75,3.75 0 0 1 836.2275,812.5 L843.2275,833.6094 L1385.5,833.6094 A2.5,2.5 0 0 1 1388,836.1094 L1388,907.5 A2.5,2.5 0 0 1 1385.5,910 L784.5,910 A2.5,2.5 0 0 1 782,907.5 L782,812.5 A2.5,2.5 0 0 1 784.5,810" fill="#ADD8E6" style="stroke:#000000;stroke-width:1.5;"/><line style="stroke:#000000;stroke-width:1.5;" x1="782" x2="843.2275" y1="833.6094" y2="833.6094"/><text fill="#000000" font-family="sans-serif" font-size="14" font-weight="bold" lengthAdjust="spacing" textLength="48.2275" x="786" y="826.5332">Models</text></g><!--cluster UI / Tools--><g class="cluster" data-entity="UI . Tools" data-source-line="16" data-uid="ent0011" id="cluster_UI . Tools"><path d="M170.5,810 L234.5,810 A3.75,3.75 0 0 1 237,812.5 L244,833.6094 L755.5,833.6094 A2.5,2.5 0 0 1 758,836.1094 L758,1015.5 A2.5,2.5 0 0 1 755.5,1018 L170.5,1018 A2.5,2.5 0 0 1 168,1015.5 L168,812.5 A2.5,2.5 0 0 1 170.5,810" fill="#90EE90" style="stroke:#000000;stroke-width:1.5;"/><line style="stroke:#000000;stroke-width:1.5;" x1="168" x2="244" y1="833.6094" y2="833.6094"/><text fill="#000000" font-family="sans-serif" font-size="14" font-weight="bold" lengthAdjust="spacing" textLength="63" x="172" y="826.5332">UI / Tools</text></g><!--cluster Input Sources--><g class="cluster" data-entity="Input Sources" data-source-line="0" data-uid="ent0016" id="cluster_Input Sources"><path d="M628.5,6 L722.8447,6 A3.75,3.75 0 0 1 725.3447,8.5 L732.3447,29.6094 L1805.5,29.6094 A2.5,2.5 0 0 1 1808,32.1094 L1808,103.5 A2.5,2.5 0 0 1 1805.5,106 L628.5,106 A2.5,2.5 0 0 1 626,103.5 L626,8.5 A2.5,2.5 0 0 1 628.5,6" fill="#FFB6C1" style="stroke:#000000;stroke-width:1.5;"/><line style="stroke:#000000;stroke-width:1.5;" x1="626" x2="732.3447" y1="29.6094" y2="29.6094"/><text fill="#000000" font-family="sans-serif" font-size="14" font-weight="bold" lengthAdjust="spacing" textLength="93.3447" x="630" y="22.5332">Input Sources</text></g><!--cluster Processing_Pipeline--><g class="cluster" data-entity="Processing_Pipeline" data-source-line="0" data-uid="ent0022" id="cluster_Processing_Pipeline"><path d="M939.5,130 L1077.4443,130 A3.75,3.75 0 0 1 1079.9443,132.5 L1086.9443,153.6094 L1317.5,153.6094 A2.5,2.5 0 0 1 1320,156.1094 L1320,659.5 A2.5,2.5 0 0 1 1317.5,662 L939.5,662 A2.5,2.5 0 0 1 937,659.5 L937,132.5 A2.5,2.5 0 0 1 939.5,130" fill="#E6E6FA" style="stroke:#000000;stroke-width:1.5;"/><line style="stroke:#000000;stroke-width:1.5;" x1="937" x2="1086.9443" y1="153.6094" y2="153.6094"/><text fill="#000000" font-family="sans-serif" font-size="14" font-weight="bold" lengthAdjust="spacing" textLength="136.9443" x="941" y="146.5332">Processing_Pipeline</text></g><!--class Training Corpus--><g class="entity" data-entity="Training Corpus" data-source-line="4" data-uid="ent0003" id="entity_Training Corpus"><rect fill="#F1F1F1" height="48" rx="2.5" ry="2.5" style="stroke:#181818;stroke-width:0.5;" width="131.5996" x="817" y="722"/><ellipse cx="832" cy="738" fill="#ADD1B2" rx="11" ry="11" style="stroke:#181818;stroke-width:1;"/><path d="M834.7656,733.875 Q834.9219,733.6563 835.1094,733.5469 Q835.2969,733.4375 835.5156,733.4375 Q835.8906,733.4375 836.125,733.6953 Q836.3594,733.9531 836.3594,734.5625 L836.3594,736.0156 Q836.3594,736.625 836.125,736.8906 Q835.8906,737.1563 835.5156,737.1563 Q835.1719,737.1563 834.9688,736.9531 Q834.7656,736.7656 834.6563,736.25 Q834.6094,735.8906 834.4219,735.7031 Q834.0938,735.3281 833.4844,735.1094 Q832.875,734.8906 832.25,734.8906 Q831.4844,734.8906 830.8516,735.2188 Q830.2188,735.5469 829.7266,736.2969 Q829.2344,737.0469 829.2344,738.0781 L829.2344,739.1719 Q829.2344,740.4063 830.125,741.2266 Q831.0156,742.0469 832.6094,742.0469 Q833.5469,742.0469 834.2031,741.7969 Q834.5938,741.6406 835.0156,741.2031 Q835.2813,740.9375 835.4297,740.8594 Q835.5781,740.7813 835.7813,740.7813 Q836.1094,740.7813 836.3672,741.0391 Q836.625,741.2969 836.625,741.6406 Q836.625,741.9844 836.2813,742.3906 Q835.7813,742.9688 834.9844,743.2969 Q833.9063,743.75 832.6094,743.75 Q831.0938,743.75 829.8906,743.125 Q828.9063,742.625 828.2188,741.5547 Q827.5313,740.4844 827.5313,739.2031 L827.5313,738.0469 Q827.5313,736.7188 828.1484,735.5703 Q828.7656,734.4219 829.8594,733.8047 Q830.9531,733.1875 832.1875,733.1875 Q832.9219,733.1875 833.5703,733.3516 Q834.2188,733.5156 834.7656,733.875 Z " fill="#000000"/><text fill="#000000" font-family="sans-serif" font-size="14" lengthAdjust="spacing" textLength="99.5996" x="846" y="743.7285">Training Corpus</text><line style="stroke:#181818;stroke-width:0.5;" x1="818" x2="947.5996" y1="754" y2="754"/><line style="stroke:#181818;stroke-width:0.5;" x1="818" x2="947.5996" y1="762" y2="762"/></g><!--class TEI Repository--><g class="entity" data-entity="TEI Repository" data-source-line="5" data-uid="ent0004" id="entity_TEI Repository"><rect fill="#F1F1F1" height="48" rx="2.5" ry="2.5" style="stroke:#181818;stroke-width:0.5;" width="124.5859" x="984.5" y="722"/><ellipse cx="999.5" cy="738" fill="#ADD1B2" rx="11" ry="11" style="stroke:#181818;stroke-width:1;"/><path d="M1002.2656,733.875 Q1002.4219,733.6563 1002.6094,733.5469 Q1002.7969,733.4375 1003.0156,733.4375 Q1003.3906,733.4375 1003.625,733.6953 Q1003.8594,733.9531 1003.8594,734.5625 L1003.8594,736.0156 Q1003.8594,736.625 1003.625,736.8906 Q1003.3906,737.1563 1003.0156,737.1563 Q1002.6719,737.1563 1002.4688,736.9531 Q1002.2656,736.7656 1002.1563,736.25 Q1002.1094,735.8906 1001.9219,735.7031 Q1001.5938,735.3281 1000.9844,735.1094 Q1000.375,734.8906 999.75,734.8906 Q998.9844,734.8906 998.3516,735.2188 Q997.7188,735.5469 997.2266,736.2969 Q996.7344,737.0469 996.7344,738.0781 L996.7344,739.1719 Q996.7344,740.4063 997.625,741.2266 Q998.5156,742.0469 1000.1094,742.0469 Q1001.0469,742.0469 1001.7031,741.7969 Q1002.0938,741.6406 1002.5156,741.2031 Q1002.7813,740.9375 1002.9297,740.8594 Q1003.0781,740.7813 1003.2813,740.7813 Q1003.6094,740.7813 1003.8672,741.0391 Q1004.125,741.2969 1004.125,741.6406 Q1004.125,741.9844 1003.7813,742.3906 Q1003.2813,742.9688 1002.4844,743.2969 Q1001.4063,743.75 1000.1094,743.75 Q998.5938,743.75 997.3906,743.125 Q996.4063,742.625 995.7188,741.5547 Q995.0313,740.4844 995.0313,739.2031 L995.0313,738.0469 Q995.0313,736.7188 995.6484,735.5703 Q996.2656,734.4219 997.3594,733.8047 Q998.4531,733.1875 999.6875,733.1875 Q1000.4219,733.1875 1001.0703,733.3516 Q1001.7188,733.5156 1002.2656,733.875 Z " fill="#000000"/><text fill="#000000" font-family="sans-serif" font-size="14" lengthAdjust="spacing" textLength="92.5859" x="1013.5" y="743.7285">TEI Repository</text><line style="stroke:#181818;stroke-width:0.5;" x1="985.5" x2="1108.0859" y1="754" y2="754"/><line style="stroke:#181818;stroke-width:0.5;" x1="985.5" x2="1108.0859" y1="762" y2="762"/></g><!--class Normalised Text DB--><g class="entity" data-entity="Normalised Text DB" data-source-line="6" data-uid="ent0005" id="entity_Normalised Text DB"><rect fill="#F1F1F1" height="48" rx="2.5" ry="2.5" style="stroke:#181818;stroke-width:0.5;" width="157.2549" x="1144.5" y="722"/><ellipse cx="1159.5" cy="738" fill="#ADD1B2" rx="11" ry="11" style="stroke:#181818;stroke-width:1;"/><path d="M1162.2656,733.875 Q1162.4219,733.6563 1162.6094,733.5469 Q1162.7969,733.4375 1163.0156,733.4375 Q1163.3906,733.4375 1163.625,733.6953 Q1163.8594,733.9531 1163.8594,734.5625 L1163.8594,736.0156 Q1163.8594,736.625 1163.625,736.8906 Q1163.3906,737.1563 1163.0156,737.1563 Q1162.6719,737.1563 1162.4688,736.9531 Q1162.2656,736.7656 1162.1563,736.25 Q1162.1094,735.8906 1161.9219,735.7031 Q1161.5938,735.3281 1160.9844,735.1094 Q1160.375,734.8906 1159.75,734.8906 Q1158.9844,734.8906 1158.3516,735.2188 Q1157.7188,735.5469 1157.2266,736.2969 Q1156.7344,737.0469 1156.7344,738.0781 L1156.7344,739.1719 Q1156.7344,740.4063 1157.625,741.2266 Q1158.5156,742.0469 1160.1094,742.0469 Q1161.0469,742.0469 1161.7031,741.7969 Q1162.0938,741.6406 1162.5156,741.2031 Q1162.7813,740.9375 1162.9297,740.8594 Q1163.0781,740.7813 1163.2813,740.7813 Q1163.6094,740.7813 1163.8672,741.0391 Q1164.125,741.2969 1164.125,741.6406 Q1164.125,741.9844 1163.7813,742.3906 Q1163.2813,742.9688 1162.4844,743.2969 Q1161.4063,743.75 1160.1094,743.75 Q1158.5938,743.75 1157.3906,743.125 Q1156.4063,742.625 1155.7188,741.5547 Q1155.0313,740.4844 1155.0313,739.2031 L1155.0313,738.0469 Q1155.0313,736.7188 1155.6484,735.5703 Q1156.2656,734.4219 1157.3594,733.8047 Q1158.4531,733.1875 1159.6875,733.1875 Q1160.4219,733.1875 1161.0703,733.3516 Q1161.7188,733.5156 1162.2656,733.875 Z " fill="#000000"/><text fill="#000000" font-family="sans-serif" font-size="14" lengthAdjust="spacing" textLength="125.2549" x="1173.5" y="743.7285">Normalised Text DB</text><line style="stroke:#181818;stroke-width:0.5;" x1="1145.5" x2="1300.7549" y1="754" y2="754"/><line style="stroke:#181818;stroke-width:0.5;" x1="1145.5" x2="1300.7549" y1="762" y2="762"/></g><!--class Metadata DB--><g class="entity" data-entity="Metadata DB" data-source-line="7" data-uid="ent0006" id="entity_Metadata DB"><rect fill="#F1F1F1" height="48" rx="2.5" ry="2.5" style="stroke:#181818;stroke-width:0.5;" width="113.71" x="668" y="722"/><ellipse cx="683" cy="738" fill="#ADD1B2" rx="11" ry="11" style="stroke:#181818;stroke-width:1;"/><path d="M685.7656,733.875 Q685.9219,733.6563 686.1094,733.5469 Q686.2969,733.4375 686.5156,733.4375 Q686.8906,733.4375 687.125,733.6953 Q687.3594,733.9531 687.3594,734.5625 L687.3594,736.0156 Q687.3594,736.625 687.125,736.8906 Q686.8906,737.1563 686.5156,737.1563 Q686.1719,737.1563 685.9688,736.9531 Q685.7656,736.7656 685.6563,736.25 Q685.6094,735.8906 685.4219,735.7031 Q685.0938,735.3281 684.4844,735.1094 Q683.875,734.8906 683.25,734.8906 Q682.4844,734.8906 681.8516,735.2188 Q681.2188,735.5469 680.7266,736.2969 Q680.2344,737.0469 680.2344,738.0781 L680.2344,739.1719 Q680.2344,740.4063 681.125,741.2266 Q682.0156,742.0469 683.6094,742.0469 Q684.5469,742.0469 685.2031,741.7969 Q685.5938,741.6406 686.0156,741.2031 Q686.2813,740.9375 686.4297,740.8594 Q686.5781,740.7813 686.7813,740.7813 Q687.1094,740.7813 687.3672,741.0391 Q687.625,741.2969 687.625,741.6406 Q687.625,741.9844 687.2813,742.3906 Q686.7813,742.9688 685.9844,743.2969 Q684.9063,743.75 683.6094,743.75 Q682.0938,743.75 680.8906,743.125 Q679.9063,742.625 679.2188,741.5547 Q678.5313,740.4844 678.5313,739.2031 L678.5313,738.0469 Q678.5313,736.7188 679.1484,735.5703 Q679.7656,734.4219 680.8594,733.8047 Q681.9531,733.1875 683.1875,733.1875 Q683.9219,733.1875 684.5703,733.3516 Q685.2188,733.5156 685.7656,733.875 Z " fill="#000000"/><text fill="#000000" font-family="sans-serif" font-size="14" lengthAdjust="spacing" textLength="81.71" x="697" y="743.7285">Metadata DB</text><line style="stroke:#181818;stroke-width:0.5;" x1="669" x2="780.71" y1="754" y2="754"/><line style="stroke:#181818;stroke-width:0.5;" x1="669" x2="780.71" y1="762" y2="762"/></g><!--class MacBERTh NLP Model--><g class="entity" data-entity="MacBERTh NLP Model" data-source-line="11" data-uid="ent0008" id="entity_MacBERTh NLP Model"><rect fill="#F1F1F1" height="48" rx="2.5" ry="2.5" style="stroke:#181818;stroke-width:0.5;" width="176.7168" x="1194.5" y="846"/><ellipse cx="1209.5" cy="862" fill="#ADD1B2" rx="11" ry="11" style="stroke:#181818;stroke-width:1;"/><path d="M1212.2656,857.875 Q1212.4219,857.6563 1212.6094,857.5469 Q1212.7969,857.4375 1213.0156,857.4375 Q1213.3906,857.4375 1213.625,857.6953 Q1213.8594,857.9531 1213.8594,858.5625 L1213.8594,860.0156 Q1213.8594,860.625 1213.625,860.8906 Q1213.3906,861.1563 1213.0156,861.1563 Q1212.6719,861.1563 1212.4688,860.9531 Q1212.2656,860.7656 1212.1563,860.25 Q1212.1094,859.8906 1211.9219,859.7031 Q1211.5938,859.3281 1210.9844,859.1094 Q1210.375,858.8906 1209.75,858.8906 Q1208.9844,858.8906 1208.3516,859.2188 Q1207.7188,859.5469 1207.2266,860.2969 Q1206.7344,861.0469 1206.7344,862.0781 L1206.7344,863.1719 Q1206.7344,864.4063 1207.625,865.2266 Q1208.5156,866.0469 1210.1094,866.0469 Q1211.0469,866.0469 1211.7031,865.7969 Q1212.0938,865.6406 1212.5156,865.2031 Q1212.7813,864.9375 1212.9297,864.8594 Q1213.0781,864.7813 1213.2813,864.7813 Q1213.6094,864.7813 1213.8672,865.0391 Q1214.125,865.2969 1214.125,865.6406 Q1214.125,865.9844 1213.7813,866.3906 Q1213.2813,866.9688 1212.4844,867.2969 Q1211.4063,867.75 1210.1094,867.75 Q1208.5938,867.75 1207.3906,867.125 Q1206.4063,866.625 1205.7188,865.5547 Q1205.0313,864.4844 1205.0313,863.2031 L1205.0313,862.0469 Q1205.0313,860.7188 1205.6484,859.5703 Q1206.2656,858.4219 1207.3594,857.8047 Q1208.4531,857.1875 1209.6875,857.1875 Q1210.4219,857.1875 1211.0703,857.3516 Q1211.7188,857.5156 1212.2656,857.875 Z " fill="#000000"/><text fill="#000000" font-family="sans-serif" font-size="14" lengthAdjust="spacing" textLength="144.7168" x="1223.5" y="867.7285">MacBERTh NLP Model</text><line style="stroke:#181818;stroke-width:0.5;" x1="1195.5" x2="1370.2168" y1="878" y2="878"/><line style="stroke:#181818;stroke-width:0.5;" x1="1195.5" x2="1370.2168" y1="886" y2="886"/></g><!--class fastText Global Index--><g class="entity" data-entity="fastText Global Index" data-source-line="12" data-uid="ent0009" id="entity_fastText Global Index"><rect fill="#F1F1F1" height="48" rx="2.5" ry="2.5" style="stroke:#181818;stroke-width:0.5;" width="164.2891" x="995" y="846"/><ellipse cx="1010" cy="862" fill="#ADD1B2" rx="11" ry="11" style="stroke:#181818;stroke-width:1;"/><path d="M1012.7656,857.875 Q1012.9219,857.6563 1013.1094,857.5469 Q1013.2969,857.4375 1013.5156,857.4375 Q1013.8906,857.4375 1014.125,857.6953 Q1014.3594,857.9531 1014.3594,858.5625 L1014.3594,860.0156 Q1014.3594,860.625 1014.125,860.8906 Q1013.8906,861.1563 1013.5156,861.1563 Q1013.1719,861.1563 1012.9688,860.9531 Q1012.7656,860.7656 1012.6563,860.25 Q1012.6094,859.8906 1012.4219,859.7031 Q1012.0938,859.3281 1011.4844,859.1094 Q1010.875,858.8906 1010.25,858.8906 Q1009.4844,858.8906 1008.8516,859.2188 Q1008.2188,859.5469 1007.7266,860.2969 Q1007.2344,861.0469 1007.2344,862.0781 L1007.2344,863.1719 Q1007.2344,864.4063 1008.125,865.2266 Q1009.0156,866.0469 1010.6094,866.0469 Q1011.5469,866.0469 1012.2031,865.7969 Q1012.5938,865.6406 1013.0156,865.2031 Q1013.2813,864.9375 1013.4297,864.8594 Q1013.5781,864.7813 1013.7813,864.7813 Q1014.1094,864.7813 1014.3672,865.0391 Q1014.625,865.2969 1014.625,865.6406 Q1014.625,865.9844 1014.2813,866.3906 Q1013.7813,866.9688 1012.9844,867.2969 Q1011.9063,867.75 1010.6094,867.75 Q1009.0938,867.75 1007.8906,867.125 Q1006.9063,866.625 1006.2188,865.5547 Q1005.5313,864.4844 1005.5313,863.2031 L1005.5313,862.0469 Q1005.5313,860.7188 1006.1484,859.5703 Q1006.7656,858.4219 1007.8594,857.8047 Q1008.9531,857.1875 1010.1875,857.1875 Q1010.9219,857.1875 1011.5703,857.3516 Q1012.2188,857.5156 1012.7656,857.875 Z " fill="#000000"/><text fill="#000000" font-family="sans-serif" font-size="14" lengthAdjust="spacing" textLength="132.2891" x="1024" y="867.7285">fastText Global Index</text><line style="stroke:#181818;stroke-width:0.5;" x1="996" x2="1158.2891" y1="878" y2="878"/><line style="stroke:#181818;stroke-width:0.5;" x1="996" x2="1158.2891" y1="886" y2="886"/></g><!--class fastText Slices Index--><g class="entity" data-entity="fastText Slices Index" data-source-line="13" data-uid="ent0010" id="entity_fastText Slices Index"><rect fill="#F1F1F1" height="48" rx="2.5" ry="2.5" style="stroke:#181818;stroke-width:0.5;" width="161.165" x="798.5" y="846"/><ellipse cx="813.5" cy="862" fill="#ADD1B2" rx="11" ry="11" style="stroke:#181818;stroke-width:1;"/><path d="M816.2656,857.875 Q816.4219,857.6563 816.6094,857.5469 Q816.7969,857.4375 817.0156,857.4375 Q817.3906,857.4375 817.625,857.6953 Q817.8594,857.9531 817.8594,858.5625 L817.8594,860.0156 Q817.8594,860.625 817.625,860.8906 Q817.3906,861.1563 817.0156,861.1563 Q816.6719,861.1563 816.4688,860.9531 Q816.2656,860.7656 816.1563,860.25 Q816.1094,859.8906 815.9219,859.7031 Q815.5938,859.3281 814.9844,859.1094 Q814.375,858.8906 813.75,858.8906 Q812.9844,858.8906 812.3516,859.2188 Q811.7188,859.5469 811.2266,860.2969 Q810.7344,861.0469 810.7344,862.0781 L810.7344,863.1719 Q810.7344,864.4063 811.625,865.2266 Q812.5156,866.0469 814.1094,866.0469 Q815.0469,866.0469 815.7031,865.7969 Q816.0938,865.6406 816.5156,865.2031 Q816.7813,864.9375 816.9297,864.8594 Q817.0781,864.7813 817.2813,864.7813 Q817.6094,864.7813 817.8672,865.0391 Q818.125,865.2969 818.125,865.6406 Q818.125,865.9844 817.7813,866.3906 Q817.2813,866.9688 816.4844,867.2969 Q815.4063,867.75 814.1094,867.75 Q812.5938,867.75 811.3906,867.125 Q810.4063,866.625 809.7188,865.5547 Q809.0313,864.4844 809.0313,863.2031 L809.0313,862.0469 Q809.0313,860.7188 809.6484,859.5703 Q810.2656,858.4219 811.3594,857.8047 Q812.4531,857.1875 813.6875,857.1875 Q814.4219,857.1875 815.0703,857.3516 Q815.7188,857.5156 816.2656,857.875 Z " fill="#000000"/><text fill="#000000" font-family="sans-serif" font-size="14" lengthAdjust="spacing" textLength="129.165" x="827.5" y="867.7285">fastText Slices Index</text><line style="stroke:#181818;stroke-width:0.5;" x1="799.5" x2="958.665" y1="878" y2="878"/><line style="stroke:#181818;stroke-width:0.5;" x1="799.5" x2="958.665" y1="886" y2="886"/></g><!--class Corpus Explorer UI--><g class="entity" data-entity="Corpus Explorer UI" data-source-line="17" data-uid="ent0012" id="entity_Corpus Explorer UI"><rect fill="#F1F1F1" height="48" rx="2.5" ry="2.5" style="stroke:#181818;stroke-width:0.5;" width="151.041" x="590.5" y="846"/><ellipse cx="605.5" cy="862" fill="#ADD1B2" rx="11" ry="11" style="stroke:#181818;stroke-width:1;"/><path d="M608.2656,857.875 Q608.4219,857.6563 608.6094,857.5469 Q608.7969,857.4375 609.0156,857.4375 Q609.3906,857.4375 609.625,857.6953 Q609.8594,857.9531 609.8594,858.5625 L609.8594,860.0156 Q609.8594,860.625 609.625,860.8906 Q609.3906,861.1563 609.0156,861.1563 Q608.6719,861.1563 608.4688,860.9531 Q608.2656,860.7656 608.1563,860.25 Q608.1094,859.8906 607.9219,859.7031 Q607.5938,859.3281 606.9844,859.1094 Q606.375,858.8906 605.75,858.8906 Q604.9844,858.8906 604.3516,859.2188 Q603.7188,859.5469 603.2266,860.2969 Q602.7344,861.0469 602.7344,862.0781 L602.7344,863.1719 Q602.7344,864.4063 603.625,865.2266 Q604.5156,866.0469 606.1094,866.0469 Q607.0469,866.0469 607.7031,865.7969 Q608.0938,865.6406 608.5156,865.2031 Q608.7813,864.9375 608.9297,864.8594 Q609.0781,864.7813 609.2813,864.7813 Q609.6094,864.7813 609.8672,865.0391 Q610.125,865.2969 610.125,865.6406 Q610.125,865.9844 609.7813,866.3906 Q609.2813,866.9688 608.4844,867.2969 Q607.4063,867.75 606.1094,867.75 Q604.5938,867.75 603.3906,867.125 Q602.4063,866.625 601.7188,865.5547 Q601.0313,864.4844 601.0313,863.2031 L601.0313,862.0469 Q601.0313,860.7188 601.6484,859.5703 Q602.2656,858.4219 603.3594,857.8047 Q604.4531,857.1875 605.6875,857.1875 Q606.4219,857.1875 607.0703,857.3516 Q607.7188,857.5156 608.2656,857.875 Z " fill="#000000"/><text fill="#000000" font-family="sans-serif" font-size="14" lengthAdjust="spacing" textLength="119.041" x="619.5" y="867.7285">Corpus Explorer UI</text><line style="stroke:#181818;stroke-width:0.5;" x1="591.5" x2="740.541" y1="878" y2="878"/><line style="stroke:#181818;stroke-width:0.5;" x1="591.5" x2="740.541" y1="886" y2="886"/></g><!--class WYSIWYG Editor?--><g class="entity" data-entity="WYSIWYG Editor." data-source-line="18" data-uid="ent0013" id="entity_WYSIWYG Editor."><rect fill="#F1F1F1" height="48" rx="2.5" ry="2.5" style="stroke:#181818;stroke-width:0.5;" width="149.4688" x="184.5" y="846"/><ellipse cx="199.5" cy="862" fill="#ADD1B2" rx="11" ry="11" style="stroke:#181818;stroke-width:1;"/><path d="M202.2656,857.875 Q202.4219,857.6563 202.6094,857.5469 Q202.7969,857.4375 203.0156,857.4375 Q203.3906,857.4375 203.625,857.6953 Q203.8594,857.9531 203.8594,858.5625 L203.8594,860.0156 Q203.8594,860.625 203.625,860.8906 Q203.3906,861.1563 203.0156,861.1563 Q202.6719,861.1563 202.4688,860.9531 Q202.2656,860.7656 202.1563,860.25 Q202.1094,859.8906 201.9219,859.7031 Q201.5938,859.3281 200.9844,859.1094 Q200.375,858.8906 199.75,858.8906 Q198.9844,858.8906 198.3516,859.2188 Q197.7188,859.5469 197.2266,860.2969 Q196.7344,861.0469 196.7344,862.0781 L196.7344,863.1719 Q196.7344,864.4063 197.625,865.2266 Q198.5156,866.0469 200.1094,866.0469 Q201.0469,866.0469 201.7031,865.7969 Q202.0938,865.6406 202.5156,865.2031 Q202.7813,864.9375 202.9297,864.8594 Q203.0781,864.7813 203.2813,864.7813 Q203.6094,864.7813 203.8672,865.0391 Q204.125,865.2969 204.125,865.6406 Q204.125,865.9844 203.7813,866.3906 Q203.2813,866.9688 202.4844,867.2969 Q201.4063,867.75 200.1094,867.75 Q198.5938,867.75 197.3906,867.125 Q196.4063,866.625 195.7188,865.5547 Q195.0313,864.4844 195.0313,863.2031 L195.0313,862.0469 Q195.0313,860.7188 195.6484,859.5703 Q196.2656,858.4219 197.3594,857.8047 Q198.4531,857.1875 199.6875,857.1875 Q200.4219,857.1875 201.0703,857.3516 Q201.7188,857.5156 202.2656,857.875 Z " fill="#000000"/><text fill="#000000" font-family="sans-serif" font-size="14" lengthAdjust="spacing" textLength="117.4688" x="213.5" y="867.7285">WYSIWYG Editor?</text><line style="stroke:#181818;stroke-width:0.5;" x1="185.5" x2="332.9688" y1="878" y2="878"/><line style="stroke:#181818;stroke-width:0.5;" x1="185.5" x2="332.9688" y1="886" y2="886"/></g><!--class Novelty Detection (IVNF)--><g class="entity" data-entity="Novelty Detection .IVNF." data-source-line="19" data-uid="ent0014" id="entity_Novelty Detection .IVNF."><rect fill="#F1F1F1" height="48" rx="2.5" ry="2.5" style="stroke:#181818;stroke-width:0.5;" width="186.8203" x="368.5" y="846"/><ellipse cx="383.5" cy="862" fill="#ADD1B2" rx="11" ry="11" style="stroke:#181818;stroke-width:1;"/><path d="M386.2656,857.875 Q386.4219,857.6563 386.6094,857.5469 Q386.7969,857.4375 387.0156,857.4375 Q387.3906,857.4375 387.625,857.6953 Q387.8594,857.9531 387.8594,858.5625 L387.8594,860.0156 Q387.8594,860.625 387.625,860.8906 Q387.3906,861.1563 387.0156,861.1563 Q386.6719,861.1563 386.4688,860.9531 Q386.2656,860.7656 386.1563,860.25 Q386.1094,859.8906 385.9219,859.7031 Q385.5938,859.3281 384.9844,859.1094 Q384.375,858.8906 383.75,858.8906 Q382.9844,858.8906 382.3516,859.2188 Q381.7188,859.5469 381.2266,860.2969 Q380.7344,861.0469 380.7344,862.0781 L380.7344,863.1719 Q380.7344,864.4063 381.625,865.2266 Q382.5156,866.0469 384.1094,866.0469 Q385.0469,866.0469 385.7031,865.7969 Q386.0938,865.6406 386.5156,865.2031 Q386.7813,864.9375 386.9297,864.8594 Q387.0781,864.7813 387.2813,864.7813 Q387.6094,864.7813 387.8672,865.0391 Q388.125,865.2969 388.125,865.6406 Q388.125,865.9844 387.7813,866.3906 Q387.2813,866.9688 386.4844,867.2969 Q385.4063,867.75 384.1094,867.75 Q382.5938,867.75 381.3906,867.125 Q380.4063,866.625 379.7188,865.5547 Q379.0313,864.4844 379.0313,863.2031 L379.0313,862.0469 Q379.0313,860.7188 379.6484,859.5703 Q380.2656,858.4219 381.3594,857.8047 Q382.4531,857.1875 383.6875,857.1875 Q384.4219,857.1875 385.0703,857.3516 Q385.7188,857.5156 386.2656,857.875 Z " fill="#000000"/><text fill="#000000" font-family="sans-serif" font-size="14" lengthAdjust="spacing" textLength="154.8203" x="397.5" y="867.7285">Novelty Detection (IVNF)</text><line style="stroke:#181818;stroke-width:0.5;" x1="369.5" x2="554.3203" y1="878" y2="878"/><line style="stroke:#181818;stroke-width:0.5;" x1="369.5" x2="554.3203" y1="886" y2="886"/></g><!--class Diachornic Statistics and Graphing Tools--><g class="entity" data-entity="Diachornic Statistics and Graphing Tools" data-source-line="20" data-uid="ent0015" id="entity_Diachornic Statistics and Graphing Tools"><rect fill="#F1F1F1" height="48" rx="2.5" ry="2.5" style="stroke:#181818;stroke-width:0.5;" width="284.8955" x="184.5" y="954"/><ellipse cx="199.5" cy="970" fill="#ADD1B2" rx="11" ry="11" style="stroke:#181818;stroke-width:1;"/><path d="M202.2656,965.875 Q202.4219,965.6563 202.6094,965.5469 Q202.7969,965.4375 203.0156,965.4375 Q203.3906,965.4375 203.625,965.6953 Q203.8594,965.9531 203.8594,966.5625 L203.8594,968.0156 Q203.8594,968.625 203.625,968.8906 Q203.3906,969.1563 203.0156,969.1563 Q202.6719,969.1563 202.4688,968.9531 Q202.2656,968.7656 202.1563,968.25 Q202.1094,967.8906 201.9219,967.7031 Q201.5938,967.3281 200.9844,967.1094 Q200.375,966.8906 199.75,966.8906 Q198.9844,966.8906 198.3516,967.2188 Q197.7188,967.5469 197.2266,968.2969 Q196.7344,969.0469 196.7344,970.0781 L196.7344,971.1719 Q196.7344,972.4063 197.625,973.2266 Q198.5156,974.0469 200.1094,974.0469 Q201.0469,974.0469 201.7031,973.7969 Q202.0938,973.6406 202.5156,973.2031 Q202.7813,972.9375 202.9297,972.8594 Q203.0781,972.7813 203.2813,972.7813 Q203.6094,972.7813 203.8672,973.0391 Q204.125,973.2969 204.125,973.6406 Q204.125,973.9844 203.7813,974.3906 Q203.2813,974.9688 202.4844,975.2969 Q201.4063,975.75 200.1094,975.75 Q198.5938,975.75 197.3906,975.125 Q196.4063,974.625 195.7188,973.5547 Q195.0313,972.4844 195.0313,971.2031 L195.0313,970.0469 Q195.0313,968.7188 195.6484,967.5703 Q196.2656,966.4219 197.3594,965.8047 Q198.4531,965.1875 199.6875,965.1875 Q200.4219,965.1875 201.0703,965.3516 Q201.7188,965.5156 202.2656,965.875 Z " fill="#000000"/><text fill="#000000" font-family="sans-serif" font-size="14" lengthAdjust="spacing" textLength="252.8955" x="213.5" y="975.7285">Diachornic Statistics and Graphing Tools</text><line style="stroke:#181818;stroke-width:0.5;" x1="185.5" x2="468.3955" y1="986" y2="986"/><line style="stroke:#181818;stroke-width:0.5;" x1="185.5" x2="468.3955" y1="994" y2="994"/></g><!--class EEBO HTML--><g class="entity" data-entity="EEBO HTML" data-source-line="1" data-uid="ent0017" id="entity_EEBO HTML"><rect fill="#F1F1F1" height="48" rx="2.5" ry="2.5" style="stroke:#181818;stroke-width:0.5;" width="112.9033" x="1678.5" y="42"/><ellipse cx="1693.5" cy="58" fill="#ADD1B2" rx="11" ry="11" style="stroke:#181818;stroke-width:1;"/><path d="M1696.2656,53.875 Q1696.4219,53.6563 1696.6094,53.5469 Q1696.7969,53.4375 1697.0156,53.4375 Q1697.3906,53.4375 1697.625,53.6953 Q1697.8594,53.9531 1697.8594,54.5625 L1697.8594,56.0156 Q1697.8594,56.625 1697.625,56.8906 Q1697.3906,57.1563 1697.0156,57.1563 Q1696.6719,57.1563 1696.4688,56.9531 Q1696.2656,56.7656 1696.1563,56.25 Q1696.1094,55.8906 1695.9219,55.7031 Q1695.5938,55.3281 1694.9844,55.1094 Q1694.375,54.8906 1693.75,54.8906 Q1692.9844,54.8906 1692.3516,55.2188 Q1691.7188,55.5469 1691.2266,56.2969 Q1690.7344,57.0469 1690.7344,58.0781 L1690.7344,59.1719 Q1690.7344,60.4063 1691.625,61.2266 Q1692.5156,62.0469 1694.1094,62.0469 Q1695.0469,62.0469 1695.7031,61.7969 Q1696.0938,61.6406 1696.5156,61.2031 Q1696.7813,60.9375 1696.9297,60.8594 Q1697.0781,60.7813 1697.2813,60.7813 Q1697.6094,60.7813 1697.8672,61.0391 Q1698.125,61.2969 1698.125,61.6406 Q1698.125,61.9844 1697.7813,62.3906 Q1697.2813,62.9688 1696.4844,63.2969 Q1695.4063,63.75 1694.1094,63.75 Q1692.5938,63.75 1691.3906,63.125 Q1690.4063,62.625 1689.7188,61.5547 Q1689.0313,60.4844 1689.0313,59.2031 L1689.0313,58.0469 Q1689.0313,56.7188 1689.6484,55.5703 Q1690.2656,54.4219 1691.3594,53.8047 Q1692.4531,53.1875 1693.6875,53.1875 Q1694.4219,53.1875 1695.0703,53.3516 Q1695.7188,53.5156 1696.2656,53.875 Z " fill="#000000"/><text fill="#000000" font-family="sans-serif" font-size="14" lengthAdjust="spacing" textLength="80.9033" x="1707.5" y="63.7285">EEBO HTML</text><line style="stroke:#181818;stroke-width:0.5;" x1="1679.5" x2="1790.4033" y1="74" y2="74"/><line style="stroke:#181818;stroke-width:0.5;" x1="1679.5" x2="1790.4033" y1="82" y2="82"/></g><!--class EEBO XML--><g class="entity" data-entity="EEBO XML" data-source-line="2" data-uid="ent0018" id="entity_EEBO XML"><rect fill="#F1F1F1" height="48" rx="2.5" ry="2.5" style="stroke:#181818;stroke-width:0.5;" width="103.5791" x="1539" y="42"/><ellipse cx="1554" cy="58" fill="#ADD1B2" rx="11" ry="11" style="stroke:#181818;stroke-width:1;"/><path d="M1556.7656,53.875 Q1556.9219,53.6563 1557.1094,53.5469 Q1557.2969,53.4375 1557.5156,53.4375 Q1557.8906,53.4375 1558.125,53.6953 Q1558.3594,53.9531 1558.3594,54.5625 L1558.3594,56.0156 Q1558.3594,56.625 1558.125,56.8906 Q1557.8906,57.1563 1557.5156,57.1563 Q1557.1719,57.1563 1556.9688,56.9531 Q1556.7656,56.7656 1556.6563,56.25 Q1556.6094,55.8906 1556.4219,55.7031 Q1556.0938,55.3281 1555.4844,55.1094 Q1554.875,54.8906 1554.25,54.8906 Q1553.4844,54.8906 1552.8516,55.2188 Q1552.2188,55.5469 1551.7266,56.2969 Q1551.2344,57.0469 1551.2344,58.0781 L1551.2344,59.1719 Q1551.2344,60.4063 1552.125,61.2266 Q1553.0156,62.0469 1554.6094,62.0469 Q1555.5469,62.0469 1556.2031,61.7969 Q1556.5938,61.6406 1557.0156,61.2031 Q1557.2813,60.9375 1557.4297,60.8594 Q1557.5781,60.7813 1557.7813,60.7813 Q1558.1094,60.7813 1558.3672,61.0391 Q1558.625,61.2969 1558.625,61.6406 Q1558.625,61.9844 1558.2813,62.3906 Q1557.7813,62.9688 1556.9844,63.2969 Q1555.9063,63.75 1554.6094,63.75 Q1553.0938,63.75 1551.8906,63.125 Q1550.9063,62.625 1550.2188,61.5547 Q1549.5313,60.4844 1549.5313,59.2031 L1549.5313,58.0469 Q1549.5313,56.7188 1550.1484,55.5703 Q1550.7656,54.4219 1551.8594,53.8047 Q1552.9531,53.1875 1554.1875,53.1875 Q1554.9219,53.1875 1555.5703,53.3516 Q1556.2188,53.5156 1556.7656,53.875 Z " fill="#000000"/><text fill="#000000" font-family="sans-serif" font-size="14" lengthAdjust="spacing" textLength="71.5791" x="1568" y="63.7285">EEBO XML</text><line style="stroke:#181818;stroke-width:0.5;" x1="1540" x2="1641.5791" y1="74" y2="74"/><line style="stroke:#181818;stroke-width:0.5;" x1="1540" x2="1641.5791" y1="82" y2="82"/></g><!--class EEBO Images (TIFF/JPEG)--><g class="entity" data-entity="EEBO Images .TIFF.JPEG." data-source-line="3" data-uid="ent0019" id="entity_EEBO Images .TIFF.JPEG."><rect fill="#F1F1F1" height="48" rx="2.5" ry="2.5" style="stroke:#181818;stroke-width:0.5;" width="203.917" x="642" y="42"/><ellipse cx="657" cy="58" fill="#ADD1B2" rx="11" ry="11" style="stroke:#181818;stroke-width:1;"/><path d="M659.7656,53.875 Q659.9219,53.6563 660.1094,53.5469 Q660.2969,53.4375 660.5156,53.4375 Q660.8906,53.4375 661.125,53.6953 Q661.3594,53.9531 661.3594,54.5625 L661.3594,56.0156 Q661.3594,56.625 661.125,56.8906 Q660.8906,57.1563 660.5156,57.1563 Q660.1719,57.1563 659.9688,56.9531 Q659.7656,56.7656 659.6563,56.25 Q659.6094,55.8906 659.4219,55.7031 Q659.0938,55.3281 658.4844,55.1094 Q657.875,54.8906 657.25,54.8906 Q656.4844,54.8906 655.8516,55.2188 Q655.2188,55.5469 654.7266,56.2969 Q654.2344,57.0469 654.2344,58.0781 L654.2344,59.1719 Q654.2344,60.4063 655.125,61.2266 Q656.0156,62.0469 657.6094,62.0469 Q658.5469,62.0469 659.2031,61.7969 Q659.5938,61.6406 660.0156,61.2031 Q660.2813,60.9375 660.4297,60.8594 Q660.5781,60.7813 660.7813,60.7813 Q661.1094,60.7813 661.3672,61.0391 Q661.625,61.2969 661.625,61.6406 Q661.625,61.9844 661.2813,62.3906 Q660.7813,62.9688 659.9844,63.2969 Q658.9063,63.75 657.6094,63.75 Q656.0938,63.75 654.8906,63.125 Q653.9063,62.625 653.2188,61.5547 Q652.5313,60.4844 652.5313,59.2031 L652.5313,58.0469 Q652.5313,56.7188 653.1484,55.5703 Q653.7656,54.4219 654.8594,53.8047 Q655.9531,53.1875 657.1875,53.1875 Q657.9219,53.1875 658.5703,53.3516 Q659.2188,53.5156 659.7656,53.875 Z " fill="#000000"/><text fill="#000000" font-family="sans-serif" font-size="14" lengthAdjust="spacing" textLength="171.917" x="671" y="63.7285">EEBO Images (TIFF/JPEG)</text><line style="stroke:#181818;stroke-width:0.5;" x1="643" x2="844.917" y1="74" y2="74"/><line style="stroke:#181818;stroke-width:0.5;" x1="643" x2="844.917" y1="82" y2="82"/></g><!--class Lincoln / Bodleian Scans--><g class="entity" data-entity="Lincoln . Bodleian Scans" data-source-line="4" data-uid="ent0020" id="entity_Lincoln . Bodleian Scans"><rect fill="#F1F1F1" height="48" rx="2.5" ry="2.5" style="stroke:#181818;stroke-width:0.5;" width="185.3232" x="881.5" y="42"/><ellipse cx="896.5" cy="58" fill="#ADD1B2" rx="11" ry="11" style="stroke:#181818;stroke-width:1;"/><path d="M899.2656,53.875 Q899.4219,53.6563 899.6094,53.5469 Q899.7969,53.4375 900.0156,53.4375 Q900.3906,53.4375 900.625,53.6953 Q900.8594,53.9531 900.8594,54.5625 L900.8594,56.0156 Q900.8594,56.625 900.625,56.8906 Q900.3906,57.1563 900.0156,57.1563 Q899.6719,57.1563 899.4688,56.9531 Q899.2656,56.7656 899.1563,56.25 Q899.1094,55.8906 898.9219,55.7031 Q898.5938,55.3281 897.9844,55.1094 Q897.375,54.8906 896.75,54.8906 Q895.9844,54.8906 895.3516,55.2188 Q894.7188,55.5469 894.2266,56.2969 Q893.7344,57.0469 893.7344,58.0781 L893.7344,59.1719 Q893.7344,60.4063 894.625,61.2266 Q895.5156,62.0469 897.1094,62.0469 Q898.0469,62.0469 898.7031,61.7969 Q899.0938,61.6406 899.5156,61.2031 Q899.7813,60.9375 899.9297,60.8594 Q900.0781,60.7813 900.2813,60.7813 Q900.6094,60.7813 900.8672,61.0391 Q901.125,61.2969 901.125,61.6406 Q901.125,61.9844 900.7813,62.3906 Q900.2813,62.9688 899.4844,63.2969 Q898.4063,63.75 897.1094,63.75 Q895.5938,63.75 894.3906,63.125 Q893.4063,62.625 892.7188,61.5547 Q892.0313,60.4844 892.0313,59.2031 L892.0313,58.0469 Q892.0313,56.7188 892.6484,55.5703 Q893.2656,54.4219 894.3594,53.8047 Q895.4531,53.1875 896.6875,53.1875 Q897.4219,53.1875 898.0703,53.3516 Q898.7188,53.5156 899.2656,53.875 Z " fill="#000000"/><text fill="#000000" font-family="sans-serif" font-size="14" lengthAdjust="spacing" textLength="153.3232" x="910.5" y="63.7285">Lincoln / Bodleian Scans</text><line style="stroke:#181818;stroke-width:0.5;" x1="882.5" x2="1065.8232" y1="74" y2="74"/><line style="stroke:#181818;stroke-width:0.5;" x1="882.5" x2="1065.8232" y1="82" y2="82"/></g><!--class MPESE--><g class="entity" data-entity="MPESE" data-source-line="5" data-uid="ent0021" id="entity_MPESE"><rect fill="#F1F1F1" height="48" rx="2.5" ry="2.5" style="stroke:#181818;stroke-width:0.5;" width="402.4121" x="1102" y="42"/><ellipse cx="1117" cy="58" fill="#ADD1B2" rx="11" ry="11" style="stroke:#181818;stroke-width:1;"/><path d="M1119.7656,53.875 Q1119.9219,53.6563 1120.1094,53.5469 Q1120.2969,53.4375 1120.5156,53.4375 Q1120.8906,53.4375 1121.125,53.6953 Q1121.3594,53.9531 1121.3594,54.5625 L1121.3594,56.0156 Q1121.3594,56.625 1121.125,56.8906 Q1120.8906,57.1563 1120.5156,57.1563 Q1120.1719,57.1563 1119.9688,56.9531 Q1119.7656,56.7656 1119.6563,56.25 Q1119.6094,55.8906 1119.4219,55.7031 Q1119.0938,55.3281 1118.4844,55.1094 Q1117.875,54.8906 1117.25,54.8906 Q1116.4844,54.8906 1115.8516,55.2188 Q1115.2188,55.5469 1114.7266,56.2969 Q1114.2344,57.0469 1114.2344,58.0781 L1114.2344,59.1719 Q1114.2344,60.4063 1115.125,61.2266 Q1116.0156,62.0469 1117.6094,62.0469 Q1118.5469,62.0469 1119.2031,61.7969 Q1119.5938,61.6406 1120.0156,61.2031 Q1120.2813,60.9375 1120.4297,60.8594 Q1120.5781,60.7813 1120.7813,60.7813 Q1121.1094,60.7813 1121.3672,61.0391 Q1121.625,61.2969 1121.625,61.6406 Q1121.625,61.9844 1121.2813,62.3906 Q1120.7813,62.9688 1119.9844,63.2969 Q1118.9063,63.75 1117.6094,63.75 Q1116.0938,63.75 1114.8906,63.125 Q1113.9063,62.625 1113.2188,61.5547 Q1112.5313,60.4844 1112.5313,59.2031 L1112.5313,58.0469 Q1112.5313,56.7188 1113.1484,55.5703 Q1113.7656,54.4219 1114.8594,53.8047 Q1115.9531,53.1875 1117.1875,53.1875 Q1117.9219,53.1875 1118.5703,53.3516 Q1119.2188,53.5156 1119.7656,53.875 Z " fill="#000000"/><text fill="#000000" font-family="sans-serif" font-size="14" lengthAdjust="spacing" textLength="370.4121" x="1131" y="63.7285">Manuscript Pamphleteering in Early Stuart England sources</text><line style="stroke:#181818;stroke-width:0.5;" x1="1103" x2="1503.4121" y1="74" y2="74"/><line style="stroke:#181818;stroke-width:0.5;" x1="1103" x2="1503.4121" y1="82" y2="82"/></g><!--class EEBO HTML Parser--><g class="entity" data-entity="EEBO HTML Parser" data-source-line="1" data-uid="ent0023" id="entity_EEBO HTML Parser"><rect fill="#F1F1F1" height="48" rx="2.5" ry="2.5" style="stroke:#181818;stroke-width:0.5;" width="158.0273" x="1146" y="166"/><ellipse cx="1161" cy="182" fill="#ADD1B2" rx="11" ry="11" style="stroke:#181818;stroke-width:1;"/><path d="M1163.7656,177.875 Q1163.9219,177.6563 1164.1094,177.5469 Q1164.2969,177.4375 1164.5156,177.4375 Q1164.8906,177.4375 1165.125,177.6953 Q1165.3594,177.9531 1165.3594,178.5625 L1165.3594,180.0156 Q1165.3594,180.625 1165.125,180.8906 Q1164.8906,181.1563 1164.5156,181.1563 Q1164.1719,181.1563 1163.9688,180.9531 Q1163.7656,180.7656 1163.6563,180.25 Q1163.6094,179.8906 1163.4219,179.7031 Q1163.0938,179.3281 1162.4844,179.1094 Q1161.875,178.8906 1161.25,178.8906 Q1160.4844,178.8906 1159.8516,179.2188 Q1159.2188,179.5469 1158.7266,180.2969 Q1158.2344,181.0469 1158.2344,182.0781 L1158.2344,183.1719 Q1158.2344,184.4063 1159.125,185.2266 Q1160.0156,186.0469 1161.6094,186.0469 Q1162.5469,186.0469 1163.2031,185.7969 Q1163.5938,185.6406 1164.0156,185.2031 Q1164.2813,184.9375 1164.4297,184.8594 Q1164.5781,184.7813 1164.7813,184.7813 Q1165.1094,184.7813 1165.3672,185.0391 Q1165.625,185.2969 1165.625,185.6406 Q1165.625,185.9844 1165.2813,186.3906 Q1164.7813,186.9688 1163.9844,187.2969 Q1162.9063,187.75 1161.6094,187.75 Q1160.0938,187.75 1158.8906,187.125 Q1157.9063,186.625 1157.2188,185.5547 Q1156.5313,184.4844 1156.5313,183.2031 L1156.5313,182.0469 Q1156.5313,180.7188 1157.1484,179.5703 Q1157.7656,178.4219 1158.8594,177.8047 Q1159.9531,177.1875 1161.1875,177.1875 Q1161.9219,177.1875 1162.5703,177.3516 Q1163.2188,177.5156 1163.7656,177.875 Z " fill="#000000"/><text fill="#000000" font-family="sans-serif" font-size="14" lengthAdjust="spacing" textLength="126.0273" x="1175" y="187.7285">EEBO HTML Parser</text><line style="stroke:#181818;stroke-width:0.5;" x1="1147" x2="1303.0273" y1="198" y2="198"/><line style="stroke:#181818;stroke-width:0.5;" x1="1147" x2="1303.0273" y1="206" y2="206"/></g><!--class TEI Parser--><g class="entity" data-entity="TEI Parser" data-source-line="2" data-uid="ent0024" id="entity_TEI Parser"><rect fill="#F1F1F1" height="48" rx="2.5" ry="2.5" style="stroke:#181818;stroke-width:0.5;" width="98.9033" x="1204.5" y="274"/><ellipse cx="1219.5" cy="290" fill="#ADD1B2" rx="11" ry="11" style="stroke:#181818;stroke-width:1;"/><path d="M1222.2656,285.875 Q1222.4219,285.6563 1222.6094,285.5469 Q1222.7969,285.4375 1223.0156,285.4375 Q1223.3906,285.4375 1223.625,285.6953 Q1223.8594,285.9531 1223.8594,286.5625 L1223.8594,288.0156 Q1223.8594,288.625 1223.625,288.8906 Q1223.3906,289.1563 1223.0156,289.1563 Q1222.6719,289.1563 1222.4688,288.9531 Q1222.2656,288.7656 1222.1563,288.25 Q1222.1094,287.8906 1221.9219,287.7031 Q1221.5938,287.3281 1220.9844,287.1094 Q1220.375,286.8906 1219.75,286.8906 Q1218.9844,286.8906 1218.3516,287.2188 Q1217.7188,287.5469 1217.2266,288.2969 Q1216.7344,289.0469 1216.7344,290.0781 L1216.7344,291.1719 Q1216.7344,292.4063 1217.625,293.2266 Q1218.5156,294.0469 1220.1094,294.0469 Q1221.0469,294.0469 1221.7031,293.7969 Q1222.0938,293.6406 1222.5156,293.2031 Q1222.7813,292.9375 1222.9297,292.8594 Q1223.0781,292.7813 1223.2813,292.7813 Q1223.6094,292.7813 1223.8672,293.0391 Q1224.125,293.2969 1224.125,293.6406 Q1224.125,293.9844 1223.7813,294.3906 Q1223.2813,294.9688 1222.4844,295.2969 Q1221.4063,295.75 1220.1094,295.75 Q1218.5938,295.75 1217.3906,295.125 Q1216.4063,294.625 1215.7188,293.5547 Q1215.0313,292.4844 1215.0313,291.2031 L1215.0313,290.0469 Q1215.0313,288.7188 1215.6484,287.5703 Q1216.2656,286.4219 1217.3594,285.8047 Q1218.4531,285.1875 1219.6875,285.1875 Q1220.4219,285.1875 1221.0703,285.3516 Q1221.7188,285.5156 1222.2656,285.875 Z " fill="#000000"/><text fill="#000000" font-family="sans-serif" font-size="14" lengthAdjust="spacing" textLength="66.9033" x="1233.5" y="295.7285">TEI Parser</text><line style="stroke:#181818;stroke-width:0.5;" x1="1205.5" x2="1302.4033" y1="306" y2="306"/><line style="stroke:#181818;stroke-width:0.5;" x1="1205.5" x2="1302.4033" y1="314" y2="314"/></g><!--class Image Preprocessor--><g class="entity" data-entity="Image Preprocessor" data-source-line="3" data-uid="ent0025" id="entity_Image Preprocessor"><rect fill="#F1F1F1" height="48" rx="2.5" ry="2.5" style="stroke:#181818;stroke-width:0.5;" width="158.0547" x="953" y="166"/><ellipse cx="968" cy="182" fill="#ADD1B2" rx="11" ry="11" style="stroke:#181818;stroke-width:1;"/><path d="M970.7656,177.875 Q970.9219,177.6563 971.1094,177.5469 Q971.2969,177.4375 971.5156,177.4375 Q971.8906,177.4375 972.125,177.6953 Q972.3594,177.9531 972.3594,178.5625 L972.3594,180.0156 Q972.3594,180.625 972.125,180.8906 Q971.8906,181.1563 971.5156,181.1563 Q971.1719,181.1563 970.9688,180.9531 Q970.7656,180.7656 970.6563,180.25 Q970.6094,179.8906 970.4219,179.7031 Q970.0938,179.3281 969.4844,179.1094 Q968.875,178.8906 968.25,178.8906 Q967.4844,178.8906 966.8516,179.2188 Q966.2188,179.5469 965.7266,180.2969 Q965.2344,181.0469 965.2344,182.0781 L965.2344,183.1719 Q965.2344,184.4063 966.125,185.2266 Q967.0156,186.0469 968.6094,186.0469 Q969.5469,186.0469 970.2031,185.7969 Q970.5938,185.6406 971.0156,185.2031 Q971.2813,184.9375 971.4297,184.8594 Q971.5781,184.7813 971.7813,184.7813 Q972.1094,184.7813 972.3672,185.0391 Q972.625,185.2969 972.625,185.6406 Q972.625,185.9844 972.2813,186.3906 Q971.7813,186.9688 970.9844,187.2969 Q969.9063,187.75 968.6094,187.75 Q967.0938,187.75 965.8906,187.125 Q964.9063,186.625 964.2188,185.5547 Q963.5313,184.4844 963.5313,183.2031 L963.5313,182.0469 Q963.5313,180.7188 964.1484,179.5703 Q964.7656,178.4219 965.8594,177.8047 Q966.9531,177.1875 968.1875,177.1875 Q968.9219,177.1875 969.5703,177.3516 Q970.2188,177.5156 970.7656,177.875 Z " fill="#000000"/><text fill="#000000" font-family="sans-serif" font-size="14" lengthAdjust="spacing" textLength="126.0547" x="982" y="187.7285">Image Preprocessor</text><line style="stroke:#181818;stroke-width:0.5;" x1="954" x2="1110.0547" y1="198" y2="198"/><line style="stroke:#181818;stroke-width:0.5;" x1="954" x2="1110.0547" y1="206" y2="206"/></g><!--class OCR--><g class="entity" data-entity="OCR" data-source-line="4" data-uid="ent0026" id="entity_OCR"><rect fill="#F1F1F1" height="48" rx="2.5" ry="2.5" style="stroke:#181818;stroke-width:0.5;" width="63.1104" x="1001.5" y="274"/><ellipse cx="1016.5" cy="290" fill="#ADD1B2" rx="11" ry="11" style="stroke:#181818;stroke-width:1;"/><path d="M1019.2656,285.875 Q1019.4219,285.6563 1019.6094,285.5469 Q1019.7969,285.4375 1020.0156,285.4375 Q1020.3906,285.4375 1020.625,285.6953 Q1020.8594,285.9531 1020.8594,286.5625 L1020.8594,288.0156 Q1020.8594,288.625 1020.625,288.8906 Q1020.3906,289.1563 1020.0156,289.1563 Q1019.6719,289.1563 1019.4688,288.9531 Q1019.2656,288.7656 1019.1563,288.25 Q1019.1094,287.8906 1018.9219,287.7031 Q1018.5938,287.3281 1017.9844,287.1094 Q1017.375,286.8906 1016.75,286.8906 Q1015.9844,286.8906 1015.3516,287.2188 Q1014.7188,287.5469 1014.2266,288.2969 Q1013.7344,289.0469 1013.7344,290.0781 L1013.7344,291.1719 Q1013.7344,292.4063 1014.625,293.2266 Q1015.5156,294.0469 1017.1094,294.0469 Q1018.0469,294.0469 1018.7031,293.7969 Q1019.0938,293.6406 1019.5156,293.2031 Q1019.7813,292.9375 1019.9297,292.8594 Q1020.0781,292.7813 1020.2813,292.7813 Q1020.6094,292.7813 1020.8672,293.0391 Q1021.125,293.2969 1021.125,293.6406 Q1021.125,293.9844 1020.7813,294.3906 Q1020.2813,294.9688 1019.4844,295.2969 Q1018.4063,295.75 1017.1094,295.75 Q1015.5938,295.75 1014.3906,295.125 Q1013.4063,294.625 1012.7188,293.5547 Q1012.0313,292.4844 1012.0313,291.2031 L1012.0313,290.0469 Q1012.0313,288.7188 1012.6484,287.5703 Q1013.2656,286.4219 1014.3594,285.8047 Q1015.4531,285.1875 1016.6875,285.1875 Q1017.4219,285.1875 1018.0703,285.3516 Q1018.7188,285.5156 1019.2656,285.875 Z " fill="#000000"/><text fill="#000000" font-family="sans-serif" font-size="14" lengthAdjust="spacing" textLength="31.1104" x="1030.5" y="295.7285">OCR</text><line style="stroke:#181818;stroke-width:0.5;" x1="1002.5" x2="1063.6104" y1="306" y2="306"/><line style="stroke:#181818;stroke-width:0.5;" x1="1002.5" x2="1063.6104" y1="314" y2="314"/></g><!--class TEI Converter--><g class="entity" data-entity="TEI Converter" data-source-line="5" data-uid="ent0027" id="entity_TEI Converter"><rect fill="#F1F1F1" height="48" rx="2.5" ry="2.5" style="stroke:#181818;stroke-width:0.5;" width="119.1377" x="975.5" y="382"/><ellipse cx="990.5" cy="398" fill="#ADD1B2" rx="11" ry="11" style="stroke:#181818;stroke-width:1;"/><path d="M993.2656,393.875 Q993.4219,393.6563 993.6094,393.5469 Q993.7969,393.4375 994.0156,393.4375 Q994.3906,393.4375 994.625,393.6953 Q994.8594,393.9531 994.8594,394.5625 L994.8594,396.0156 Q994.8594,396.625 994.625,396.8906 Q994.3906,397.1563 994.0156,397.1563 Q993.6719,397.1563 993.4688,396.9531 Q993.2656,396.7656 993.1563,396.25 Q993.1094,395.8906 992.9219,395.7031 Q992.5938,395.3281 991.9844,395.1094 Q991.375,394.8906 990.75,394.8906 Q989.9844,394.8906 989.3516,395.2188 Q988.7188,395.5469 988.2266,396.2969 Q987.7344,397.0469 987.7344,398.0781 L987.7344,399.1719 Q987.7344,400.4063 988.625,401.2266 Q989.5156,402.0469 991.1094,402.0469 Q992.0469,402.0469 992.7031,401.7969 Q993.0938,401.6406 993.5156,401.2031 Q993.7813,400.9375 993.9297,400.8594 Q994.0781,400.7813 994.2813,400.7813 Q994.6094,400.7813 994.8672,401.0391 Q995.125,401.2969 995.125,401.6406 Q995.125,401.9844 994.7813,402.3906 Q994.2813,402.9688 993.4844,403.2969 Q992.4063,403.75 991.1094,403.75 Q989.5938,403.75 988.3906,403.125 Q987.4063,402.625 986.7188,401.5547 Q986.0313,400.4844 986.0313,399.2031 L986.0313,398.0469 Q986.0313,396.7188 986.6484,395.5703 Q987.2656,394.4219 988.3594,393.8047 Q989.4531,393.1875 990.6875,393.1875 Q991.4219,393.1875 992.0703,393.3516 Q992.7188,393.5156 993.2656,393.875 Z " fill="#000000"/><text fill="#000000" font-family="sans-serif" font-size="14" lengthAdjust="spacing" textLength="87.1377" x="1004.5" y="403.7285">TEI Converter</text><line style="stroke:#181818;stroke-width:0.5;" x1="976.5" x2="1093.6377" y1="414" y2="414"/><line style="stroke:#181818;stroke-width:0.5;" x1="976.5" x2="1093.6377" y1="422" y2="422"/></g><!--class Normalisation Engine--><g class="entity" data-entity="Normalisation Engine" data-source-line="6" data-uid="ent0028" id="entity_Normalisation Engine"><rect fill="#F1F1F1" height="48" rx="2.5" ry="2.5" style="stroke:#181818;stroke-width:0.5;" width="165.0684" x="1020.5" y="490"/><ellipse cx="1035.5" cy="506" fill="#ADD1B2" rx="11" ry="11" style="stroke:#181818;stroke-width:1;"/><path d="M1038.2656,501.875 Q1038.4219,501.6563 1038.6094,501.5469 Q1038.7969,501.4375 1039.0156,501.4375 Q1039.3906,501.4375 1039.625,501.6953 Q1039.8594,501.9531 1039.8594,502.5625 L1039.8594,504.0156 Q1039.8594,504.625 1039.625,504.8906 Q1039.3906,505.1563 1039.0156,505.1563 Q1038.6719,505.1563 1038.4688,504.9531 Q1038.2656,504.7656 1038.1563,504.25 Q1038.1094,503.8906 1037.9219,503.7031 Q1037.5938,503.3281 1036.9844,503.1094 Q1036.375,502.8906 1035.75,502.8906 Q1034.9844,502.8906 1034.3516,503.2188 Q1033.7188,503.5469 1033.2266,504.2969 Q1032.7344,505.0469 1032.7344,506.0781 L1032.7344,507.1719 Q1032.7344,508.4063 1033.625,509.2266 Q1034.5156,510.0469 1036.1094,510.0469 Q1037.0469,510.0469 1037.7031,509.7969 Q1038.0938,509.6406 1038.5156,509.2031 Q1038.7813,508.9375 1038.9297,508.8594 Q1039.0781,508.7813 1039.2813,508.7813 Q1039.6094,508.7813 1039.8672,509.0391 Q1040.125,509.2969 1040.125,509.6406 Q1040.125,509.9844 1039.7813,510.3906 Q1039.2813,510.9688 1038.4844,511.2969 Q1037.4063,511.75 1036.1094,511.75 Q1034.5938,511.75 1033.3906,511.125 Q1032.4063,510.625 1031.7188,509.5547 Q1031.0313,508.4844 1031.0313,507.2031 L1031.0313,506.0469 Q1031.0313,504.7188 1031.6484,503.5703 Q1032.2656,502.4219 1033.3594,501.8047 Q1034.4531,501.1875 1035.6875,501.1875 Q1036.4219,501.1875 1037.0703,501.3516 Q1037.7188,501.5156 1038.2656,501.875 Z " fill="#000000"/><text fill="#000000" font-family="sans-serif" font-size="14" lengthAdjust="spacing" textLength="133.0684" x="1049.5" y="511.7285">Normalisation Engine</text><line style="stroke:#181818;stroke-width:0.5;" x1="1021.5" x2="1184.5684" y1="522" y2="522"/><line style="stroke:#181818;stroke-width:0.5;" x1="1021.5" x2="1184.5684" y1="530" y2="530"/></g><!--class Metadata Extractor--><g class="entity" data-entity="Metadata Extractor" data-source-line="7" data-uid="ent0029" id="entity_Metadata Extractor"><rect fill="#F1F1F1" height="48" rx="2.5" ry="2.5" style="stroke:#181818;stroke-width:0.5;" width="150.2754" x="1020" y="598"/><ellipse cx="1035" cy="614" fill="#ADD1B2" rx="11" ry="11" style="stroke:#181818;stroke-width:1;"/><path d="M1037.7656,609.875 Q1037.9219,609.6563 1038.1094,609.5469 Q1038.2969,609.4375 1038.5156,609.4375 Q1038.8906,609.4375 1039.125,609.6953 Q1039.3594,609.9531 1039.3594,610.5625 L1039.3594,612.0156 Q1039.3594,612.625 1039.125,612.8906 Q1038.8906,613.1563 1038.5156,613.1563 Q1038.1719,613.1563 1037.9688,612.9531 Q1037.7656,612.7656 1037.6563,612.25 Q1037.6094,611.8906 1037.4219,611.7031 Q1037.0938,611.3281 1036.4844,611.1094 Q1035.875,610.8906 1035.25,610.8906 Q1034.4844,610.8906 1033.8516,611.2188 Q1033.2188,611.5469 1032.7266,612.2969 Q1032.2344,613.0469 1032.2344,614.0781 L1032.2344,615.1719 Q1032.2344,616.4063 1033.125,617.2266 Q1034.0156,618.0469 1035.6094,618.0469 Q1036.5469,618.0469 1037.2031,617.7969 Q1037.5938,617.6406 1038.0156,617.2031 Q1038.2813,616.9375 1038.4297,616.8594 Q1038.5781,616.7813 1038.7813,616.7813 Q1039.1094,616.7813 1039.3672,617.0391 Q1039.625,617.2969 1039.625,617.6406 Q1039.625,617.9844 1039.2813,618.3906 Q1038.7813,618.9688 1037.9844,619.2969 Q1036.9063,619.75 1035.6094,619.75 Q1034.0938,619.75 1032.8906,619.125 Q1031.9063,618.625 1031.2188,617.5547 Q1030.5313,616.4844 1030.5313,615.2031 L1030.5313,614.0469 Q1030.5313,612.7188 1031.1484,611.5703 Q1031.7656,610.4219 1032.8594,609.8047 Q1033.9531,609.1875 1035.1875,609.1875 Q1035.9219,609.1875 1036.5703,609.3516 Q1037.2188,609.5156 1037.7656,609.875 Z " fill="#000000"/><text fill="#000000" font-family="sans-serif" font-size="14" lengthAdjust="spacing" textLength="118.2754" x="1049" y="619.7285">Metadata Extractor</text><line style="stroke:#181818;stroke-width:0.5;" x1="1021" x2="1169.2754" y1="630" y2="630"/><line style="stroke:#181818;stroke-width:0.5;" x1="1021" x2="1169.2754" y1="638" y2="638"/></g><!--class Statistics + Graphing Tools--><g class="entity" data-entity="Statistics . Graphing Tools" data-source-line="9" data-uid="ent0034" id="entity_Statistics . Graphing Tools"><rect fill="#F1F1F1" height="48" rx="2.5" ry="2.5" style="stroke:#181818;stroke-width:0.5;" width="199.6855" x="433" y="722"/><ellipse cx="448" cy="738" fill="#ADD1B2" rx="11" ry="11" style="stroke:#181818;stroke-width:1;"/><path d="M450.7656,733.875 Q450.9219,733.6563 451.1094,733.5469 Q451.2969,733.4375 451.5156,733.4375 Q451.8906,733.4375 452.125,733.6953 Q452.3594,733.9531 452.3594,734.5625 L452.3594,736.0156 Q452.3594,736.625 452.125,736.8906 Q451.8906,737.1563 451.5156,737.1563 Q451.1719,737.1563 450.9688,736.9531 Q450.7656,736.7656 450.6563,736.25 Q450.6094,735.8906 450.4219,735.7031 Q450.0938,735.3281 449.4844,735.1094 Q448.875,734.8906 448.25,734.8906 Q447.4844,734.8906 446.8516,735.2188 Q446.2188,735.5469 445.7266,736.2969 Q445.2344,737.0469 445.2344,738.0781 L445.2344,739.1719 Q445.2344,740.4063 446.125,741.2266 Q447.0156,742.0469 448.6094,742.0469 Q449.5469,742.0469 450.2031,741.7969 Q450.5938,741.6406 451.0156,741.2031 Q451.2813,740.9375 451.4297,740.8594 Q451.5781,740.7813 451.7813,740.7813 Q452.1094,740.7813 452.3672,741.0391 Q452.625,741.2969 452.625,741.6406 Q452.625,741.9844 452.2813,742.3906 Q451.7813,742.9688 450.9844,743.2969 Q449.9063,743.75 448.6094,743.75 Q447.0938,743.75 445.8906,743.125 Q444.9063,742.625 444.2188,741.5547 Q443.5313,740.4844 443.5313,739.2031 L443.5313,738.0469 Q443.5313,736.7188 444.1484,735.5703 Q444.7656,734.4219 445.8594,733.8047 Q446.9531,733.1875 448.1875,733.1875 Q448.9219,733.1875 449.5703,733.3516 Q450.2188,733.5156 450.7656,733.875 Z " fill="#000000"/><text fill="#000000" font-family="sans-serif" font-size="14" lengthAdjust="spacing" textLength="167.6855" x="462" y="743.7285">Statistics + Graphing Tools</text><line style="stroke:#181818;stroke-width:0.5;" x1="434" x2="631.6855" y1="754" y2="754"/><line style="stroke:#181818;stroke-width:0.5;" x1="434" x2="631.6855" y1="762" y2="762"/></g><!--class Novelty Detection--><g class="entity" data-entity="Novelty Detection" data-source-line="10" data-uid="ent0036" id="entity_Novelty Detection"><rect fill="#F1F1F1" height="48" rx="2.5" ry="2.5" style="stroke:#181818;stroke-width:0.5;" width="141.7168" x="1337" y="722"/><ellipse cx="1352" cy="738" fill="#ADD1B2" rx="11" ry="11" style="stroke:#181818;stroke-width:1;"/><path d="M1354.7656,733.875 Q1354.9219,733.6563 1355.1094,733.5469 Q1355.2969,733.4375 1355.5156,733.4375 Q1355.8906,733.4375 1356.125,733.6953 Q1356.3594,733.9531 1356.3594,734.5625 L1356.3594,736.0156 Q1356.3594,736.625 1356.125,736.8906 Q1355.8906,737.1563 1355.5156,737.1563 Q1355.1719,737.1563 1354.9688,736.9531 Q1354.7656,736.7656 1354.6563,736.25 Q1354.6094,735.8906 1354.4219,735.7031 Q1354.0938,735.3281 1353.4844,735.1094 Q1352.875,734.8906 1352.25,734.8906 Q1351.4844,734.8906 1350.8516,735.2188 Q1350.2188,735.5469 1349.7266,736.2969 Q1349.2344,737.0469 1349.2344,738.0781 L1349.2344,739.1719 Q1349.2344,740.4063 1350.125,741.2266 Q1351.0156,742.0469 1352.6094,742.0469 Q1353.5469,742.0469 1354.2031,741.7969 Q1354.5938,741.6406 1355.0156,741.2031 Q1355.2813,740.9375 1355.4297,740.8594 Q1355.5781,740.7813 1355.7813,740.7813 Q1356.1094,740.7813 1356.3672,741.0391 Q1356.625,741.2969 1356.625,741.6406 Q1356.625,741.9844 1356.2813,742.3906 Q1355.7813,742.9688 1354.9844,743.2969 Q1353.9063,743.75 1352.6094,743.75 Q1351.0938,743.75 1349.8906,743.125 Q1348.9063,742.625 1348.2188,741.5547 Q1347.5313,740.4844 1347.5313,739.2031 L1347.5313,738.0469 Q1347.5313,736.7188 1348.1484,735.5703 Q1348.7656,734.4219 1349.8594,733.8047 Q1350.9531,733.1875 1352.1875,733.1875 Q1352.9219,733.1875 1353.5703,733.3516 Q1354.2188,733.5156 1354.7656,733.875 Z " fill="#000000"/><text fill="#000000" font-family="sans-serif" font-size="14" lengthAdjust="spacing" textLength="109.7168" x="1366" y="743.7285">Novelty Detection</text><line style="stroke:#181818;stroke-width:0.5;" x1="1338" x2="1477.7168" y1="754" y2="754"/><line style="stroke:#181818;stroke-width:0.5;" x1="1338" x2="1477.7168" y1="762" y2="762"/></g><!--class WYSIWYG Editor--><g class="entity" data-entity="WYSIWYG Editor" data-source-line="7" data-uid="ent0055" id="entity_WYSIWYG Editor"><rect fill="#F1F1F1" height="48" rx="2.5" ry="2.5" style="stroke:#181818;stroke-width:0.5;" width="141.6826" x="7" y="846"/><ellipse cx="22" cy="862" fill="#ADD1B2" rx="11" ry="11" style="stroke:#181818;stroke-width:1;"/><path d="M24.7656,857.875 Q24.9219,857.6563 25.1094,857.5469 Q25.2969,857.4375 25.5156,857.4375 Q25.8906,857.4375 26.125,857.6953 Q26.3594,857.9531 26.3594,858.5625 L26.3594,860.0156 Q26.3594,860.625 26.125,860.8906 Q25.8906,861.1563 25.5156,861.1563 Q25.1719,861.1563 24.9688,860.9531 Q24.7656,860.7656 24.6563,860.25 Q24.6094,859.8906 24.4219,859.7031 Q24.0938,859.3281 23.4844,859.1094 Q22.875,858.8906 22.25,858.8906 Q21.4844,858.8906 20.8516,859.2188 Q20.2188,859.5469 19.7266,860.2969 Q19.2344,861.0469 19.2344,862.0781 L19.2344,863.1719 Q19.2344,864.4063 20.125,865.2266 Q21.0156,866.0469 22.6094,866.0469 Q23.5469,866.0469 24.2031,865.7969 Q24.5938,865.6406 25.0156,865.2031 Q25.2813,864.9375 25.4297,864.8594 Q25.5781,864.7813 25.7813,864.7813 Q26.1094,864.7813 26.3672,865.0391 Q26.625,865.2969 26.625,865.6406 Q26.625,865.9844 26.2813,866.3906 Q25.7813,866.9688 24.9844,867.2969 Q23.9063,867.75 22.6094,867.75 Q21.0938,867.75 19.8906,867.125 Q18.9063,866.625 18.2188,865.5547 Q17.5313,864.4844 17.5313,863.2031 L17.5313,862.0469 Q17.5313,860.7188 18.1484,859.5703 Q18.7656,858.4219 19.8594,857.8047 Q20.9531,857.1875 22.1875,857.1875 Q22.9219,857.1875 23.5703,857.3516 Q24.2188,857.5156 24.7656,857.875 Z " fill="#000000"/><text fill="#000000" font-family="sans-serif" font-size="14" lengthAdjust="spacing" textLength="109.6826" x="36" y="867.7285">WYSIWYG Editor</text><line style="stroke:#181818;stroke-width:0.5;" x1="8" x2="147.6826" y1="878" y2="878"/><line style="stroke:#181818;stroke-width:0.5;" x1="8" x2="147.6826" y1="886" y2="886"/></g><g class="entity" data-entity="GMN60" data-source-line="34" data-uid="ent0061" id="entity_GMN60"><path d="M1406.5,848.5 L1406.5,891.2031 L1705.7051,891.2031 L1705.7051,858.5 L1695.7051,848.5 L1406.5,848.5" fill="#FFFFE0" style="stroke:#000000;stroke-width:0.5;"/><path d="M1695.7051,848.5 L1695.7051,858.5 L1705.7051,858.5 L1695.7051,848.5" fill="#FFFFE0" style="stroke:#000000;stroke-width:1;"/><text fill="#000000" font-family="sans-serif" font-size="13" lengthAdjust="spacing" textLength="278.2051" x="1412.5" y="866.9951">This component displays processed corpus data</text><text fill="#000000" font-family="sans-serif" font-size="13" lengthAdjust="spacing" textLength="265.9097" x="1412.5" y="883.3467">and allows user interaction with analysis tools.</text></g><g class="entity" data-entity="GMN63" data-source-line="39" data-uid="ent0064" id="entity_GMN63"><path d="M1740.5,848.5 L1740.5,891.2031 L2031.7007,891.2031 L2031.7007,858.5 L2021.7007,848.5 L1740.5,848.5" fill="#FFFFE0" style="stroke:#000000;stroke-width:0.5;"/><path d="M2021.7007,848.5 L2021.7007,858.5 L2031.7007,858.5 L2021.7007,848.5" fill="#FFFFE0" style="stroke:#000000;stroke-width:1;"/><text fill="#000000" font-family="sans-serif" font-size="13" lengthAdjust="spacing" textLength="270.2007" x="1746.5" y="866.9951">Performs NLP analysis on Normalised Text DB</text><text fill="#000000" font-family="sans-serif" font-size="13" lengthAdjust="spacing" textLength="261.5933" x="1746.5" y="883.3467">and generates features for Novelty Detection.</text></g><!--link Corpus Explorer UI to Training Corpus--><g class="link" data-entity-1="Corpus Explorer UI" data-entity-2="Training Corpus" data-source-line="3" data-uid="lnk30" id="link_Corpus Explorer UI_Training Corpus"><path codeLine="3" d="M703.58,845.94 C726.02,832.52 755.27,815.61 782,802 C789.8,798.03 792.18,797.94 800,794 C814.64,786.62 825.1622,780.8997 838.9522,773.0097" fill="none" id="Corpus Explorer UI-to-Training Corpus" style="stroke:#FF0000;stroke-width:1;"/><polygon fill="#FF0000" points="844.16,770.03,834.3618,771.0276,839.8201,772.5131,838.3347,777.9714,844.16,770.03" style="stroke:#FF0000;stroke-width:1;"/></g><!--link Corpus Explorer UI to TEI Repository--><g class="link" data-entity-1="Corpus Explorer UI" data-entity-2="TEI Repository" data-source-line="4" data-uid="lnk31" id="link_Corpus Explorer UI_TEI Repository"><path codeLine="4" d="M682.39,845.81 C701.98,830.29 733.74,811.11 765,802 C844.01,778.98 871.07,817.31 950,794 C967.3,788.89 979.6138,782.3014 995.2238,773.0814" fill="none" id="Corpus Explorer UI-to-TEI Repository" style="stroke:#FF0000;stroke-width:1;"/><polygon fill="#FF0000" points="1000.39,770.03,990.6065,771.163,996.0849,772.5728,994.675,778.0512,1000.39,770.03" style="stroke:#FF0000;stroke-width:1;"/></g><!--link TEI Repository to Corpus Explorer UI--><g class="link" data-entity-1="TEI Repository" data-entity-2="Corpus Explorer UI" data-source-line="2" data-uid="lnk52" id="link_TEI Repository_Corpus Explorer UI"><path codeLine="2" d="M1032.46,770.03 C1019.78,779.25 1002.3,788.89 985,794 C906.07,817.31 879.01,778.98 800,802 C768.63,811.14 741.8653,827.2942 716.5153,842.8342" fill="none" id="TEI Repository-to-Corpus Explorer UI" style="stroke:#8B0000;stroke-width:1;"/><polygon fill="#8B0000" points="711.4,845.97,721.1636,844.6765,715.6628,843.3568,716.9825,837.8561,711.4,845.97" style="stroke:#8B0000;stroke-width:1;"/></g><!--link Training Corpus to MacBERTh NLP Model--><g class="link" data-entity-1="Training Corpus" data-entity-2="MacBERTh NLP Model" data-source-line="6" data-uid="lnk32" id="link_Training Corpus_MacBERTh NLP Model"><path codeLine="6" d="M915.73,770.07 C930.65,779.3 948.98,788.93 967,794 C1011.96,806.64 1132.4,788.16 1177,802 C1206.11,811.03 1230.3175,826.5706 1250.5975,842.1106" fill="none" id="Training Corpus-to-MacBERTh NLP Model" style="stroke:#FF0000;stroke-width:1;"/><polygon fill="#FF0000" points="1255.36,845.76,1250.6491,837.1109,1251.3912,842.7188,1245.7832,843.4609,1255.36,845.76" style="stroke:#FF0000;stroke-width:1;"/></g><!--link TEI Repository to MacBERTh NLP Model--><g class="link" data-entity-1="TEI Repository" data-entity-2="MacBERTh NLP Model" data-source-line="7" data-uid="lnk33" id="link_TEI Repository_MacBERTh NLP Model"><path codeLine="7" d="M1079.88,770.06 C1093.83,778.83 1110.63,788.12 1127,794 C1148.18,801.61 1155.95,794.05 1177,802 C1204.9,812.54 1228.4539,827.4523 1248.8239,842.3223" fill="none" id="TEI Repository-to-MacBERTh NLP Model" style="stroke:#FF0000;stroke-width:1;"/><polygon fill="#FF0000" points="1253.67,845.86,1248.7592,837.3228,1249.6316,842.912,1244.0424,843.7843,1253.67,845.86" style="stroke:#FF0000;stroke-width:1;"/></g><!--link Statistics + Graphing Tools to Corpus Explorer UI--><g class="link" data-entity-1="Statistics . Graphing Tools" data-entity-2="Corpus Explorer UI" data-source-line="9" data-uid="lnk35" id="link_Statistics . Graphing Tools_Corpus Explorer UI"><path codeLine="9" d="M548.06,770.23 C568.41,791.94 598.8743,820.41 625.8343,842.09" fill="none" id="Statistics + Graphing Tools-to-Corpus Explorer UI" style="stroke:#FF0000;stroke-width:1;"/><polygon fill="#FF0000" points="630.51,845.85,626.0031,837.0928,626.6136,842.7167,620.9897,843.3271,630.51,845.85" style="stroke:#FF0000;stroke-width:1;"/></g><!--link Statistics + Graphing Tools to Corpus Explorer UI--><g class="link" data-entity-1="Statistics . Graphing Tools" data-entity-2="Corpus Explorer UI" data-source-line="8" data-uid="lnk57" id="link_Statistics . Graphing Tools_Corpus Explorer UI"><path codeLine="8" d="M569.2,770.23 C596.38,791.94 627.4296,819.7711 647.5396,841.4511" fill="none" id="Statistics + Graphing Tools-to-Corpus Explorer UI-1" style="stroke:#8B0000;stroke-width:1;"/><polygon fill="#8B0000" points="651.62,845.85,648.4321,836.5314,648.2197,842.1842,642.5668,841.9719,651.62,845.85" style="stroke:#8B0000;stroke-width:1;"/></g><!--link Novelty Detection to MacBERTh NLP Model--><g class="link" data-entity-1="Novelty Detection" data-entity-2="MacBERTh NLP Model" data-source-line="10" data-uid="lnk37" id="link_Novelty Detection_MacBERTh NLP Model"><path codeLine="10" d="M1395.06,770.23 C1376.33,791.94 1347.8991,820.3047 1322.1591,841.9847" fill="none" id="Novelty Detection-to-MacBERTh NLP Model" style="stroke:#FF0000;stroke-width:1;"/><polygon fill="#FF0000" points="1317.57,845.85,1327.0305,843.1115,1321.3942,842.629,1321.8768,836.9927,1317.57,845.85" style="stroke:#FF0000;stroke-width:1;"/></g><!--link MacBERTh NLP Model to Novelty Detection--><g class="link" data-entity-1="MacBERTh NLP Model" data-entity-2="Novelty Detection" data-source-line="4" data-uid="lnk53" id="link_MacBERTh NLP Model_Novelty Detection"><path codeLine="4" d="M1296.46,845.85 C1315.35,824.17 1343.797,795.8242 1369.357,774.1142" fill="none" id="MacBERTh NLP Model-to-Novelty Detection" style="stroke:#8B0000;stroke-width:1;"/><polygon fill="#8B0000" points="1373.93,770.23,1364.4809,773.0076,1370.1191,773.4669,1369.6599,779.105,1373.93,770.23" style="stroke:#8B0000;stroke-width:1;"/></g><!--link EEBO XML to TEI Parser--><g class="link" data-entity-1="EEBO XML" data-entity-2="TEI Parser" data-source-line="1" data-uid="lnk38" id="link_EEBO XML_TEI Parser"><path codeLine="1" d="M1557.14,90.11 C1492.55,134.19 1357.366,226.458 1292.786,270.528" fill="none" id="EEBO XML-to-TEI Parser" style="stroke:#008000;stroke-width:1;"/><polygon fill="#008000" points="1287.83,273.91,1297.5187,272.141,1291.96,271.0916,1293.0093,265.533,1287.83,273.91" style="stroke:#008000;stroke-width:1;"/></g><!--link EEBO Images (TIFF/JPEG) to Image Preprocessor--><g class="link" data-entity-1="EEBO Images .TIFF.JPEG." data-entity-2="Image Preprocessor" data-source-line="2" data-uid="lnk39" id="link_EEBO Images .TIFF.JPEG._Image Preprocessor"><path codeLine="2" d="M798.51,90.09 C849.71,111.78 920.4054,141.7294 971.6954,163.4594" fill="none" id="EEBO Images (TIFF/JPEG)-to-Image Preprocessor" style="stroke:#008000;stroke-width:1;"/><polygon fill="#008000" points="977.22,165.8,970.4935,158.606,972.6161,163.8495,967.3726,165.9722,977.22,165.8" style="stroke:#008000;stroke-width:1;"/></g><!--link MPESE to TEI Parser--><g class="link" data-entity-1="MPESE" data-entity-2="TEI Parser" data-source-line="3" data-uid="lnk40" id="link_MPESE_TEI Parser"><path codeLine="3" d="M1312.42,90.12 C1323.04,119.68 1336.98,172.08 1322,214 C1313.73,237.16 1300.1651,254.2699 1284.8351,269.5099" fill="none" id="MPESE-to-TEI Parser" style="stroke:#008000;stroke-width:1;"/><polygon fill="#008000" points="1280.58,273.74,1289.7828,270.2315,1284.1259,270.2149,1284.1426,264.5581,1280.58,273.74" style="stroke:#008000;stroke-width:1;"/></g><!--link MPESE to Image Preprocessor--><g class="link" data-entity-1="MPESE" data-entity-2="Image Preprocessor" data-source-line="4" data-uid="lnk41" id="link_MPESE_Image Preprocessor"><path codeLine="4" d="M1212.49,90.02 C1185.01,98.47 1155.18,109.18 1129,122 C1104.55,133.97 1084.104,147.9556 1065.504,162.1156" fill="none" id="MPESE-to-Image Preprocessor" style="stroke:#008000;stroke-width:1;"/><polygon fill="#008000" points="1060.73,165.75,1070.3139,163.4811,1064.7083,162.7213,1065.4681,157.1157,1060.73,165.75" style="stroke:#008000;stroke-width:1;"/></g><!--link TEI Parser to TEI Converter--><g class="link" data-entity-1="TEI Parser" data-entity-2="TEI Converter" data-source-line="1" data-uid="lnk42" id="link_TEI Parser_TEI Converter"><path codeLine="1" d="M1206.48,322 C1169.87,339.72 1124.8809,361.4964 1088.2009,379.2464" fill="none" id="TEI Parser-to-TEI Converter" style="stroke:#A52A2A;stroke-width:1;"/><polygon fill="#A52A2A" points="1082.8,381.86,1092.6437,381.5402,1087.3007,379.682,1089.1589,374.3391,1082.8,381.86" style="stroke:#A52A2A;stroke-width:1;"/></g><!--link Image Preprocessor to OCR--><g class="link" data-entity-1="Image Preprocessor" data-entity-2="OCR" data-source-line="2" data-uid="lnk43" id="link_Image Preprocessor_OCR"><path codeLine="2" d="M1032.22,214 C1032.38,231.66 1032.5525,249.9403 1032.7225,267.6803" fill="none" id="Image Preprocessor-to-OCR" style="stroke:#A52A2A;stroke-width:1;"/><polygon fill="#A52A2A" points="1032.78,273.68,1036.6936,264.6421,1032.7321,268.6802,1028.6939,264.7187,1032.78,273.68" style="stroke:#A52A2A;stroke-width:1;"/></g><!--link OCR to TEI Converter--><g class="link" data-entity-1="OCR" data-entity-2="TEI Converter" data-source-line="3" data-uid="lnk44" id="link_OCR_TEI Converter"><path codeLine="3" d="M1033.43,322 C1033.77,339.66 1034.1184,357.941 1034.4484,375.681" fill="none" id="OCR-to-TEI Converter" style="stroke:#A52A2A;stroke-width:1;"/><polygon fill="#A52A2A" points="1034.56,381.68,1038.3919,372.6072,1034.467,376.6809,1030.3933,372.756,1034.56,381.68" style="stroke:#A52A2A;stroke-width:1;"/></g><!--link TEI Converter to TEI Repository--><g class="link" data-entity-1="TEI Converter" data-entity-2="TEI Repository" data-source-line="6" data-uid="lnk45" id="link_TEI Converter_TEI Repository"><path codeLine="6" d="M1023.36,430.29 C1015.89,446.57 1006.9,469.05 1003,490 C988.36,568.65 982.03,592.8 1003,670 C1008.11,688.79 1015.8213,702.7592 1025.6113,716.8792" fill="none" id="TEI Converter-to-TEI Repository" style="stroke:#A52A2A;stroke-width:1;"/><polygon fill="#A52A2A" points="1029.03,721.81,1027.1891,712.1347,1026.1811,717.701,1020.6148,716.693,1029.03,721.81" style="stroke:#A52A2A;stroke-width:1;"/></g><!--link TEI Converter to Normalisation Engine--><g class="link" data-entity-1="TEI Converter" data-entity-2="Normalisation Engine" data-source-line="7" data-uid="lnk46" id="link_TEI Converter_Normalisation Engine"><path codeLine="7" d="M1049.75,430 C1061.08,447.66 1073.4203,466.8898 1084.8003,484.6298" fill="none" id="TEI Converter-to-Normalisation Engine" style="stroke:#A52A2A;stroke-width:1;"/><polygon fill="#A52A2A" points="1088.04,489.68,1086.5473,479.9449,1085.3403,485.4715,1079.8137,484.2644,1088.04,489.68" style="stroke:#A52A2A;stroke-width:1;"/></g><!--link Normalisation Engine to Normalised Text DB--><g class="link" data-entity-1="Normalisation Engine" data-entity-2="Normalised Text DB" data-source-line="1" data-uid="lnk47" id="link_Normalisation Engine_Normalised Text DB"><path codeLine="1" d="M1134.48,538.23 C1152.73,553.31 1174.68,574.49 1188,598 C1210.57,637.83 1218.067,685.6865 1220.917,715.9265" fill="none" id="Normalisation Engine-to-Normalised Text DB" style="stroke:#0000FF;stroke-width:1;"/><polygon fill="#0000FF" points="1221.48,721.9,1224.6179,712.5644,1221.0108,716.9221,1216.6532,713.315,1221.48,721.9" style="stroke:#0000FF;stroke-width:1;"/></g><!--link Normalisation Engine to Metadata Extractor--><g class="link" data-entity-1="Normalisation Engine" data-entity-2="Metadata Extractor" data-source-line="2" data-uid="lnk48" id="link_Normalisation Engine_Metadata Extractor"><path codeLine="2" d="M1101.26,538 C1099.93,555.66 1098.5519,573.957 1097.2119,591.697" fill="none" id="Normalisation Engine-to-Metadata Extractor" style="stroke:#0000FF;stroke-width:1;"/><polygon fill="#0000FF" points="1096.76,597.68,1101.4265,589.0068,1097.1366,592.6942,1093.4493,588.4043,1096.76,597.68" style="stroke:#0000FF;stroke-width:1;"/></g><!--link Metadata Extractor to Metadata DB--><g class="link" data-entity-1="Metadata Extractor" data-entity-2="Metadata DB" data-source-line="3" data-uid="lnk49" id="link_Metadata Extractor_Metadata DB"><path codeLine="3" d="M1019.99,625.85 C958.17,630.75 869.67,643.77 800,678 C778.53,688.55 762.662,702.6212 748.732,717.4912" fill="none" id="Metadata Extractor-to-Metadata DB" style="stroke:#0000FF;stroke-width:1;"/><polygon fill="#0000FF" points="744.63,721.87,753.7022,718.0365,748.0483,718.221,747.8638,712.5672,744.63,721.87" style="stroke:#0000FF;stroke-width:1;"/></g><!--link Normalised Text DB to MacBERTh NLP Model--><g class="link" data-entity-1="Normalised Text DB" data-entity-2="MacBERTh NLP Model" data-source-line="5" data-uid="lnk50" id="link_Normalised Text DB_MacBERTh NLP Model"><path codeLine="5" d="M1234.43,770.23 C1245.1,791.94 1258.3005,818.7867 1268.9705,840.4667" fill="none" id="Normalised Text DB-to-MacBERTh NLP Model" style="stroke:#0000FF;stroke-width:1;"/><polygon fill="#0000FF" points="1271.62,845.85,1271.2347,836.0087,1269.4121,841.3639,1264.0569,839.5413,1271.62,845.85" style="stroke:#0000FF;stroke-width:1;"/></g><!--link Metadata DB to Corpus Explorer UI--><g class="link" data-entity-1="Metadata DB" data-entity-2="Corpus Explorer UI" data-source-line="1" data-uid="lnk51" id="link_Metadata DB_Corpus Explorer UI"><path codeLine="1" d="M713.76,770.23 C703.27,791.94 690.2933,818.769 679.8033,840.449" fill="none" id="Metadata DB-to-Corpus Explorer UI" style="stroke:#8B0000;stroke-width:1;"/><polygon fill="#8B0000" points="677.19,845.85,684.7106,839.4907,679.3678,841.3492,677.5093,836.0063,677.19,845.85" style="stroke:#8B0000;stroke-width:1;"/></g><!--link Novelty Detection to Corpus Explorer UI--><g class="link" data-entity-1="Novelty Detection" data-entity-2="Corpus Explorer UI" data-source-line="5" data-uid="lnk54" id="link_Novelty Detection_Corpus Explorer UI"><path codeLine="5" d="M1373.2,770.03 C1357.11,779.38 1337.31,789.11 1318,794 C1260.26,808.63 839.41,786.15 782,802 C750.39,810.73 723.3187,826.7097 700.9687,842.4197" fill="none" id="Novelty Detection-to-Corpus Explorer UI" style="stroke:#8B0000;stroke-width:1;"/><polygon fill="#8B0000" points="696.06,845.87,705.7232,843.9669,700.1506,842.9947,701.1228,837.422,696.06,845.87" style="stroke:#8B0000;stroke-width:1;"/></g><!--link WYSIWYG Editor to Corpus Explorer UI--><g class="link" data-entity-1="WYSIWYG Editor" data-entity-2="Corpus Explorer UI" data-source-line="7" data-uid="lnk56" id="link_WYSIWYG Editor_Corpus Explorer UI"><path codeLine="7" d="M104.3188,841.7246 C124.3488,822.3146 151.57,801.83 185.5,798 C226.35,793.39 514.65,793.39 555.5,798 C590.08,801.9 618.184,822.445 638.854,841.835" fill="none" id="WYSIWYG Editor-Corpus Explorer UI" style="stroke:#8B0000;stroke-width:1;"/><polygon fill="#8B0000" points="100.01,845.9,109.2568,842.5094,103.6007,842.4205,103.6896,836.7643,100.01,845.9" style="stroke:#8B0000;stroke-width:1;"/><polygon fill="#8B0000" points="643.23,845.94,639.4027,836.8652,639.5834,842.5192,633.9294,842.6998,643.23,845.94" style="stroke:#8B0000;stroke-width:1;"/></g><!--link Normalised Text DB to Statistics + Graphing Tools--><g class="link" data-entity-1="Normalised Text DB" data-entity-2="Statistics . Graphing Tools" data-source-line="10" data-uid="lnk58" id="link_Normalised Text DB_Statistics . Graphing Tools"><path codeLine="10" d="M1199.47,721.98 C1178.15,702.61 1144.75,677.98 1109.5,674 C1085.21,671.26 693.79,671.26 669.5,674 C629.3,678.54 593.8811,699.2392 567.6111,718.3592" fill="none" id="Normalised Text DB-to-Statistics + Graphing Tools" style="stroke:#8B0000;stroke-width:1;"/><polygon fill="#8B0000" points="562.76,721.89,572.3906,719.8279,566.8026,718.9477,567.6828,713.3597,562.76,721.89" style="stroke:#8B0000;stroke-width:1;"/></g><!--link Metadata DB to Statistics + Graphing Tools--><g class="link" data-entity-1="Metadata DB" data-entity-2="Statistics . Graphing Tools" data-source-line="11" data-uid="lnk59" id="link_Metadata DB_Statistics . Graphing Tools"><path codeLine="11" d="M667.94,746 C656.33,746 650.73,746 639.12,746" fill="none" id="Metadata DB-to-Statistics + Graphing Tools" style="stroke:#8B0000;stroke-width:1;"/><polygon fill="#8B0000" points="633.12,746,642.12,750,638.12,746,642.12,742,633.12,746" style="stroke:#8B0000;stroke-width:1;"/></g><!--link Corpus Explorer UI to GMN60--><g class="link" data-entity-1="Corpus Explorer UI" data-entity-2="GMN60" data-source-line="34" data-uid="lnk62" id="link_Corpus Explorer UI_GMN60"><path d="M695.01,845.85 C720.64,826.71 759.99,802.46 799.5,798 C831.02,794.44 1338.98,794.44 1370.5,798 C1424.05,804.04 1481.22,829.46 1517.71,848.39" fill="none" id="Corpus Explorer UI-GMN60" style="stroke:#77777788;stroke-width:4;stroke-dasharray:7,7;"/></g><!--link GMN63 to MacBERTh NLP Model--><g class="link" data-entity-1="GMN63" data-entity-2="MacBERTh NLP Model" data-source-line="39" data-uid="lnk65" id="link_GMN63_MacBERTh NLP Model"><path d="M1848.83,848.33 C1813.39,829.35 1757.8,803.9 1705.5,798 C1672.49,794.28 1439.51,794.28 1406.5,798 C1398.57,798.89 1396.36,798.91 1389,802 C1362.19,813.26 1334.63,831.17 1314.33,845.79" fill="none" id="GMN63-MacBERTh NLP Model" style="stroke:#77777788;stroke-width:4;stroke-dasharray:7,7;"/></g><!--SRC=[ZPF1JkCm48RlFCKit5ijGe83ub0AKYMeAYWFC2JJnAepOtaSIdV5kw_ZDcb0ZRe-H97dcz__ZCS00ByCPxRE2KQZSIQL4oOEEeuV4mpfoDMLFODXqB2hmsdC6KVMCEt08oGpPS48wzYJ4lgi7D8ya8OBqkRtDEgyPAGQCqwpBBv2QnJ_JnePxLQDzahJTMmBUgoWQm7yJP5cJJ1R5rvgpk_5Yh-zdMB0kpkmfYZ3bgoLpJ2xs3UouV63E2S_33zBJhPLVhSr3QDlivOhF14FWxFcmblM6LuVKF7HJSBWuYgjBlOe75xD7uBVt_VcM14ycYB4GrFWwsS7qNlPzBgtB4ssvdYNS4pzijlR-xXEw-RckFX1bYNGZrgFNaZYUeM-svZK5sy0y4qco0hExyMxMk7XqqMQFBpDplkbQ6z2SgFEubPXFwoKns3ApkE0T5d8EM3ZIQ7Mg6WuaCSqZB0neOHs8268M1sbn3WeoLdFewNLpk8pPfE7bsK9ywS5f95fBIx8h-9Zq1JfPECvy_qJYHQNz1bWEZaxc2k8ew502Yl2KFlc9tPgBXzamnQc57PFvxkpVm00]--></g></svg>