<?xml version="1.0" encoding="UTF-8" standalone="no"?>
<!DOCTYPE svg PUBLIC "-//W3C//DTD SVG 1.1//EN"
 "http://www.w3.org/Graphics/SVG/1.1/DTD/svg11.dtd">
<!-- Generated by graphviz version 14.0.5 (20251129.0259)
 -->
<!-- Title: pamphlet_pipeline Pages: 1 -->
<svg width="598pt" height="841pt"
 viewBox="0.00 0.00 598.00 841.00" xmlns="http://www.w3.org/2000/svg" xmlns:xlink="http://www.w3.org/1999/xlink">
<g id="graph0" class="graph" transform="scale(0.242793 0.242793) rotate(0) translate(4 3460.71)">
<title>pamphlet_pipeline</title>
<polygon fill="#dddde0" stroke="none" points="-4,4 -4,-3460.71 2459,-3460.71 2459,4 -4,4"/>
<g id="clust1" class="cluster">
<title>cluster_training</title>
<polygon fill="#e0f3db" stroke="black" points="8,-2402.34 8,-3434.79 451,-3434.79 451,-2402.34 8,-2402.34"/>
<text xml:space="preserve" text-anchor="middle" x="229.5" y="-3400.39" font-family="sans" font-size="32.00" fill="#333333">Training Phase</text>
</g>
<g id="clust2" class="cluster">
<title>cluster_production</title>
<polygon fill="#e0f3db" stroke="black" points="451,-529.55 451,-2995.54 1455,-2995.54 1455,-529.55 451,-529.55"/>
<text xml:space="preserve" text-anchor="middle" x="953" y="-2961.14" font-family="sans" font-size="32.00" fill="#333333">Production Phase</text>
</g>
<g id="clust3" class="cluster">
<title>cluster_digitisation</title>
<polygon fill="#a8ddb5" stroke="black" points="1111,-1921.27 1111,-2868.85 1455,-2868.85 1455,-1921.27 1111,-1921.27"/>
<text xml:space="preserve" text-anchor="middle" x="1283" y="-2842.05" font-family="sans" font-size="24.00" fill="#333333">Digitisation</text>
</g>
<g id="clust4" class="cluster">
<title>cluster_tei_generation</title>
<polygon fill="#a8ddb5" stroke="black" points="884,-1320.49 884,-2380.43 1108,-2380.43 1108,-1320.49 884,-1320.49"/>
<text xml:space="preserve" text-anchor="middle" x="996" y="-2353.63" font-family="sans" font-size="24.00" fill="#333333">TEI Generation</text>
</g>
<g id="clust5" class="cluster">
<title>cluster_dictionary</title>
<polygon fill="#a8ddb5" stroke="black" points="451,-529.55 451,-1648.16 884,-1648.16 884,-529.55 451,-529.55"/>
<text xml:space="preserve" text-anchor="middle" x="667.5" y="-1621.36" font-family="sans" font-size="24.00" fill="#333333">Linguistic Normalisation / Mapping</text>
</g>
<g id="clust6" class="cluster">
<title>cluster_analysis</title>
<polygon fill="#e0f3db" stroke="black" points="1455,-21.91 1455,-1298.57 2447,-1298.57 2447,-21.91 1455,-21.91"/>
<text xml:space="preserve" text-anchor="middle" x="1951" y="-1264.17" font-family="sans" font-size="32.00" fill="#333333">Analysis Phase</text>
</g>
<g id="clust7" class="cluster">
<title>cluster_computation</title>
<polygon fill="#a8ddb5" stroke="black" points="1455,-513.35 1455,-1171.88 2447,-1171.88 2447,-513.35 1455,-513.35"/>
<text xml:space="preserve" text-anchor="middle" x="1951" y="-1145.08" font-family="sans" font-size="24.00" fill="#333333">Computational Processes</text>
</g>
<g id="clust8" class="cluster">
<title>cluster_outputs</title>
<polygon fill="#a8ddb5" stroke="black" points="1743,-21.91 1743,-491.43 2181,-491.43 2181,-21.91 1743,-21.91"/>
<text xml:space="preserve" text-anchor="middle" x="1962" y="-464.63" font-family="sans" font-size="24.00" fill="#333333">Analytical &amp; Interpretative Outputs</text>
</g>
<!-- EEBO_images -->
<g id="node1" class="node">
<title>EEBO_images</title>
<polygon fill="#43a2ca" stroke="black" points="224,-3240.76 221,-3244.76 200,-3244.76 197,-3240.76 8,-3240.76 8,-3163.06 224,-3163.06 224,-3240.76"/>
<text xml:space="preserve" text-anchor="middle" x="116" y="-3205.86" font-family="Figtree" font-size="14.00" fill="#333333">EEBO Page Images</text>
<text xml:space="preserve" text-anchor="middle" x="116" y="-3188.61" font-family="Figtree" font-size="14.00" fill="#333333">(public domain / via Oxford)</text>
</g>
<!-- merge_training -->
<g id="node4" class="node">
<title>merge_training</title>
<ellipse fill="#43a2ca" stroke="black" cx="230" cy="-3036.91" rx="7.2" ry="7.2"/>
</g>
<!-- EEBO_images&#45;&gt;merge_training -->
<g id="edge1" class="edge">
<title>EEBO_images&#45;&gt;merge_training</title>
<path fill="none" stroke="black" d="M142.73,-3162.7C167.27,-3127.61 202.35,-3077.44 219.61,-3052.77"/>
<polygon fill="black" stroke="black" points="222.45,-3054.82 225.31,-3044.62 216.71,-3050.81 222.45,-3054.82"/>
</g>
<!-- EEBO_TEI_XML -->
<g id="node2" class="node">
<title>EEBO_TEI_XML</title>
<polygon fill="#43a2ca" stroke="black" points="451,-3240.76 448,-3244.76 427,-3244.76 424,-3240.76 235,-3240.76 235,-3163.06 451,-3163.06 451,-3240.76"/>
<text xml:space="preserve" text-anchor="middle" x="343" y="-3205.86" font-family="Figtree" font-size="14.00" fill="#333333">EEBO&#45;TCP XML</text>
<text xml:space="preserve" text-anchor="middle" x="343" y="-3188.61" font-family="Figtree" font-size="14.00" fill="#333333">Gold standard</text>
</g>
<!-- EEBO_TEI_XML&#45;&gt;merge_training -->
<g id="edge2" class="edge">
<title>EEBO_TEI_XML&#45;&gt;merge_training</title>
<path fill="none" stroke="black" d="M316.51,-3162.7C292.18,-3127.61 257.4,-3077.44 240.3,-3052.77"/>
<polygon fill="black" stroke="black" points="243.22,-3050.85 234.65,-3044.62 237.47,-3054.83 243.22,-3050.85"/>
</g>
<!-- MacBERTh_training -->
<g id="node3" class="node">
<title>MacBERTh_training</title>
<polygon fill="#43a2ca" stroke="black" points="451.29,-2757.86 99.26,-2757.86 8.71,-2567.96 360.74,-2567.96 451.29,-2757.86"/>
<text xml:space="preserve" text-anchor="middle" x="230" y="-2675.49" font-family="Figtree" font-size="14.00" fill="#333333">Fine&#45;tune MacBERTh</text>
<text xml:space="preserve" text-anchor="middle" x="230" y="-2658.24" font-family="Figtree" font-size="14.00" fill="#333333">on OCR + TEI XML</text>
<text xml:space="preserve" text-anchor="middle" x="230" y="-2640.99" font-family="Figtree" font-size="14.00" fill="#333333">produces fine&#45;tuned model</text>
</g>
<!-- MacBERTh_Fine_Tuned -->
<g id="node5" class="node">
<title>MacBERTh_Fine_Tuned</title>
<path fill="#43a2ca" stroke="black" d="M1100,-2177.62C1100,-2182.98 1051.59,-2187.33 992,-2187.33 932.41,-2187.33 884,-2182.98 884,-2177.62 884,-2177.62 884,-2090.21 884,-2090.21 884,-2084.85 932.41,-2080.5 992,-2080.5 1051.59,-2080.5 1100,-2084.85 1100,-2090.21 1100,-2090.21 1100,-2177.62 1100,-2177.62"/>
<path fill="none" stroke="black" d="M1100,-2177.62C1100,-2172.26 1051.59,-2167.91 992,-2167.91 932.41,-2167.91 884,-2172.26 884,-2177.62"/>
<text xml:space="preserve" text-anchor="middle" x="992" y="-2137.86" font-family="Figtree" font-size="14.00" fill="#333333">Fine&#45;tuned</text>
<text xml:space="preserve" text-anchor="middle" x="992" y="-2120.61" font-family="Figtree" font-size="14.00" fill="#333333">MacBERTh</text>
</g>
<!-- MacBERTh_training&#45;&gt;MacBERTh_Fine_Tuned -->
<g id="edge4" class="edge">
<title>MacBERTh_training&#45;&gt;MacBERTh_Fine_Tuned</title>
<path fill="none" stroke="black" d="M362.3,-2570.42C519.31,-2461.83 776.39,-2284.03 908.24,-2192.84"/>
<polygon fill="black" stroke="black" points="910.04,-2195.85 916.27,-2187.29 906.06,-2190.1 910.04,-2195.85"/>
</g>
<!-- merge_training&#45;&gt;MacBERTh_training -->
<g id="edge3" class="edge">
<title>merge_training&#45;&gt;MacBERTh_training</title>
<path fill="none" stroke="black" d="M230,-3029.46C230,-2998.88 230,-2866.08 230,-2769.33"/>
<polygon fill="black" stroke="black" points="233.5,-2769.53 230,-2759.53 226.5,-2769.53 233.5,-2769.53"/>
</g>
<!-- MACBERTH_OCR2TEI -->
<g id="node8" class="node">
<title>MACBERTH_OCR2TEI</title>
<polygon fill="#43a2ca" stroke="black" points="1104,-1815.76 888,-1815.76 888,-1738.06 1104,-1738.06 1104,-1815.76"/>
<text xml:space="preserve" text-anchor="middle" x="996" y="-1780.86" font-family="Figtree" font-size="14.00" fill="#333333">Fine&#45;Tuned MacBERTh</text>
<text xml:space="preserve" text-anchor="middle" x="996" y="-1763.61" font-family="Figtree" font-size="14.00" fill="#333333">produces TEI from OCR</text>
</g>
<!-- MacBERTh_Fine_Tuned&#45;&gt;MACBERTH_OCR2TEI -->
<g id="edge8" class="edge">
<title>MacBERTh_Fine_Tuned&#45;&gt;MACBERTH_OCR2TEI</title>
<path fill="none" stroke="black" d="M992.59,-2080.15C993.36,-2012 994.69,-1894.26 995.44,-1827.63"/>
<polygon fill="black" stroke="black" points="998.94,-1827.76 995.55,-1817.72 991.94,-1827.68 998.94,-1827.76"/>
</g>
<!-- Lincoln_scans -->
<g id="node6" class="node">
<title>Lincoln_scans</title>
<polygon fill="#43a2ca" stroke="black" points="1391,-2701.76 1388,-2705.76 1367,-2705.76 1364,-2701.76 1175,-2701.76 1175,-2624.06 1391,-2624.06 1391,-2701.76"/>
<text xml:space="preserve" text-anchor="middle" x="1283" y="-2666.86" font-family="Figtree" font-size="14.00" fill="#333333">Lincoln College/Bodleian</text>
<text xml:space="preserve" text-anchor="middle" x="1283" y="-2649.61" font-family="Figtree" font-size="14.00" fill="#333333">Scan pamphlets</text>
</g>
<!-- OCR_tool -->
<g id="node7" class="node">
<title>OCR_tool</title>
<polygon fill="#43a2ca" stroke="black" points="1455.31,-2211.61 1181.2,-2211.61 1110.69,-2056.21 1384.8,-2056.21 1455.31,-2211.61"/>
<text xml:space="preserve" text-anchor="middle" x="1283" y="-2137.86" font-family="Figtree" font-size="14.00" fill="#333333">Kraken / Transkribus</text>
<text xml:space="preserve" text-anchor="middle" x="1283" y="-2120.61" font-family="Figtree" font-size="14.00" fill="#333333">OCR / HTR</text>
</g>
<!-- Lincoln_scans&#45;&gt;OCR_tool -->
<g id="edge5" class="edge">
<title>Lincoln_scans&#45;&gt;OCR_tool</title>
<path fill="none" stroke="black" d="M1283,-2623.59C1283,-2540.04 1283,-2339.65 1283,-2223.08"/>
<polygon fill="black" stroke="black" points="1286.5,-2223.24 1283,-2213.24 1279.5,-2223.24 1286.5,-2223.24"/>
</g>
<!-- OCR_tool&#45;&gt;MACBERTH_OCR2TEI -->
<g id="edge6" class="edge">
<title>OCR_tool&#45;&gt;MACBERTH_OCR2TEI</title>
<path fill="none" stroke="black" d="M1220.73,-2055.88C1163.8,-1985.48 1081.46,-1883.62 1033.86,-1824.75"/>
<polygon fill="black" stroke="black" points="1036.77,-1822.78 1027.77,-1817.21 1031.33,-1827.18 1036.77,-1822.78"/>
</g>
<!-- Lincoln_TEI -->
<g id="node9" class="node">
<title>Lincoln_TEI</title>
<path fill="#43a2ca" stroke="black" d="M1107.6,-1467.92C1107.6,-1472.09 1057.58,-1475.47 996,-1475.47 934.42,-1475.47 884.4,-1472.09 884.4,-1467.92 884.4,-1467.92 884.4,-1399.91 884.4,-1399.91 884.4,-1395.74 934.42,-1392.36 996,-1392.36 1057.58,-1392.36 1107.6,-1395.74 1107.6,-1399.91 1107.6,-1399.91 1107.6,-1467.92 1107.6,-1467.92"/>
<path fill="none" stroke="black" d="M1107.6,-1467.92C1107.6,-1463.75 1057.58,-1460.36 996,-1460.36 934.42,-1460.36 884.4,-1463.75 884.4,-1467.92"/>
<text xml:space="preserve" text-anchor="middle" x="996" y="-1429.24" font-family="Figtree" font-size="14.00" fill="#333333">Lincoln/Bodleian TEI Outputs</text>
</g>
<!-- MACBERTH_OCR2TEI&#45;&gt;Lincoln_TEI -->
<g id="edge7" class="edge">
<title>MACBERTH_OCR2TEI&#45;&gt;Lincoln_TEI</title>
<path fill="none" stroke="black" d="M996,-1737.79C996,-1676.67 996,-1556.63 996,-1487.44"/>
<polygon fill="black" stroke="black" points="999.5,-1487.48 996,-1477.48 992.5,-1487.48 999.5,-1487.48"/>
</g>
<!-- EME_to_ME_dict -->
<g id="node10" class="node">
<title>EME_to_ME_dict</title>
<path fill="#43a2ca" stroke="black" d="M884.1,-975.92C884.1,-980.09 806.51,-983.47 711,-983.47 615.49,-983.47 537.9,-980.09 537.9,-975.92 537.9,-975.92 537.9,-907.91 537.9,-907.91 537.9,-903.74 615.49,-900.36 711,-900.36 806.51,-900.36 884.1,-903.74 884.1,-907.91 884.1,-907.91 884.1,-975.92 884.1,-975.92"/>
<path fill="none" stroke="black" d="M884.1,-975.92C884.1,-971.75 806.51,-968.36 711,-968.36 615.49,-968.36 537.9,-971.75 537.9,-975.92"/>
<text xml:space="preserve" text-anchor="middle" x="711" y="-937.24" font-family="Figtree" font-size="14.00" fill="#333333">Normalisation of EME to ME via dictionary/library</text>
</g>
<!-- Lincoln_TEI&#45;&gt;EME_to_ME_dict -->
<g id="edge9" class="edge">
<title>Lincoln_TEI&#45;&gt;EME_to_ME_dict</title>
<path fill="none" stroke="black" d="M972.19,-1391.98C920.31,-1302.79 797.19,-1091.11 740.5,-993.64"/>
<polygon fill="black" stroke="black" points="743.55,-991.92 735.5,-985.04 737.5,-995.44 743.55,-991.92"/>
</g>
<!-- DB -->
<g id="node14" class="node">
<title>DB</title>
<path fill="#43a2ca" stroke="black" d="M1993,-975.92C1993,-980.09 1944.59,-983.47 1885,-983.47 1825.41,-983.47 1777,-980.09 1777,-975.92 1777,-975.92 1777,-907.91 1777,-907.91 1777,-903.74 1825.41,-900.36 1885,-900.36 1944.59,-900.36 1993,-903.74 1993,-907.91 1993,-907.91 1993,-975.92 1993,-975.92"/>
<path fill="none" stroke="black" d="M1993,-975.92C1993,-971.75 1944.59,-968.36 1885,-968.36 1825.41,-968.36 1777,-971.75 1777,-975.92"/>
<text xml:space="preserve" text-anchor="middle" x="1885" y="-937.24" font-family="Figtree" font-size="14.00" fill="#333333">TEI Database (PostGres)</text>
</g>
<!-- Lincoln_TEI&#45;&gt;DB -->
<g id="edge12" class="edge">
<title>Lincoln_TEI&#45;&gt;DB</title>
<path fill="none" stroke="black" d="M1080.89,-1393.45C1282.25,-1299.83 1772,-1072.14 1772,-1072.14 1772,-1072.14 1809.83,-1028.88 1841.72,-992.41"/>
<polygon fill="black" stroke="black" points="1844.3,-994.77 1848.25,-984.94 1839.03,-990.17 1844.3,-994.77"/>
</g>
<!-- Normalised -->
<g id="node12" class="node">
<title>Normalised</title>
<path fill="#43a2ca" stroke="black" d="M819,-676.92C819,-681.09 770.59,-684.47 711,-684.47 651.41,-684.47 603,-681.09 603,-676.92 603,-676.92 603,-608.91 603,-608.91 603,-604.74 651.41,-601.36 711,-601.36 770.59,-601.36 819,-604.74 819,-608.91 819,-608.91 819,-676.92 819,-676.92"/>
<path fill="none" stroke="black" d="M819,-676.92C819,-672.75 770.59,-669.36 711,-669.36 651.41,-669.36 603,-672.75 603,-676.92"/>
<text xml:space="preserve" text-anchor="middle" x="711" y="-638.24" font-family="Figtree" font-size="14.00" fill="#333333">Normalised data</text>
</g>
<!-- EME_to_ME_dict&#45;&gt;Normalised -->
<g id="edge10" class="edge">
<title>EME_to_ME_dict&#45;&gt;Normalised</title>
<path fill="none" stroke="black" d="M711,-899.93C711,-846.93 711,-754.55 711,-696.45"/>
<polygon fill="black" stroke="black" points="714.5,-696.47 711,-686.47 707.5,-696.47 714.5,-696.47"/>
</g>
<!-- Normaliser_DB -->
<g id="node11" class="node">
<title>Normaliser_DB</title>
<path fill="#43a2ca" stroke="black" d="M819,-1467.92C819,-1472.09 770.59,-1475.47 711,-1475.47 651.41,-1475.47 603,-1472.09 603,-1467.92 603,-1467.92 603,-1399.91 603,-1399.91 603,-1395.74 651.41,-1392.36 711,-1392.36 770.59,-1392.36 819,-1395.74 819,-1399.91 819,-1399.91 819,-1467.92 819,-1467.92"/>
<path fill="none" stroke="black" d="M819,-1467.92C819,-1463.75 770.59,-1460.36 711,-1460.36 651.41,-1460.36 603,-1463.75 603,-1467.92"/>
<text xml:space="preserve" text-anchor="middle" x="711" y="-1429.24" font-family="Figtree" font-size="14.00" fill="#333333">EME to ME Dictionary</text>
</g>
<!-- Normaliser_DB&#45;&gt;EME_to_ME_dict -->
<g id="edge11" class="edge">
<title>Normaliser_DB&#45;&gt;EME_to_ME_dict</title>
<path fill="none" stroke="black" d="M711,-1391.98C711,-1303.24 711,-1093.24 711,-995.13"/>
<polygon fill="black" stroke="black" points="714.5,-995.25 711,-985.25 707.5,-995.25 714.5,-995.25"/>
</g>
<!-- MacBERTh_analysis -->
<g id="node13" class="node">
<title>MacBERTh_analysis</title>
<polygon fill="#43a2ca" stroke="black" points="1766,-972.14 1550,-972.14 1550,-911.69 1766,-911.69 1766,-972.14"/>
<text xml:space="preserve" text-anchor="middle" x="1658" y="-937.24" font-family="Figtree" font-size="14.00" fill="#333333">MacBERTh for Analysis</text>
</g>
<!-- Semantic_drift -->
<g id="node17" class="node">
<title>Semantic_drift</title>
<polygon fill="#43a2ca" stroke="black" points="2447,-681.76 2231,-681.76 2231,-604.06 2447,-604.06 2447,-681.76"/>
<text xml:space="preserve" text-anchor="middle" x="2339" y="-646.86" font-family="Figtree" font-size="14.00" fill="#333333">Semantic Drift</text>
<text xml:space="preserve" text-anchor="middle" x="2339" y="-629.61" font-family="Figtree" font-size="14.00" fill="#333333">via dynamic embeddings</text>
</g>
<!-- MacBERTh_analysis&#45;&gt;Semantic_drift -->
<g id="edge13" class="edge">
<title>MacBERTh_analysis&#45;&gt;Semantic_drift</title>
<path fill="none" stroke="black" d="M1726.1,-911.21C1847.28,-858.36 2100.76,-747.82 2240.79,-686.75"/>
<polygon fill="black" stroke="black" points="2241.93,-690.07 2249.7,-682.86 2239.13,-683.65 2241.93,-690.07"/>
</g>
<!-- Network_analysis -->
<g id="node18" class="node">
<title>Network_analysis</title>
<polygon fill="#43a2ca" stroke="black" points="1958.1,-690.39 1701.9,-690.39 1701.9,-595.44 1958.1,-595.44 1958.1,-690.39"/>
<text xml:space="preserve" text-anchor="middle" x="1830" y="-655.49" font-family="Figtree" font-size="14.00" fill="#333333">Network Analysis</text>
<text xml:space="preserve" text-anchor="middle" x="1830" y="-638.24" font-family="Figtree" font-size="14.00" fill="#333333">citation, phrase&#45;sharing,</text>
<text xml:space="preserve" text-anchor="middle" x="1830" y="-620.99" font-family="Figtree" font-size="14.00" fill="#333333">authorial &amp; geo&#45;temporal diffusion</text>
</g>
<!-- MacBERTh_analysis&#45;&gt;Network_analysis -->
<g id="edge14" class="edge">
<title>MacBERTh_analysis&#45;&gt;Network_analysis</title>
<path fill="none" stroke="black" d="M1675.12,-911.35C1703.51,-862.33 1760.81,-763.39 1797.19,-700.57"/>
<polygon fill="black" stroke="black" points="1800.1,-702.53 1802.08,-692.12 1794.04,-699.02 1800.1,-702.53"/>
</g>
<!-- Geo_temporal_mapping -->
<g id="node19" class="node">
<title>Geo_temporal_mapping</title>
<polygon fill="#43a2ca" stroke="black" points="1691.35,-681.76 1454.65,-681.76 1454.65,-604.06 1691.35,-604.06 1691.35,-681.76"/>
<text xml:space="preserve" text-anchor="middle" x="1573" y="-646.86" font-family="Figtree" font-size="14.00" fill="#333333">Pamphlets, ideas &amp; drift</text>
<text xml:space="preserve" text-anchor="middle" x="1573" y="-629.61" font-family="Figtree" font-size="14.00" fill="#333333">mapped across time and space</text>
</g>
<!-- MacBERTh_analysis&#45;&gt;Geo_temporal_mapping -->
<g id="edge15" class="edge">
<title>MacBERTh_analysis&#45;&gt;Geo_temporal_mapping</title>
<path fill="none" stroke="black" d="M1649.54,-911.35C1634.92,-860.28 1604.8,-755.03 1587.01,-692.88"/>
<polygon fill="black" stroke="black" points="1590.48,-692.28 1584.37,-683.63 1583.75,-694.21 1590.48,-692.28"/>
</g>
<!-- DB&#45;&gt;Semantic_drift -->
<g id="edge16" class="edge">
<title>DB&#45;&gt;Semantic_drift</title>
<path fill="none" stroke="black" d="M1947.17,-900.24C2031.91,-844.81 2183.13,-745.89 2270.86,-688.49"/>
<polygon fill="black" stroke="black" points="2272.73,-691.45 2279.18,-683.05 2268.9,-685.59 2272.73,-691.45"/>
</g>
<!-- DB&#45;&gt;Network_analysis -->
<g id="edge17" class="edge">
<title>DB&#45;&gt;Network_analysis</title>
<path fill="none" stroke="black" d="M1877.41,-899.93C1867.91,-848.61 1851.57,-760.37 1840.77,-702.08"/>
<polygon fill="black" stroke="black" points="1844.23,-701.52 1838.96,-692.32 1837.34,-702.8 1844.23,-701.52"/>
</g>
<!-- Historical_context -->
<g id="node20" class="node">
<title>Historical_context</title>
<polygon fill="#43a2ca" stroke="black" points="2220.47,-681.76 1969.53,-681.76 1969.53,-604.06 2220.47,-604.06 2220.47,-681.76"/>
<text xml:space="preserve" text-anchor="middle" x="2095" y="-646.86" font-family="Figtree" font-size="14.00" fill="#333333">Computational outputs grounded</text>
<text xml:space="preserve" text-anchor="middle" x="2095" y="-629.61" font-family="Figtree" font-size="14.00" fill="#333333">in early modern print culture</text>
</g>
<!-- DB&#45;&gt;Historical_context -->
<g id="edge18" class="edge">
<title>DB&#45;&gt;Historical_context</title>
<path fill="none" stroke="black" d="M1913.98,-899.93C1952.56,-845.36 2020.66,-749.05 2061.43,-691.39"/>
<polygon fill="black" stroke="black" points="2064.19,-693.55 2067.11,-683.36 2058.48,-689.51 2064.19,-693.55"/>
</g>
<!-- IFI -->
<g id="node15" class="node">
<title>IFI</title>
<polygon fill="#43a2ca" stroke="black" points="2220,-972.14 2004,-972.14 2004,-911.69 2220,-911.69 2220,-972.14"/>
<text xml:space="preserve" text-anchor="middle" x="2112" y="-937.24" font-family="Figtree" font-size="14.00" fill="#333333">Inverse Frequency Index</text>
</g>
<!-- IFI&#45;&gt;Semantic_drift -->
<g id="edge19" class="edge">
<title>IFI&#45;&gt;Semantic_drift</title>
<path fill="none" stroke="black" d="M2134.6,-911.35C2174.04,-859.75 2255.74,-752.85 2303.04,-690.97"/>
<polygon fill="black" stroke="black" points="2305.54,-693.45 2308.84,-683.38 2299.98,-689.2 2305.54,-693.45"/>
</g>
<!-- RAG_index -->
<g id="node16" class="node">
<title>RAG_index</title>
<polygon fill="#43a2ca" stroke="black" points="2447,-989.39 2231,-989.39 2231,-894.44 2447,-894.44 2447,-989.39"/>
<text xml:space="preserve" text-anchor="middle" x="2339" y="-954.49" font-family="Figtree" font-size="14.00" fill="#333333">RAG Index (FAISS)</text>
<text xml:space="preserve" text-anchor="middle" x="2339" y="-937.24" font-family="Figtree" font-size="14.00" fill="#333333">ideological clusters,</text>
<text xml:space="preserve" text-anchor="middle" x="2339" y="-919.99" font-family="Figtree" font-size="14.00" fill="#333333">phrase reuse</text>
</g>
<!-- RAG_index&#45;&gt;Semantic_drift -->
<g id="edge20" class="edge">
<title>RAG_index&#45;&gt;Semantic_drift</title>
<path fill="none" stroke="black" d="M2339,-894.18C2339,-839.43 2339,-749.12 2339,-693.26"/>
<polygon fill="black" stroke="black" points="2342.5,-693.41 2339,-683.41 2335.5,-693.41 2342.5,-693.41"/>
</g>
<!-- Interpretation -->
<g id="node21" class="node">
<title>Interpretation</title>
<polygon fill="#43a2ca" stroke="black" points="2093.1,-339.14 1830.9,-339.14 1830.9,-278.69 2093.1,-278.69 2093.1,-339.14"/>
<text xml:space="preserve" text-anchor="middle" x="1962" y="-304.24" font-family="Figtree" font-size="14.00" fill="#333333">Historically&#45;informed Interpretation</text>
</g>
<!-- Semantic_drift&#45;&gt;Interpretation -->
<g id="edge21" class="edge">
<title>Semantic_drift&#45;&gt;Interpretation</title>
<path fill="none" stroke="black" d="M2295.75,-603.83C2222.81,-539.59 2076.22,-410.5 2004.07,-346.96"/>
<polygon fill="black" stroke="black" points="2006.6,-344.53 1996.79,-340.55 2001.98,-349.78 2006.6,-344.53"/>
</g>
<!-- Network_analysis&#45;&gt;Interpretation -->
<g id="edge22" class="edge">
<title>Network_analysis&#45;&gt;Interpretation</title>
<path fill="none" stroke="black" d="M1848.63,-595.05C1874.71,-529.46 1921.64,-411.41 1946.14,-349.8"/>
<polygon fill="black" stroke="black" points="1949.3,-351.33 1949.74,-340.74 1942.8,-348.74 1949.3,-351.33"/>
</g>
<!-- Geo_temporal_mapping&#45;&gt;Interpretation -->
<g id="edge23" class="edge">
<title>Geo_temporal_mapping&#45;&gt;Interpretation</title>
<path fill="none" stroke="black" d="M1617.62,-603.83C1692.89,-539.59 1844.15,-410.5 1918.59,-346.96"/>
<polygon fill="black" stroke="black" points="1920.79,-349.68 1926.13,-340.53 1916.25,-344.36 1920.79,-349.68"/>
</g>
<!-- Historical_context&#45;&gt;Interpretation -->
<g id="edge24" class="edge">
<title>Historical_context&#45;&gt;Interpretation</title>
<path fill="none" stroke="black" d="M2079.74,-603.83C2054.39,-540.55 2003.84,-414.36 1978.01,-349.87"/>
<polygon fill="black" stroke="black" points="1981.31,-348.7 1974.34,-340.72 1974.81,-351.31 1981.31,-348.7"/>
</g>
<!-- Meta -->
<g id="node22" class="node">
<title>Meta</title>
<polygon fill="#43a2ca" stroke="black" points="2138.1,-135.14 1785.9,-135.14 1785.9,-74.69 2138.1,-74.69 2138.1,-135.14"/>
<text xml:space="preserve" text-anchor="middle" x="1962" y="-100.24" font-family="Figtree" font-size="14.00" fill="#333333">Conceptual Metaphors As Deep Semantic Frames</text>
</g>
<!-- Interpretation&#45;&gt;Meta -->
<g id="edge25" class="edge">
<title>Interpretation&#45;&gt;Meta</title>
<path fill="none" stroke="black" d="M1962,-278.54C1962,-243.83 1962,-185.88 1962,-146.8"/>
<polygon fill="black" stroke="black" points="1965.5,-146.84 1962,-136.84 1958.5,-146.84 1965.5,-146.84"/>
</g>
</g>
</svg>
