<?xml version="1.0" encoding="UTF-8" standalone="no"?>
<!DOCTYPE svg PUBLIC "-//W3C//DTD SVG 1.1//EN"
 "http://www.w3.org/Graphics/SVG/1.1/DTD/svg11.dtd">
<!-- Generated by graphviz version 14.0.5 (20251129.0259)
 -->
<!-- Title: pamphlet_pipeline Pages: 1 -->
<svg width="2850pt" height="2317pt"
 viewBox="0.00 0.00 2850.00 2317.00" xmlns="http://www.w3.org/2000/svg" xmlns:xlink="http://www.w3.org/1999/xlink">
<g id="graph0" class="graph" transform="scale(1 1) rotate(0) translate(4 2313.12)">
<title>pamphlet_pipeline</title>
<polygon fill="white" stroke="none" points="-4,4 -4,-2313.12 2846,-2313.12 2846,4 -4,4"/>
<g id="clust1" class="cluster">
<title>cluster_training</title>
<polygon fill="#7fc97f" stroke="black" points="873,-1769.38 873,-2301.12 1575,-2301.12 1575,-1769.38 873,-1769.38"/>
<text xml:space="preserve" text-anchor="middle" x="1224" y="-2236.32" font-family="sans" font-size="64.00" fill="#000000">Training Phase</text>
</g>
<g id="clust2" class="cluster">
<title>cluster_production</title>
<polygon fill="#7fc97f" stroke="black" points="8,-447.44 8,-1761.38 1251,-1761.38 1251,-447.44 8,-447.44"/>
<text xml:space="preserve" text-anchor="middle" x="629.5" y="-1696.58" font-family="sans" font-size="64.00" fill="#7fc97f">Production Phase</text>
</g>
<g id="clust3" class="cluster">
<title>cluster_digitisation</title>
<polygon fill="#beaed4" stroke="black" points="679,-1242.8 679,-1669.62 1243,-1669.62 1243,-1242.8 679,-1242.8"/>
<text xml:space="preserve" text-anchor="middle" x="961" y="-1620.03" font-family="sans" font-size="48.00" fill="#7fc97f">Digitisation</text>
</g>
<g id="clust4" class="cluster">
<title>cluster_tei_generation</title>
<polygon fill="#beaed4" stroke="black" points="871,-879.08 871,-1234.8 1243,-1234.8 1243,-879.08 871,-879.08"/>
<text xml:space="preserve" text-anchor="middle" x="1057" y="-1185.2" font-family="sans" font-size="48.00" fill="#7fc97f">TEI Generation</text>
</g>
<g id="clust5" class="cluster">
<title>cluster_dictionary</title>
<polygon fill="#beaed4" stroke="black" points="16,-455.44 16,-1056.6 863,-1056.6 863,-455.44 16,-455.44"/>
<text xml:space="preserve" text-anchor="middle" x="439.5" y="-1007" font-family="sans" font-size="48.00" fill="#7fc97f">Linguistic Normalisation / Mapping</text>
</g>
<g id="clust6" class="cluster">
<title>cluster_analysis</title>
<polygon fill="#7fc97f" stroke="black" points="1259,-8 1259,-871.08 2834,-871.08 2834,-8 1259,-8"/>
<text xml:space="preserve" text-anchor="middle" x="2046.5" y="-806.28" font-family="sans" font-size="64.00" fill="#7fc97f">Analysis Phase</text>
</g>
<g id="clust7" class="cluster">
<title>cluster_computation</title>
<polygon fill="#beaed4" stroke="black" points="1288,-441.6 1288,-779.33 2200,-779.33 2200,-441.6 1288,-441.6"/>
<text xml:space="preserve" text-anchor="middle" x="1744" y="-729.73" font-family="sans" font-size="48.00" fill="#000000">Computational Processes</text>
</g>
<g id="clust8" class="cluster">
<title>cluster_outputs</title>
<polygon fill="#beaed4" stroke="black" points="1267,-16 1267,-433.6 2826,-433.6 2826,-16 1267,-16"/>
<text xml:space="preserve" text-anchor="middle" x="2046.5" y="-384" font-family="sans" font-size="48.00" fill="#000000">Analytical &amp; Interpretative Outputs</text>
</g>
<!-- EEBO_images -->
<g id="node1" class="node">
<title>EEBO_images</title>
<polygon fill="#beaed4" stroke="black" points="1273.72,-2209.38 1270.72,-2213.38 1249.72,-2213.38 1246.72,-2209.38 934.27,-2209.38 934.27,-2112.18 1273.72,-2112.18 1273.72,-2209.38"/>
<text xml:space="preserve" text-anchor="middle" x="1104" y="-2164.97" font-family="Helvetica,sans-Serif" font-size="24.00" fill="#7fc97f">EEBO Page Images</text>
<text xml:space="preserve" text-anchor="middle" x="1104" y="-2137.97" font-family="Helvetica,sans-Serif" font-size="24.00" fill="#7fc97f">(public domain / via Oxford)</text>
</g>
<!-- merge_training -->
<g id="node4" class="node">
<title>merge_training</title>
<ellipse fill="#fdc086" stroke="black" cx="1224" cy="-2068.97" rx="7.2" ry="7.2"/>
</g>
<!-- EEBO_images&#45;&gt;merge_training -->
<g id="edge1" class="edge">
<title>EEBO_images&#45;&gt;merge_training</title>
<path fill="none" stroke="black" d="M1168.22,-2111.72C1183.76,-2100.09 1198.93,-2088.74 1209.52,-2080.81"/>
<polygon fill="black" stroke="black" points="1211.3,-2083.85 1217.21,-2075.06 1207.1,-2078.25 1211.3,-2083.85"/>
</g>
<!-- EEBO_TEI_XML -->
<g id="node2" class="node">
<title>EEBO_TEI_XML</title>
<polygon fill="#beaed4" stroke="black" points="1513.85,-2209.38 1510.85,-2213.38 1489.85,-2213.38 1486.85,-2209.38 1292.15,-2209.38 1292.15,-2112.18 1513.85,-2112.18 1513.85,-2209.38"/>
<text xml:space="preserve" text-anchor="middle" x="1403" y="-2164.97" font-family="Helvetica,sans-Serif" font-size="24.00" fill="#7fc97f">EEBO&#45;TCP XML</text>
<text xml:space="preserve" text-anchor="middle" x="1403" y="-2137.97" font-family="Helvetica,sans-Serif" font-size="24.00" fill="#7fc97f">Gold standard</text>
</g>
<!-- EEBO_TEI_XML&#45;&gt;merge_training -->
<g id="edge2" class="edge">
<title>EEBO_TEI_XML&#45;&gt;merge_training</title>
<path fill="none" stroke="black" d="M1307.21,-2111.72C1281.25,-2098.69 1255.99,-2086.02 1240.24,-2078.12"/>
<polygon fill="black" stroke="black" points="1242.06,-2075.12 1231.55,-2073.76 1238.92,-2081.38 1242.06,-2075.12"/>
</g>
<!-- MacBERTh_training -->
<g id="node3" class="node">
<title>MacBERTh_training</title>
<polygon fill="#beaed4" stroke="black" points="1566.6,-2025.78 1021.6,-2025.78 881.4,-1777.38 1426.4,-1777.38 1566.6,-2025.78"/>
<text xml:space="preserve" text-anchor="middle" x="1224" y="-1919.28" font-family="Helvetica,sans-Serif" font-size="24.00" fill="#7fc97f">Fine&#45;tune MacBERTh</text>
<text xml:space="preserve" text-anchor="middle" x="1224" y="-1892.28" font-family="Helvetica,sans-Serif" font-size="24.00" fill="#7fc97f">on OCR + TEI XML</text>
<text xml:space="preserve" text-anchor="middle" x="1224" y="-1865.28" font-family="Helvetica,sans-Serif" font-size="24.00" fill="#7fc97f">produces fine&#45;tuned model</text>
</g>
<!-- MacBERTh_Fine_Tuned -->
<g id="node5" class="node">
<title>MacBERTh_Fine_Tuned</title>
<path fill="#fdc086" stroke="black" d="M1475,-1602.7C1475,-1609.4 1426.59,-1614.85 1367,-1614.85 1307.41,-1614.85 1259,-1609.4 1259,-1602.7 1259,-1602.7 1259,-1493.35 1259,-1493.35 1259,-1486.65 1307.41,-1481.2 1367,-1481.2 1426.59,-1481.2 1475,-1486.65 1475,-1493.35 1475,-1493.35 1475,-1602.7 1475,-1602.7"/>
<path fill="none" stroke="black" d="M1475,-1602.7C1475,-1596 1426.59,-1590.55 1367,-1590.55 1307.41,-1590.55 1259,-1596 1259,-1602.7"/>
<text xml:space="preserve" text-anchor="middle" x="1367" y="-1552.23" font-family="Helvetica,sans-Serif" font-size="24.00" fill="#7fc97f">Fine&#45;tuned</text>
<text xml:space="preserve" text-anchor="middle" x="1367" y="-1525.23" font-family="Helvetica,sans-Serif" font-size="24.00" fill="#7fc97f">MacBERTh</text>
</g>
<!-- MacBERTh_training&#45;&gt;MacBERTh_Fine_Tuned -->
<g id="edge4" class="edge">
<title>MacBERTh_training&#45;&gt;MacBERTh_Fine_Tuned</title>
<path fill="none" stroke="black" d="M1274.22,-1777.13C1294.78,-1726.57 1317.93,-1669.67 1335.96,-1625.34"/>
<polygon fill="black" stroke="black" points="1339.09,-1626.92 1339.62,-1616.33 1332.61,-1624.28 1339.09,-1626.92"/>
</g>
<!-- Lincoln_scans -->
<g id="node6" class="node">
<title>Lincoln_scans</title>
<polygon fill="#fdc086" stroke="black" points="1175.35,-1596.62 1172.35,-1600.62 1151.35,-1600.62 1148.35,-1596.62 866.65,-1596.62 866.65,-1499.43 1175.35,-1499.43 1175.35,-1596.62"/>
<text xml:space="preserve" text-anchor="middle" x="1021" y="-1552.23" font-family="Helvetica,sans-Serif" font-size="24.00" fill="#7fc97f">Lincoln College/Bodleian</text>
<text xml:space="preserve" text-anchor="middle" x="1021" y="-1525.23" font-family="Helvetica,sans-Serif" font-size="24.00" fill="#7fc97f">Scan pamphlets</text>
</g>
<!-- MacBERTh_training&#45;&gt;Lincoln_scans -->
<!-- merge_training&#45;&gt;MacBERTh_training -->
<g id="edge3" class="edge">
<title>merge_training&#45;&gt;MacBERTh_training</title>
<path fill="none" stroke="black" d="M1224,-2061.29C1224,-2055.92 1224,-2047.63 1224,-2037.6"/>
<polygon fill="black" stroke="black" points="1227.5,-2037.6 1224,-2027.6 1220.5,-2037.6 1227.5,-2037.6"/>
</g>
<!-- MACBERTH_OCR2TEI -->
<g id="node8" class="node">
<title>MACBERTH_OCR2TEI</title>
<polygon fill="#fdc086" stroke="black" points="1207.97,-1161.8 906.02,-1161.8 906.02,-1064.6 1207.97,-1064.6 1207.97,-1161.8"/>
<text xml:space="preserve" text-anchor="middle" x="1057" y="-1117.4" font-family="Helvetica,sans-Serif" font-size="24.00" fill="#7fc97f">Fine&#45;Tuned MacBERTh</text>
<text xml:space="preserve" text-anchor="middle" x="1057" y="-1090.4" font-family="Helvetica,sans-Serif" font-size="24.00" fill="#7fc97f">produces TEI from OCR</text>
</g>
<!-- MacBERTh_Fine_Tuned&#45;&gt;MACBERTH_OCR2TEI -->
<g id="edge5" class="edge">
<title>MacBERTh_Fine_Tuned&#45;&gt;MACBERTH_OCR2TEI</title>
<path fill="none" stroke="black" d="M1353.08,-1480.98C1336.59,-1415.11 1303.91,-1313.79 1247,-1242.8 1223.52,-1213.51 1191.57,-1188.35 1160.58,-1168.26"/>
<polygon fill="black" stroke="black" points="1162.6,-1165.4 1152.28,-1163 1158.85,-1171.31 1162.6,-1165.4"/>
</g>
<!-- OCR_tool -->
<g id="node7" class="node">
<title>OCR_tool</title>
<polygon fill="#fdc086" stroke="black" points="1235.17,-1445.2 799.03,-1445.2 686.83,-1250.8 1122.97,-1250.8 1235.17,-1445.2"/>
<text xml:space="preserve" text-anchor="middle" x="961" y="-1352.2" font-family="Helvetica,sans-Serif" font-size="24.00" fill="#7fc97f">Kraken / Transkribus</text>
<text xml:space="preserve" text-anchor="middle" x="961" y="-1325.2" font-family="Helvetica,sans-Serif" font-size="24.00" fill="#7fc97f">OCR / HTR</text>
</g>
<!-- Lincoln_scans&#45;&gt;OCR_tool -->
<g id="edge6" class="edge">
<title>Lincoln_scans&#45;&gt;OCR_tool</title>
<path fill="none" stroke="black" d="M1006.48,-1499.09C1002.51,-1486.01 998.05,-1471.29 993.52,-1456.32"/>
<polygon fill="black" stroke="black" points="996.89,-1455.4 990.65,-1446.84 990.2,-1457.43 996.89,-1455.4"/>
</g>
<!-- OCR_tool&#45;&gt;MACBERTH_OCR2TEI -->
<g id="edge7" class="edge">
<title>OCR_tool&#45;&gt;MACBERTH_OCR2TEI</title>
<path fill="none" stroke="black" d="M1000.74,-1250.63C1011.65,-1224.16 1023.16,-1196.27 1032.9,-1172.65"/>
<polygon fill="black" stroke="black" points="1036.09,-1174.1 1036.66,-1163.52 1029.61,-1171.43 1036.09,-1174.1"/>
</g>
<!-- Lincoln_TEI -->
<g id="node9" class="node">
<title>Lincoln_TEI</title>
<path fill="#fdc086" stroke="black" d="M1234.6,-974.82C1234.6,-979.67 1155,-983.6 1057,-983.6 959,-983.6 879.4,-979.67 879.4,-974.82 879.4,-974.82 879.4,-895.85 879.4,-895.85 879.4,-891.01 959,-887.08 1057,-887.08 1155,-887.08 1234.6,-891.01 1234.6,-895.85 1234.6,-895.85 1234.6,-974.82 1234.6,-974.82"/>
<path fill="none" stroke="black" d="M1234.6,-974.82C1234.6,-969.98 1155,-966.05 1057,-966.05 959,-966.05 879.4,-969.98 879.4,-974.82"/>
<text xml:space="preserve" text-anchor="middle" x="1057" y="-926.04" font-family="Helvetica,sans-Serif" font-size="24.00" fill="#7fc97f">Lincoln/Bodleian TEI Outputs</text>
</g>
<!-- MACBERTH_OCR2TEI&#45;&gt;Lincoln_TEI -->
<g id="edge8" class="edge">
<title>MACBERTH_OCR2TEI&#45;&gt;Lincoln_TEI</title>
<path fill="none" stroke="black" d="M1057,-1064.14C1057,-1042.93 1057,-1017.78 1057,-995.43"/>
<polygon fill="black" stroke="black" points="1060.5,-995.54 1057,-985.54 1053.5,-995.54 1060.5,-995.54"/>
</g>
<!-- EME_to_ME_dict -->
<g id="node10" class="node">
<title>EME_to_ME_dict</title>
<path fill="#fdc086" stroke="black" d="M855.35,-697.55C855.35,-702.39 728.35,-706.33 572,-706.33 415.65,-706.33 288.65,-702.39 288.65,-697.55 288.65,-697.55 288.65,-618.58 288.65,-618.58 288.65,-613.73 415.65,-609.8 572,-609.8 728.35,-609.8 855.35,-613.73 855.35,-618.58 855.35,-618.58 855.35,-697.55 855.35,-697.55"/>
<path fill="none" stroke="black" d="M855.35,-697.55C855.35,-692.71 728.35,-688.77 572,-688.77 415.65,-688.77 288.65,-692.71 288.65,-697.55"/>
<text xml:space="preserve" text-anchor="middle" x="572" y="-648.76" font-family="Helvetica,sans-Serif" font-size="24.00" fill="#7fc97f">Normalisation of EME to ME via dictionary/library</text>
</g>
<!-- Lincoln_TEI&#45;&gt;EME_to_ME_dict -->
<g id="edge9" class="edge">
<title>Lincoln_TEI&#45;&gt;EME_to_ME_dict</title>
<path fill="none" stroke="black" d="M973.07,-886.7C887.49,-838.13 754.98,-762.92 665.94,-712.38"/>
<polygon fill="black" stroke="black" points="667.86,-709.45 657.43,-707.55 664.4,-715.53 667.86,-709.45"/>
</g>
<!-- MacBERTh_analysis -->
<g id="node13" class="node">
<title>MacBERTh_analysis</title>
<polygon fill="#fdc086" stroke="black" points="1591.97,-546.8 1296.03,-546.8 1296.03,-476.6 1591.97,-476.6 1591.97,-546.8"/>
<text xml:space="preserve" text-anchor="middle" x="1444" y="-502.4" font-family="Helvetica,sans-Serif" font-size="24.00" fill="#7fc97f">MacBERTh for Analysis</text>
</g>
<!-- Lincoln_TEI&#45;&gt;MacBERTh_analysis -->
<!-- DB -->
<g id="node14" class="node">
<title>DB</title>
<path fill="#fdc086" stroke="black" d="M2192.35,-697.55C2192.35,-702.39 2121.82,-706.33 2035,-706.33 1948.18,-706.33 1877.65,-702.39 1877.65,-697.55 1877.65,-697.55 1877.65,-618.58 1877.65,-618.58 1877.65,-613.73 1948.18,-609.8 2035,-609.8 2121.82,-609.8 2192.35,-613.73 2192.35,-618.58 2192.35,-618.58 2192.35,-697.55 2192.35,-697.55"/>
<path fill="none" stroke="black" d="M2192.35,-697.55C2192.35,-692.71 2121.82,-688.77 2035,-688.77 1948.18,-688.77 1877.65,-692.71 1877.65,-697.55"/>
<text xml:space="preserve" text-anchor="middle" x="2035" y="-648.76" font-family="Helvetica,sans-Serif" font-size="24.00" fill="#7fc97f">TEI Database (PostGres)</text>
</g>
<!-- Lincoln_TEI&#45;&gt;DB -->
<g id="edge27" class="edge">
<title>Lincoln_TEI&#45;&gt;DB</title>
<path fill="none" stroke="black" d="M1215.76,-889.65C1395.07,-839.18 1685.59,-757.41 1868.16,-706.02"/>
<polygon fill="black" stroke="black" points="1869.08,-709.4 1877.76,-703.32 1867.18,-702.66 1869.08,-709.4"/>
</g>
<!-- Normalised -->
<g id="node11" class="node">
<title>Normalised</title>
<path fill="#fdc086" stroke="black" d="M681.73,-551.19C681.73,-556.03 632.54,-559.96 572,-559.96 511.46,-559.96 462.27,-556.03 462.27,-551.19 462.27,-551.19 462.27,-472.21 462.27,-472.21 462.27,-467.37 511.46,-463.44 572,-463.44 632.54,-463.44 681.73,-467.37 681.73,-472.21 681.73,-472.21 681.73,-551.19 681.73,-551.19"/>
<path fill="none" stroke="black" d="M681.73,-551.19C681.73,-546.35 632.54,-542.41 572,-542.41 511.46,-542.41 462.27,-546.35 462.27,-551.19"/>
<text xml:space="preserve" text-anchor="middle" x="572" y="-502.4" font-family="Helvetica,sans-Serif" font-size="24.00" fill="#7fc97f">Normalised data</text>
</g>
<!-- EME_to_ME_dict&#45;&gt;Normalised -->
<g id="edge10" class="edge">
<title>EME_to_ME_dict&#45;&gt;Normalised</title>
<path fill="none" stroke="black" d="M572,-609.39C572,-597.32 572,-584.21 572,-571.65"/>
<polygon fill="black" stroke="black" points="575.5,-571.83 572,-561.83 568.5,-571.83 575.5,-571.83"/>
</g>
<!-- Normaliser_DB -->
<g id="node12" class="node">
<title>Normaliser_DB</title>
<path fill="#fdc086" stroke="black" d="M711.35,-974.82C711.35,-979.67 648.89,-983.6 572,-983.6 495.11,-983.6 432.65,-979.67 432.65,-974.82 432.65,-974.82 432.65,-895.85 432.65,-895.85 432.65,-891.01 495.11,-887.08 572,-887.08 648.89,-887.08 711.35,-891.01 711.35,-895.85 711.35,-895.85 711.35,-974.82 711.35,-974.82"/>
<path fill="none" stroke="black" d="M711.35,-974.82C711.35,-969.98 648.89,-966.05 572,-966.05 495.11,-966.05 432.65,-969.98 432.65,-974.82"/>
<text xml:space="preserve" text-anchor="middle" x="572" y="-926.04" font-family="Helvetica,sans-Serif" font-size="24.00" fill="#7fc97f">EME to ME Dictionary</text>
</g>
<!-- Normaliser_DB&#45;&gt;EME_to_ME_dict -->
<g id="edge28" class="edge">
<title>Normaliser_DB&#45;&gt;EME_to_ME_dict</title>
<path fill="none" stroke="black" d="M572,-886.7C572,-839.88 572,-768.3 572,-717.94"/>
<polygon fill="black" stroke="black" points="575.5,-718.09 572,-708.09 568.5,-718.09 575.5,-718.09"/>
</g>
<!-- Semantic_drift -->
<g id="node17" class="node">
<title>Semantic_drift</title>
<polygon fill="#fdc086" stroke="black" points="1982.72,-347.1 1673.28,-347.1 1673.28,-249.9 1982.72,-249.9 1982.72,-347.1"/>
<text xml:space="preserve" text-anchor="middle" x="1828" y="-302.7" font-family="Helvetica,sans-Serif" font-size="24.00" fill="#7fc97f">Semantic Drift</text>
<text xml:space="preserve" text-anchor="middle" x="1828" y="-275.7" font-family="Helvetica,sans-Serif" font-size="24.00" fill="#7fc97f">via dynamic embeddings</text>
</g>
<!-- MacBERTh_analysis&#45;&gt;Semantic_drift -->
<g id="edge14" class="edge">
<title>MacBERTh_analysis&#45;&gt;Semantic_drift</title>
<path fill="none" stroke="black" d="M1510.82,-476.2C1538.13,-463.46 1570.44,-450.07 1601,-441.6 1628.2,-434.06 1638.07,-444.74 1664,-433.6 1705.85,-415.62 1745.59,-383.64 1775.47,-355.43"/>
<polygon fill="black" stroke="black" points="1777.76,-358.09 1782.54,-348.63 1772.91,-353.04 1777.76,-358.09"/>
</g>
<!-- Network_analysis -->
<g id="node18" class="node">
<title>Network_analysis</title>
<polygon fill="#fdc086" stroke="black" points="2405.35,-360.6 2000.65,-360.6 2000.65,-236.4 2405.35,-236.4 2405.35,-360.6"/>
<text xml:space="preserve" text-anchor="middle" x="2203" y="-316.2" font-family="Helvetica,sans-Serif" font-size="24.00" fill="#7fc97f">Network Analysis</text>
<text xml:space="preserve" text-anchor="middle" x="2203" y="-289.2" font-family="Helvetica,sans-Serif" font-size="24.00" fill="#7fc97f">citation, phrase&#45;sharing,</text>
<text xml:space="preserve" text-anchor="middle" x="2203" y="-262.2" font-family="Helvetica,sans-Serif" font-size="24.00" fill="#7fc97f">authorial &amp; geo&#45;temporal diffusion</text>
</g>
<!-- MacBERTh_analysis&#45;&gt;Network_analysis -->
<g id="edge15" class="edge">
<title>MacBERTh_analysis&#45;&gt;Network_analysis</title>
<path fill="none" stroke="black" d="M1506.98,-476.17C1534.92,-462.67 1568.72,-448.73 1601,-441.6 1643.43,-432.22 1950.4,-446.16 1992,-433.6 2037.58,-419.83 2082.85,-393.24 2119.69,-367.34"/>
<polygon fill="black" stroke="black" points="2121.54,-370.32 2127.64,-361.66 2117.47,-364.63 2121.54,-370.32"/>
</g>
<!-- Geo_temporal_mapping -->
<g id="node19" class="node">
<title>Geo_temporal_mapping</title>
<polygon fill="#fdc086" stroke="black" points="1654.97,-347.1 1275.03,-347.1 1275.03,-249.9 1654.97,-249.9 1654.97,-347.1"/>
<text xml:space="preserve" text-anchor="middle" x="1465" y="-302.7" font-family="Helvetica,sans-Serif" font-size="24.00" fill="#7fc97f">Pamphlets, ideas &amp; drift</text>
<text xml:space="preserve" text-anchor="middle" x="1465" y="-275.7" font-family="Helvetica,sans-Serif" font-size="24.00" fill="#7fc97f">mapped across time and space</text>
</g>
<!-- MacBERTh_analysis&#45;&gt;Geo_temporal_mapping -->
<g id="edge20" class="edge">
<title>MacBERTh_analysis&#45;&gt;Geo_temporal_mapping</title>
<path fill="none" stroke="black" d="M1447.42,-476.3C1450.58,-444.52 1455.34,-396.64 1459.11,-358.72"/>
<polygon fill="black" stroke="black" points="1462.59,-359.1 1460.1,-348.8 1455.63,-358.41 1462.59,-359.1"/>
</g>
<!-- DB&#45;&gt;MacBERTh_analysis -->
<g id="edge11" class="edge">
<title>DB&#45;&gt;MacBERTh_analysis</title>
<path fill="none" stroke="black" d="M1877.2,-633.88C1794.15,-619.9 1691.13,-599.75 1601,-573.8 1579.36,-567.57 1556.54,-559.56 1535.2,-551.41"/>
<polygon fill="black" stroke="black" points="1536.52,-548.16 1525.93,-547.81 1533.99,-554.69 1536.52,-548.16"/>
</g>
<!-- IFI -->
<g id="node15" class="node">
<title>IFI</title>
<polygon fill="#fdc086" stroke="black" points="1920.1,-546.8 1609.9,-546.8 1609.9,-476.6 1920.1,-476.6 1920.1,-546.8"/>
<text xml:space="preserve" text-anchor="middle" x="1765" y="-502.4" font-family="Helvetica,sans-Serif" font-size="24.00" fill="#7fc97f">Inverse Frequency Index</text>
</g>
<!-- DB&#45;&gt;IFI -->
<g id="edge13" class="edge">
<title>DB&#45;&gt;IFI</title>
<path fill="none" stroke="black" d="M1946.22,-609.59C1911.67,-591.12 1872.54,-570.2 1839.5,-552.53"/>
<polygon fill="black" stroke="black" points="1841.26,-549.5 1830.79,-547.87 1837.95,-555.68 1841.26,-549.5"/>
</g>
<!-- RAG_index -->
<g id="node16" class="node">
<title>RAG_index</title>
<polygon fill="#fdc086" stroke="black" points="2191.97,-573.8 1938.03,-573.8 1938.03,-449.6 2191.97,-449.6 2191.97,-573.8"/>
<text xml:space="preserve" text-anchor="middle" x="2065" y="-529.4" font-family="Helvetica,sans-Serif" font-size="24.00" fill="#7fc97f">RAG Index (FAISS)</text>
<text xml:space="preserve" text-anchor="middle" x="2065" y="-502.4" font-family="Helvetica,sans-Serif" font-size="24.00" fill="#7fc97f">ideological clusters,</text>
<text xml:space="preserve" text-anchor="middle" x="2065" y="-475.4" font-family="Helvetica,sans-Serif" font-size="24.00" fill="#7fc97f">phrase reuse</text>
</g>
<!-- DB&#45;&gt;RAG_index -->
<g id="edge12" class="edge">
<title>DB&#45;&gt;RAG_index</title>
<path fill="none" stroke="black" d="M2044.91,-609.39C2046.51,-601.66 2048.21,-593.5 2049.91,-585.33"/>
<polygon fill="black" stroke="black" points="2053.3,-586.21 2051.91,-575.7 2046.45,-584.78 2053.3,-586.21"/>
</g>
<!-- DB&#45;&gt;Semantic_drift -->
<g id="edge16" class="edge">
<title>DB&#45;&gt;Semantic_drift</title>
<path fill="none" stroke="black" d="M2163.68,-611.87C2178.48,-601.57 2191.6,-589.03 2201,-573.8 2216.43,-548.8 2221.37,-462.77 2201,-441.6 2184.88,-424.86 2013.73,-441.83 1992,-433.6 1948.77,-417.24 1908.46,-384.62 1878.62,-355.65"/>
<polygon fill="black" stroke="black" points="1881.13,-353.21 1871.56,-348.66 1876.2,-358.18 1881.13,-353.21"/>
</g>
<!-- DB&#45;&gt;Network_analysis -->
<g id="edge17" class="edge">
<title>DB&#45;&gt;Network_analysis</title>
<path fill="none" stroke="black" d="M2176.85,-612.44C2192.3,-602.09 2206.02,-589.38 2216,-573.8 2254.38,-513.9 2243.6,-430.64 2227.93,-371.6"/>
<polygon fill="black" stroke="black" points="2231.41,-371.03 2225.36,-362.33 2224.66,-372.9 2231.41,-371.03"/>
</g>
<!-- Historical_context -->
<g id="node20" class="node">
<title>Historical_context</title>
<polygon fill="#fdc086" stroke="black" points="2818.47,-347.1 2423.53,-347.1 2423.53,-249.9 2818.47,-249.9 2818.47,-347.1"/>
<text xml:space="preserve" text-anchor="middle" x="2621" y="-302.7" font-family="Helvetica,sans-Serif" font-size="24.00" fill="#7fc97f">Computational outputs grounded</text>
<text xml:space="preserve" text-anchor="middle" x="2621" y="-275.7" font-family="Helvetica,sans-Serif" font-size="24.00" fill="#7fc97f">in early modern print culture</text>
</g>
<!-- DB&#45;&gt;Historical_context -->
<g id="edge21" class="edge">
<title>DB&#45;&gt;Historical_context</title>
<path fill="none" stroke="black" d="M2156.46,-611.26C2182.55,-600.04 2209.6,-587.33 2234,-573.8 2352.34,-508.16 2478.2,-413.77 2553.18,-354.59"/>
<polygon fill="black" stroke="black" points="2555.21,-357.44 2560.88,-348.49 2550.87,-351.95 2555.21,-357.44"/>
</g>
<!-- IFI&#45;&gt;Semantic_drift -->
<g id="edge18" class="edge">
<title>IFI&#45;&gt;Semantic_drift</title>
<path fill="none" stroke="black" d="M1775.26,-476.3C1784.78,-444.38 1799.15,-396.23 1810.48,-358.23"/>
<polygon fill="black" stroke="black" points="1813.81,-359.33 1813.31,-348.75 1807.1,-357.33 1813.81,-359.33"/>
</g>
<!-- RAG_index&#45;&gt;Semantic_drift -->
<g id="edge19" class="edge">
<title>RAG_index&#45;&gt;Semantic_drift</title>
<path fill="none" stroke="black" d="M1996.13,-449.33C1962.76,-419.59 1922.98,-384.14 1890.49,-355.19"/>
<polygon fill="black" stroke="black" points="1892.89,-352.64 1883.1,-348.6 1888.23,-357.86 1892.89,-352.64"/>
</g>
<!-- Interpretation -->
<g id="node21" class="node">
<title>Interpretation</title>
<polygon fill="#fdc086" stroke="black" points="2221.1,-200.4 1808.9,-200.4 1808.9,-130.2 2221.1,-130.2 2221.1,-200.4"/>
<text xml:space="preserve" text-anchor="middle" x="2015" y="-156" font-family="Helvetica,sans-Serif" font-size="24.00" fill="#7fc97f">Historically&#45;informed Interpretation</text>
</g>
<!-- Semantic_drift&#45;&gt;Interpretation -->
<g id="edge22" class="edge">
<title>Semantic_drift&#45;&gt;Interpretation</title>
<path fill="none" stroke="black" d="M1896.31,-249.58C1916.12,-235.67 1937.57,-220.63 1956.71,-207.2"/>
<polygon fill="black" stroke="black" points="1958.49,-210.22 1964.66,-201.62 1954.47,-204.49 1958.49,-210.22"/>
</g>
<!-- Network_analysis&#45;&gt;Interpretation -->
<g id="edge23" class="edge">
<title>Network_analysis&#45;&gt;Interpretation</title>
<path fill="none" stroke="black" d="M2114.78,-235.93C2100.88,-226.24 2086.82,-216.42 2073.81,-207.34"/>
<polygon fill="black" stroke="black" points="2075.98,-204.59 2065.78,-201.74 2071.98,-210.33 2075.98,-204.59"/>
</g>
<!-- Geo_temporal_mapping&#45;&gt;Interpretation -->
<g id="edge24" class="edge">
<title>Geo_temporal_mapping&#45;&gt;Interpretation</title>
<path fill="none" stroke="black" d="M1615.85,-249.44C1632.04,-244.81 1648.32,-240.36 1664,-236.4 1711.89,-224.3 1763.88,-212.95 1812.81,-203.06"/>
<polygon fill="black" stroke="black" points="1813.25,-206.54 1822.37,-201.14 1811.88,-199.68 1813.25,-206.54"/>
</g>
<!-- Historical_context&#45;&gt;Interpretation -->
<g id="edge25" class="edge">
<title>Historical_context&#45;&gt;Interpretation</title>
<path fill="none" stroke="black" d="M2464.96,-249.4C2447.84,-244.73 2430.6,-240.29 2414,-236.4 2355.5,-222.67 2291.61,-210.3 2232.44,-199.91"/>
<polygon fill="black" stroke="black" points="2233.4,-196.52 2222.94,-198.25 2232.19,-203.42 2233.4,-196.52"/>
</g>
<!-- Meta -->
<g id="node22" class="node">
<title>Meta</title>
<polygon fill="#fdc086" stroke="black" points="2305.47,-94.2 1724.53,-94.2 1724.53,-24 2305.47,-24 2305.47,-94.2"/>
<text xml:space="preserve" text-anchor="middle" x="2015" y="-49.8" font-family="Helvetica,sans-Serif" font-size="24.00" fill="#7fc97f">Conceptual Metaphors As Deep Semantic Frames</text>
</g>
<!-- Interpretation&#45;&gt;Meta -->
<g id="edge26" class="edge">
<title>Interpretation&#45;&gt;Meta</title>
<path fill="none" stroke="black" d="M2015,-129.89C2015,-122.16 2015,-113.83 2015,-105.72"/>
<polygon fill="black" stroke="black" points="2018.5,-105.99 2015,-95.99 2011.5,-105.99 2018.5,-105.99"/>
</g>
</g>
</svg>
