<?xml version="1.0" encoding="UTF-8" standalone="no"?>
<!DOCTYPE svg PUBLIC "-//W3C//DTD SVG 1.1//EN"
 "http://www.w3.org/Graphics/SVG/1.1/DTD/svg11.dtd">
<!-- Generated by graphviz version 14.0.5 (20251129.0259)
 -->
<!-- Title: pamphlet_pipeline Pages: 1 -->
<svg width="2869pt" height="2336pt"
 viewBox="0.00 0.00 2869.00 2336.00" xmlns="http://www.w3.org/2000/svg" xmlns:xlink="http://www.w3.org/1999/xlink">
<g id="graph0" class="graph" transform="scale(1 1) rotate(0) translate(4 2332.16)">
<title>pamphlet_pipeline</title>
<polygon fill="#ddf5dd" stroke="none" points="-4,4 -4,-2332.16 2865,-2332.16 2865,4 -4,4"/>
<g id="clust1" class="cluster">
<title>cluster_training</title>
<polygon fill="#f0f9e8" stroke="black" points="868,-1784.41 868,-2320.16 1580,-2320.16 1580,-1784.41 868,-1784.41"/>
<text xml:space="preserve" text-anchor="middle" x="1224" y="-2255.36" font-family="sans" font-size="64.00" fill="#333333">Training Phase</text>
</g>
<g id="clust2" class="cluster">
<title>cluster_production</title>
<polygon fill="#f0f9e8" stroke="black" points="8,-446.52 8,-1776.41 1251,-1776.41 1251,-446.52 8,-446.52"/>
<text xml:space="preserve" text-anchor="middle" x="629.5" y="-1711.61" font-family="sans" font-size="64.00" fill="#333333">Production Phase</text>
</g>
<g id="clust3" class="cluster">
<title>cluster_digitisation</title>
<polygon fill="#bae4bc" stroke="black" points="699,-1250.49 699,-1684.66 1243,-1684.66 1243,-1250.49 699,-1250.49"/>
<text xml:space="preserve" text-anchor="middle" x="971" y="-1635.06" font-family="sans" font-size="48.00" fill="#333333">Digitisation</text>
</g>
<g id="clust4" class="cluster">
<title>cluster_tei_generation</title>
<polygon fill="#bae4bc" stroke="black" points="871,-879.17 871,-1242.49 1243,-1242.49 1243,-879.17 871,-879.17"/>
<text xml:space="preserve" text-anchor="middle" x="1057" y="-1192.89" font-family="sans" font-size="48.00" fill="#333333">TEI Generation</text>
</g>
<g id="clust5" class="cluster">
<title>cluster_dictionary</title>
<polygon fill="#bae4bc" stroke="black" points="16,-454.52 16,-1059.79 863,-1059.79 863,-454.52 16,-454.52"/>
<text xml:space="preserve" text-anchor="middle" x="439.5" y="-1010.19" font-family="sans" font-size="48.00" fill="#333333">Linguistic Normalisation / Mapping</text>
</g>
<g id="clust6" class="cluster">
<title>cluster_analysis</title>
<polygon fill="#f0f9e8" stroke="black" points="1259,-8 1259,-871.17 2853,-871.17 2853,-8 1259,-8"/>
<text xml:space="preserve" text-anchor="middle" x="2056" y="-806.37" font-family="sans" font-size="64.00" fill="#333333">Analysis Phase</text>
</g>
<g id="clust7" class="cluster">
<title>cluster_computation</title>
<polygon fill="#bae4bc" stroke="black" points="1288,-438.85 1288,-779.42 2188,-779.42 2188,-438.85 1288,-438.85"/>
<text xml:space="preserve" text-anchor="middle" x="1738" y="-729.82" font-family="sans" font-size="48.00" fill="#333333">Computational Processes</text>
</g>
<g id="clust8" class="cluster">
<title>cluster_outputs</title>
<polygon fill="#bae4bc" stroke="black" points="1267,-16 1267,-430.85 2845,-430.85 2845,-16 1267,-16"/>
<text xml:space="preserve" text-anchor="middle" x="2056" y="-381.25" font-family="sans" font-size="48.00" fill="#333333">Analytical &amp; Interpretative Outputs</text>
</g>
<!-- EEBO_images -->
<g id="node1" class="node">
<title>EEBO_images</title>
<polygon fill="#bae4bc" stroke="black" points="1275.47,-2228.41 1272.47,-2232.41 1251.47,-2232.41 1248.47,-2228.41 934.52,-2228.41 934.52,-2126.71 1275.47,-2126.71 1275.47,-2228.41"/>
<text xml:space="preserve" text-anchor="middle" x="1105" y="-2184.01" font-family="Figtree" font-size="24.00" fill="#333333">EEBO Page Images</text>
<text xml:space="preserve" text-anchor="middle" x="1105" y="-2154.76" font-family="Figtree" font-size="24.00" fill="#333333">(public domain / via Oxford)</text>
</g>
<!-- merge_training -->
<g id="node4" class="node">
<title>merge_training</title>
<ellipse fill="#7bccc4" stroke="black" cx="1224" cy="-2090.51" rx="7.2" ry="7.2"/>
</g>
<!-- EEBO_images&#45;&gt;merge_training -->
<g id="edge1" class="edge">
<title>EEBO_images&#45;&gt;merge_training</title>
<path fill="none" stroke="black" d="M1175.25,-2126.34C1188.13,-2117.14 1200.32,-2108.43 1209.28,-2102.03"/>
<polygon fill="black" stroke="black" points="1211.12,-2105.01 1217.22,-2096.35 1207.05,-2099.32 1211.12,-2105.01"/>
</g>
<!-- EEBO_TEI_XML -->
<g id="node2" class="node">
<title>EEBO_TEI_XML</title>
<polygon fill="#bae4bc" stroke="black" points="1513,-2228.41 1510,-2232.41 1489,-2232.41 1486,-2228.41 1297,-2228.41 1297,-2126.71 1513,-2126.71 1513,-2228.41"/>
<text xml:space="preserve" text-anchor="middle" x="1405" y="-2184.01" font-family="Figtree" font-size="24.00" fill="#333333">EEBO&#45;TCP XML</text>
<text xml:space="preserve" text-anchor="middle" x="1405" y="-2154.76" font-family="Figtree" font-size="24.00" fill="#333333">Gold standard</text>
</g>
<!-- EEBO_TEI_XML&#45;&gt;merge_training -->
<g id="edge2" class="edge">
<title>EEBO_TEI_XML&#45;&gt;merge_training</title>
<path fill="none" stroke="black" d="M1297.88,-2126.22C1275.45,-2115.68 1254.42,-2105.8 1240.58,-2099.3"/>
<polygon fill="black" stroke="black" points="1242.33,-2096.25 1231.79,-2095.16 1239.35,-2102.59 1242.33,-2096.25"/>
</g>
<!-- MacBERTh_training -->
<g id="node3" class="node">
<title>MacBERTh_training</title>
<polygon fill="#bae4bc" stroke="black" points="1572.04,-2054.31 1018.39,-2054.31 875.96,-1792.41 1429.61,-1792.41 1572.04,-2054.31"/>
<text xml:space="preserve" text-anchor="middle" x="1224" y="-1944.43" font-family="Figtree" font-size="24.00" fill="#333333">Fine&#45;tune MacBERTh</text>
<text xml:space="preserve" text-anchor="middle" x="1224" y="-1915.18" font-family="Figtree" font-size="24.00" fill="#333333">on OCR + TEI XML</text>
<text xml:space="preserve" text-anchor="middle" x="1224" y="-1885.93" font-family="Figtree" font-size="24.00" fill="#333333">produces fine&#45;tuned model</text>
</g>
<!-- MacBERTh_Fine_Tuned -->
<g id="node5" class="node">
<title>MacBERTh_Fine_Tuned</title>
<path fill="#7bccc4" stroke="black" d="M1475,-1618.01C1475,-1625.03 1426.59,-1630.73 1367,-1630.73 1307.41,-1630.73 1259,-1625.03 1259,-1618.01 1259,-1618.01 1259,-1503.6 1259,-1503.6 1259,-1496.59 1307.41,-1490.89 1367,-1490.89 1426.59,-1490.89 1475,-1496.59 1475,-1503.6 1475,-1503.6 1475,-1618.01 1475,-1618.01"/>
<path fill="none" stroke="black" d="M1475,-1618.01C1475,-1611 1426.59,-1605.3 1367,-1605.3 1307.41,-1605.3 1259,-1611 1259,-1618.01"/>
<text xml:space="preserve" text-anchor="middle" x="1367" y="-1567.26" font-family="Figtree" font-size="24.00" fill="#333333">Fine&#45;tuned</text>
<text xml:space="preserve" text-anchor="middle" x="1367" y="-1538.01" font-family="Figtree" font-size="24.00" fill="#333333">MacBERTh</text>
</g>
<!-- MacBERTh_training&#45;&gt;MacBERTh_Fine_Tuned -->
<g id="edge4" class="edge">
<title>MacBERTh_training&#45;&gt;MacBERTh_Fine_Tuned</title>
<path fill="none" stroke="black" d="M1275.73,-1791.93C1295.64,-1741.74 1317.77,-1685.94 1335.25,-1641.86"/>
<polygon fill="black" stroke="black" points="1338.48,-1643.2 1338.92,-1632.62 1331.98,-1640.62 1338.48,-1643.2"/>
</g>
<!-- Lincoln_scans -->
<g id="node6" class="node">
<title>Lincoln_scans</title>
<polygon fill="#7bccc4" stroke="black" points="1180.35,-1611.66 1177.35,-1615.66 1156.35,-1615.66 1153.35,-1611.66 871.65,-1611.66 871.65,-1509.96 1180.35,-1509.96 1180.35,-1611.66"/>
<text xml:space="preserve" text-anchor="middle" x="1026" y="-1567.26" font-family="Figtree" font-size="24.00" fill="#333333">Lincoln College/Bodleian</text>
<text xml:space="preserve" text-anchor="middle" x="1026" y="-1538.01" font-family="Figtree" font-size="24.00" fill="#333333">Scan pamphlets</text>
</g>
<!-- MacBERTh_training&#45;&gt;Lincoln_scans -->
<!-- merge_training&#45;&gt;MacBERTh_training -->
<g id="edge3" class="edge">
<title>merge_training&#45;&gt;MacBERTh_training</title>
<path fill="none" stroke="black" d="M1224,-2082.83C1224,-2078.69 1224,-2072.82 1224,-2065.76"/>
<polygon fill="black" stroke="black" points="1227.5,-2066.14 1224,-2056.14 1220.5,-2066.14 1227.5,-2066.14"/>
</g>
<!-- MACBERTH_OCR2TEI -->
<g id="node8" class="node">
<title>MACBERTH_OCR2TEI</title>
<polygon fill="#7bccc4" stroke="black" points="1205.35,-1169.49 908.65,-1169.49 908.65,-1067.79 1205.35,-1067.79 1205.35,-1169.49"/>
<text xml:space="preserve" text-anchor="middle" x="1057" y="-1125.09" font-family="Figtree" font-size="24.00" fill="#333333">Fine&#45;Tuned MacBERTh</text>
<text xml:space="preserve" text-anchor="middle" x="1057" y="-1095.84" font-family="Figtree" font-size="24.00" fill="#333333">produces TEI from OCR</text>
</g>
<!-- MacBERTh_Fine_Tuned&#45;&gt;MACBERTH_OCR2TEI -->
<g id="edge5" class="edge">
<title>MacBERTh_Fine_Tuned&#45;&gt;MACBERTH_OCR2TEI</title>
<path fill="none" stroke="black" d="M1340.29,-1490.39C1305.21,-1399.19 1248,-1250.49 1248,-1250.49 1248,-1250.49 1191.19,-1211.57 1139.53,-1176.18"/>
<polygon fill="black" stroke="black" points="1141.78,-1173.47 1131.55,-1170.71 1137.82,-1179.25 1141.78,-1173.47"/>
</g>
<!-- OCR_tool -->
<g id="node7" class="node">
<title>OCR_tool</title>
<polygon fill="#7bccc4" stroke="black" points="1235.06,-1461.89 815,-1461.89 706.94,-1258.49 1127,-1258.49 1235.06,-1461.89"/>
<text xml:space="preserve" text-anchor="middle" x="971" y="-1366.64" font-family="Figtree" font-size="24.00" fill="#333333">Kraken / Transkribus</text>
<text xml:space="preserve" text-anchor="middle" x="971" y="-1337.39" font-family="Figtree" font-size="24.00" fill="#333333">OCR / HTR</text>
</g>
<!-- Lincoln_scans&#45;&gt;OCR_tool -->
<g id="edge6" class="edge">
<title>Lincoln_scans&#45;&gt;OCR_tool</title>
<path fill="none" stroke="black" d="M1012.12,-1509.69C1008.96,-1498.28 1005.49,-1485.72 1001.93,-1472.88"/>
<polygon fill="black" stroke="black" points="1005.38,-1472.21 999.33,-1463.51 998.63,-1474.08 1005.38,-1472.21"/>
</g>
<!-- OCR_tool&#45;&gt;MACBERTH_OCR2TEI -->
<g id="edge7" class="edge">
<title>OCR_tool&#45;&gt;MACBERTH_OCR2TEI</title>
<path fill="none" stroke="black" d="M1007.22,-1258.29C1016.74,-1231.79 1026.7,-1204.02 1035.2,-1180.36"/>
<polygon fill="black" stroke="black" points="1038.4,-1181.81 1038.48,-1171.22 1031.81,-1179.45 1038.4,-1181.81"/>
</g>
<!-- Lincoln_TEI -->
<g id="node9" class="node">
<title>Lincoln_TEI</title>
<path fill="#7bccc4" stroke="black" d="M1234.6,-977.73C1234.6,-982.73 1155,-986.79 1057,-986.79 959,-986.79 879.4,-982.73 879.4,-977.73 879.4,-977.73 879.4,-896.23 879.4,-896.23 879.4,-891.23 959,-887.17 1057,-887.17 1155,-887.17 1234.6,-891.23 1234.6,-896.23 1234.6,-896.23 1234.6,-977.73 1234.6,-977.73"/>
<path fill="none" stroke="black" d="M1234.6,-977.73C1234.6,-972.73 1155,-968.67 1057,-968.67 959,-968.67 879.4,-972.73 879.4,-977.73"/>
<text xml:space="preserve" text-anchor="middle" x="1057" y="-928.8" font-family="Figtree" font-size="24.00" fill="#333333">Lincoln/Bodleian TEI Outputs</text>
</g>
<!-- MACBERTH_OCR2TEI&#45;&gt;Lincoln_TEI -->
<g id="edge8" class="edge">
<title>MACBERTH_OCR2TEI&#45;&gt;Lincoln_TEI</title>
<path fill="none" stroke="black" d="M1057,-1067.59C1057,-1046.2 1057,-1021.03 1057,-998.59"/>
<polygon fill="black" stroke="black" points="1060.5,-998.65 1057,-988.65 1053.5,-998.65 1060.5,-998.65"/>
</g>
<!-- EME_to_ME_dict -->
<g id="node10" class="node">
<title>EME_to_ME_dict</title>
<path fill="#7bccc4" stroke="black" d="M854.6,-697.36C854.6,-702.36 727.93,-706.42 572,-706.42 416.07,-706.42 289.4,-702.36 289.4,-697.36 289.4,-697.36 289.4,-615.86 289.4,-615.86 289.4,-610.86 416.07,-606.8 572,-606.8 727.93,-606.8 854.6,-610.86 854.6,-615.86 854.6,-615.86 854.6,-697.36 854.6,-697.36"/>
<path fill="none" stroke="black" d="M854.6,-697.36C854.6,-692.37 727.93,-688.31 572,-688.31 416.07,-688.31 289.4,-692.37 289.4,-697.36"/>
<text xml:space="preserve" text-anchor="middle" x="572" y="-648.43" font-family="Figtree" font-size="24.00" fill="#333333">Normalisation of EME to ME via dictionary/library</text>
</g>
<!-- Lincoln_TEI&#45;&gt;EME_to_ME_dict -->
<g id="edge9" class="edge">
<title>Lincoln_TEI&#45;&gt;EME_to_ME_dict</title>
<path fill="none" stroke="black" d="M971.13,-886.69C886.03,-837.85 755.96,-763.19 667.61,-712.49"/>
<polygon fill="black" stroke="black" points="669.58,-709.58 659.17,-707.64 666.1,-715.65 669.58,-709.58"/>
</g>
<!-- MacBERTh_analysis -->
<g id="node13" class="node">
<title>MacBERTh_analysis</title>
<polygon fill="#7bccc4" stroke="black" points="1583.85,-548.55 1296.15,-548.55 1296.15,-476.1 1583.85,-476.1 1583.85,-548.55"/>
<text xml:space="preserve" text-anchor="middle" x="1440" y="-504.15" font-family="Figtree" font-size="24.00" fill="#333333">MacBERTh for Analysis</text>
</g>
<!-- Lincoln_TEI&#45;&gt;MacBERTh_analysis -->
<!-- DB -->
<g id="node14" class="node">
<title>DB</title>
<path fill="#7bccc4" stroke="black" d="M2180.35,-697.36C2180.35,-702.36 2112.51,-706.42 2029,-706.42 1945.49,-706.42 1877.65,-702.36 1877.65,-697.36 1877.65,-697.36 1877.65,-615.86 1877.65,-615.86 1877.65,-610.86 1945.49,-606.8 2029,-606.8 2112.51,-606.8 2180.35,-610.86 2180.35,-615.86 2180.35,-615.86 2180.35,-697.36 2180.35,-697.36"/>
<path fill="none" stroke="black" d="M2180.35,-697.36C2180.35,-692.37 2112.51,-688.31 2029,-688.31 1945.49,-688.31 1877.65,-692.37 1877.65,-697.36"/>
<text xml:space="preserve" text-anchor="middle" x="2029" y="-648.43" font-family="Figtree" font-size="24.00" fill="#333333">TEI Database (PostGres)</text>
</g>
<!-- Lincoln_TEI&#45;&gt;DB -->
<g id="edge27" class="edge">
<title>Lincoln_TEI&#45;&gt;DB</title>
<path fill="none" stroke="black" d="M1217.78,-889.93C1397.23,-838.54 1686,-755.84 1866.25,-704.22"/>
<polygon fill="black" stroke="black" points="1867.05,-707.63 1875.7,-701.51 1865.12,-700.9 1867.05,-707.63"/>
</g>
<!-- Normalised -->
<g id="node11" class="node">
<title>Normalised</title>
<path fill="#7bccc4" stroke="black" d="M680.98,-553.08C680.98,-558.08 632.13,-562.13 572,-562.13 511.87,-562.13 463.02,-558.08 463.02,-553.08 463.02,-553.08 463.02,-471.57 463.02,-471.57 463.02,-466.57 511.87,-462.52 572,-462.52 632.13,-462.52 680.98,-466.57 680.98,-471.57 680.98,-471.57 680.98,-553.08 680.98,-553.08"/>
<path fill="none" stroke="black" d="M680.98,-553.08C680.98,-548.08 632.13,-544.02 572,-544.02 511.87,-544.02 463.02,-548.08 463.02,-553.08"/>
<text xml:space="preserve" text-anchor="middle" x="572" y="-504.15" font-family="Figtree" font-size="24.00" fill="#333333">Normalised data</text>
</g>
<!-- EME_to_ME_dict&#45;&gt;Normalised -->
<g id="edge10" class="edge">
<title>EME_to_ME_dict&#45;&gt;Normalised</title>
<path fill="none" stroke="black" d="M572,-606.64C572,-596.02 572,-584.67 572,-573.67"/>
<polygon fill="black" stroke="black" points="575.5,-573.89 572,-563.9 568.5,-573.9 575.5,-573.89"/>
</g>
<!-- Normaliser_DB -->
<g id="node12" class="node">
<title>Normaliser_DB</title>
<path fill="#7bccc4" stroke="black" d="M709.85,-977.73C709.85,-982.73 648.06,-986.79 572,-986.79 495.94,-986.79 434.15,-982.73 434.15,-977.73 434.15,-977.73 434.15,-896.23 434.15,-896.23 434.15,-891.23 495.94,-887.17 572,-887.17 648.06,-887.17 709.85,-891.23 709.85,-896.23 709.85,-896.23 709.85,-977.73 709.85,-977.73"/>
<path fill="none" stroke="black" d="M709.85,-977.73C709.85,-972.73 648.06,-968.67 572,-968.67 495.94,-968.67 434.15,-972.73 434.15,-977.73"/>
<text xml:space="preserve" text-anchor="middle" x="572" y="-928.8" font-family="Figtree" font-size="24.00" fill="#333333">EME to ME Dictionary</text>
</g>
<!-- Normaliser_DB&#45;&gt;EME_to_ME_dict -->
<g id="edge28" class="edge">
<title>Normaliser_DB&#45;&gt;EME_to_ME_dict</title>
<path fill="none" stroke="black" d="M572,-886.85C572,-839.79 572,-768.66 572,-718.12"/>
<polygon fill="black" stroke="black" points="575.5,-718.23 572,-708.23 568.5,-718.23 575.5,-718.23"/>
</g>
<!-- Semantic_drift -->
<g id="node17" class="node">
<title>Semantic_drift</title>
<polygon fill="#7bccc4" stroke="black" points="1978.6,-343.23 1671.4,-343.23 1671.4,-241.53 1978.6,-241.53 1978.6,-343.23"/>
<text xml:space="preserve" text-anchor="middle" x="1825" y="-298.82" font-family="Figtree" font-size="24.00" fill="#333333">Semantic Drift</text>
<text xml:space="preserve" text-anchor="middle" x="1825" y="-269.57" font-family="Figtree" font-size="24.00" fill="#333333">via dynamic embeddings</text>
</g>
<!-- MacBERTh_analysis&#45;&gt;Semantic_drift -->
<g id="edge14" class="edge">
<title>MacBERTh_analysis&#45;&gt;Semantic_drift</title>
<path fill="none" stroke="black" d="M1516.14,-475.72C1555.34,-457.4 1595,-438.85 1595,-438.85 1595,-438.85 1660,-430.85 1660,-430.85 1660,-430.85 1711,-388.36 1756.29,-350.62"/>
<polygon fill="black" stroke="black" points="1758.36,-353.45 1763.8,-344.36 1753.88,-348.08 1758.36,-353.45"/>
</g>
<!-- Network_analysis -->
<g id="node18" class="node">
<title>Network_analysis</title>
<polygon fill="#7bccc4" stroke="black" points="2411.35,-357.85 2000.65,-357.85 2000.65,-226.9 2411.35,-226.9 2411.35,-357.85"/>
<text xml:space="preserve" text-anchor="middle" x="2206" y="-313.45" font-family="Figtree" font-size="24.00" fill="#333333">Network Analysis</text>
<text xml:space="preserve" text-anchor="middle" x="2206" y="-284.2" font-family="Figtree" font-size="24.00" fill="#333333">citation, phrase&#45;sharing,</text>
<text xml:space="preserve" text-anchor="middle" x="2206" y="-254.95" font-family="Figtree" font-size="24.00" fill="#333333">authorial &amp; geo&#45;temporal diffusion</text>
</g>
<!-- MacBERTh_analysis&#45;&gt;Network_analysis -->
<g id="edge15" class="edge">
<title>MacBERTh_analysis&#45;&gt;Network_analysis</title>
<path fill="none" stroke="black" d="M1516.14,-475.72C1555.34,-457.4 1595,-438.85 1595,-438.85 1595,-438.85 1990,-430.85 1990,-430.85 1990,-430.85 2041.69,-397.95 2094.5,-364.34"/>
<polygon fill="black" stroke="black" points="2096.18,-367.42 2102.73,-359.1 2092.42,-361.52 2096.18,-367.42"/>
</g>
<!-- Geo_temporal_mapping -->
<g id="node19" class="node">
<title>Geo_temporal_mapping</title>
<polygon fill="#7bccc4" stroke="black" points="1648.97,-343.23 1275.03,-343.23 1275.03,-241.53 1648.97,-241.53 1648.97,-343.23"/>
<text xml:space="preserve" text-anchor="middle" x="1462" y="-298.82" font-family="Figtree" font-size="24.00" fill="#333333">Pamphlets, ideas &amp; drift</text>
<text xml:space="preserve" text-anchor="middle" x="1462" y="-269.57" font-family="Figtree" font-size="24.00" fill="#333333">mapped across time and space</text>
</g>
<!-- MacBERTh_analysis&#45;&gt;Geo_temporal_mapping -->
<g id="edge20" class="edge">
<title>MacBERTh_analysis&#45;&gt;Geo_temporal_mapping</title>
<path fill="none" stroke="black" d="M1443.58,-475.82C1446.89,-443.11 1451.86,-393.85 1455.8,-354.76"/>
<polygon fill="black" stroke="black" points="1459.27,-355.32 1456.79,-345.02 1452.3,-354.62 1459.27,-355.32"/>
</g>
<!-- DB&#45;&gt;MacBERTh_analysis -->
<g id="edge11" class="edge">
<title>DB&#45;&gt;MacBERTh_analysis</title>
<path fill="none" stroke="black" d="M1877.21,-628.4C1752.05,-605.96 1595,-577.8 1595,-577.8 1595,-577.8 1567.73,-566.46 1536.07,-553.29"/>
<polygon fill="black" stroke="black" points="1537.64,-550.15 1527.06,-549.54 1534.95,-556.61 1537.64,-550.15"/>
</g>
<!-- IFI -->
<g id="node15" class="node">
<title>IFI</title>
<polygon fill="#7bccc4" stroke="black" points="1904.47,-548.55 1605.53,-548.55 1605.53,-476.1 1904.47,-476.1 1904.47,-548.55"/>
<text xml:space="preserve" text-anchor="middle" x="1755" y="-504.15" font-family="Figtree" font-size="24.00" fill="#333333">Inverse Frequency Index</text>
</g>
<!-- DB&#45;&gt;IFI -->
<g id="edge13" class="edge">
<title>DB&#45;&gt;IFI</title>
<path fill="none" stroke="black" d="M1935.47,-607.04C1902.32,-589.82 1865.37,-570.64 1833.59,-554.14"/>
<polygon fill="black" stroke="black" points="1835.29,-551.08 1824.81,-549.57 1832.07,-557.29 1835.29,-551.08"/>
</g>
<!-- RAG_index -->
<g id="node16" class="node">
<title>RAG_index</title>
<polygon fill="#7bccc4" stroke="black" points="2179.6,-577.8 1926.4,-577.8 1926.4,-446.85 2179.6,-446.85 2179.6,-577.8"/>
<text xml:space="preserve" text-anchor="middle" x="2053" y="-533.4" font-family="Figtree" font-size="24.00" fill="#333333">RAG Index (FAISS)</text>
<text xml:space="preserve" text-anchor="middle" x="2053" y="-504.15" font-family="Figtree" font-size="24.00" fill="#333333">ideological clusters,</text>
<text xml:space="preserve" text-anchor="middle" x="2053" y="-474.9" font-family="Figtree" font-size="24.00" fill="#333333">phrase reuse</text>
</g>
<!-- DB&#45;&gt;RAG_index -->
<g id="edge12" class="edge">
<title>DB&#45;&gt;RAG_index</title>
<path fill="none" stroke="black" d="M2037.26,-606.64C2038.2,-601.06 2039.18,-595.27 2040.16,-589.44"/>
<polygon fill="black" stroke="black" points="2043.59,-590.15 2041.8,-579.7 2036.69,-588.98 2043.59,-590.15"/>
</g>
<!-- DB&#45;&gt;Semantic_drift -->
<g id="edge16" class="edge">
<title>DB&#45;&gt;Semantic_drift</title>
<path fill="none" stroke="black" d="M2129.29,-607.44C2162.43,-591.52 2191,-577.8 2191,-577.8 2191,-577.8 2191,-438.85 2191,-438.85 2191,-438.85 1990,-430.85 1990,-430.85 1990,-430.85 1939,-388.36 1893.71,-350.62"/>
<polygon fill="black" stroke="black" points="1896.12,-348.08 1886.2,-344.36 1891.64,-353.45 1896.12,-348.08"/>
</g>
<!-- DB&#45;&gt;Network_analysis -->
<g id="edge17" class="edge">
<title>DB&#45;&gt;Network_analysis</title>
<path fill="none" stroke="black" d="M2139.15,-607.99C2176.52,-591.84 2209,-577.8 2209,-577.8 2209,-577.8 2209,-438.85 2209,-438.85 2209,-438.85 2208.3,-404.68 2207.57,-369.46"/>
<polygon fill="black" stroke="black" points="2211.07,-369.47 2207.36,-359.54 2204.07,-369.61 2211.07,-369.47"/>
</g>
<!-- Historical_context -->
<g id="node20" class="node">
<title>Historical_context</title>
<polygon fill="#7bccc4" stroke="black" points="2836.97,-343.23 2433.03,-343.23 2433.03,-241.53 2836.97,-241.53 2836.97,-343.23"/>
<text xml:space="preserve" text-anchor="middle" x="2635" y="-298.82" font-family="Figtree" font-size="24.00" fill="#333333">Computational outputs grounded</text>
<text xml:space="preserve" text-anchor="middle" x="2635" y="-269.57" font-family="Figtree" font-size="24.00" fill="#333333">in early modern print culture</text>
</g>
<!-- DB&#45;&gt;Historical_context -->
<g id="edge21" class="edge">
<title>DB&#45;&gt;Historical_context</title>
<path fill="none" stroke="black" d="M2142.55,-608.11C2181.28,-591.91 2215,-577.8 2215,-577.8 2215,-577.8 2429.01,-432.87 2551.5,-349.92"/>
<polygon fill="black" stroke="black" points="2553.31,-352.92 2559.63,-344.42 2549.38,-347.13 2553.31,-352.92"/>
</g>
<!-- IFI&#45;&gt;Semantic_drift -->
<g id="edge18" class="edge">
<title>IFI&#45;&gt;Semantic_drift</title>
<path fill="none" stroke="black" d="M1766.4,-475.82C1776.96,-442.97 1792.86,-393.43 1805.44,-354.26"/>
<polygon fill="black" stroke="black" points="1808.71,-355.54 1808.43,-344.95 1802.04,-353.4 1808.71,-355.54"/>
</g>
<!-- RAG_index&#45;&gt;Semantic_drift -->
<g id="edge19" class="edge">
<title>RAG_index&#45;&gt;Semantic_drift</title>
<path fill="none" stroke="black" d="M1985.21,-446.52C1953.52,-416.23 1916.09,-380.45 1885.39,-351.1"/>
<polygon fill="black" stroke="black" points="1888.07,-348.82 1878.42,-344.44 1883.23,-353.88 1888.07,-348.82"/>
</g>
<!-- Interpretation -->
<g id="node21" class="node">
<title>Interpretation</title>
<polygon fill="#7bccc4" stroke="black" points="2224.85,-197.9 1805.15,-197.9 1805.15,-125.45 2224.85,-125.45 2224.85,-197.9"/>
<text xml:space="preserve" text-anchor="middle" x="2015" y="-153.5" font-family="Figtree" font-size="24.00" fill="#333333">Historically&#45;informed Interpretation</text>
</g>
<!-- Semantic_drift&#45;&gt;Interpretation -->
<g id="edge22" class="edge">
<title>Semantic_drift&#45;&gt;Interpretation</title>
<path fill="none" stroke="black" d="M1899.28,-241.06C1917.1,-228.99 1935.95,-216.22 1953.15,-204.57"/>
<polygon fill="black" stroke="black" points="1954.94,-207.58 1961.26,-199.08 1951.02,-201.79 1954.94,-207.58"/>
</g>
<!-- Network_analysis&#45;&gt;Interpretation -->
<g id="edge23" class="edge">
<title>Network_analysis&#45;&gt;Interpretation</title>
<path fill="none" stroke="black" d="M2109.66,-226.46C2098.66,-219.05 2087.67,-211.64 2077.28,-204.64"/>
<polygon fill="black" stroke="black" points="2079.43,-201.87 2069.18,-199.18 2075.52,-207.67 2079.43,-201.87"/>
</g>
<!-- Geo_temporal_mapping&#45;&gt;Interpretation -->
<g id="edge24" class="edge">
<title>Geo_temporal_mapping&#45;&gt;Interpretation</title>
<path fill="none" stroke="black" d="M1616.55,-241.05C1641.85,-232.81 1660,-226.9 1660,-226.9 1660,-226.9 1729.38,-214.35 1806.8,-200.34"/>
<polygon fill="black" stroke="black" points="1807.07,-203.85 1816.29,-198.63 1805.82,-196.96 1807.07,-203.85"/>
</g>
<!-- Historical_context&#45;&gt;Interpretation -->
<g id="edge25" class="edge">
<title>Historical_context&#45;&gt;Interpretation</title>
<path fill="none" stroke="black" d="M2468.74,-241.05C2441.52,-232.81 2422,-226.9 2422,-226.9 2422,-226.9 2331.85,-212.68 2236.41,-197.61"/>
<polygon fill="black" stroke="black" points="2236.98,-194.16 2226.55,-196.06 2235.88,-201.07 2236.98,-194.16"/>
</g>
<!-- Meta -->
<g id="node22" class="node">
<title>Meta</title>
<polygon fill="#7bccc4" stroke="black" points="2301.35,-96.45 1728.65,-96.45 1728.65,-24 2301.35,-24 2301.35,-96.45"/>
<text xml:space="preserve" text-anchor="middle" x="2015" y="-52.05" font-family="Figtree" font-size="24.00" fill="#333333">Conceptual Metaphors As Deep Semantic Frames</text>
</g>
<!-- Interpretation&#45;&gt;Meta -->
<g id="edge26" class="edge">
<title>Interpretation&#45;&gt;Meta</title>
<path fill="none" stroke="black" d="M2015,-125.05C2015,-119.63 2015,-113.95 2015,-108.33"/>
<polygon fill="black" stroke="black" points="2018.5,-108.45 2015,-98.45 2011.5,-108.45 2018.5,-108.45"/>
</g>
</g>
</svg>
