<?xml version="1.0" encoding="UTF-8" standalone="no"?>
<!DOCTYPE svg PUBLIC "-//W3C//DTD SVG 1.1//EN"
 "http://www.w3.org/Graphics/SVG/1.1/DTD/svg11.dtd">
<!-- Generated by graphviz version 14.0.5 (20251129.0259)
 -->
<!-- Title: pamphlet_pipeline Pages: 1 -->
<svg width="576pt" height="719pt"
 viewBox="0.00 0.00 576.00 719.00" xmlns="http://www.w3.org/2000/svg" xmlns:xlink="http://www.w3.org/1999/xlink">
<g id="graph0" class="graph" transform="scale(0.320713 0.320713) rotate(0) translate(4 2239)">
<title>pamphlet_pipeline</title>
<polygon fill="#dddde0" stroke="none" points="-4,4 -4,-2239 1792,-2239 1792,4 -4,4"/>
<g id="clust1" class="cluster">
<title>cluster_training</title>
<polygon fill="#f0f9e8" stroke="black" points="8,-1607.47 8,-2224.48 594,-2224.48 594,-1607.47 8,-1607.47"/>
<text xml:space="preserve" text-anchor="middle" x="301" y="-2174.88" font-family="Figtree" font-size="48.00" fill="#0868ac">Training Phase</text>
</g>
<g id="clust2" class="cluster">
<title>cluster_production</title>
<polygon fill="#f0f9e8" stroke="black" points="602,-744.34 602,-1940.6 1780,-1940.6 1780,-744.34 602,-744.34"/>
<text xml:space="preserve" text-anchor="middle" x="1191" y="-1891" font-family="Figtree" font-size="48.00" fill="#0868ac">Production Phase</text>
</g>
<g id="clust3" class="cluster">
<title>cluster_digitisation</title>
<polygon fill="#bae4bc" stroke="black" points="1192,-1369.82 1192,-1843.61 1772,-1843.61 1772,-1369.82 1192,-1369.82"/>
<text xml:space="preserve" text-anchor="middle" x="1482" y="-1809.21" font-family="Figtree" font-size="32.00" fill="#0868ac">Digitisation</text>
</g>
<g id="clust4" class="cluster">
<title>cluster_help_digitise</title>
<polygon fill="#eecccc" stroke="black" points="1200,-1380.34 1200,-1596.95 1764,-1596.95 1764,-1380.34 1200,-1380.34"/>
<text xml:space="preserve" text-anchor="middle" x="1482" y="-1562.55" font-family="Figtree" font-size="32.00">Digitisation</text>
</g>
<g id="clust5" class="cluster">
<title>cluster_tei_generation</title>
<polygon fill="#bae4bc" stroke="black" points="610,-1217.76 610,-1587.48 1184,-1587.48 1184,-1217.76 610,-1217.76"/>
<text xml:space="preserve" text-anchor="middle" x="897" y="-1553.08" font-family="Figtree" font-size="32.00" fill="#0868ac">TEI Generation</text>
</g>
<g id="clust6" class="cluster">
<title>cluster_normalisation</title>
<polygon fill="#bae4bc" stroke="black" points="697,-754.86 697,-1207.24 1206,-1207.24 1206,-754.86 697,-754.86"/>
<text xml:space="preserve" text-anchor="middle" x="951.5" y="-1172.84" font-family="Figtree" font-size="32.00" fill="#0868ac">Linguistic Normalisation / Mapping</text>
</g>
<g id="clust7" class="cluster">
<title>cluster_analysis</title>
<polygon fill="#f0f9e8" stroke="black" points="203,-10.52 203,-733.82 1658,-733.82 1658,-10.52 203,-10.52"/>
<text xml:space="preserve" text-anchor="middle" x="930.5" y="-699.42" font-family="Figtree" font-size="32.00" fill="#0868ac">Analysis Phase</text>
</g>
<g id="clust8" class="cluster">
<title>cluster_computation</title>
<polygon fill="#bae4bc" stroke="black" points="211,-328.66 211,-661.49 1650,-661.49 1650,-328.66 211,-328.66"/>
<text xml:space="preserve" text-anchor="middle" x="930.5" y="-627.09" font-family="Figtree" font-size="32.00" fill="#0868ac">Computational Processes</text>
</g>
<g id="clust9" class="cluster">
<title>cluster_outputs</title>
<polygon fill="#bae4bc" stroke="black" points="515,-21.04 515,-318.14 1099,-318.14 1099,-21.04 515,-21.04"/>
<text xml:space="preserve" text-anchor="middle" x="807" y="-283.74" font-family="Figtree" font-size="32.00" fill="#0868ac">In Sum</text>
</g>
<!-- EEBO_images -->
<g id="node1" class="node">
<title>EEBO_images</title>
<polygon fill="#7bccc4" stroke="black" points="356.48,-2111.37 19.52,-2111.37 15.53,-2107.37 15.53,-2009.67 352.48,-2009.67 356.48,-2013.67 356.48,-2111.37"/>
<polyline fill="none" stroke="black" points="352.48,-2107.37 15.53,-2107.37"/>
<polyline fill="none" stroke="black" points="352.48,-2107.37 352.48,-2009.67"/>
<polyline fill="none" stroke="black" points="352.48,-2107.37 356.48,-2111.37"/>
<text xml:space="preserve" text-anchor="middle" x="186" y="-2066.97" font-family="Figtree" font-size="24.00">EEBO Page Images</text>
<text xml:space="preserve" text-anchor="middle" x="186" y="-2037.72" font-family="Figtree" font-size="24.00">(public domain / via Oxford)</text>
</g>
<!-- merge_training -->
<g id="node4" class="node">
<title>merge_training</title>
<ellipse fill="#7bccc4" stroke="black" cx="339" cy="-1960.52" rx="7.2" ry="7.2"/>
</g>
<!-- EEBO_images&#45;&gt;merge_training -->
<g id="edge1" class="edge">
<title>EEBO_images&#45;&gt;merge_training</title>
<path fill="none" stroke="black" d="M264.29,-2009.37C287.03,-1994.81 309.56,-1980.38 323.84,-1971.23"/>
<polygon fill="black" stroke="black" points="325.55,-1974.29 332.09,-1965.95 321.78,-1968.4 325.55,-1974.29"/>
</g>
<!-- EEBO_TEI_XML -->
<g id="node2" class="node">
<title>EEBO_TEI_XML</title>
<polygon fill="#7bccc4" stroke="black" points="586,-2111.37 583,-2115.37 562,-2115.37 559,-2111.37 370,-2111.37 370,-2009.67 586,-2009.67 586,-2111.37"/>
<text xml:space="preserve" text-anchor="middle" x="478" y="-2066.97" font-family="Figtree" font-size="24.00">EEBO&#45;TCP XML</text>
<text xml:space="preserve" text-anchor="middle" x="478" y="-2037.72" font-family="Figtree" font-size="24.00">Gold standard</text>
</g>
<!-- EEBO_TEI_XML&#45;&gt;merge_training -->
<g id="edge2" class="edge">
<title>EEBO_TEI_XML&#45;&gt;merge_training</title>
<path fill="none" stroke="black" d="M406.87,-2009.37C386.62,-1995.1 366.56,-1980.95 353.56,-1971.79"/>
<polygon fill="black" stroke="black" points="355.88,-1969.14 345.69,-1966.24 351.85,-1974.86 355.88,-1969.14"/>
</g>
<!-- MacBERTh_training -->
<g id="node3" class="node">
<title>MacBERTh_training</title>
<polygon fill="#7bccc4" stroke="black" points="586.42,-1786.42 192.83,-1786.42 91.58,-1640.62 485.17,-1640.62 586.42,-1786.42"/>
<text xml:space="preserve" text-anchor="middle" x="339" y="-1719.97" font-family="Figtree" font-size="24.00">Fine&#45;tune MacBERTh</text>
<text xml:space="preserve" text-anchor="middle" x="339" y="-1690.72" font-family="Figtree" font-size="24.00">on OCR + TEI XML</text>
</g>
<!-- MacBERTh_Fine_Tuned -->
<g id="node5" class="node">
<title>MacBERTh_Fine_Tuned</title>
<polygon fill="#7bccc4" stroke="black" points="1176.3,-1501.17 732,-1501.17 617.7,-1413.87 1062,-1413.87 1176.3,-1501.17"/>
<text xml:space="preserve" text-anchor="middle" x="897" y="-1449.35" font-family="Figtree" font-size="24.00">MacBERTh (Fine&#45;tuned)</text>
</g>
<!-- MacBERTh_training&#45;&gt;MacBERTh_Fine_Tuned -->
<g id="edge4" class="edge">
<title>MacBERTh_training&#45;&gt;MacBERTh_Fine_Tuned</title>
<path fill="none" stroke="black" d="M488.17,-1644.62C584.18,-1600.91 706.6,-1545.19 792.35,-1506.16"/>
<polygon fill="black" stroke="black" points="793.59,-1509.44 801.24,-1502.11 790.69,-1503.07 793.59,-1509.44"/>
</g>
<!-- merge_training&#45;&gt;MacBERTh_training -->
<g id="edge3" class="edge">
<title>merge_training&#45;&gt;MacBERTh_training</title>
<path fill="none" stroke="black" d="M339,-1952.97C339,-1930.95 339,-1857.66 339,-1798.09"/>
<polygon fill="black" stroke="black" points="342.5,-1798.27 339,-1788.27 335.5,-1798.27 342.5,-1798.27"/>
</g>
<!-- MacBERTh_OCR2TEI -->
<g id="node9" class="node">
<title>MacBERTh_OCR2TEI</title>
<path fill="#43a2ca" stroke="black" d="M1175.6,-1334.27C1175.6,-1339.27 1081.21,-1343.33 965,-1343.33 848.79,-1343.33 754.4,-1339.27 754.4,-1334.27 754.4,-1334.27 754.4,-1252.77 754.4,-1252.77 754.4,-1247.77 848.79,-1243.71 965,-1243.71 1081.21,-1243.71 1175.6,-1247.77 1175.6,-1252.77 1175.6,-1252.77 1175.6,-1334.27 1175.6,-1334.27"/>
<path fill="none" stroke="black" d="M1175.6,-1334.27C1175.6,-1329.28 1081.21,-1325.22 965,-1325.22 848.79,-1325.22 754.4,-1329.28 754.4,-1334.27"/>
<text xml:space="preserve" text-anchor="middle" x="965" y="-1285.35" font-family="Figtree" font-size="24.00">MacBERTh produced TEI from OCR</text>
</g>
<!-- MacBERTh_Fine_Tuned&#45;&gt;MacBERTh_OCR2TEI -->
<g id="edge8" class="edge">
<title>MacBERTh_Fine_Tuned&#45;&gt;MacBERTh_OCR2TEI</title>
<path fill="none" stroke="black" d="M915.04,-1413.53C922.68,-1395.34 931.71,-1373.83 939.97,-1354.14"/>
<polygon fill="black" stroke="black" points="943.11,-1355.7 943.76,-1345.13 936.66,-1352.99 943.11,-1355.7"/>
</g>
<!-- EME_to_ME_dict -->
<g id="node10" class="node">
<title>EME_to_ME_dict</title>
<polygon fill="#7bccc4" stroke="black" points="1093.72,-1119.37 748.27,-1119.37 748.27,-1115.37 744.27,-1115.37 744.27,-1111.37 748.27,-1111.37 748.27,-1025.67 744.27,-1025.67 744.27,-1021.67 748.27,-1021.67 748.27,-1017.67 1093.72,-1017.67 1093.72,-1119.37"/>
<polyline fill="none" stroke="black" points="748.27,-1115.37 752.27,-1115.37 752.27,-1111.37 748.27,-1111.37"/>
<polyline fill="none" stroke="black" points="748.27,-1025.67 752.27,-1025.67 752.27,-1021.67 748.27,-1021.67"/>
<text xml:space="preserve" text-anchor="middle" x="921" y="-1074.97" font-family="Figtree" font-size="24.00">Normalisation of EME to ME</text>
<text xml:space="preserve" text-anchor="middle" x="921" y="-1045.72" font-family="Figtree" font-size="24.00">via dictionary/library</text>
</g>
<!-- MacBERTh_Fine_Tuned&#45;&gt;EME_to_ME_dict -->
<g id="edge12" class="edge">
<title>MacBERTh_Fine_Tuned&#45;&gt;EME_to_ME_dict</title>
<path fill="none" stroke="black" d="M839.86,-1413.41C797.47,-1381.42 747,-1343.33 747,-1343.33 747,-1343.33 747,-1235.71 747,-1235.71 747,-1235.71 809.91,-1175.63 860.08,-1127.71"/>
<polygon fill="black" stroke="black" points="862.41,-1130.32 867.23,-1120.88 857.58,-1125.26 862.41,-1130.32"/>
</g>
<!-- Scan_OCR -->
<g id="node6" class="node">
<title>Scan_OCR</title>
<polygon fill="#7bccc4" stroke="black" points="1700.65,-1757.17 1352.83,-1757.17 1263.35,-1669.87 1611.17,-1669.87 1700.65,-1757.17"/>
<text xml:space="preserve" text-anchor="middle" x="1482" y="-1705.35" font-family="Figtree" font-size="24.00">Pamphlet scanned</text>
</g>
<!-- OCR_tool -->
<g id="node8" class="node">
<title>OCR_tool</title>
<polygon fill="#7bccc4" stroke="black" points="1755.95,-1493.97 1530.05,-1493.97 1530.05,-1489.97 1526.05,-1489.97 1526.05,-1485.97 1530.05,-1485.97 1530.05,-1429.07 1526.05,-1429.07 1526.05,-1425.07 1530.05,-1425.07 1530.05,-1421.07 1755.95,-1421.07 1755.95,-1493.97"/>
<polyline fill="none" stroke="black" points="1530.05,-1489.97 1534.05,-1489.97 1534.05,-1485.97 1530.05,-1485.97"/>
<polyline fill="none" stroke="black" points="1530.05,-1429.07 1534.05,-1429.07 1534.05,-1425.07 1530.05,-1425.07"/>
<text xml:space="preserve" text-anchor="middle" x="1643" y="-1463.97" font-family="Figtree" font-size="24.00">Kraken / Transkribus</text>
<text xml:space="preserve" text-anchor="middle" x="1643" y="-1434.72" font-family="Figtree" font-size="24.00">OCR / HTR</text>
</g>
<!-- Scan_OCR&#45;&gt;OCR_tool -->
<g id="edge6" class="edge">
<title>Scan_OCR&#45;&gt;OCR_tool</title>
<path fill="none" stroke="black" d="M1509.31,-1669.43C1538.46,-1623.45 1584.45,-1550.9 1614.16,-1504.01"/>
<polygon fill="black" stroke="black" points="1617.04,-1506.01 1619.44,-1495.69 1611.13,-1502.27 1617.04,-1506.01"/>
</g>
<!-- Lincoln_scans -->
<g id="node7" class="node">
<title>Lincoln_scans</title>
<polygon fill="#7bccc4" stroke="black" points="1516.35,-1508.37 1211.65,-1508.37 1207.65,-1504.37 1207.65,-1406.67 1512.35,-1406.67 1516.35,-1410.67 1516.35,-1508.37"/>
<polyline fill="none" stroke="black" points="1512.35,-1504.37 1207.65,-1504.37"/>
<polyline fill="none" stroke="black" points="1512.35,-1504.37 1512.35,-1406.67"/>
<polyline fill="none" stroke="black" points="1512.35,-1504.37 1516.35,-1508.37"/>
<text xml:space="preserve" text-anchor="middle" x="1362" y="-1463.97" font-family="Figtree" font-size="24.00">Lincoln College/Bodleian</text>
<text xml:space="preserve" text-anchor="middle" x="1362" y="-1434.72" font-family="Figtree" font-size="24.00">Scan pamphlets</text>
</g>
<!-- Lincoln_scans&#45;&gt;Scan_OCR -->
<g id="edge5" class="edge">
<title>Lincoln_scans&#45;&gt;Scan_OCR</title>
<path fill="none" stroke="black" d="M1385.76,-1508.81C1406.28,-1552.25 1435.85,-1614.83 1456.78,-1659.15"/>
<polygon fill="black" stroke="black" points="1453.56,-1660.52 1461,-1668.07 1459.89,-1657.53 1453.56,-1660.52"/>
</g>
<!-- OCR_tool&#45;&gt;MacBERTh_OCR2TEI -->
<g id="edge7" class="edge">
<title>OCR_tool&#45;&gt;MacBERTh_OCR2TEI</title>
<path fill="none" stroke="black" d="M1577.73,-1420.71C1549.59,-1405.26 1523,-1390.67 1523,-1390.67 1523,-1390.67 1342.73,-1359.61 1187.11,-1332.79"/>
<polygon fill="black" stroke="black" points="1187.9,-1329.38 1177.45,-1331.13 1186.71,-1336.28 1187.9,-1329.38"/>
</g>
<!-- MacBERTh_OCR2TEI&#45;&gt;EME_to_ME_dict -->
<g id="edge9" class="edge">
<title>MacBERTh_OCR2TEI&#45;&gt;EME_to_ME_dict</title>
<path fill="none" stroke="black" d="M955.29,-1243.31C948.76,-1210.21 940.1,-1166.32 933.12,-1130.93"/>
<polygon fill="black" stroke="black" points="936.58,-1130.39 931.21,-1121.25 929.71,-1131.74 936.58,-1130.39"/>
</g>
<!-- Tokenizer -->
<g id="node12" class="node">
<title>Tokenizer</title>
<polygon fill="#7bccc4" stroke="black" points="1029,-970.35 813,-970.35 813,-966.35 809,-966.35 809,-962.35 813,-962.35 813,-934.7 809,-934.7 809,-930.7 813,-930.7 813,-926.7 1029,-926.7 1029,-970.35"/>
<polyline fill="none" stroke="black" points="813,-966.35 817,-966.35 817,-962.35 813,-962.35"/>
<polyline fill="none" stroke="black" points="813,-934.7 817,-934.7 817,-930.7 813,-930.7"/>
<text xml:space="preserve" text-anchor="middle" x="921" y="-940.35" font-family="Figtree" font-size="24.00">Tokenizer</text>
</g>
<!-- EME_to_ME_dict&#45;&gt;Tokenizer -->
<g id="edge10" class="edge">
<title>EME_to_ME_dict&#45;&gt;Tokenizer</title>
<path fill="none" stroke="black" d="M921,-1017.48C921,-1005.49 921,-992.99 921,-982.03"/>
<polygon fill="black" stroke="black" points="924.5,-982.35 921,-972.35 917.5,-982.35 924.5,-982.35"/>
</g>
<!-- Normalised -->
<g id="node11" class="node">
<title>Normalised</title>
<path fill="#43a2ca" stroke="black" d="M1060.72,-871.27C1060.72,-876.27 998.1,-880.33 921,-880.33 843.9,-880.33 781.27,-876.27 781.27,-871.27 781.27,-871.27 781.27,-789.77 781.27,-789.77 781.27,-784.77 843.9,-780.71 921,-780.71 998.1,-780.71 1060.72,-784.77 1060.72,-789.77 1060.72,-789.77 1060.72,-871.27 1060.72,-871.27"/>
<path fill="none" stroke="black" d="M1060.72,-871.27C1060.72,-866.28 998.1,-862.22 921,-862.22 843.9,-862.22 781.27,-866.28 781.27,-871.27"/>
<text xml:space="preserve" text-anchor="middle" x="921" y="-822.35" font-family="Figtree" font-size="24.00">Normalised TEI / Texts</text>
</g>
<!-- DB -->
<g id="node14" class="node">
<title>DB</title>
<path fill="#43a2ca" stroke="black" d="M1072.35,-564.27C1072.35,-569.27 1004.51,-573.33 921,-573.33 837.49,-573.33 769.65,-569.27 769.65,-564.27 769.65,-564.27 769.65,-482.77 769.65,-482.77 769.65,-477.77 837.49,-473.71 921,-473.71 1004.51,-473.71 1072.35,-477.77 1072.35,-482.77 1072.35,-482.77 1072.35,-564.27 1072.35,-564.27"/>
<path fill="none" stroke="black" d="M1072.35,-564.27C1072.35,-559.28 1004.51,-555.22 921,-555.22 837.49,-555.22 769.65,-559.28 769.65,-564.27"/>
<text xml:space="preserve" text-anchor="middle" x="921" y="-515.35" font-family="Figtree" font-size="24.00">TEI Database (PostGres)</text>
</g>
<!-- Normalised&#45;&gt;DB -->
<g id="edge13" class="edge">
<title>Normalised&#45;&gt;DB</title>
<path fill="none" stroke="black" d="M921,-780.52C921,-727.35 921,-642.4 921,-585.09"/>
<polygon fill="black" stroke="black" points="924.5,-585.17 921,-575.17 917.5,-585.17 924.5,-585.17"/>
</g>
<!-- Tokenizer&#45;&gt;Normalised -->
<g id="edge11" class="edge">
<title>Tokenizer&#45;&gt;Normalised</title>
<path fill="none" stroke="black" d="M921,-926.25C921,-916.43 921,-904.23 921,-891.89"/>
<polygon fill="black" stroke="black" points="924.5,-892.09 921,-882.09 917.5,-892.09 924.5,-892.09"/>
</g>
<!-- MacBERTh_analysis -->
<g id="node13" class="node">
<title>MacBERTh_analysis</title>
<polygon fill="#7bccc4" stroke="black" points="755.42,-567.17 328.43,-567.17 218.58,-479.87 645.57,-479.87 755.42,-567.17"/>
<text xml:space="preserve" text-anchor="middle" x="487" y="-515.35" font-family="Figtree" font-size="24.00">MacBERTh for Analysis</text>
</g>
<!-- Semantic_drift -->
<g id="node17" class="node">
<title>Semantic_drift</title>
<polygon fill="#43a2ca" stroke="black" points="1321,-416.75 1105,-416.75 1105,-356.3 1321,-356.3 1321,-416.75"/>
<polyline fill="none" stroke="black" points="1108,-388.02 1111,-385.02"/>
<polyline fill="none" stroke="black" points="1108,-385.02 1111,-388.02"/>
<polyline fill="none" stroke="black" points="1108,-359.3 1318,-359.3"/>
<text xml:space="preserve" text-anchor="middle" x="1213" y="-378.35" font-family="Figtree" font-size="24.00">Semantic Drift</text>
</g>
<!-- MacBERTh_analysis&#45;&gt;Semantic_drift -->
<g id="edge14" class="edge">
<title>MacBERTh_analysis&#45;&gt;Semantic_drift</title>
<path fill="none" stroke="black" d="M661.01,-491.75C716.13,-482 763,-473.71 763,-473.71 763,-473.71 1034.59,-432.39 1093.44,-422.71"/>
<polygon fill="black" stroke="black" points="1093.78,-426.2 1103.02,-421.01 1092.57,-419.31 1093.78,-426.2"/>
</g>
<!-- Network_analysis -->
<g id="node18" class="node">
<title>Network_analysis</title>
<polygon fill="#43a2ca" stroke="black" points="783.48,-416.75 556.52,-416.75 556.52,-356.3 783.48,-356.3 783.48,-416.75"/>
<polyline fill="none" stroke="black" points="559.52,-388.02 562.52,-385.02"/>
<polyline fill="none" stroke="black" points="559.52,-385.02 562.52,-388.02"/>
<polyline fill="none" stroke="black" points="559.52,-359.3 780.48,-359.3"/>
<text xml:space="preserve" text-anchor="middle" x="670" y="-378.35" font-family="Figtree" font-size="24.00">Network Analysis</text>
</g>
<!-- MacBERTh_analysis&#45;&gt;Network_analysis -->
<g id="edge15" class="edge">
<title>MacBERTh_analysis&#45;&gt;Network_analysis</title>
<path fill="none" stroke="black" d="M545.41,-479.44C566.91,-463.57 591.24,-445.62 612.66,-429.82"/>
<polygon fill="black" stroke="black" points="614.45,-432.85 620.42,-424.1 610.3,-427.22 614.45,-432.85"/>
</g>
<!-- Geo_temporal_mapping -->
<g id="node19" class="node">
<title>Geo_temporal_mapping</title>
<polygon fill="#43a2ca" stroke="black" points="542.23,-416.75 247.78,-416.75 247.78,-356.3 542.23,-356.3 542.23,-416.75"/>
<polyline fill="none" stroke="black" points="250.78,-388.02 253.78,-385.02"/>
<polyline fill="none" stroke="black" points="250.78,-385.02 253.78,-388.02"/>
<polyline fill="none" stroke="black" points="250.78,-359.3 539.23,-359.3"/>
<text xml:space="preserve" text-anchor="middle" x="395" y="-378.35" font-family="Figtree" font-size="24.00">Pamphlets, ideas &amp; drift</text>
</g>
<!-- MacBERTh_analysis&#45;&gt;Geo_temporal_mapping -->
<g id="edge16" class="edge">
<title>MacBERTh_analysis&#45;&gt;Geo_temporal_mapping</title>
<path fill="none" stroke="black" d="M457.64,-479.44C447.36,-464.35 435.8,-447.39 425.44,-432.19"/>
<polygon fill="black" stroke="black" points="428.54,-430.52 420.01,-424.23 422.75,-434.46 428.54,-430.52"/>
</g>
<!-- DB&#45;&gt;Semantic_drift -->
<g id="edge17" class="edge">
<title>DB&#45;&gt;Semantic_drift</title>
<path fill="none" stroke="black" d="M1024.77,-474.55C1057.76,-459.3 1093.89,-442.59 1125.6,-427.93"/>
<polygon fill="black" stroke="black" points="1126.75,-431.25 1134.35,-423.88 1123.81,-424.9 1126.75,-431.25"/>
</g>
<!-- DB&#45;&gt;Network_analysis -->
<g id="edge18" class="edge">
<title>DB&#45;&gt;Network_analysis</title>
<path fill="none" stroke="black" d="M830.38,-473.78C802.74,-458.92 772.65,-442.73 746.07,-428.44"/>
<polygon fill="black" stroke="black" points="747.87,-425.43 737.4,-423.77 744.55,-431.59 747.87,-425.43"/>
</g>
<!-- Historical_context -->
<g id="node20" class="node">
<title>Historical_context</title>
<polygon fill="#43a2ca" stroke="black" points="1090.85,-416.75 797.15,-416.75 797.15,-356.3 1090.85,-356.3 1090.85,-416.75"/>
<polyline fill="none" stroke="black" points="800.15,-388.02 803.15,-385.02"/>
<polyline fill="none" stroke="black" points="800.15,-385.02 803.15,-388.02"/>
<polyline fill="none" stroke="black" points="800.15,-359.3 1087.85,-359.3"/>
<text xml:space="preserve" text-anchor="middle" x="944" y="-378.35" font-family="Figtree" font-size="24.00">Computational outputs</text>
</g>
<!-- DB&#45;&gt;Historical_context -->
<g id="edge19" class="edge">
<title>DB&#45;&gt;Historical_context</title>
<path fill="none" stroke="black" d="M929.37,-473.4C931.55,-460.59 933.9,-446.82 936.06,-434.14"/>
<polygon fill="black" stroke="black" points="939.5,-434.8 937.73,-424.35 932.6,-433.62 939.5,-434.8"/>
</g>
<!-- IFI -->
<g id="node15" class="node">
<title>IFI</title>
<path fill="#43a2ca" stroke="black" d="M1385.47,-564.27C1385.47,-569.27 1318.48,-573.33 1236,-573.33 1153.52,-573.33 1086.53,-569.27 1086.53,-564.27 1086.53,-564.27 1086.53,-482.77 1086.53,-482.77 1086.53,-477.77 1153.52,-473.71 1236,-473.71 1318.48,-473.71 1385.47,-477.77 1385.47,-482.77 1385.47,-482.77 1385.47,-564.27 1385.47,-564.27"/>
<path fill="none" stroke="black" d="M1385.47,-564.27C1385.47,-559.28 1318.48,-555.22 1236,-555.22 1153.52,-555.22 1086.53,-559.28 1086.53,-564.27"/>
<text xml:space="preserve" text-anchor="middle" x="1236" y="-515.35" font-family="Figtree" font-size="24.00">Inverse Frequency Index</text>
</g>
<!-- IFI&#45;&gt;Semantic_drift -->
<g id="edge20" class="edge">
<title>IFI&#45;&gt;Semantic_drift</title>
<path fill="none" stroke="black" d="M1227.63,-473.4C1225.45,-460.59 1223.1,-446.82 1220.94,-434.14"/>
<polygon fill="black" stroke="black" points="1224.4,-433.62 1219.27,-424.35 1217.5,-434.8 1224.4,-433.62"/>
</g>
<!-- RAG_index -->
<g id="node16" class="node">
<title>RAG_index</title>
<path fill="#43a2ca" stroke="black" d="M1642.35,-564.27C1642.35,-569.27 1587.96,-573.33 1521,-573.33 1454.04,-573.33 1399.65,-569.27 1399.65,-564.27 1399.65,-564.27 1399.65,-482.77 1399.65,-482.77 1399.65,-477.77 1454.04,-473.71 1521,-473.71 1587.96,-473.71 1642.35,-477.77 1642.35,-482.77 1642.35,-482.77 1642.35,-564.27 1642.35,-564.27"/>
<path fill="none" stroke="black" d="M1642.35,-564.27C1642.35,-559.28 1587.96,-555.22 1521,-555.22 1454.04,-555.22 1399.65,-559.28 1399.65,-564.27"/>
<text xml:space="preserve" text-anchor="middle" x="1521" y="-515.35" font-family="Figtree" font-size="24.00">RAG Index (FAISS)</text>
</g>
<!-- RAG_index&#45;&gt;Semantic_drift -->
<g id="edge21" class="edge">
<title>RAG_index&#45;&gt;Semantic_drift</title>
<path fill="none" stroke="black" d="M1415.43,-476.25C1379.3,-460.41 1339.2,-442.84 1304.29,-427.53"/>
<polygon fill="black" stroke="black" points="1306.06,-424.49 1295.5,-423.68 1303.25,-430.9 1306.06,-424.49"/>
</g>
<!-- Interpretation -->
<g id="node21" class="node">
<title>Interpretation</title>
<polygon fill="#43a2ca" stroke="black" points="1016.85,-228.75 597.15,-228.75 597.15,-168.3 1016.85,-168.3 1016.85,-228.75"/>
<polyline fill="none" stroke="black" points="600.15,-200.02 603.15,-197.02"/>
<polyline fill="none" stroke="black" points="600.15,-197.02 603.15,-200.02"/>
<polyline fill="none" stroke="black" points="600.15,-171.3 1013.85,-171.3"/>
<text xml:space="preserve" text-anchor="middle" x="807" y="-190.35" font-family="Figtree" font-size="24.00">Historically&#45;informed Interpretation</text>
</g>
<!-- Semantic_drift&#45;&gt;Interpretation -->
<g id="edge22" class="edge">
<title>Semantic_drift&#45;&gt;Interpretation</title>
<path fill="none" stroke="black" d="M1135.2,-349.88C1066.62,-318.46 966.76,-272.71 895.22,-239.94"/>
<polygon fill="black" stroke="black" points="896.81,-236.81 886.26,-235.83 893.89,-243.18 896.81,-236.81"/>
</g>
<!-- Network_analysis&#45;&gt;Interpretation -->
<g id="edge23" class="edge">
<title>Network_analysis&#45;&gt;Interpretation</title>
<path fill="none" stroke="black" d="M696.09,-350.1C718.21,-320.07 750.05,-276.84 773.95,-244.4"/>
<polygon fill="black" stroke="black" points="776.76,-246.47 779.88,-236.35 771.13,-242.32 776.76,-246.47"/>
</g>
<!-- Geo_temporal_mapping&#45;&gt;Interpretation -->
<g id="edge24" class="edge">
<title>Geo_temporal_mapping&#45;&gt;Interpretation</title>
<path fill="none" stroke="black" d="M473.95,-349.88C543.69,-318.4 645.29,-272.52 717.92,-239.74"/>
<polygon fill="black" stroke="black" points="718.91,-243.13 726.59,-235.82 716.03,-236.75 718.91,-243.13"/>
</g>
<!-- Historical_context&#45;&gt;Interpretation -->
<g id="edge25" class="edge">
<title>Historical_context&#45;&gt;Interpretation</title>
<path fill="none" stroke="black" d="M917.91,-350.1C895.79,-320.07 863.95,-276.84 840.05,-244.4"/>
<polygon fill="black" stroke="black" points="842.87,-242.32 834.12,-236.35 837.24,-246.47 842.87,-242.32"/>
</g>
<!-- Meta -->
<g id="node22" class="node">
<title>Meta</title>
<polygon fill="#43a2ca" stroke="black" points="1091.47,-109.75 522.52,-109.75 522.52,-49.3 1091.47,-49.3 1091.47,-109.75"/>
<polyline fill="none" stroke="black" points="525.52,-81.02 528.52,-78.02"/>
<polyline fill="none" stroke="black" points="525.52,-78.02 528.52,-81.02"/>
<polyline fill="none" stroke="black" points="525.52,-52.3 1088.47,-52.3"/>
<text xml:space="preserve" text-anchor="middle" x="807" y="-71.35" font-family="Figtree" font-size="24.00">Conceptual Metaphors as Deep Semantic Frames</text>
</g>
<!-- Interpretation&#45;&gt;Meta -->
<g id="edge26" class="edge">
<title>Interpretation&#45;&gt;Meta</title>
<path fill="none" stroke="black" d="M807,-162.1C807,-151.2 807,-139.04 807,-127.49"/>
<polygon fill="black" stroke="black" points="810.5,-127.74 807,-117.74 803.5,-127.74 810.5,-127.74"/>
</g>
</g>
</svg>
